  0
SECTION
  2
BLOCKS
  0
ENDSEC
  0
SECTION
  2
ENTITIES
  0
LINE
  8
0
 10
-39.433
 20
58.1
 11
-7.5
 21
58.1
  0
LINE
  8
0
 10
-7.5
 20
58.1
 11
-7.5
 21
69.0803
  0
LINE
  8
0
 10
-7.5
 20
69.0803
 11
-41.0609
 21
69.0803
  0
LINE
  8
0
 10
-41.0609
 20
69.0803
 11
-42.3068
 21
68.9229
  0
LINE
  8
0
 10
-42.3068
 20
68.9229
 11
-43.5232
 21
68.6105
  0
LINE
  8
0
 10
-43.5232
 20
68.6105
 11
-44.6908
 21
68.1483
  0
LINE
  8
0
 10
-44.6908
 20
68.1483
 11
-45.7913
 21
67.5433
  0
LINE
  8
0
 10
-45.7913
 20
67.5433
 11
-46.8072
 21
66.8051
  0
LINE
  8
0
 10
-46.8072
 20
66.8051
 11
-47.7227
 21
65.9455
  0
LINE
  8
0
 10
-47.7227
 20
65.9455
 11
-48.5232
 21
64.9778
  0
LINE
  8
0
 10
-48.5232
 20
64.9778
 11
-49.1961
 21
63.9175
  0
LINE
  8
0
 10
-49.1961
 20
63.9175
 11
-49.7308
 21
62.7812
  0
LINE
  8
0
 10
-49.7308
 20
62.7812
 11
-50.1188
 21
61.5869
  0
LINE
  8
0
 10
-50.1188
 20
61.5869
 11
-50.3541
 21
60.3533
  0
LINE
  8
0
 10
-50.3541
 20
60.3533
 11
-50.433
 21
59.1
  0
LINE
  8
0
 10
-50.433
 20
59.1
 11
-50.433
 21
-40.433
  0
LINE
  8
0
 10
-50.433
 20
-40.433
 11
-50.3541
 21
-41.6863
  0
LINE
  8
0
 10
-50.3541
 20
-41.6863
 11
-50.1188
 21
-42.9199
  0
LINE
  8
0
 10
-50.1188
 20
-42.9199
 11
-49.7308
 21
-44.1142
  0
LINE
  8
0
 10
-49.7308
 20
-44.1142
 11
-49.1961
 21
-45.2505
  0
LINE
  8
0
 10
-49.1961
 20
-45.2505
 11
-48.5232
 21
-46.3109
  0
LINE
  8
0
 10
-48.5232
 20
-46.3109
 11
-47.7227
 21
-47.2785
  0
LINE
  8
0
 10
-47.7227
 20
-47.2785
 11
-46.8072
 21
-48.1381
  0
LINE
  8
0
 10
-46.8072
 20
-48.1381
 11
-45.7913
 21
-48.8763
  0
LINE
  8
0
 10
-45.7913
 20
-48.8763
 11
-44.6908
 21
-49.4813
  0
LINE
  8
0
 10
-44.6908
 20
-49.4813
 11
-43.5232
 21
-49.9436
  0
LINE
  8
0
 10
-43.5232
 20
-49.9436
 11
-42.3068
 21
-50.2559
  0
LINE
  8
0
 10
-42.3068
 20
-50.2559
 11
-41.0609
 21
-50.4133
  0
LINE
  8
0
 10
-41.0609
 20
-50.4133
 11
41.0609
 21
-50.4133
  0
LINE
  8
0
 10
41.0609
 20
-50.4133
 11
42.3068
 21
-50.2559
  0
LINE
  8
0
 10
42.3068
 20
-50.2559
 11
43.5232
 21
-49.9436
  0
LINE
  8
0
 10
43.5232
 20
-49.9436
 11
44.6908
 21
-49.4813
  0
LINE
  8
0
 10
44.6908
 20
-49.4813
 11
45.7913
 21
-48.8763
  0
LINE
  8
0
 10
45.7913
 20
-48.8763
 11
46.8072
 21
-48.1381
  0
LINE
  8
0
 10
46.8072
 20
-48.1381
 11
47.7227
 21
-47.2785
  0
LINE
  8
0
 10
47.7227
 20
-47.2785
 11
48.5232
 21
-46.3109
  0
LINE
  8
0
 10
48.5232
 20
-46.3109
 11
49.1961
 21
-45.2505
  0
LINE
  8
0
 10
49.1961
 20
-45.2505
 11
49.7308
 21
-44.1142
  0
LINE
  8
0
 10
49.7308
 20
-44.1142
 11
50.1188
 21
-42.9199
  0
LINE
  8
0
 10
50.1188
 20
-42.9199
 11
50.3541
 21
-41.6863
  0
LINE
  8
0
 10
50.3541
 20
-41.6863
 11
50.433
 21
-40.433
  0
LINE
  8
0
 10
50.433
 20
-40.433
 11
50.433
 21
59.1
  0
LINE
  8
0
 10
50.433
 20
59.1
 11
50.3541
 21
60.3533
  0
LINE
  8
0
 10
50.3541
 20
60.3533
 11
50.1188
 21
61.5869
  0
LINE
  8
0
 10
50.1188
 20
61.5869
 11
49.7308
 21
62.7812
  0
LINE
  8
0
 10
49.7308
 20
62.7812
 11
49.1961
 21
63.9175
  0
LINE
  8
0
 10
49.1961
 20
63.9175
 11
48.5232
 21
64.9778
  0
LINE
  8
0
 10
48.5232
 20
64.9778
 11
47.7227
 21
65.9455
  0
LINE
  8
0
 10
47.7227
 20
65.9455
 11
46.8072
 21
66.8051
  0
LINE
  8
0
 10
46.8072
 20
66.8051
 11
45.7913
 21
67.5433
  0
LINE
  8
0
 10
45.7913
 20
67.5433
 11
44.6908
 21
68.1483
  0
LINE
  8
0
 10
44.6908
 20
68.1483
 11
43.5232
 21
68.6105
  0
LINE
  8
0
 10
43.5232
 20
68.6105
 11
42.3068
 21
68.9229
  0
LINE
  8
0
 10
42.3068
 20
68.9229
 11
41.0609
 21
69.0803
  0
LINE
  8
0
 10
41.0609
 20
69.0803
 11
7.5
 21
69.0803
  0
LINE
  8
0
 10
7.5
 20
69.0803
 11
7.5
 21
58.1
  0
LINE
  8
0
 10
7.5
 20
58.1
 11
39.433
 21
58.1
  0
LINE
  8
0
 10
39.433
 20
58.1
 11
39.433
 21
38.1
  0
LINE
  8
0
 10
39.433
 20
38.1
 11
-39.433
 21
38.1
  0
LINE
  8
0
 10
-39.433
 20
38.1
 11
-39.433
 21
58.1
  0
LINE
  8
0
 10
21.4433
 20
60.9034
 11
21.2314
 21
60.9301
  0
LINE
  8
0
 10
21.2314
 20
60.9301
 11
21.0247
 21
60.9832
  0
LINE
  8
0
 10
21.0247
 20
60.9832
 11
20.8262
 21
61.0618
  0
LINE
  8
0
 10
20.8262
 20
61.0618
 11
20.6391
 21
61.1646
  0
LINE
  8
0
 10
20.6391
 20
61.1646
 11
20.4664
 21
61.2901
  0
LINE
  8
0
 10
20.4664
 20
61.2901
 11
20.3107
 21
61.4363
  0
LINE
  8
0
 10
20.3107
 20
61.4363
 11
20.1747
 21
61.6008
  0
LINE
  8
0
 10
20.1747
 20
61.6008
 11
20.0603
 21
61.781
  0
LINE
  8
0
 10
20.0603
 20
61.781
 11
19.9694
 21
61.9742
  0
LINE
  8
0
 10
19.9694
 20
61.9742
 11
19.9034
 21
62.1772
  0
LINE
  8
0
 10
19.9034
 20
62.1772
 11
19.8634
 21
62.3869
  0
LINE
  8
0
 10
19.8634
 20
62.3869
 11
19.85
 21
62.6
  0
LINE
  8
0
 10
19.85
 20
62.6
 11
19.8634
 21
62.8131
  0
LINE
  8
0
 10
19.8634
 20
62.8131
 11
19.9034
 21
63.0228
  0
LINE
  8
0
 10
19.9034
 20
63.0228
 11
19.9694
 21
63.2258
  0
LINE
  8
0
 10
19.9694
 20
63.2258
 11
20.0603
 21
63.419
  0
LINE
  8
0
 10
20.0603
 20
63.419
 11
20.1747
 21
63.5992
  0
LINE
  8
0
 10
20.1747
 20
63.5992
 11
20.3107
 21
63.7637
  0
LINE
  8
0
 10
20.3107
 20
63.7637
 11
20.4664
 21
63.9099
  0
LINE
  8
0
 10
20.4664
 20
63.9099
 11
20.6391
 21
64.0354
  0
LINE
  8
0
 10
20.6391
 20
64.0354
 11
20.8262
 21
64.1382
  0
LINE
  8
0
 10
20.8262
 20
64.1382
 11
21.0247
 21
64.2168
  0
LINE
  8
0
 10
21.0247
 20
64.2168
 11
21.2314
 21
64.2699
  0
LINE
  8
0
 10
21.2314
 20
64.2699
 11
21.4433
 21
64.2966
  0
LINE
  8
0
 10
21.4433
 20
64.2966
 11
21.6567
 21
64.2966
  0
LINE
  8
0
 10
21.6567
 20
64.2966
 11
21.8685
 21
64.2699
  0
LINE
  8
0
 10
21.8685
 20
64.2699
 11
22.0753
 21
64.2168
  0
LINE
  8
0
 10
22.0753
 20
64.2168
 11
22.2738
 21
64.1382
  0
LINE
  8
0
 10
22.2738
 20
64.1382
 11
22.4609
 21
64.0354
  0
LINE
  8
0
 10
22.4609
 20
64.0354
 11
22.6336
 21
63.9099
  0
LINE
  8
0
 10
22.6336
 20
63.9099
 11
22.7892
 21
63.7637
  0
LINE
  8
0
 10
22.7892
 20
63.7637
 11
22.9253
 21
63.5992
  0
LINE
  8
0
 10
22.9253
 20
63.5992
 11
23.0397
 21
63.419
  0
LINE
  8
0
 10
23.0397
 20
63.419
 11
23.1306
 21
63.2258
  0
LINE
  8
0
 10
23.1306
 20
63.2258
 11
23.1966
 21
63.0228
  0
LINE
  8
0
 10
23.1966
 20
63.0228
 11
23.2366
 21
62.8131
  0
LINE
  8
0
 10
23.2366
 20
62.8131
 11
23.25
 21
62.6
  0
LINE
  8
0
 10
23.25
 20
62.6
 11
23.2366
 21
62.3869
  0
LINE
  8
0
 10
23.2366
 20
62.3869
 11
23.1966
 21
62.1772
  0
LINE
  8
0
 10
23.1966
 20
62.1772
 11
23.1306
 21
61.9742
  0
LINE
  8
0
 10
23.1306
 20
61.9742
 11
23.0397
 21
61.781
  0
LINE
  8
0
 10
23.0397
 20
61.781
 11
22.9253
 21
61.6008
  0
LINE
  8
0
 10
22.9253
 20
61.6008
 11
22.7892
 21
61.4363
  0
LINE
  8
0
 10
22.7892
 20
61.4363
 11
22.6336
 21
61.2901
  0
LINE
  8
0
 10
22.6336
 20
61.2901
 11
22.4609
 21
61.1646
  0
LINE
  8
0
 10
22.4609
 20
61.1646
 11
22.2738
 21
61.0618
  0
LINE
  8
0
 10
22.2738
 20
61.0618
 11
22.0753
 21
60.9832
  0
LINE
  8
0
 10
22.0753
 20
60.9832
 11
21.8685
 21
60.9301
  0
LINE
  8
0
 10
21.8685
 20
60.9301
 11
21.6567
 21
60.9034
  0
LINE
  8
0
 10
21.6567
 20
60.9034
 11
21.4433
 21
60.9034
  0
LINE
  8
0
 10
-21.6567
 20
60.9034
 11
-21.8685
 21
60.9301
  0
LINE
  8
0
 10
-21.8685
 20
60.9301
 11
-22.0753
 21
60.9832
  0
LINE
  8
0
 10
-22.0753
 20
60.9832
 11
-22.2738
 21
61.0618
  0
LINE
  8
0
 10
-22.2738
 20
61.0618
 11
-22.4609
 21
61.1646
  0
LINE
  8
0
 10
-22.4609
 20
61.1646
 11
-22.6336
 21
61.2901
  0
LINE
  8
0
 10
-22.6336
 20
61.2901
 11
-22.7892
 21
61.4363
  0
LINE
  8
0
 10
-22.7892
 20
61.4363
 11
-22.9253
 21
61.6008
  0
LINE
  8
0
 10
-22.9253
 20
61.6008
 11
-23.0397
 21
61.781
  0
LINE
  8
0
 10
-23.0397
 20
61.781
 11
-23.1306
 21
61.9742
  0
LINE
  8
0
 10
-23.1306
 20
61.9742
 11
-23.1966
 21
62.1772
  0
LINE
  8
0
 10
-23.1966
 20
62.1772
 11
-23.2366
 21
62.3869
  0
LINE
  8
0
 10
-23.2366
 20
62.3869
 11
-23.25
 21
62.6
  0
LINE
  8
0
 10
-23.25
 20
62.6
 11
-23.2366
 21
62.8131
  0
LINE
  8
0
 10
-23.2366
 20
62.8131
 11
-23.1966
 21
63.0228
  0
LINE
  8
0
 10
-23.1966
 20
63.0228
 11
-23.1306
 21
63.2258
  0
LINE
  8
0
 10
-23.1306
 20
63.2258
 11
-23.0397
 21
63.419
  0
LINE
  8
0
 10
-23.0397
 20
63.419
 11
-22.9253
 21
63.5992
  0
LINE
  8
0
 10
-22.9253
 20
63.5992
 11
-22.7892
 21
63.7637
  0
LINE
  8
0
 10
-22.7892
 20
63.7637
 11
-22.6336
 21
63.9099
  0
LINE
  8
0
 10
-22.6336
 20
63.9099
 11
-22.4609
 21
64.0354
  0
LINE
  8
0
 10
-22.4609
 20
64.0354
 11
-22.2738
 21
64.1382
  0
LINE
  8
0
 10
-22.2738
 20
64.1382
 11
-22.0753
 21
64.2168
  0
LINE
  8
0
 10
-22.0753
 20
64.2168
 11
-21.8685
 21
64.2699
  0
LINE
  8
0
 10
-21.8685
 20
64.2699
 11
-21.6567
 21
64.2966
  0
LINE
  8
0
 10
-21.6567
 20
64.2966
 11
-21.4433
 21
64.2966
  0
LINE
  8
0
 10
-21.4433
 20
64.2966
 11
-21.2314
 21
64.2699
  0
LINE
  8
0
 10
-21.2314
 20
64.2699
 11
-21.0247
 21
64.2168
  0
LINE
  8
0
 10
-21.0247
 20
64.2168
 11
-20.8262
 21
64.1382
  0
LINE
  8
0
 10
-20.8262
 20
64.1382
 11
-20.6391
 21
64.0354
  0
LINE
  8
0
 10
-20.6391
 20
64.0354
 11
-20.4664
 21
63.9099
  0
LINE
  8
0
 10
-20.4664
 20
63.9099
 11
-20.3107
 21
63.7637
  0
LINE
  8
0
 10
-20.3107
 20
63.7637
 11
-20.1747
 21
63.5992
  0
LINE
  8
0
 10
-20.1747
 20
63.5992
 11
-20.0603
 21
63.419
  0
LINE
  8
0
 10
-20.0603
 20
63.419
 11
-19.9694
 21
63.2258
  0
LINE
  8
0
 10
-19.9694
 20
63.2258
 11
-19.9034
 21
63.0228
  0
LINE
  8
0
 10
-19.9034
 20
63.0228
 11
-19.8634
 21
62.8131
  0
LINE
  8
0
 10
-19.8634
 20
62.8131
 11
-19.85
 21
62.6
  0
LINE
  8
0
 10
-19.85
 20
62.6
 11
-19.8634
 21
62.3869
  0
LINE
  8
0
 10
-19.8634
 20
62.3869
 11
-19.9034
 21
62.1772
  0
LINE
  8
0
 10
-19.9034
 20
62.1772
 11
-19.9694
 21
61.9742
  0
LINE
  8
0
 10
-19.9694
 20
61.9742
 11
-20.0603
 21
61.781
  0
LINE
  8
0
 10
-20.0603
 20
61.781
 11
-20.1747
 21
61.6008
  0
LINE
  8
0
 10
-20.1747
 20
61.6008
 11
-20.3107
 21
61.4363
  0
LINE
  8
0
 10
-20.3107
 20
61.4363
 11
-20.4664
 21
61.2901
  0
LINE
  8
0
 10
-20.4664
 20
61.2901
 11
-20.6391
 21
61.1646
  0
LINE
  8
0
 10
-20.6391
 20
61.1646
 11
-20.8262
 21
61.0618
  0
LINE
  8
0
 10
-20.8262
 20
61.0618
 11
-21.0247
 21
60.9832
  0
LINE
  8
0
 10
-21.0247
 20
60.9832
 11
-21.2314
 21
60.9301
  0
LINE
  8
0
 10
-21.2314
 20
60.9301
 11
-21.4433
 21
60.9034
  0
LINE
  8
0
 10
-21.4433
 20
60.9034
 11
-21.6567
 21
60.9034
  0
LINE
  8
0
 10
-44.0397
 20
40.37
 11
-44.2515
 21
40.3968
  0
LINE
  8
0
 10
-44.2515
 20
40.3968
 11
-44.4583
 21
40.4499
  0
LINE
  8
0
 10
-44.4583
 20
40.4499
 11
-44.6568
 21
40.5285
  0
LINE
  8
0
 10
-44.6568
 20
40.5285
 11
-44.8439
 21
40.6313
  0
LINE
  8
0
 10
-44.8439
 20
40.6313
 11
-45.0166
 21
40.7568
  0
LINE
  8
0
 10
-45.0166
 20
40.7568
 11
-45.1722
 21
40.9029
  0
LINE
  8
0
 10
-45.1722
 20
40.9029
 11
-45.3083
 21
41.0674
  0
LINE
  8
0
 10
-45.3083
 20
41.0674
 11
-45.4227
 21
41.2477
  0
LINE
  8
0
 10
-45.4227
 20
41.2477
 11
-45.5136
 21
41.4408
  0
LINE
  8
0
 10
-45.5136
 20
41.4408
 11
-45.5796
 21
41.6439
  0
LINE
  8
0
 10
-45.5796
 20
41.6439
 11
-45.6196
 21
41.8536
  0
LINE
  8
0
 10
-45.6196
 20
41.8536
 11
-45.633
 21
42.0667
  0
LINE
  8
0
 10
-45.633
 20
42.0667
 11
-45.6196
 21
42.2797
  0
LINE
  8
0
 10
-45.6196
 20
42.2797
 11
-45.5796
 21
42.4894
  0
LINE
  8
0
 10
-45.5796
 20
42.4894
 11
-45.5136
 21
42.6925
  0
LINE
  8
0
 10
-45.5136
 20
42.6925
 11
-45.4227
 21
42.8856
  0
LINE
  8
0
 10
-45.4227
 20
42.8856
 11
-45.3083
 21
43.0659
  0
LINE
  8
0
 10
-45.3083
 20
43.0659
 11
-45.1722
 21
43.2304
  0
LINE
  8
0
 10
-45.1722
 20
43.2304
 11
-45.0166
 21
43.3765
  0
LINE
  8
0
 10
-45.0166
 20
43.3765
 11
-44.8439
 21
43.502
  0
LINE
  8
0
 10
-44.8439
 20
43.502
 11
-44.6568
 21
43.6049
  0
LINE
  8
0
 10
-44.6568
 20
43.6049
 11
-44.4583
 21
43.6835
  0
LINE
  8
0
 10
-44.4583
 20
43.6835
 11
-44.2515
 21
43.7365
  0
LINE
  8
0
 10
-44.2515
 20
43.7365
 11
-44.0397
 21
43.7633
  0
LINE
  8
0
 10
-44.0397
 20
43.7633
 11
-43.8262
 21
43.7633
  0
LINE
  8
0
 10
-43.8262
 20
43.7633
 11
-43.6144
 21
43.7365
  0
LINE
  8
0
 10
-43.6144
 20
43.7365
 11
-43.4077
 21
43.6835
  0
LINE
  8
0
 10
-43.4077
 20
43.6835
 11
-43.2092
 21
43.6049
  0
LINE
  8
0
 10
-43.2092
 20
43.6049
 11
-43.0221
 21
43.502
  0
LINE
  8
0
 10
-43.0221
 20
43.502
 11
-42.8494
 21
43.3765
  0
LINE
  8
0
 10
-42.8494
 20
43.3765
 11
-42.6937
 21
43.2304
  0
LINE
  8
0
 10
-42.6937
 20
43.2304
 11
-42.5577
 21
43.0659
  0
LINE
  8
0
 10
-42.5577
 20
43.0659
 11
-42.4433
 21
42.8856
  0
LINE
  8
0
 10
-42.4433
 20
42.8856
 11
-42.3524
 21
42.6925
  0
LINE
  8
0
 10
-42.3524
 20
42.6925
 11
-42.2864
 21
42.4894
  0
LINE
  8
0
 10
-42.2864
 20
42.4894
 11
-42.2464
 21
42.2797
  0
LINE
  8
0
 10
-42.2464
 20
42.2797
 11
-42.233
 21
42.0667
  0
LINE
  8
0
 10
-42.233
 20
42.0667
 11
-42.2464
 21
41.8536
  0
LINE
  8
0
 10
-42.2464
 20
41.8536
 11
-42.2864
 21
41.6439
  0
LINE
  8
0
 10
-42.2864
 20
41.6439
 11
-42.3524
 21
41.4408
  0
LINE
  8
0
 10
-42.3524
 20
41.4408
 11
-42.4433
 21
41.2477
  0
LINE
  8
0
 10
-42.4433
 20
41.2477
 11
-42.5577
 21
41.0674
  0
LINE
  8
0
 10
-42.5577
 20
41.0674
 11
-42.6937
 21
40.9029
  0
LINE
  8
0
 10
-42.6937
 20
40.9029
 11
-42.8494
 21
40.7568
  0
LINE
  8
0
 10
-42.8494
 20
40.7568
 11
-43.0221
 21
40.6313
  0
LINE
  8
0
 10
-43.0221
 20
40.6313
 11
-43.2092
 21
40.5285
  0
LINE
  8
0
 10
-43.2092
 20
40.5285
 11
-43.4077
 21
40.4499
  0
LINE
  8
0
 10
-43.4077
 20
40.4499
 11
-43.6144
 21
40.3968
  0
LINE
  8
0
 10
-43.6144
 20
40.3968
 11
-43.8262
 21
40.37
  0
LINE
  8
0
 10
-43.8262
 20
40.37
 11
-44.0397
 21
40.37
  0
LINE
  8
0
 10
43.8262
 20
40.37
 11
43.6144
 21
40.3968
  0
LINE
  8
0
 10
43.6144
 20
40.3968
 11
43.4077
 21
40.4499
  0
LINE
  8
0
 10
43.4077
 20
40.4499
 11
43.2092
 21
40.5285
  0
LINE
  8
0
 10
43.2092
 20
40.5285
 11
43.0221
 21
40.6313
  0
LINE
  8
0
 10
43.0221
 20
40.6313
 11
42.8494
 21
40.7568
  0
LINE
  8
0
 10
42.8494
 20
40.7568
 11
42.6937
 21
40.9029
  0
LINE
  8
0
 10
42.6937
 20
40.9029
 11
42.5577
 21
41.0674
  0
LINE
  8
0
 10
42.5577
 20
41.0674
 11
42.4433
 21
41.2477
  0
LINE
  8
0
 10
42.4433
 20
41.2477
 11
42.3524
 21
41.4408
  0
LINE
  8
0
 10
42.3524
 20
41.4408
 11
42.2864
 21
41.6439
  0
LINE
  8
0
 10
42.2864
 20
41.6439
 11
42.2464
 21
41.8536
  0
LINE
  8
0
 10
42.2464
 20
41.8536
 11
42.233
 21
42.0667
  0
LINE
  8
0
 10
42.233
 20
42.0667
 11
42.2464
 21
42.2797
  0
LINE
  8
0
 10
42.2464
 20
42.2797
 11
42.2864
 21
42.4894
  0
LINE
  8
0
 10
42.2864
 20
42.4894
 11
42.3524
 21
42.6925
  0
LINE
  8
0
 10
42.3524
 20
42.6925
 11
42.4433
 21
42.8856
  0
LINE
  8
0
 10
42.4433
 20
42.8856
 11
42.5577
 21
43.0659
  0
LINE
  8
0
 10
42.5577
 20
43.0659
 11
42.6937
 21
43.2304
  0
LINE
  8
0
 10
42.6937
 20
43.2304
 11
42.8494
 21
43.3765
  0
LINE
  8
0
 10
42.8494
 20
43.3765
 11
43.0221
 21
43.502
  0
LINE
  8
0
 10
43.0221
 20
43.502
 11
43.2092
 21
43.6049
  0
LINE
  8
0
 10
43.2092
 20
43.6049
 11
43.4077
 21
43.6835
  0
LINE
  8
0
 10
43.4077
 20
43.6835
 11
43.6144
 21
43.7365
  0
LINE
  8
0
 10
43.6144
 20
43.7365
 11
43.8262
 21
43.7633
  0
LINE
  8
0
 10
43.8262
 20
43.7633
 11
44.0397
 21
43.7633
  0
LINE
  8
0
 10
44.0397
 20
43.7633
 11
44.2515
 21
43.7365
  0
LINE
  8
0
 10
44.2515
 20
43.7365
 11
44.4583
 21
43.6835
  0
LINE
  8
0
 10
44.4583
 20
43.6835
 11
44.6568
 21
43.6049
  0
LINE
  8
0
 10
44.6568
 20
43.6049
 11
44.8439
 21
43.502
  0
LINE
  8
0
 10
44.8439
 20
43.502
 11
45.0166
 21
43.3765
  0
LINE
  8
0
 10
45.0166
 20
43.3765
 11
45.1722
 21
43.2304
  0
LINE
  8
0
 10
45.1722
 20
43.2304
 11
45.3083
 21
43.0659
  0
LINE
  8
0
 10
45.3083
 20
43.0659
 11
45.4227
 21
42.8856
  0
LINE
  8
0
 10
45.4227
 20
42.8856
 11
45.5136
 21
42.6925
  0
LINE
  8
0
 10
45.5136
 20
42.6925
 11
45.5796
 21
42.4894
  0
LINE
  8
0
 10
45.5796
 20
42.4894
 11
45.6196
 21
42.2797
  0
LINE
  8
0
 10
45.6196
 20
42.2797
 11
45.633
 21
42.0667
  0
LINE
  8
0
 10
45.633
 20
42.0667
 11
45.6196
 21
41.8536
  0
LINE
  8
0
 10
45.6196
 20
41.8536
 11
45.5796
 21
41.6439
  0
LINE
  8
0
 10
45.5796
 20
41.6439
 11
45.5136
 21
41.4408
  0
LINE
  8
0
 10
45.5136
 20
41.4408
 11
45.4227
 21
41.2477
  0
LINE
  8
0
 10
45.4227
 20
41.2477
 11
45.3083
 21
41.0674
  0
LINE
  8
0
 10
45.3083
 20
41.0674
 11
45.1722
 21
40.9029
  0
LINE
  8
0
 10
45.1722
 20
40.9029
 11
45.0166
 21
40.7568
  0
LINE
  8
0
 10
45.0166
 20
40.7568
 11
44.8439
 21
40.6313
  0
LINE
  8
0
 10
44.8439
 20
40.6313
 11
44.6568
 21
40.5285
  0
LINE
  8
0
 10
44.6568
 20
40.5285
 11
44.4583
 21
40.4499
  0
LINE
  8
0
 10
44.4583
 20
40.4499
 11
44.2515
 21
40.3968
  0
LINE
  8
0
 10
44.2515
 20
40.3968
 11
44.0397
 21
40.37
  0
LINE
  8
0
 10
44.0397
 20
40.37
 11
43.8262
 21
40.37
  0
LINE
  8
0
 10
3.02499
 20
21.575
 11
2.93817
 21
21.5826
  0
LINE
  8
0
 10
2.93817
 20
21.5826
 11
2.85399
 21
21.6051
  0
LINE
  8
0
 10
2.85399
 20
21.6051
 11
2.77499
 21
21.642
  0
LINE
  8
0
 10
2.77499
 20
21.642
 11
2.7036
 21
21.692
  0
LINE
  8
0
 10
2.7036
 20
21.692
 11
2.64197
 21
21.7536
  0
LINE
  8
0
 10
2.64197
 20
21.7536
 11
2.59198
 21
21.825
  0
LINE
  8
0
 10
2.59198
 20
21.825
 11
2.55515
 21
21.904
  0
LINE
  8
0
 10
2.55515
 20
21.904
 11
2.53259
 21
21.9882
  0
LINE
  8
0
 10
2.53259
 20
21.9882
 11
2.52499
 21
22.075
  0
LINE
  8
0
 10
2.52499
 20
22.075
 11
2.52499
 21
35.075
  0
LINE
  8
0
 10
2.52499
 20
35.075
 11
2.53259
 21
35.1618
  0
LINE
  8
0
 10
2.53259
 20
35.1618
 11
2.55515
 21
35.246
  0
LINE
  8
0
 10
2.55515
 20
35.246
 11
2.59198
 21
35.325
  0
LINE
  8
0
 10
2.59198
 20
35.325
 11
2.64197
 21
35.3964
  0
LINE
  8
0
 10
2.64197
 20
35.3964
 11
2.7036
 21
35.458
  0
LINE
  8
0
 10
2.7036
 20
35.458
 11
2.77499
 21
35.508
  0
LINE
  8
0
 10
2.77499
 20
35.508
 11
2.85399
 21
35.5448
  0
LINE
  8
0
 10
2.85399
 20
35.5448
 11
2.93817
 21
35.5674
  0
LINE
  8
0
 10
2.93817
 20
35.5674
 11
3.02499
 21
35.575
  0
LINE
  8
0
 10
3.02499
 20
35.575
 11
16.025
 21
35.575
  0
LINE
  8
0
 10
16.025
 20
35.575
 11
16.1118
 21
35.5674
  0
LINE
  8
0
 10
16.1118
 20
35.5674
 11
16.196
 21
35.5448
  0
LINE
  8
0
 10
16.196
 20
35.5448
 11
16.275
 21
35.508
  0
LINE
  8
0
 10
16.275
 20
35.508
 11
16.3464
 21
35.458
  0
LINE
  8
0
 10
16.3464
 20
35.458
 11
16.408
 21
35.3964
  0
LINE
  8
0
 10
16.408
 20
35.3964
 11
16.458
 21
35.325
  0
LINE
  8
0
 10
16.458
 20
35.325
 11
16.4948
 21
35.246
  0
LINE
  8
0
 10
16.4948
 20
35.246
 11
16.5174
 21
35.1618
  0
LINE
  8
0
 10
16.5174
 20
35.1618
 11
16.525
 21
35.075
  0
LINE
  8
0
 10
16.525
 20
35.075
 11
16.525
 21
22.075
  0
LINE
  8
0
 10
16.525
 20
22.075
 11
16.5174
 21
21.9882
  0
LINE
  8
0
 10
16.5174
 20
21.9882
 11
16.4948
 21
21.904
  0
LINE
  8
0
 10
16.4948
 20
21.904
 11
16.458
 21
21.825
  0
LINE
  8
0
 10
16.458
 20
21.825
 11
16.408
 21
21.7536
  0
LINE
  8
0
 10
16.408
 20
21.7536
 11
16.3464
 21
21.692
  0
LINE
  8
0
 10
16.3464
 20
21.692
 11
16.275
 21
21.642
  0
LINE
  8
0
 10
16.275
 20
21.642
 11
16.196
 21
21.6051
  0
LINE
  8
0
 10
16.196
 20
21.6051
 11
16.1118
 21
21.5826
  0
LINE
  8
0
 10
16.1118
 20
21.5826
 11
16.025
 21
21.575
  0
LINE
  8
0
 10
16.025
 20
21.575
 11
3.02499
 21
21.575
  0
LINE
  8
0
 10
22.075
 20
21.575
 11
21.9882
 21
21.5826
  0
LINE
  8
0
 10
21.9882
 20
21.5826
 11
21.904
 21
21.6051
  0
LINE
  8
0
 10
21.904
 20
21.6051
 11
21.825
 21
21.642
  0
LINE
  8
0
 10
21.825
 20
21.642
 11
21.7536
 21
21.692
  0
LINE
  8
0
 10
21.7536
 20
21.692
 11
21.692
 21
21.7536
  0
LINE
  8
0
 10
21.692
 20
21.7536
 11
21.642
 21
21.825
  0
LINE
  8
0
 10
21.642
 20
21.825
 11
21.6051
 21
21.904
  0
LINE
  8
0
 10
21.6051
 20
21.904
 11
21.5826
 21
21.9882
  0
LINE
  8
0
 10
21.5826
 20
21.9882
 11
21.575
 21
22.075
  0
LINE
  8
0
 10
21.575
 20
22.075
 11
21.575
 21
35.075
  0
LINE
  8
0
 10
21.575
 20
35.075
 11
21.5826
 21
35.1618
  0
LINE
  8
0
 10
21.5826
 20
35.1618
 11
21.6051
 21
35.246
  0
LINE
  8
0
 10
21.6051
 20
35.246
 11
21.642
 21
35.325
  0
LINE
  8
0
 10
21.642
 20
35.325
 11
21.692
 21
35.3964
  0
LINE
  8
0
 10
21.692
 20
35.3964
 11
21.7536
 21
35.458
  0
LINE
  8
0
 10
21.7536
 20
35.458
 11
21.825
 21
35.508
  0
LINE
  8
0
 10
21.825
 20
35.508
 11
21.904
 21
35.5448
  0
LINE
  8
0
 10
21.904
 20
35.5448
 11
21.9882
 21
35.5674
  0
LINE
  8
0
 10
21.9882
 20
35.5674
 11
22.075
 21
35.575
  0
LINE
  8
0
 10
22.075
 20
35.575
 11
35.075
 21
35.575
  0
LINE
  8
0
 10
35.075
 20
35.575
 11
35.1618
 21
35.5674
  0
LINE
  8
0
 10
35.1618
 20
35.5674
 11
35.246
 21
35.5448
  0
LINE
  8
0
 10
35.246
 20
35.5448
 11
35.325
 21
35.508
  0
LINE
  8
0
 10
35.325
 20
35.508
 11
35.3964
 21
35.458
  0
LINE
  8
0
 10
35.3964
 20
35.458
 11
35.458
 21
35.3964
  0
LINE
  8
0
 10
35.458
 20
35.3964
 11
35.508
 21
35.325
  0
LINE
  8
0
 10
35.508
 20
35.325
 11
35.5448
 21
35.246
  0
LINE
  8
0
 10
35.5448
 20
35.246
 11
35.5674
 21
35.1618
  0
LINE
  8
0
 10
35.5674
 20
35.1618
 11
35.575
 21
35.075
  0
LINE
  8
0
 10
35.575
 20
35.075
 11
35.575
 21
22.075
  0
LINE
  8
0
 10
35.575
 20
22.075
 11
35.5674
 21
21.9882
  0
LINE
  8
0
 10
35.5674
 20
21.9882
 11
35.5448
 21
21.904
  0
LINE
  8
0
 10
35.5448
 20
21.904
 11
35.508
 21
21.825
  0
LINE
  8
0
 10
35.508
 20
21.825
 11
35.458
 21
21.7536
  0
LINE
  8
0
 10
35.458
 20
21.7536
 11
35.3964
 21
21.692
  0
LINE
  8
0
 10
35.3964
 20
21.692
 11
35.325
 21
21.642
  0
LINE
  8
0
 10
35.325
 20
21.642
 11
35.246
 21
21.6051
  0
LINE
  8
0
 10
35.246
 20
21.6051
 11
35.1618
 21
21.5826
  0
LINE
  8
0
 10
35.1618
 20
21.5826
 11
35.075
 21
21.575
  0
LINE
  8
0
 10
35.075
 20
21.575
 11
22.075
 21
21.575
  0
LINE
  8
0
 10
-35.075
 20
21.575
 11
-35.1618
 21
21.5826
  0
LINE
  8
0
 10
-35.1618
 20
21.5826
 11
-35.246
 21
21.6051
  0
LINE
  8
0
 10
-35.246
 20
21.6051
 11
-35.325
 21
21.642
  0
LINE
  8
0
 10
-35.325
 20
21.642
 11
-35.3964
 21
21.692
  0
LINE
  8
0
 10
-35.3964
 20
21.692
 11
-35.458
 21
21.7536
  0
LINE
  8
0
 10
-35.458
 20
21.7536
 11
-35.508
 21
21.825
  0
LINE
  8
0
 10
-35.508
 20
21.825
 11
-35.5448
 21
21.904
  0
LINE
  8
0
 10
-35.5448
 20
21.904
 11
-35.5674
 21
21.9882
  0
LINE
  8
0
 10
-35.5674
 20
21.9882
 11
-35.575
 21
22.075
  0
LINE
  8
0
 10
-35.575
 20
22.075
 11
-35.575
 21
35.075
  0
LINE
  8
0
 10
-35.575
 20
35.075
 11
-35.5674
 21
35.1618
  0
LINE
  8
0
 10
-35.5674
 20
35.1618
 11
-35.5448
 21
35.246
  0
LINE
  8
0
 10
-35.5448
 20
35.246
 11
-35.508
 21
35.325
  0
LINE
  8
0
 10
-35.508
 20
35.325
 11
-35.458
 21
35.3964
  0
LINE
  8
0
 10
-35.458
 20
35.3964
 11
-35.3964
 21
35.458
  0
LINE
  8
0
 10
-35.3964
 20
35.458
 11
-35.325
 21
35.508
  0
LINE
  8
0
 10
-35.325
 20
35.508
 11
-35.246
 21
35.5448
  0
LINE
  8
0
 10
-35.246
 20
35.5448
 11
-35.1618
 21
35.5674
  0
LINE
  8
0
 10
-35.1618
 20
35.5674
 11
-35.075
 21
35.575
  0
LINE
  8
0
 10
-35.075
 20
35.575
 11
-22.075
 21
35.575
  0
LINE
  8
0
 10
-22.075
 20
35.575
 11
-21.9882
 21
35.5674
  0
LINE
  8
0
 10
-21.9882
 20
35.5674
 11
-21.904
 21
35.5448
  0
LINE
  8
0
 10
-21.904
 20
35.5448
 11
-21.825
 21
35.508
  0
LINE
  8
0
 10
-21.825
 20
35.508
 11
-21.7536
 21
35.458
  0
LINE
  8
0
 10
-21.7536
 20
35.458
 11
-21.692
 21
35.3964
  0
LINE
  8
0
 10
-21.692
 20
35.3964
 11
-21.642
 21
35.325
  0
LINE
  8
0
 10
-21.642
 20
35.325
 11
-21.6051
 21
35.246
  0
LINE
  8
0
 10
-21.6051
 20
35.246
 11
-21.5826
 21
35.1618
  0
LINE
  8
0
 10
-21.5826
 20
35.1618
 11
-21.575
 21
35.075
  0
LINE
  8
0
 10
-21.575
 20
35.075
 11
-21.575
 21
22.075
  0
LINE
  8
0
 10
-21.575
 20
22.075
 11
-21.5826
 21
21.9882
  0
LINE
  8
0
 10
-21.5826
 20
21.9882
 11
-21.6051
 21
21.904
  0
LINE
  8
0
 10
-21.6051
 20
21.904
 11
-21.642
 21
21.825
  0
LINE
  8
0
 10
-21.642
 20
21.825
 11
-21.692
 21
21.7536
  0
LINE
  8
0
 10
-21.692
 20
21.7536
 11
-21.7536
 21
21.692
  0
LINE
  8
0
 10
-21.7536
 20
21.692
 11
-21.825
 21
21.642
  0
LINE
  8
0
 10
-21.825
 20
21.642
 11
-21.904
 21
21.6051
  0
LINE
  8
0
 10
-21.904
 20
21.6051
 11
-21.9882
 21
21.5826
  0
LINE
  8
0
 10
-21.9882
 20
21.5826
 11
-22.075
 21
21.575
  0
LINE
  8
0
 10
-22.075
 20
21.575
 11
-35.075
 21
21.575
  0
LINE
  8
0
 10
-16.025
 20
21.575
 11
-16.1118
 21
21.5826
  0
LINE
  8
0
 10
-16.1118
 20
21.5826
 11
-16.196
 21
21.6051
  0
LINE
  8
0
 10
-16.196
 20
21.6051
 11
-16.275
 21
21.642
  0
LINE
  8
0
 10
-16.275
 20
21.642
 11
-16.3464
 21
21.692
  0
LINE
  8
0
 10
-16.3464
 20
21.692
 11
-16.408
 21
21.7536
  0
LINE
  8
0
 10
-16.408
 20
21.7536
 11
-16.458
 21
21.825
  0
LINE
  8
0
 10
-16.458
 20
21.825
 11
-16.4948
 21
21.904
  0
LINE
  8
0
 10
-16.4948
 20
21.904
 11
-16.5174
 21
21.9882
  0
LINE
  8
0
 10
-16.5174
 20
21.9882
 11
-16.525
 21
22.075
  0
LINE
  8
0
 10
-16.525
 20
22.075
 11
-16.525
 21
35.075
  0
LINE
  8
0
 10
-16.525
 20
35.075
 11
-16.5174
 21
35.1618
  0
LINE
  8
0
 10
-16.5174
 20
35.1618
 11
-16.4948
 21
35.246
  0
LINE
  8
0
 10
-16.4948
 20
35.246
 11
-16.458
 21
35.325
  0
LINE
  8
0
 10
-16.458
 20
35.325
 11
-16.408
 21
35.3964
  0
LINE
  8
0
 10
-16.408
 20
35.3964
 11
-16.3464
 21
35.458
  0
LINE
  8
0
 10
-16.3464
 20
35.458
 11
-16.275
 21
35.508
  0
LINE
  8
0
 10
-16.275
 20
35.508
 11
-16.196
 21
35.5448
  0
LINE
  8
0
 10
-16.196
 20
35.5448
 11
-16.1118
 21
35.5674
  0
LINE
  8
0
 10
-16.1118
 20
35.5674
 11
-16.025
 21
35.575
  0
LINE
  8
0
 10
-16.025
 20
35.575
 11
-3.02499
 21
35.575
  0
LINE
  8
0
 10
-3.02499
 20
35.575
 11
-2.93817
 21
35.5674
  0
LINE
  8
0
 10
-2.93817
 20
35.5674
 11
-2.85399
 21
35.5448
  0
LINE
  8
0
 10
-2.85399
 20
35.5448
 11
-2.77499
 21
35.508
  0
LINE
  8
0
 10
-2.77499
 20
35.508
 11
-2.7036
 21
35.458
  0
LINE
  8
0
 10
-2.7036
 20
35.458
 11
-2.64197
 21
35.3964
  0
LINE
  8
0
 10
-2.64197
 20
35.3964
 11
-2.59198
 21
35.325
  0
LINE
  8
0
 10
-2.59198
 20
35.325
 11
-2.55515
 21
35.246
  0
LINE
  8
0
 10
-2.55515
 20
35.246
 11
-2.53259
 21
35.1618
  0
LINE
  8
0
 10
-2.53259
 20
35.1618
 11
-2.52499
 21
35.075
  0
LINE
  8
0
 10
-2.52499
 20
35.075
 11
-2.52499
 21
22.075
  0
LINE
  8
0
 10
-2.52499
 20
22.075
 11
-2.53259
 21
21.9882
  0
LINE
  8
0
 10
-2.53259
 20
21.9882
 11
-2.55515
 21
21.904
  0
LINE
  8
0
 10
-2.55515
 20
21.904
 11
-2.59198
 21
21.825
  0
LINE
  8
0
 10
-2.59198
 20
21.825
 11
-2.64197
 21
21.7536
  0
LINE
  8
0
 10
-2.64197
 20
21.7536
 11
-2.7036
 21
21.692
  0
LINE
  8
0
 10
-2.7036
 20
21.692
 11
-2.77499
 21
21.642
  0
LINE
  8
0
 10
-2.77499
 20
21.642
 11
-2.85399
 21
21.6051
  0
LINE
  8
0
 10
-2.85399
 20
21.6051
 11
-2.93817
 21
21.5826
  0
LINE
  8
0
 10
-2.93817
 20
21.5826
 11
-3.02499
 21
21.575
  0
LINE
  8
0
 10
-3.02499
 20
21.575
 11
-16.025
 21
21.575
  0
LINE
  8
0
 10
-35.075
 20
2.52499
 11
-35.1618
 21
2.53259
  0
LINE
  8
0
 10
-35.1618
 20
2.53259
 11
-35.246
 21
2.55515
  0
LINE
  8
0
 10
-35.246
 20
2.55515
 11
-35.325
 21
2.59198
  0
LINE
  8
0
 10
-35.325
 20
2.59198
 11
-35.3964
 21
2.64197
  0
LINE
  8
0
 10
-35.3964
 20
2.64197
 11
-35.458
 21
2.7036
  0
LINE
  8
0
 10
-35.458
 20
2.7036
 11
-35.508
 21
2.77499
  0
LINE
  8
0
 10
-35.508
 20
2.77499
 11
-35.5448
 21
2.85399
  0
LINE
  8
0
 10
-35.5448
 20
2.85399
 11
-35.5674
 21
2.93817
  0
LINE
  8
0
 10
-35.5674
 20
2.93817
 11
-35.575
 21
3.02499
  0
LINE
  8
0
 10
-35.575
 20
3.02499
 11
-35.575
 21
16.025
  0
LINE
  8
0
 10
-35.575
 20
16.025
 11
-35.5674
 21
16.1118
  0
LINE
  8
0
 10
-35.5674
 20
16.1118
 11
-35.5448
 21
16.196
  0
LINE
  8
0
 10
-35.5448
 20
16.196
 11
-35.508
 21
16.275
  0
LINE
  8
0
 10
-35.508
 20
16.275
 11
-35.458
 21
16.3464
  0
LINE
  8
0
 10
-35.458
 20
16.3464
 11
-35.3964
 21
16.408
  0
LINE
  8
0
 10
-35.3964
 20
16.408
 11
-35.325
 21
16.458
  0
LINE
  8
0
 10
-35.325
 20
16.458
 11
-35.246
 21
16.4948
  0
LINE
  8
0
 10
-35.246
 20
16.4948
 11
-35.1618
 21
16.5174
  0
LINE
  8
0
 10
-35.1618
 20
16.5174
 11
-35.075
 21
16.525
  0
LINE
  8
0
 10
-35.075
 20
16.525
 11
-22.075
 21
16.525
  0
LINE
  8
0
 10
-22.075
 20
16.525
 11
-21.9882
 21
16.5174
  0
LINE
  8
0
 10
-21.9882
 20
16.5174
 11
-21.904
 21
16.4948
  0
LINE
  8
0
 10
-21.904
 20
16.4948
 11
-21.825
 21
16.458
  0
LINE
  8
0
 10
-21.825
 20
16.458
 11
-21.7536
 21
16.408
  0
LINE
  8
0
 10
-21.7536
 20
16.408
 11
-21.692
 21
16.3464
  0
LINE
  8
0
 10
-21.692
 20
16.3464
 11
-21.642
 21
16.275
  0
LINE
  8
0
 10
-21.642
 20
16.275
 11
-21.6051
 21
16.196
  0
LINE
  8
0
 10
-21.6051
 20
16.196
 11
-21.5826
 21
16.1118
  0
LINE
  8
0
 10
-21.5826
 20
16.1118
 11
-21.575
 21
16.025
  0
LINE
  8
0
 10
-21.575
 20
16.025
 11
-21.575
 21
3.02499
  0
LINE
  8
0
 10
-21.575
 20
3.02499
 11
-21.5826
 21
2.93817
  0
LINE
  8
0
 10
-21.5826
 20
2.93817
 11
-21.6051
 21
2.85399
  0
LINE
  8
0
 10
-21.6051
 20
2.85399
 11
-21.642
 21
2.77499
  0
LINE
  8
0
 10
-21.642
 20
2.77499
 11
-21.692
 21
2.7036
  0
LINE
  8
0
 10
-21.692
 20
2.7036
 11
-21.7536
 21
2.64197
  0
LINE
  8
0
 10
-21.7536
 20
2.64197
 11
-21.825
 21
2.59198
  0
LINE
  8
0
 10
-21.825
 20
2.59198
 11
-21.904
 21
2.55515
  0
LINE
  8
0
 10
-21.904
 20
2.55515
 11
-21.9882
 21
2.53259
  0
LINE
  8
0
 10
-21.9882
 20
2.53259
 11
-22.075
 21
2.52499
  0
LINE
  8
0
 10
-22.075
 20
2.52499
 11
-35.075
 21
2.52499
  0
LINE
  8
0
 10
-16.025
 20
2.52499
 11
-16.1118
 21
2.53259
  0
LINE
  8
0
 10
-16.1118
 20
2.53259
 11
-16.196
 21
2.55515
  0
LINE
  8
0
 10
-16.196
 20
2.55515
 11
-16.275
 21
2.59198
  0
LINE
  8
0
 10
-16.275
 20
2.59198
 11
-16.3464
 21
2.64197
  0
LINE
  8
0
 10
-16.3464
 20
2.64197
 11
-16.408
 21
2.7036
  0
LINE
  8
0
 10
-16.408
 20
2.7036
 11
-16.458
 21
2.77499
  0
LINE
  8
0
 10
-16.458
 20
2.77499
 11
-16.4948
 21
2.85399
  0
LINE
  8
0
 10
-16.4948
 20
2.85399
 11
-16.5174
 21
2.93817
  0
LINE
  8
0
 10
-16.5174
 20
2.93817
 11
-16.525
 21
3.02499
  0
LINE
  8
0
 10
-16.525
 20
3.02499
 11
-16.525
 21
16.025
  0
LINE
  8
0
 10
-16.525
 20
16.025
 11
-16.5174
 21
16.1118
  0
LINE
  8
0
 10
-16.5174
 20
16.1118
 11
-16.4948
 21
16.196
  0
LINE
  8
0
 10
-16.4948
 20
16.196
 11
-16.458
 21
16.275
  0
LINE
  8
0
 10
-16.458
 20
16.275
 11
-16.408
 21
16.3464
  0
LINE
  8
0
 10
-16.408
 20
16.3464
 11
-16.3464
 21
16.408
  0
LINE
  8
0
 10
-16.3464
 20
16.408
 11
-16.275
 21
16.458
  0
LINE
  8
0
 10
-16.275
 20
16.458
 11
-16.196
 21
16.4948
  0
LINE
  8
0
 10
-16.196
 20
16.4948
 11
-16.1118
 21
16.5174
  0
LINE
  8
0
 10
-16.1118
 20
16.5174
 11
-16.025
 21
16.525
  0
LINE
  8
0
 10
-16.025
 20
16.525
 11
-3.02499
 21
16.525
  0
LINE
  8
0
 10
-3.02499
 20
16.525
 11
-2.93817
 21
16.5174
  0
LINE
  8
0
 10
-2.93817
 20
16.5174
 11
-2.85399
 21
16.4948
  0
LINE
  8
0
 10
-2.85399
 20
16.4948
 11
-2.77499
 21
16.458
  0
LINE
  8
0
 10
-2.77499
 20
16.458
 11
-2.7036
 21
16.408
  0
LINE
  8
0
 10
-2.7036
 20
16.408
 11
-2.64197
 21
16.3464
  0
LINE
  8
0
 10
-2.64197
 20
16.3464
 11
-2.59198
 21
16.275
  0
LINE
  8
0
 10
-2.59198
 20
16.275
 11
-2.55515
 21
16.196
  0
LINE
  8
0
 10
-2.55515
 20
16.196
 11
-2.53259
 21
16.1118
  0
LINE
  8
0
 10
-2.53259
 20
16.1118
 11
-2.52499
 21
16.025
  0
LINE
  8
0
 10
-2.52499
 20
16.025
 11
-2.52499
 21
3.02499
  0
LINE
  8
0
 10
-2.52499
 20
3.02499
 11
-2.53259
 21
2.93817
  0
LINE
  8
0
 10
-2.53259
 20
2.93817
 11
-2.55515
 21
2.85399
  0
LINE
  8
0
 10
-2.55515
 20
2.85399
 11
-2.59198
 21
2.77499
  0
LINE
  8
0
 10
-2.59198
 20
2.77499
 11
-2.64197
 21
2.7036
  0
LINE
  8
0
 10
-2.64197
 20
2.7036
 11
-2.7036
 21
2.64197
  0
LINE
  8
0
 10
-2.7036
 20
2.64197
 11
-2.77499
 21
2.59198
  0
LINE
  8
0
 10
-2.77499
 20
2.59198
 11
-2.85399
 21
2.55515
  0
LINE
  8
0
 10
-2.85399
 20
2.55515
 11
-2.93817
 21
2.53259
  0
LINE
  8
0
 10
-2.93817
 20
2.53259
 11
-3.02499
 21
2.52499
  0
LINE
  8
0
 10
-3.02499
 20
2.52499
 11
-16.025
 21
2.52499
  0
LINE
  8
0
 10
3.02499
 20
2.52499
 11
2.93817
 21
2.53259
  0
LINE
  8
0
 10
2.93817
 20
2.53259
 11
2.85399
 21
2.55515
  0
LINE
  8
0
 10
2.85399
 20
2.55515
 11
2.77499
 21
2.59198
  0
LINE
  8
0
 10
2.77499
 20
2.59198
 11
2.7036
 21
2.64197
  0
LINE
  8
0
 10
2.7036
 20
2.64197
 11
2.64197
 21
2.7036
  0
LINE
  8
0
 10
2.64197
 20
2.7036
 11
2.59198
 21
2.77499
  0
LINE
  8
0
 10
2.59198
 20
2.77499
 11
2.55515
 21
2.85399
  0
LINE
  8
0
 10
2.55515
 20
2.85399
 11
2.53259
 21
2.93817
  0
LINE
  8
0
 10
2.53259
 20
2.93817
 11
2.52499
 21
3.02499
  0
LINE
  8
0
 10
2.52499
 20
3.02499
 11
2.52499
 21
16.025
  0
LINE
  8
0
 10
2.52499
 20
16.025
 11
2.53259
 21
16.1118
  0
LINE
  8
0
 10
2.53259
 20
16.1118
 11
2.55515
 21
16.196
  0
LINE
  8
0
 10
2.55515
 20
16.196
 11
2.59198
 21
16.275
  0
LINE
  8
0
 10
2.59198
 20
16.275
 11
2.64197
 21
16.3464
  0
LINE
  8
0
 10
2.64197
 20
16.3464
 11
2.7036
 21
16.408
  0
LINE
  8
0
 10
2.7036
 20
16.408
 11
2.77499
 21
16.458
  0
LINE
  8
0
 10
2.77499
 20
16.458
 11
2.85399
 21
16.4948
  0
LINE
  8
0
 10
2.85399
 20
16.4948
 11
2.93817
 21
16.5174
  0
LINE
  8
0
 10
2.93817
 20
16.5174
 11
3.02499
 21
16.525
  0
LINE
  8
0
 10
3.02499
 20
16.525
 11
16.025
 21
16.525
  0
LINE
  8
0
 10
16.025
 20
16.525
 11
16.1118
 21
16.5174
  0
LINE
  8
0
 10
16.1118
 20
16.5174
 11
16.196
 21
16.4948
  0
LINE
  8
0
 10
16.196
 20
16.4948
 11
16.275
 21
16.458
  0
LINE
  8
0
 10
16.275
 20
16.458
 11
16.3464
 21
16.408
  0
LINE
  8
0
 10
16.3464
 20
16.408
 11
16.408
 21
16.3464
  0
LINE
  8
0
 10
16.408
 20
16.3464
 11
16.458
 21
16.275
  0
LINE
  8
0
 10
16.458
 20
16.275
 11
16.4948
 21
16.196
  0
LINE
  8
0
 10
16.4948
 20
16.196
 11
16.5174
 21
16.1118
  0
LINE
  8
0
 10
16.5174
 20
16.1118
 11
16.525
 21
16.025
  0
LINE
  8
0
 10
16.525
 20
16.025
 11
16.525
 21
3.02499
  0
LINE
  8
0
 10
16.525
 20
3.02499
 11
16.5174
 21
2.93817
  0
LINE
  8
0
 10
16.5174
 20
2.93817
 11
16.4948
 21
2.85399
  0
LINE
  8
0
 10
16.4948
 20
2.85399
 11
16.458
 21
2.77499
  0
LINE
  8
0
 10
16.458
 20
2.77499
 11
16.408
 21
2.7036
  0
LINE
  8
0
 10
16.408
 20
2.7036
 11
16.3464
 21
2.64197
  0
LINE
  8
0
 10
16.3464
 20
2.64197
 11
16.275
 21
2.59198
  0
LINE
  8
0
 10
16.275
 20
2.59198
 11
16.196
 21
2.55515
  0
LINE
  8
0
 10
16.196
 20
2.55515
 11
16.1118
 21
2.53259
  0
LINE
  8
0
 10
16.1118
 20
2.53259
 11
16.025
 21
2.52499
  0
LINE
  8
0
 10
16.025
 20
2.52499
 11
3.02499
 21
2.52499
  0
LINE
  8
0
 10
22.075
 20
2.52499
 11
21.9882
 21
2.53259
  0
LINE
  8
0
 10
21.9882
 20
2.53259
 11
21.904
 21
2.55515
  0
LINE
  8
0
 10
21.904
 20
2.55515
 11
21.825
 21
2.59198
  0
LINE
  8
0
 10
21.825
 20
2.59198
 11
21.7536
 21
2.64197
  0
LINE
  8
0
 10
21.7536
 20
2.64197
 11
21.692
 21
2.7036
  0
LINE
  8
0
 10
21.692
 20
2.7036
 11
21.642
 21
2.77499
  0
LINE
  8
0
 10
21.642
 20
2.77499
 11
21.6051
 21
2.85399
  0
LINE
  8
0
 10
21.6051
 20
2.85399
 11
21.5826
 21
2.93817
  0
LINE
  8
0
 10
21.5826
 20
2.93817
 11
21.575
 21
3.02499
  0
LINE
  8
0
 10
21.575
 20
3.02499
 11
21.575
 21
16.025
  0
LINE
  8
0
 10
21.575
 20
16.025
 11
21.5826
 21
16.1118
  0
LINE
  8
0
 10
21.5826
 20
16.1118
 11
21.6051
 21
16.196
  0
LINE
  8
0
 10
21.6051
 20
16.196
 11
21.642
 21
16.275
  0
LINE
  8
0
 10
21.642
 20
16.275
 11
21.692
 21
16.3464
  0
LINE
  8
0
 10
21.692
 20
16.3464
 11
21.7536
 21
16.408
  0
LINE
  8
0
 10
21.7536
 20
16.408
 11
21.825
 21
16.458
  0
LINE
  8
0
 10
21.825
 20
16.458
 11
21.904
 21
16.4948
  0
LINE
  8
0
 10
21.904
 20
16.4948
 11
21.9882
 21
16.5174
  0
LINE
  8
0
 10
21.9882
 20
16.5174
 11
22.075
 21
16.525
  0
LINE
  8
0
 10
22.075
 20
16.525
 11
35.075
 21
16.525
  0
LINE
  8
0
 10
35.075
 20
16.525
 11
35.1618
 21
16.5174
  0
LINE
  8
0
 10
35.1618
 20
16.5174
 11
35.246
 21
16.4948
  0
LINE
  8
0
 10
35.246
 20
16.4948
 11
35.325
 21
16.458
  0
LINE
  8
0
 10
35.325
 20
16.458
 11
35.3964
 21
16.408
  0
LINE
  8
0
 10
35.3964
 20
16.408
 11
35.458
 21
16.3464
  0
LINE
  8
0
 10
35.458
 20
16.3464
 11
35.508
 21
16.275
  0
LINE
  8
0
 10
35.508
 20
16.275
 11
35.5448
 21
16.196
  0
LINE
  8
0
 10
35.5448
 20
16.196
 11
35.5674
 21
16.1118
  0
LINE
  8
0
 10
35.5674
 20
16.1118
 11
35.575
 21
16.025
  0
LINE
  8
0
 10
35.575
 20
16.025
 11
35.575
 21
3.02499
  0
LINE
  8
0
 10
35.575
 20
3.02499
 11
35.5674
 21
2.93817
  0
LINE
  8
0
 10
35.5674
 20
2.93817
 11
35.5448
 21
2.85399
  0
LINE
  8
0
 10
35.5448
 20
2.85399
 11
35.508
 21
2.77499
  0
LINE
  8
0
 10
35.508
 20
2.77499
 11
35.458
 21
2.7036
  0
LINE
  8
0
 10
35.458
 20
2.7036
 11
35.3964
 21
2.64197
  0
LINE
  8
0
 10
35.3964
 20
2.64197
 11
35.325
 21
2.59198
  0
LINE
  8
0
 10
35.325
 20
2.59198
 11
35.246
 21
2.55515
  0
LINE
  8
0
 10
35.246
 20
2.55515
 11
35.1618
 21
2.53259
  0
LINE
  8
0
 10
35.1618
 20
2.53259
 11
35.075
 21
2.52499
  0
LINE
  8
0
 10
35.075
 20
2.52499
 11
22.075
 21
2.52499
  0
LINE
  8
0
 10
3.02499
 20
-16.525
 11
2.93817
 21
-16.5174
  0
LINE
  8
0
 10
2.93817
 20
-16.5174
 11
2.85399
 21
-16.4948
  0
LINE
  8
0
 10
2.85399
 20
-16.4948
 11
2.77499
 21
-16.458
  0
LINE
  8
0
 10
2.77499
 20
-16.458
 11
2.7036
 21
-16.408
  0
LINE
  8
0
 10
2.7036
 20
-16.408
 11
2.64197
 21
-16.3464
  0
LINE
  8
0
 10
2.64197
 20
-16.3464
 11
2.59198
 21
-16.275
  0
LINE
  8
0
 10
2.59198
 20
-16.275
 11
2.55515
 21
-16.196
  0
LINE
  8
0
 10
2.55515
 20
-16.196
 11
2.53259
 21
-16.1118
  0
LINE
  8
0
 10
2.53259
 20
-16.1118
 11
2.52499
 21
-16.025
  0
LINE
  8
0
 10
2.52499
 20
-16.025
 11
2.52499
 21
-3.02499
  0
LINE
  8
0
 10
2.52499
 20
-3.02499
 11
2.53259
 21
-2.93817
  0
LINE
  8
0
 10
2.53259
 20
-2.93817
 11
2.55515
 21
-2.85399
  0
LINE
  8
0
 10
2.55515
 20
-2.85399
 11
2.59198
 21
-2.77499
  0
LINE
  8
0
 10
2.59198
 20
-2.77499
 11
2.64197
 21
-2.7036
  0
LINE
  8
0
 10
2.64197
 20
-2.7036
 11
2.7036
 21
-2.64197
  0
LINE
  8
0
 10
2.7036
 20
-2.64197
 11
2.77499
 21
-2.59198
  0
LINE
  8
0
 10
2.77499
 20
-2.59198
 11
2.85399
 21
-2.55515
  0
LINE
  8
0
 10
2.85399
 20
-2.55515
 11
2.93817
 21
-2.53259
  0
LINE
  8
0
 10
2.93817
 20
-2.53259
 11
3.02499
 21
-2.52499
  0
LINE
  8
0
 10
3.02499
 20
-2.52499
 11
16.025
 21
-2.52499
  0
LINE
  8
0
 10
16.025
 20
-2.52499
 11
16.1118
 21
-2.53259
  0
LINE
  8
0
 10
16.1118
 20
-2.53259
 11
16.196
 21
-2.55515
  0
LINE
  8
0
 10
16.196
 20
-2.55515
 11
16.275
 21
-2.59198
  0
LINE
  8
0
 10
16.275
 20
-2.59198
 11
16.3464
 21
-2.64197
  0
LINE
  8
0
 10
16.3464
 20
-2.64197
 11
16.408
 21
-2.7036
  0
LINE
  8
0
 10
16.408
 20
-2.7036
 11
16.458
 21
-2.77499
  0
LINE
  8
0
 10
16.458
 20
-2.77499
 11
16.4948
 21
-2.85399
  0
LINE
  8
0
 10
16.4948
 20
-2.85399
 11
16.5174
 21
-2.93817
  0
LINE
  8
0
 10
16.5174
 20
-2.93817
 11
16.525
 21
-3.02499
  0
LINE
  8
0
 10
16.525
 20
-3.02499
 11
16.525
 21
-16.025
  0
LINE
  8
0
 10
16.525
 20
-16.025
 11
16.5174
 21
-16.1118
  0
LINE
  8
0
 10
16.5174
 20
-16.1118
 11
16.4948
 21
-16.196
  0
LINE
  8
0
 10
16.4948
 20
-16.196
 11
16.458
 21
-16.275
  0
LINE
  8
0
 10
16.458
 20
-16.275
 11
16.408
 21
-16.3464
  0
LINE
  8
0
 10
16.408
 20
-16.3464
 11
16.3464
 21
-16.408
  0
LINE
  8
0
 10
16.3464
 20
-16.408
 11
16.275
 21
-16.458
  0
LINE
  8
0
 10
16.275
 20
-16.458
 11
16.196
 21
-16.4948
  0
LINE
  8
0
 10
16.196
 20
-16.4948
 11
16.1118
 21
-16.5174
  0
LINE
  8
0
 10
16.1118
 20
-16.5174
 11
16.025
 21
-16.525
  0
LINE
  8
0
 10
16.025
 20
-16.525
 11
3.02499
 21
-16.525
  0
LINE
  8
0
 10
-35.075
 20
-16.525
 11
-35.1618
 21
-16.5174
  0
LINE
  8
0
 10
-35.1618
 20
-16.5174
 11
-35.246
 21
-16.4948
  0
LINE
  8
0
 10
-35.246
 20
-16.4948
 11
-35.325
 21
-16.458
  0
LINE
  8
0
 10
-35.325
 20
-16.458
 11
-35.3964
 21
-16.408
  0
LINE
  8
0
 10
-35.3964
 20
-16.408
 11
-35.458
 21
-16.3464
  0
LINE
  8
0
 10
-35.458
 20
-16.3464
 11
-35.508
 21
-16.275
  0
LINE
  8
0
 10
-35.508
 20
-16.275
 11
-35.5448
 21
-16.196
  0
LINE
  8
0
 10
-35.5448
 20
-16.196
 11
-35.5674
 21
-16.1118
  0
LINE
  8
0
 10
-35.5674
 20
-16.1118
 11
-35.575
 21
-16.025
  0
LINE
  8
0
 10
-35.575
 20
-16.025
 11
-35.575
 21
-3.02499
  0
LINE
  8
0
 10
-35.575
 20
-3.02499
 11
-35.5674
 21
-2.93817
  0
LINE
  8
0
 10
-35.5674
 20
-2.93817
 11
-35.5448
 21
-2.85399
  0
LINE
  8
0
 10
-35.5448
 20
-2.85399
 11
-35.508
 21
-2.77499
  0
LINE
  8
0
 10
-35.508
 20
-2.77499
 11
-35.458
 21
-2.7036
  0
LINE
  8
0
 10
-35.458
 20
-2.7036
 11
-35.3964
 21
-2.64197
  0
LINE
  8
0
 10
-35.3964
 20
-2.64197
 11
-35.325
 21
-2.59198
  0
LINE
  8
0
 10
-35.325
 20
-2.59198
 11
-35.246
 21
-2.55515
  0
LINE
  8
0
 10
-35.246
 20
-2.55515
 11
-35.1618
 21
-2.53259
  0
LINE
  8
0
 10
-35.1618
 20
-2.53259
 11
-35.075
 21
-2.52499
  0
LINE
  8
0
 10
-35.075
 20
-2.52499
 11
-22.075
 21
-2.52499
  0
LINE
  8
0
 10
-22.075
 20
-2.52499
 11
-21.9882
 21
-2.53259
  0
LINE
  8
0
 10
-21.9882
 20
-2.53259
 11
-21.904
 21
-2.55515
  0
LINE
  8
0
 10
-21.904
 20
-2.55515
 11
-21.825
 21
-2.59198
  0
LINE
  8
0
 10
-21.825
 20
-2.59198
 11
-21.7536
 21
-2.64197
  0
LINE
  8
0
 10
-21.7536
 20
-2.64197
 11
-21.692
 21
-2.7036
  0
LINE
  8
0
 10
-21.692
 20
-2.7036
 11
-21.642
 21
-2.77499
  0
LINE
  8
0
 10
-21.642
 20
-2.77499
 11
-21.6051
 21
-2.85399
  0
LINE
  8
0
 10
-21.6051
 20
-2.85399
 11
-21.5826
 21
-2.93817
  0
LINE
  8
0
 10
-21.5826
 20
-2.93817
 11
-21.575
 21
-3.02499
  0
LINE
  8
0
 10
-21.575
 20
-3.02499
 11
-21.575
 21
-16.025
  0
LINE
  8
0
 10
-21.575
 20
-16.025
 11
-21.5826
 21
-16.1118
  0
LINE
  8
0
 10
-21.5826
 20
-16.1118
 11
-21.6051
 21
-16.196
  0
LINE
  8
0
 10
-21.6051
 20
-16.196
 11
-21.642
 21
-16.275
  0
LINE
  8
0
 10
-21.642
 20
-16.275
 11
-21.692
 21
-16.3464
  0
LINE
  8
0
 10
-21.692
 20
-16.3464
 11
-21.7536
 21
-16.408
  0
LINE
  8
0
 10
-21.7536
 20
-16.408
 11
-21.825
 21
-16.458
  0
LINE
  8
0
 10
-21.825
 20
-16.458
 11
-21.904
 21
-16.4948
  0
LINE
  8
0
 10
-21.904
 20
-16.4948
 11
-21.9882
 21
-16.5174
  0
LINE
  8
0
 10
-21.9882
 20
-16.5174
 11
-22.075
 21
-16.525
  0
LINE
  8
0
 10
-22.075
 20
-16.525
 11
-35.075
 21
-16.525
  0
LINE
  8
0
 10
22.075
 20
-16.525
 11
21.9882
 21
-16.5174
  0
LINE
  8
0
 10
21.9882
 20
-16.5174
 11
21.904
 21
-16.4948
  0
LINE
  8
0
 10
21.904
 20
-16.4948
 11
21.825
 21
-16.458
  0
LINE
  8
0
 10
21.825
 20
-16.458
 11
21.7536
 21
-16.408
  0
LINE
  8
0
 10
21.7536
 20
-16.408
 11
21.692
 21
-16.3464
  0
LINE
  8
0
 10
21.692
 20
-16.3464
 11
21.642
 21
-16.275
  0
LINE
  8
0
 10
21.642
 20
-16.275
 11
21.6051
 21
-16.196
  0
LINE
  8
0
 10
21.6051
 20
-16.196
 11
21.5826
 21
-16.1118
  0
LINE
  8
0
 10
21.5826
 20
-16.1118
 11
21.575
 21
-16.025
  0
LINE
  8
0
 10
21.575
 20
-16.025
 11
21.575
 21
-3.02499
  0
LINE
  8
0
 10
21.575
 20
-3.02499
 11
21.5826
 21
-2.93817
  0
LINE
  8
0
 10
21.5826
 20
-2.93817
 11
21.6051
 21
-2.85399
  0
LINE
  8
0
 10
21.6051
 20
-2.85399
 11
21.642
 21
-2.77499
  0
LINE
  8
0
 10
21.642
 20
-2.77499
 11
21.692
 21
-2.7036
  0
LINE
  8
0
 10
21.692
 20
-2.7036
 11
21.7536
 21
-2.64197
  0
LINE
  8
0
 10
21.7536
 20
-2.64197
 11
21.825
 21
-2.59198
  0
LINE
  8
0
 10
21.825
 20
-2.59198
 11
21.904
 21
-2.55515
  0
LINE
  8
0
 10
21.904
 20
-2.55515
 11
21.9882
 21
-2.53259
  0
LINE
  8
0
 10
21.9882
 20
-2.53259
 11
22.075
 21
-2.52499
  0
LINE
  8
0
 10
22.075
 20
-2.52499
 11
35.075
 21
-2.52499
  0
LINE
  8
0
 10
35.075
 20
-2.52499
 11
35.1618
 21
-2.53259
  0
LINE
  8
0
 10
35.1618
 20
-2.53259
 11
35.246
 21
-2.55515
  0
LINE
  8
0
 10
35.246
 20
-2.55515
 11
35.325
 21
-2.59198
  0
LINE
  8
0
 10
35.325
 20
-2.59198
 11
35.3964
 21
-2.64197
  0
LINE
  8
0
 10
35.3964
 20
-2.64197
 11
35.458
 21
-2.7036
  0
LINE
  8
0
 10
35.458
 20
-2.7036
 11
35.508
 21
-2.77499
  0
LINE
  8
0
 10
35.508
 20
-2.77499
 11
35.5448
 21
-2.85399
  0
LINE
  8
0
 10
35.5448
 20
-2.85399
 11
35.5674
 21
-2.93817
  0
LINE
  8
0
 10
35.5674
 20
-2.93817
 11
35.575
 21
-3.02499
  0
LINE
  8
0
 10
35.575
 20
-3.02499
 11
35.575
 21
-16.025
  0
LINE
  8
0
 10
35.575
 20
-16.025
 11
35.5674
 21
-16.1118
  0
LINE
  8
0
 10
35.5674
 20
-16.1118
 11
35.5448
 21
-16.196
  0
LINE
  8
0
 10
35.5448
 20
-16.196
 11
35.508
 21
-16.275
  0
LINE
  8
0
 10
35.508
 20
-16.275
 11
35.458
 21
-16.3464
  0
LINE
  8
0
 10
35.458
 20
-16.3464
 11
35.3964
 21
-16.408
  0
LINE
  8
0
 10
35.3964
 20
-16.408
 11
35.325
 21
-16.458
  0
LINE
  8
0
 10
35.325
 20
-16.458
 11
35.246
 21
-16.4948
  0
LINE
  8
0
 10
35.246
 20
-16.4948
 11
35.1618
 21
-16.5174
  0
LINE
  8
0
 10
35.1618
 20
-16.5174
 11
35.075
 21
-16.525
  0
LINE
  8
0
 10
35.075
 20
-16.525
 11
22.075
 21
-16.525
  0
LINE
  8
0
 10
-16.025
 20
-16.525
 11
-16.1118
 21
-16.5174
  0
LINE
  8
0
 10
-16.1118
 20
-16.5174
 11
-16.196
 21
-16.4948
  0
LINE
  8
0
 10
-16.196
 20
-16.4948
 11
-16.275
 21
-16.458
  0
LINE
  8
0
 10
-16.275
 20
-16.458
 11
-16.3464
 21
-16.408
  0
LINE
  8
0
 10
-16.3464
 20
-16.408
 11
-16.408
 21
-16.3464
  0
LINE
  8
0
 10
-16.408
 20
-16.3464
 11
-16.458
 21
-16.275
  0
LINE
  8
0
 10
-16.458
 20
-16.275
 11
-16.4948
 21
-16.196
  0
LINE
  8
0
 10
-16.4948
 20
-16.196
 11
-16.5174
 21
-16.1118
  0
LINE
  8
0
 10
-16.5174
 20
-16.1118
 11
-16.525
 21
-16.025
  0
LINE
  8
0
 10
-16.525
 20
-16.025
 11
-16.525
 21
-3.02499
  0
LINE
  8
0
 10
-16.525
 20
-3.02499
 11
-16.5174
 21
-2.93817
  0
LINE
  8
0
 10
-16.5174
 20
-2.93817
 11
-16.4948
 21
-2.85399
  0
LINE
  8
0
 10
-16.4948
 20
-2.85399
 11
-16.458
 21
-2.77499
  0
LINE
  8
0
 10
-16.458
 20
-2.77499
 11
-16.408
 21
-2.7036
  0
LINE
  8
0
 10
-16.408
 20
-2.7036
 11
-16.3464
 21
-2.64197
  0
LINE
  8
0
 10
-16.3464
 20
-2.64197
 11
-16.275
 21
-2.59198
  0
LINE
  8
0
 10
-16.275
 20
-2.59198
 11
-16.196
 21
-2.55515
  0
LINE
  8
0
 10
-16.196
 20
-2.55515
 11
-16.1118
 21
-2.53259
  0
LINE
  8
0
 10
-16.1118
 20
-2.53259
 11
-16.025
 21
-2.52499
  0
LINE
  8
0
 10
-16.025
 20
-2.52499
 11
-3.02499
 21
-2.52499
  0
LINE
  8
0
 10
-3.02499
 20
-2.52499
 11
-2.93817
 21
-2.53259
  0
LINE
  8
0
 10
-2.93817
 20
-2.53259
 11
-2.85399
 21
-2.55515
  0
LINE
  8
0
 10
-2.85399
 20
-2.55515
 11
-2.77499
 21
-2.59198
  0
LINE
  8
0
 10
-2.77499
 20
-2.59198
 11
-2.7036
 21
-2.64197
  0
LINE
  8
0
 10
-2.7036
 20
-2.64197
 11
-2.64197
 21
-2.7036
  0
LINE
  8
0
 10
-2.64197
 20
-2.7036
 11
-2.59198
 21
-2.77499
  0
LINE
  8
0
 10
-2.59198
 20
-2.77499
 11
-2.55515
 21
-2.85399
  0
LINE
  8
0
 10
-2.55515
 20
-2.85399
 11
-2.53259
 21
-2.93817
  0
LINE
  8
0
 10
-2.53259
 20
-2.93817
 11
-2.52499
 21
-3.02499
  0
LINE
  8
0
 10
-2.52499
 20
-3.02499
 11
-2.52499
 21
-16.025
  0
LINE
  8
0
 10
-2.52499
 20
-16.025
 11
-2.53259
 21
-16.1118
  0
LINE
  8
0
 10
-2.53259
 20
-16.1118
 11
-2.55515
 21
-16.196
  0
LINE
  8
0
 10
-2.55515
 20
-16.196
 11
-2.59198
 21
-16.275
  0
LINE
  8
0
 10
-2.59198
 20
-16.275
 11
-2.64197
 21
-16.3464
  0
LINE
  8
0
 10
-2.64197
 20
-16.3464
 11
-2.7036
 21
-16.408
  0
LINE
  8
0
 10
-2.7036
 20
-16.408
 11
-2.77499
 21
-16.458
  0
LINE
  8
0
 10
-2.77499
 20
-16.458
 11
-2.85399
 21
-16.4948
  0
LINE
  8
0
 10
-2.85399
 20
-16.4948
 11
-2.93817
 21
-16.5174
  0
LINE
  8
0
 10
-2.93817
 20
-16.5174
 11
-3.02499
 21
-16.525
  0
LINE
  8
0
 10
-3.02499
 20
-16.525
 11
-16.025
 21
-16.525
  0
LINE
  8
0
 10
43.8262
 20
-23.7633
 11
43.6144
 21
-23.7365
  0
LINE
  8
0
 10
43.6144
 20
-23.7365
 11
43.4077
 21
-23.6835
  0
LINE
  8
0
 10
43.4077
 20
-23.6835
 11
43.2092
 21
-23.6049
  0
LINE
  8
0
 10
43.2092
 20
-23.6049
 11
43.0221
 21
-23.502
  0
LINE
  8
0
 10
43.0221
 20
-23.502
 11
42.8494
 21
-23.3765
  0
LINE
  8
0
 10
42.8494
 20
-23.3765
 11
42.6937
 21
-23.2304
  0
LINE
  8
0
 10
42.6937
 20
-23.2304
 11
42.5577
 21
-23.0659
  0
LINE
  8
0
 10
42.5577
 20
-23.0659
 11
42.4433
 21
-22.8856
  0
LINE
  8
0
 10
42.4433
 20
-22.8856
 11
42.3524
 21
-22.6925
  0
LINE
  8
0
 10
42.3524
 20
-22.6925
 11
42.2864
 21
-22.4894
  0
LINE
  8
0
 10
42.2864
 20
-22.4894
 11
42.2464
 21
-22.2797
  0
LINE
  8
0
 10
42.2464
 20
-22.2797
 11
42.233
 21
-22.0667
  0
LINE
  8
0
 10
42.233
 20
-22.0667
 11
42.2464
 21
-21.8536
  0
LINE
  8
0
 10
42.2464
 20
-21.8536
 11
42.2864
 21
-21.6439
  0
LINE
  8
0
 10
42.2864
 20
-21.6439
 11
42.3524
 21
-21.4408
  0
LINE
  8
0
 10
42.3524
 20
-21.4408
 11
42.4433
 21
-21.2477
  0
LINE
  8
0
 10
42.4433
 20
-21.2477
 11
42.5577
 21
-21.0674
  0
LINE
  8
0
 10
42.5577
 20
-21.0674
 11
42.6937
 21
-20.9029
  0
LINE
  8
0
 10
42.6937
 20
-20.9029
 11
42.8494
 21
-20.7568
  0
LINE
  8
0
 10
42.8494
 20
-20.7568
 11
43.0221
 21
-20.6313
  0
LINE
  8
0
 10
43.0221
 20
-20.6313
 11
43.2092
 21
-20.5285
  0
LINE
  8
0
 10
43.2092
 20
-20.5285
 11
43.4077
 21
-20.4499
  0
LINE
  8
0
 10
43.4077
 20
-20.4499
 11
43.6144
 21
-20.3968
  0
LINE
  8
0
 10
43.6144
 20
-20.3968
 11
43.8262
 21
-20.37
  0
LINE
  8
0
 10
43.8262
 20
-20.37
 11
44.0397
 21
-20.37
  0
LINE
  8
0
 10
44.0397
 20
-20.37
 11
44.2515
 21
-20.3968
  0
LINE
  8
0
 10
44.2515
 20
-20.3968
 11
44.4583
 21
-20.4499
  0
LINE
  8
0
 10
44.4583
 20
-20.4499
 11
44.6568
 21
-20.5285
  0
LINE
  8
0
 10
44.6568
 20
-20.5285
 11
44.8439
 21
-20.6313
  0
LINE
  8
0
 10
44.8439
 20
-20.6313
 11
45.0166
 21
-20.7568
  0
LINE
  8
0
 10
45.0166
 20
-20.7568
 11
45.1722
 21
-20.9029
  0
LINE
  8
0
 10
45.1722
 20
-20.9029
 11
45.3083
 21
-21.0674
  0
LINE
  8
0
 10
45.3083
 20
-21.0674
 11
45.4227
 21
-21.2477
  0
LINE
  8
0
 10
45.4227
 20
-21.2477
 11
45.5136
 21
-21.4408
  0
LINE
  8
0
 10
45.5136
 20
-21.4408
 11
45.5796
 21
-21.6439
  0
LINE
  8
0
 10
45.5796
 20
-21.6439
 11
45.6196
 21
-21.8536
  0
LINE
  8
0
 10
45.6196
 20
-21.8536
 11
45.633
 21
-22.0667
  0
LINE
  8
0
 10
45.633
 20
-22.0667
 11
45.6196
 21
-22.2797
  0
LINE
  8
0
 10
45.6196
 20
-22.2797
 11
45.5796
 21
-22.4894
  0
LINE
  8
0
 10
45.5796
 20
-22.4894
 11
45.5136
 21
-22.6925
  0
LINE
  8
0
 10
45.5136
 20
-22.6925
 11
45.4227
 21
-22.8856
  0
LINE
  8
0
 10
45.4227
 20
-22.8856
 11
45.3083
 21
-23.0659
  0
LINE
  8
0
 10
45.3083
 20
-23.0659
 11
45.1722
 21
-23.2304
  0
LINE
  8
0
 10
45.1722
 20
-23.2304
 11
45.0166
 21
-23.3765
  0
LINE
  8
0
 10
45.0166
 20
-23.3765
 11
44.8439
 21
-23.502
  0
LINE
  8
0
 10
44.8439
 20
-23.502
 11
44.6568
 21
-23.6049
  0
LINE
  8
0
 10
44.6568
 20
-23.6049
 11
44.4583
 21
-23.6835
  0
LINE
  8
0
 10
44.4583
 20
-23.6835
 11
44.2515
 21
-23.7365
  0
LINE
  8
0
 10
44.2515
 20
-23.7365
 11
44.0397
 21
-23.7633
  0
LINE
  8
0
 10
44.0397
 20
-23.7633
 11
43.8262
 21
-23.7633
  0
LINE
  8
0
 10
-44.0397
 20
-23.7633
 11
-44.2515
 21
-23.7365
  0
LINE
  8
0
 10
-44.2515
 20
-23.7365
 11
-44.4583
 21
-23.6835
  0
LINE
  8
0
 10
-44.4583
 20
-23.6835
 11
-44.6568
 21
-23.6049
  0
LINE
  8
0
 10
-44.6568
 20
-23.6049
 11
-44.8439
 21
-23.502
  0
LINE
  8
0
 10
-44.8439
 20
-23.502
 11
-45.0166
 21
-23.3765
  0
LINE
  8
0
 10
-45.0166
 20
-23.3765
 11
-45.1722
 21
-23.2304
  0
LINE
  8
0
 10
-45.1722
 20
-23.2304
 11
-45.3083
 21
-23.0659
  0
LINE
  8
0
 10
-45.3083
 20
-23.0659
 11
-45.4227
 21
-22.8856
  0
LINE
  8
0
 10
-45.4227
 20
-22.8856
 11
-45.5136
 21
-22.6925
  0
LINE
  8
0
 10
-45.5136
 20
-22.6925
 11
-45.5796
 21
-22.4894
  0
LINE
  8
0
 10
-45.5796
 20
-22.4894
 11
-45.6196
 21
-22.2797
  0
LINE
  8
0
 10
-45.6196
 20
-22.2797
 11
-45.633
 21
-22.0667
  0
LINE
  8
0
 10
-45.633
 20
-22.0667
 11
-45.6196
 21
-21.8536
  0
LINE
  8
0
 10
-45.6196
 20
-21.8536
 11
-45.5796
 21
-21.6439
  0
LINE
  8
0
 10
-45.5796
 20
-21.6439
 11
-45.5136
 21
-21.4408
  0
LINE
  8
0
 10
-45.5136
 20
-21.4408
 11
-45.4227
 21
-21.2477
  0
LINE
  8
0
 10
-45.4227
 20
-21.2477
 11
-45.3083
 21
-21.0674
  0
LINE
  8
0
 10
-45.3083
 20
-21.0674
 11
-45.1722
 21
-20.9029
  0
LINE
  8
0
 10
-45.1722
 20
-20.9029
 11
-45.0166
 21
-20.7568
  0
LINE
  8
0
 10
-45.0166
 20
-20.7568
 11
-44.8439
 21
-20.6313
  0
LINE
  8
0
 10
-44.8439
 20
-20.6313
 11
-44.6568
 21
-20.5285
  0
LINE
  8
0
 10
-44.6568
 20
-20.5285
 11
-44.4583
 21
-20.4499
  0
LINE
  8
0
 10
-44.4583
 20
-20.4499
 11
-44.2515
 21
-20.3968
  0
LINE
  8
0
 10
-44.2515
 20
-20.3968
 11
-44.0397
 21
-20.37
  0
LINE
  8
0
 10
-44.0397
 20
-20.37
 11
-43.8262
 21
-20.37
  0
LINE
  8
0
 10
-43.8262
 20
-20.37
 11
-43.6144
 21
-20.3968
  0
LINE
  8
0
 10
-43.6144
 20
-20.3968
 11
-43.4077
 21
-20.4499
  0
LINE
  8
0
 10
-43.4077
 20
-20.4499
 11
-43.2092
 21
-20.5285
  0
LINE
  8
0
 10
-43.2092
 20
-20.5285
 11
-43.0221
 21
-20.6313
  0
LINE
  8
0
 10
-43.0221
 20
-20.6313
 11
-42.8494
 21
-20.7568
  0
LINE
  8
0
 10
-42.8494
 20
-20.7568
 11
-42.6937
 21
-20.9029
  0
LINE
  8
0
 10
-42.6937
 20
-20.9029
 11
-42.5577
 21
-21.0674
  0
LINE
  8
0
 10
-42.5577
 20
-21.0674
 11
-42.4433
 21
-21.2477
  0
LINE
  8
0
 10
-42.4433
 20
-21.2477
 11
-42.3524
 21
-21.4408
  0
LINE
  8
0
 10
-42.3524
 20
-21.4408
 11
-42.2864
 21
-21.6439
  0
LINE
  8
0
 10
-42.2864
 20
-21.6439
 11
-42.2464
 21
-21.8536
  0
LINE
  8
0
 10
-42.2464
 20
-21.8536
 11
-42.233
 21
-22.0667
  0
LINE
  8
0
 10
-42.233
 20
-22.0667
 11
-42.2464
 21
-22.2797
  0
LINE
  8
0
 10
-42.2464
 20
-22.2797
 11
-42.2864
 21
-22.4894
  0
LINE
  8
0
 10
-42.2864
 20
-22.4894
 11
-42.3524
 21
-22.6925
  0
LINE
  8
0
 10
-42.3524
 20
-22.6925
 11
-42.4433
 21
-22.8856
  0
LINE
  8
0
 10
-42.4433
 20
-22.8856
 11
-42.5577
 21
-23.0659
  0
LINE
  8
0
 10
-42.5577
 20
-23.0659
 11
-42.6937
 21
-23.2304
  0
LINE
  8
0
 10
-42.6937
 20
-23.2304
 11
-42.8494
 21
-23.3765
  0
LINE
  8
0
 10
-42.8494
 20
-23.3765
 11
-43.0221
 21
-23.502
  0
LINE
  8
0
 10
-43.0221
 20
-23.502
 11
-43.2092
 21
-23.6049
  0
LINE
  8
0
 10
-43.2092
 20
-23.6049
 11
-43.4077
 21
-23.6835
  0
LINE
  8
0
 10
-43.4077
 20
-23.6835
 11
-43.6144
 21
-23.7365
  0
LINE
  8
0
 10
-43.6144
 20
-23.7365
 11
-43.8262
 21
-23.7633
  0
LINE
  8
0
 10
-43.8262
 20
-23.7633
 11
-44.0397
 21
-23.7633
  0
LINE
  8
0
 10
22.075
 20
-35.575
 11
21.9882
 21
-35.5674
  0
LINE
  8
0
 10
21.9882
 20
-35.5674
 11
21.904
 21
-35.5448
  0
LINE
  8
0
 10
21.904
 20
-35.5448
 11
21.825
 21
-35.508
  0
LINE
  8
0
 10
21.825
 20
-35.508
 11
21.7536
 21
-35.458
  0
LINE
  8
0
 10
21.7536
 20
-35.458
 11
21.692
 21
-35.3964
  0
LINE
  8
0
 10
21.692
 20
-35.3964
 11
21.642
 21
-35.325
  0
LINE
  8
0
 10
21.642
 20
-35.325
 11
21.6051
 21
-35.246
  0
LINE
  8
0
 10
21.6051
 20
-35.246
 11
21.5826
 21
-35.1618
  0
LINE
  8
0
 10
21.5826
 20
-35.1618
 11
21.575
 21
-35.075
  0
LINE
  8
0
 10
21.575
 20
-35.075
 11
21.575
 21
-22.075
  0
LINE
  8
0
 10
21.575
 20
-22.075
 11
21.5826
 21
-21.9882
  0
LINE
  8
0
 10
21.5826
 20
-21.9882
 11
21.6051
 21
-21.904
  0
LINE
  8
0
 10
21.6051
 20
-21.904
 11
21.642
 21
-21.825
  0
LINE
  8
0
 10
21.642
 20
-21.825
 11
21.692
 21
-21.7536
  0
LINE
  8
0
 10
21.692
 20
-21.7536
 11
21.7536
 21
-21.692
  0
LINE
  8
0
 10
21.7536
 20
-21.692
 11
21.825
 21
-21.642
  0
LINE
  8
0
 10
21.825
 20
-21.642
 11
21.904
 21
-21.6051
  0
LINE
  8
0
 10
21.904
 20
-21.6051
 11
21.9882
 21
-21.5826
  0
LINE
  8
0
 10
21.9882
 20
-21.5826
 11
22.075
 21
-21.575
  0
LINE
  8
0
 10
22.075
 20
-21.575
 11
35.075
 21
-21.575
  0
LINE
  8
0
 10
35.075
 20
-21.575
 11
35.1618
 21
-21.5826
  0
LINE
  8
0
 10
35.1618
 20
-21.5826
 11
35.246
 21
-21.6051
  0
LINE
  8
0
 10
35.246
 20
-21.6051
 11
35.325
 21
-21.642
  0
LINE
  8
0
 10
35.325
 20
-21.642
 11
35.3964
 21
-21.692
  0
LINE
  8
0
 10
35.3964
 20
-21.692
 11
35.458
 21
-21.7536
  0
LINE
  8
0
 10
35.458
 20
-21.7536
 11
35.508
 21
-21.825
  0
LINE
  8
0
 10
35.508
 20
-21.825
 11
35.5448
 21
-21.904
  0
LINE
  8
0
 10
35.5448
 20
-21.904
 11
35.5674
 21
-21.9882
  0
LINE
  8
0
 10
35.5674
 20
-21.9882
 11
35.575
 21
-22.075
  0
LINE
  8
0
 10
35.575
 20
-22.075
 11
35.575
 21
-35.075
  0
LINE
  8
0
 10
35.575
 20
-35.075
 11
35.5674
 21
-35.1618
  0
LINE
  8
0
 10
35.5674
 20
-35.1618
 11
35.5448
 21
-35.246
  0
LINE
  8
0
 10
35.5448
 20
-35.246
 11
35.508
 21
-35.325
  0
LINE
  8
0
 10
35.508
 20
-35.325
 11
35.458
 21
-35.3964
  0
LINE
  8
0
 10
35.458
 20
-35.3964
 11
35.3964
 21
-35.458
  0
LINE
  8
0
 10
35.3964
 20
-35.458
 11
35.325
 21
-35.508
  0
LINE
  8
0
 10
35.325
 20
-35.508
 11
35.246
 21
-35.5448
  0
LINE
  8
0
 10
35.246
 20
-35.5448
 11
35.1618
 21
-35.5674
  0
LINE
  8
0
 10
35.1618
 20
-35.5674
 11
35.075
 21
-35.575
  0
LINE
  8
0
 10
35.075
 20
-35.575
 11
22.075
 21
-35.575
  0
LINE
  8
0
 10
3.02499
 20
-35.575
 11
2.93817
 21
-35.5674
  0
LINE
  8
0
 10
2.93817
 20
-35.5674
 11
2.85399
 21
-35.5448
  0
LINE
  8
0
 10
2.85399
 20
-35.5448
 11
2.77499
 21
-35.508
  0
LINE
  8
0
 10
2.77499
 20
-35.508
 11
2.7036
 21
-35.458
  0
LINE
  8
0
 10
2.7036
 20
-35.458
 11
2.64197
 21
-35.3964
  0
LINE
  8
0
 10
2.64197
 20
-35.3964
 11
2.59198
 21
-35.325
  0
LINE
  8
0
 10
2.59198
 20
-35.325
 11
2.55515
 21
-35.246
  0
LINE
  8
0
 10
2.55515
 20
-35.246
 11
2.53259
 21
-35.1618
  0
LINE
  8
0
 10
2.53259
 20
-35.1618
 11
2.52499
 21
-35.075
  0
LINE
  8
0
 10
2.52499
 20
-35.075
 11
2.52499
 21
-22.075
  0
LINE
  8
0
 10
2.52499
 20
-22.075
 11
2.53259
 21
-21.9882
  0
LINE
  8
0
 10
2.53259
 20
-21.9882
 11
2.55515
 21
-21.904
  0
LINE
  8
0
 10
2.55515
 20
-21.904
 11
2.59198
 21
-21.825
  0
LINE
  8
0
 10
2.59198
 20
-21.825
 11
2.64197
 21
-21.7536
  0
LINE
  8
0
 10
2.64197
 20
-21.7536
 11
2.7036
 21
-21.692
  0
LINE
  8
0
 10
2.7036
 20
-21.692
 11
2.77499
 21
-21.642
  0
LINE
  8
0
 10
2.77499
 20
-21.642
 11
2.85399
 21
-21.6051
  0
LINE
  8
0
 10
2.85399
 20
-21.6051
 11
2.93817
 21
-21.5826
  0
LINE
  8
0
 10
2.93817
 20
-21.5826
 11
3.02499
 21
-21.575
  0
LINE
  8
0
 10
3.02499
 20
-21.575
 11
16.025
 21
-21.575
  0
LINE
  8
0
 10
16.025
 20
-21.575
 11
16.1118
 21
-21.5826
  0
LINE
  8
0
 10
16.1118
 20
-21.5826
 11
16.196
 21
-21.6051
  0
LINE
  8
0
 10
16.196
 20
-21.6051
 11
16.275
 21
-21.642
  0
LINE
  8
0
 10
16.275
 20
-21.642
 11
16.3464
 21
-21.692
  0
LINE
  8
0
 10
16.3464
 20
-21.692
 11
16.408
 21
-21.7536
  0
LINE
  8
0
 10
16.408
 20
-21.7536
 11
16.458
 21
-21.825
  0
LINE
  8
0
 10
16.458
 20
-21.825
 11
16.4948
 21
-21.904
  0
LINE
  8
0
 10
16.4948
 20
-21.904
 11
16.5174
 21
-21.9882
  0
LINE
  8
0
 10
16.5174
 20
-21.9882
 11
16.525
 21
-22.075
  0
LINE
  8
0
 10
16.525
 20
-22.075
 11
16.525
 21
-35.075
  0
LINE
  8
0
 10
16.525
 20
-35.075
 11
16.5174
 21
-35.1618
  0
LINE
  8
0
 10
16.5174
 20
-35.1618
 11
16.4948
 21
-35.246
  0
LINE
  8
0
 10
16.4948
 20
-35.246
 11
16.458
 21
-35.325
  0
LINE
  8
0
 10
16.458
 20
-35.325
 11
16.408
 21
-35.3964
  0
LINE
  8
0
 10
16.408
 20
-35.3964
 11
16.3464
 21
-35.458
  0
LINE
  8
0
 10
16.3464
 20
-35.458
 11
16.275
 21
-35.508
  0
LINE
  8
0
 10
16.275
 20
-35.508
 11
16.196
 21
-35.5448
  0
LINE
  8
0
 10
16.196
 20
-35.5448
 11
16.1118
 21
-35.5674
  0
LINE
  8
0
 10
16.1118
 20
-35.5674
 11
16.025
 21
-35.575
  0
LINE
  8
0
 10
16.025
 20
-35.575
 11
3.02499
 21
-35.575
  0
LINE
  8
0
 10
-16.025
 20
-35.575
 11
-16.1118
 21
-35.5674
  0
LINE
  8
0
 10
-16.1118
 20
-35.5674
 11
-16.196
 21
-35.5448
  0
LINE
  8
0
 10
-16.196
 20
-35.5448
 11
-16.275
 21
-35.508
  0
LINE
  8
0
 10
-16.275
 20
-35.508
 11
-16.3464
 21
-35.458
  0
LINE
  8
0
 10
-16.3464
 20
-35.458
 11
-16.408
 21
-35.3964
  0
LINE
  8
0
 10
-16.408
 20
-35.3964
 11
-16.458
 21
-35.325
  0
LINE
  8
0
 10
-16.458
 20
-35.325
 11
-16.4948
 21
-35.246
  0
LINE
  8
0
 10
-16.4948
 20
-35.246
 11
-16.5174
 21
-35.1618
  0
LINE
  8
0
 10
-16.5174
 20
-35.1618
 11
-16.525
 21
-35.075
  0
LINE
  8
0
 10
-16.525
 20
-35.075
 11
-16.525
 21
-22.075
  0
LINE
  8
0
 10
-16.525
 20
-22.075
 11
-16.5174
 21
-21.9882
  0
LINE
  8
0
 10
-16.5174
 20
-21.9882
 11
-16.4948
 21
-21.904
  0
LINE
  8
0
 10
-16.4948
 20
-21.904
 11
-16.458
 21
-21.825
  0
LINE
  8
0
 10
-16.458
 20
-21.825
 11
-16.408
 21
-21.7536
  0
LINE
  8
0
 10
-16.408
 20
-21.7536
 11
-16.3464
 21
-21.692
  0
LINE
  8
0
 10
-16.3464
 20
-21.692
 11
-16.275
 21
-21.642
  0
LINE
  8
0
 10
-16.275
 20
-21.642
 11
-16.196
 21
-21.6051
  0
LINE
  8
0
 10
-16.196
 20
-21.6051
 11
-16.1118
 21
-21.5826
  0
LINE
  8
0
 10
-16.1118
 20
-21.5826
 11
-16.025
 21
-21.575
  0
LINE
  8
0
 10
-16.025
 20
-21.575
 11
-3.02499
 21
-21.575
  0
LINE
  8
0
 10
-3.02499
 20
-21.575
 11
-2.93817
 21
-21.5826
  0
LINE
  8
0
 10
-2.93817
 20
-21.5826
 11
-2.85399
 21
-21.6051
  0
LINE
  8
0
 10
-2.85399
 20
-21.6051
 11
-2.77499
 21
-21.642
  0
LINE
  8
0
 10
-2.77499
 20
-21.642
 11
-2.7036
 21
-21.692
  0
LINE
  8
0
 10
-2.7036
 20
-21.692
 11
-2.64197
 21
-21.7536
  0
LINE
  8
0
 10
-2.64197
 20
-21.7536
 11
-2.59198
 21
-21.825
  0
LINE
  8
0
 10
-2.59198
 20
-21.825
 11
-2.55515
 21
-21.904
  0
LINE
  8
0
 10
-2.55515
 20
-21.904
 11
-2.53259
 21
-21.9882
  0
LINE
  8
0
 10
-2.53259
 20
-21.9882
 11
-2.52499
 21
-22.075
  0
LINE
  8
0
 10
-2.52499
 20
-22.075
 11
-2.52499
 21
-35.075
  0
LINE
  8
0
 10
-2.52499
 20
-35.075
 11
-2.53259
 21
-35.1618
  0
LINE
  8
0
 10
-2.53259
 20
-35.1618
 11
-2.55515
 21
-35.246
  0
LINE
  8
0
 10
-2.55515
 20
-35.246
 11
-2.59198
 21
-35.325
  0
LINE
  8
0
 10
-2.59198
 20
-35.325
 11
-2.64197
 21
-35.3964
  0
LINE
  8
0
 10
-2.64197
 20
-35.3964
 11
-2.7036
 21
-35.458
  0
LINE
  8
0
 10
-2.7036
 20
-35.458
 11
-2.77499
 21
-35.508
  0
LINE
  8
0
 10
-2.77499
 20
-35.508
 11
-2.85399
 21
-35.5448
  0
LINE
  8
0
 10
-2.85399
 20
-35.5448
 11
-2.93817
 21
-35.5674
  0
LINE
  8
0
 10
-2.93817
 20
-35.5674
 11
-3.02499
 21
-35.575
  0
LINE
  8
0
 10
-3.02499
 20
-35.575
 11
-16.025
 21
-35.575
  0
LINE
  8
0
 10
-35.075
 20
-35.575
 11
-35.1618
 21
-35.5674
  0
LINE
  8
0
 10
-35.1618
 20
-35.5674
 11
-35.246
 21
-35.5448
  0
LINE
  8
0
 10
-35.246
 20
-35.5448
 11
-35.325
 21
-35.508
  0
LINE
  8
0
 10
-35.325
 20
-35.508
 11
-35.3964
 21
-35.458
  0
LINE
  8
0
 10
-35.3964
 20
-35.458
 11
-35.458
 21
-35.3964
  0
LINE
  8
0
 10
-35.458
 20
-35.3964
 11
-35.508
 21
-35.325
  0
LINE
  8
0
 10
-35.508
 20
-35.325
 11
-35.5448
 21
-35.246
  0
LINE
  8
0
 10
-35.5448
 20
-35.246
 11
-35.5674
 21
-35.1618
  0
LINE
  8
0
 10
-35.5674
 20
-35.1618
 11
-35.575
 21
-35.075
  0
LINE
  8
0
 10
-35.575
 20
-35.075
 11
-35.575
 21
-22.075
  0
LINE
  8
0
 10
-35.575
 20
-22.075
 11
-35.5674
 21
-21.9882
  0
LINE
  8
0
 10
-35.5674
 20
-21.9882
 11
-35.5448
 21
-21.904
  0
LINE
  8
0
 10
-35.5448
 20
-21.904
 11
-35.508
 21
-21.825
  0
LINE
  8
0
 10
-35.508
 20
-21.825
 11
-35.458
 21
-21.7536
  0
LINE
  8
0
 10
-35.458
 20
-21.7536
 11
-35.3964
 21
-21.692
  0
LINE
  8
0
 10
-35.3964
 20
-21.692
 11
-35.325
 21
-21.642
  0
LINE
  8
0
 10
-35.325
 20
-21.642
 11
-35.246
 21
-21.6051
  0
LINE
  8
0
 10
-35.246
 20
-21.6051
 11
-35.1618
 21
-21.5826
  0
LINE
  8
0
 10
-35.1618
 20
-21.5826
 11
-35.075
 21
-21.575
  0
LINE
  8
0
 10
-35.075
 20
-21.575
 11
-22.075
 21
-21.575
  0
LINE
  8
0
 10
-22.075
 20
-21.575
 11
-21.9882
 21
-21.5826
  0
LINE
  8
0
 10
-21.9882
 20
-21.5826
 11
-21.904
 21
-21.6051
  0
LINE
  8
0
 10
-21.904
 20
-21.6051
 11
-21.825
 21
-21.642
  0
LINE
  8
0
 10
-21.825
 20
-21.642
 11
-21.7536
 21
-21.692
  0
LINE
  8
0
 10
-21.7536
 20
-21.692
 11
-21.692
 21
-21.7536
  0
LINE
  8
0
 10
-21.692
 20
-21.7536
 11
-21.642
 21
-21.825
  0
LINE
  8
0
 10
-21.642
 20
-21.825
 11
-21.6051
 21
-21.904
  0
LINE
  8
0
 10
-21.6051
 20
-21.904
 11
-21.5826
 21
-21.9882
  0
LINE
  8
0
 10
-21.5826
 20
-21.9882
 11
-21.575
 21
-22.075
  0
LINE
  8
0
 10
-21.575
 20
-22.075
 11
-21.575
 21
-35.075
  0
LINE
  8
0
 10
-21.575
 20
-35.075
 11
-21.5826
 21
-35.1618
  0
LINE
  8
0
 10
-21.5826
 20
-35.1618
 11
-21.6051
 21
-35.246
  0
LINE
  8
0
 10
-21.6051
 20
-35.246
 11
-21.642
 21
-35.325
  0
LINE
  8
0
 10
-21.642
 20
-35.325
 11
-21.692
 21
-35.3964
  0
LINE
  8
0
 10
-21.692
 20
-35.3964
 11
-21.7536
 21
-35.458
  0
LINE
  8
0
 10
-21.7536
 20
-35.458
 11
-21.825
 21
-35.508
  0
LINE
  8
0
 10
-21.825
 20
-35.508
 11
-21.904
 21
-35.5448
  0
LINE
  8
0
 10
-21.904
 20
-35.5448
 11
-21.9882
 21
-35.5674
  0
LINE
  8
0
 10
-21.9882
 20
-35.5674
 11
-22.075
 21
-35.575
  0
LINE
  8
0
 10
-22.075
 20
-35.575
 11
-35.075
 21
-35.575
  0
LINE
  8
0
 10
-21.6567
 20
-45.2966
 11
-21.8685
 21
-45.2699
  0
LINE
  8
0
 10
-21.8685
 20
-45.2699
 11
-22.0753
 21
-45.2168
  0
LINE
  8
0
 10
-22.0753
 20
-45.2168
 11
-22.2738
 21
-45.1382
  0
LINE
  8
0
 10
-22.2738
 20
-45.1382
 11
-22.4609
 21
-45.0354
  0
LINE
  8
0
 10
-22.4609
 20
-45.0354
 11
-22.6336
 21
-44.9099
  0
LINE
  8
0
 10
-22.6336
 20
-44.9099
 11
-22.7892
 21
-44.7637
  0
LINE
  8
0
 10
-22.7892
 20
-44.7637
 11
-22.9253
 21
-44.5992
  0
LINE
  8
0
 10
-22.9253
 20
-44.5992
 11
-23.0397
 21
-44.419
  0
LINE
  8
0
 10
-23.0397
 20
-44.419
 11
-23.1306
 21
-44.2258
  0
LINE
  8
0
 10
-23.1306
 20
-44.2258
 11
-23.1966
 21
-44.0228
  0
LINE
  8
0
 10
-23.1966
 20
-44.0228
 11
-23.2366
 21
-43.8131
  0
LINE
  8
0
 10
-23.2366
 20
-43.8131
 11
-23.25
 21
-43.6
  0
LINE
  8
0
 10
-23.25
 20
-43.6
 11
-23.2366
 21
-43.3869
  0
LINE
  8
0
 10
-23.2366
 20
-43.3869
 11
-23.1966
 21
-43.1772
  0
LINE
  8
0
 10
-23.1966
 20
-43.1772
 11
-23.1306
 21
-42.9742
  0
LINE
  8
0
 10
-23.1306
 20
-42.9742
 11
-23.0397
 21
-42.781
  0
LINE
  8
0
 10
-23.0397
 20
-42.781
 11
-22.9253
 21
-42.6008
  0
LINE
  8
0
 10
-22.9253
 20
-42.6008
 11
-22.7892
 21
-42.4363
  0
LINE
  8
0
 10
-22.7892
 20
-42.4363
 11
-22.6336
 21
-42.2901
  0
LINE
  8
0
 10
-22.6336
 20
-42.2901
 11
-22.4609
 21
-42.1646
  0
LINE
  8
0
 10
-22.4609
 20
-42.1646
 11
-22.2738
 21
-42.0618
  0
LINE
  8
0
 10
-22.2738
 20
-42.0618
 11
-22.0753
 21
-41.9832
  0
LINE
  8
0
 10
-22.0753
 20
-41.9832
 11
-21.8685
 21
-41.9301
  0
LINE
  8
0
 10
-21.8685
 20
-41.9301
 11
-21.6567
 21
-41.9034
  0
LINE
  8
0
 10
-21.6567
 20
-41.9034
 11
-21.4433
 21
-41.9034
  0
LINE
  8
0
 10
-21.4433
 20
-41.9034
 11
-21.2314
 21
-41.9301
  0
LINE
  8
0
 10
-21.2314
 20
-41.9301
 11
-21.0247
 21
-41.9832
  0
LINE
  8
0
 10
-21.0247
 20
-41.9832
 11
-20.8262
 21
-42.0618
  0
LINE
  8
0
 10
-20.8262
 20
-42.0618
 11
-20.6391
 21
-42.1646
  0
LINE
  8
0
 10
-20.6391
 20
-42.1646
 11
-20.4664
 21
-42.2901
  0
LINE
  8
0
 10
-20.4664
 20
-42.2901
 11
-20.3107
 21
-42.4363
  0
LINE
  8
0
 10
-20.3107
 20
-42.4363
 11
-20.1747
 21
-42.6008
  0
LINE
  8
0
 10
-20.1747
 20
-42.6008
 11
-20.0603
 21
-42.781
  0
LINE
  8
0
 10
-20.0603
 20
-42.781
 11
-19.9694
 21
-42.9742
  0
LINE
  8
0
 10
-19.9694
 20
-42.9742
 11
-19.9034
 21
-43.1772
  0
LINE
  8
0
 10
-19.9034
 20
-43.1772
 11
-19.8634
 21
-43.3869
  0
LINE
  8
0
 10
-19.8634
 20
-43.3869
 11
-19.85
 21
-43.6
  0
LINE
  8
0
 10
-19.85
 20
-43.6
 11
-19.8634
 21
-43.8131
  0
LINE
  8
0
 10
-19.8634
 20
-43.8131
 11
-19.9034
 21
-44.0228
  0
LINE
  8
0
 10
-19.9034
 20
-44.0228
 11
-19.9694
 21
-44.2258
  0
LINE
  8
0
 10
-19.9694
 20
-44.2258
 11
-20.0603
 21
-44.419
  0
LINE
  8
0
 10
-20.0603
 20
-44.419
 11
-20.1747
 21
-44.5992
  0
LINE
  8
0
 10
-20.1747
 20
-44.5992
 11
-20.3107
 21
-44.7637
  0
LINE
  8
0
 10
-20.3107
 20
-44.7637
 11
-20.4664
 21
-44.9099
  0
LINE
  8
0
 10
-20.4664
 20
-44.9099
 11
-20.6391
 21
-45.0354
  0
LINE
  8
0
 10
-20.6391
 20
-45.0354
 11
-20.8262
 21
-45.1382
  0
LINE
  8
0
 10
-20.8262
 20
-45.1382
 11
-21.0247
 21
-45.2168
  0
LINE
  8
0
 10
-21.0247
 20
-45.2168
 11
-21.2314
 21
-45.2699
  0
LINE
  8
0
 10
-21.2314
 20
-45.2699
 11
-21.4433
 21
-45.2966
  0
LINE
  8
0
 10
-21.4433
 20
-45.2966
 11
-21.6567
 21
-45.2966
  0
LINE
  8
0
 10
21.4433
 20
-45.2966
 11
21.2314
 21
-45.2699
  0
LINE
  8
0
 10
21.2314
 20
-45.2699
 11
21.0247
 21
-45.2168
  0
LINE
  8
0
 10
21.0247
 20
-45.2168
 11
20.8262
 21
-45.1382
  0
LINE
  8
0
 10
20.8262
 20
-45.1382
 11
20.6391
 21
-45.0354
  0
LINE
  8
0
 10
20.6391
 20
-45.0354
 11
20.4664
 21
-44.9099
  0
LINE
  8
0
 10
20.4664
 20
-44.9099
 11
20.3107
 21
-44.7637
  0
LINE
  8
0
 10
20.3107
 20
-44.7637
 11
20.1747
 21
-44.5992
  0
LINE
  8
0
 10
20.1747
 20
-44.5992
 11
20.0603
 21
-44.419
  0
LINE
  8
0
 10
20.0603
 20
-44.419
 11
19.9694
 21
-44.2258
  0
LINE
  8
0
 10
19.9694
 20
-44.2258
 11
19.9034
 21
-44.0228
  0
LINE
  8
0
 10
19.9034
 20
-44.0228
 11
19.8634
 21
-43.8131
  0
LINE
  8
0
 10
19.8634
 20
-43.8131
 11
19.85
 21
-43.6
  0
LINE
  8
0
 10
19.85
 20
-43.6
 11
19.8634
 21
-43.3869
  0
LINE
  8
0
 10
19.8634
 20
-43.3869
 11
19.9034
 21
-43.1772
  0
LINE
  8
0
 10
19.9034
 20
-43.1772
 11
19.9694
 21
-42.9742
  0
LINE
  8
0
 10
19.9694
 20
-42.9742
 11
20.0603
 21
-42.781
  0
LINE
  8
0
 10
20.0603
 20
-42.781
 11
20.1747
 21
-42.6008
  0
LINE
  8
0
 10
20.1747
 20
-42.6008
 11
20.3107
 21
-42.4363
  0
LINE
  8
0
 10
20.3107
 20
-42.4363
 11
20.4664
 21
-42.2901
  0
LINE
  8
0
 10
20.4664
 20
-42.2901
 11
20.6391
 21
-42.1646
  0
LINE
  8
0
 10
20.6391
 20
-42.1646
 11
20.8262
 21
-42.0618
  0
LINE
  8
0
 10
20.8262
 20
-42.0618
 11
21.0247
 21
-41.9832
  0
LINE
  8
0
 10
21.0247
 20
-41.9832
 11
21.2314
 21
-41.9301
  0
LINE
  8
0
 10
21.2314
 20
-41.9301
 11
21.4433
 21
-41.9034
  0
LINE
  8
0
 10
21.4433
 20
-41.9034
 11
21.6567
 21
-41.9034
  0
LINE
  8
0
 10
21.6567
 20
-41.9034
 11
21.8685
 21
-41.9301
  0
LINE
  8
0
 10
21.8685
 20
-41.9301
 11
22.0753
 21
-41.9832
  0
LINE
  8
0
 10
22.0753
 20
-41.9832
 11
22.2738
 21
-42.0618
  0
LINE
  8
0
 10
22.2738
 20
-42.0618
 11
22.4609
 21
-42.1646
  0
LINE
  8
0
 10
22.4609
 20
-42.1646
 11
22.6336
 21
-42.2901
  0
LINE
  8
0
 10
22.6336
 20
-42.2901
 11
22.7892
 21
-42.4363
  0
LINE
  8
0
 10
22.7892
 20
-42.4363
 11
22.9253
 21
-42.6008
  0
LINE
  8
0
 10
22.9253
 20
-42.6008
 11
23.0397
 21
-42.781
  0
LINE
  8
0
 10
23.0397
 20
-42.781
 11
23.1306
 21
-42.9742
  0
LINE
  8
0
 10
23.1306
 20
-42.9742
 11
23.1966
 21
-43.1772
  0
LINE
  8
0
 10
23.1966
 20
-43.1772
 11
23.2366
 21
-43.3869
  0
LINE
  8
0
 10
23.2366
 20
-43.3869
 11
23.25
 21
-43.6
  0
LINE
  8
0
 10
23.25
 20
-43.6
 11
23.2366
 21
-43.8131
  0
LINE
  8
0
 10
23.2366
 20
-43.8131
 11
23.1966
 21
-44.0228
  0
LINE
  8
0
 10
23.1966
 20
-44.0228
 11
23.1306
 21
-44.2258
  0
LINE
  8
0
 10
23.1306
 20
-44.2258
 11
23.0397
 21
-44.419
  0
LINE
  8
0
 10
23.0397
 20
-44.419
 11
22.9253
 21
-44.5992
  0
LINE
  8
0
 10
22.9253
 20
-44.5992
 11
22.7892
 21
-44.7637
  0
LINE
  8
0
 10
22.7892
 20
-44.7637
 11
22.6336
 21
-44.9099
  0
LINE
  8
0
 10
22.6336
 20
-44.9099
 11
22.4609
 21
-45.0354
  0
LINE
  8
0
 10
22.4609
 20
-45.0354
 11
22.2738
 21
-45.1382
  0
LINE
  8
0
 10
22.2738
 20
-45.1382
 11
22.0753
 21
-45.2168
  0
LINE
  8
0
 10
22.0753
 20
-45.2168
 11
21.8685
 21
-45.2699
  0
LINE
  8
0
 10
21.8685
 20
-45.2699
 11
21.6567
 21
-45.2966
  0
LINE
  8
0
 10
21.6567
 20
-45.2966
 11
21.4433
 21
-45.2966
  0
ENDSEC
  0
SECTION
  2
OBJECTS
  0
DICTIONARY
  0
ENDSEC
  0
EOF
