  0
SECTION
  2
BLOCKS
  0
ENDSEC
  0
SECTION
  2
ENTITIES
  0
LINE
  8
0
 10
92.5141
 20
0.00492859
 11
92.8279
 21
0.0197296
  0
LINE
  8
0
 10
92.8279
 20
0.0197296
 11
93.1411
 21
0.0443726
  0
LINE
  8
0
 10
93.1411
 20
0.0443726
 11
93.4533
 21
0.0788422
  0
LINE
  8
0
 10
93.4533
 20
0.0788422
 11
93.7643
 21
0.123108
  0
LINE
  8
0
 10
93.7643
 20
0.123108
 11
94.0738
 21
0.177124
  0
LINE
  8
0
 10
94.0738
 20
0.177124
 11
94.3814
 21
0.240829
  0
LINE
  8
0
 10
94.3814
 20
0.240829
 11
94.6869
 21
0.314163
  0
LINE
  8
0
 10
94.6869
 20
0.314163
 11
94.9899
 21
0.397049
  0
LINE
  8
0
 10
94.9899
 20
0.397049
 11
95.2902
 21
0.489426
  0
LINE
  8
0
 10
95.2902
 20
0.489426
 11
95.5874
 21
0.591187
  0
LINE
  8
0
 10
95.5874
 20
0.591187
 11
95.8812
 21
0.702225
  0
LINE
  8
0
 10
95.8812
 20
0.702225
 11
96.1715
 21
0.822449
  0
LINE
  8
0
 10
96.1715
 20
0.822449
 11
96.4578
 21
0.951721
  0
LINE
  8
0
 10
96.4578
 20
0.951721
 11
96.7399
 21
1.08992
  0
LINE
  8
0
 10
96.7399
 20
1.08992
 11
97.0175
 21
1.23692
  0
LINE
  8
0
 10
97.0175
 20
1.23692
 11
97.2904
 21
1.39258
  0
LINE
  8
0
 10
97.2904
 20
1.39258
 11
97.5583
 21
1.55672
  0
LINE
  8
0
 10
97.5583
 20
1.55672
 11
97.8208
 21
1.72919
  0
LINE
  8
0
 10
97.8208
 20
1.72919
 11
98.0779
 21
1.90982
  0
LINE
  8
0
 10
98.0779
 20
1.90982
 11
98.3291
 21
2.09845
  0
LINE
  8
0
 10
98.3291
 20
2.09845
 11
98.5742
 21
2.29486
  0
LINE
  8
0
 10
98.5742
 20
2.29486
 11
98.8131
 21
2.49889
  0
LINE
  8
0
 10
98.8131
 20
2.49889
 11
99.0455
 21
2.71031
  0
LINE
  8
0
 10
99.0455
 20
2.71031
 11
99.2711
 21
2.92892
  0
LINE
  8
0
 10
99.2711
 20
2.92892
 11
99.4897
 21
3.15453
  0
LINE
  8
0
 10
99.4897
 20
3.15453
 11
99.7011
 21
3.38687
  0
LINE
  8
0
 10
99.7011
 20
3.38687
 11
99.9051
 21
3.62575
  0
LINE
  8
0
 10
99.9051
 20
3.62575
 11
100.102
 21
3.87093
  0
LINE
  8
0
 10
100.102
 20
3.87093
 11
100.29
 21
4.12215
  0
LINE
  8
0
 10
100.29
 20
4.12215
 11
100.471
 21
4.37917
  0
LINE
  8
0
 10
100.471
 20
4.37917
 11
100.643
 21
4.64172
  0
LINE
  8
0
 10
100.643
 20
4.64172
 11
100.807
 21
4.90958
  0
LINE
  8
0
 10
100.807
 20
4.90958
 11
100.963
 21
5.18245
  0
LINE
  8
0
 10
100.963
 20
5.18245
 11
101.11
 21
5.46008
  0
LINE
  8
0
 10
101.11
 20
5.46008
 11
101.248
 21
5.7422
  0
LINE
  8
0
 10
101.248
 20
5.7422
 11
101.378
 21
6.02852
  0
LINE
  8
0
 10
101.378
 20
6.02852
 11
101.498
 21
6.31874
  0
LINE
  8
0
 10
101.498
 20
6.31874
 11
101.609
 21
6.61261
  0
LINE
  8
0
 10
101.609
 20
6.61261
 11
101.711
 21
6.90982
  0
LINE
  8
0
 10
101.711
 20
6.90982
 11
101.803
 21
7.21008
  0
LINE
  8
0
 10
101.803
 20
7.21008
 11
101.886
 21
7.51309
  0
LINE
  8
0
 10
101.886
 20
7.51309
 11
101.959
 21
7.81856
  0
LINE
  8
0
 10
101.959
 20
7.81856
 11
102.023
 21
8.12617
  0
LINE
  8
0
 10
102.023
 20
8.12617
 11
102.077
 21
8.43565
  0
LINE
  8
0
 10
102.077
 20
8.43565
 11
102.121
 21
8.74666
  0
LINE
  8
0
 10
102.121
 20
8.74666
 11
102.156
 21
9.05891
  0
LINE
  8
0
 10
102.156
 20
9.05891
 11
102.18
 21
9.37209
  0
LINE
  8
0
 10
102.18
 20
9.37209
 11
102.195
 21
9.68588
  0
LINE
  8
0
 10
102.195
 20
9.68588
 11
102.2
 21
10
  0
LINE
  8
0
 10
102.2
 20
10
 11
102.2
 21
112.2
  0
LINE
  8
0
 10
102.2
 20
112.2
 11
102.195
 21
112.514
  0
LINE
  8
0
 10
102.195
 20
112.514
 11
102.18
 21
112.828
  0
LINE
  8
0
 10
102.18
 20
112.828
 11
102.156
 21
113.141
  0
LINE
  8
0
 10
102.156
 20
113.141
 11
102.121
 21
113.453
  0
LINE
  8
0
 10
102.121
 20
113.453
 11
102.077
 21
113.764
  0
LINE
  8
0
 10
102.077
 20
113.764
 11
102.023
 21
114.074
  0
LINE
  8
0
 10
102.023
 20
114.074
 11
101.959
 21
114.381
  0
LINE
  8
0
 10
101.959
 20
114.381
 11
101.886
 21
114.687
  0
LINE
  8
0
 10
101.886
 20
114.687
 11
101.803
 21
114.99
  0
LINE
  8
0
 10
101.803
 20
114.99
 11
101.711
 21
115.29
  0
LINE
  8
0
 10
101.711
 20
115.29
 11
101.609
 21
115.587
  0
LINE
  8
0
 10
101.609
 20
115.587
 11
101.498
 21
115.881
  0
LINE
  8
0
 10
101.498
 20
115.881
 11
101.378
 21
116.171
  0
LINE
  8
0
 10
101.378
 20
116.171
 11
101.248
 21
116.458
  0
LINE
  8
0
 10
101.248
 20
116.458
 11
101.11
 21
116.74
  0
LINE
  8
0
 10
101.11
 20
116.74
 11
100.963
 21
117.018
  0
LINE
  8
0
 10
100.963
 20
117.018
 11
100.807
 21
117.29
  0
LINE
  8
0
 10
100.807
 20
117.29
 11
100.643
 21
117.558
  0
LINE
  8
0
 10
100.643
 20
117.558
 11
100.471
 21
117.821
  0
LINE
  8
0
 10
100.471
 20
117.821
 11
100.29
 21
118.078
  0
LINE
  8
0
 10
100.29
 20
118.078
 11
100.102
 21
118.329
  0
LINE
  8
0
 10
100.102
 20
118.329
 11
99.9051
 21
118.574
  0
LINE
  8
0
 10
99.9051
 20
118.574
 11
99.7011
 21
118.813
  0
LINE
  8
0
 10
99.7011
 20
118.813
 11
99.4897
 21
119.045
  0
LINE
  8
0
 10
99.4897
 20
119.045
 11
99.2711
 21
119.271
  0
LINE
  8
0
 10
99.2711
 20
119.271
 11
99.0455
 21
119.49
  0
LINE
  8
0
 10
99.0455
 20
119.49
 11
98.8131
 21
119.701
  0
LINE
  8
0
 10
98.8131
 20
119.701
 11
98.5742
 21
119.905
  0
LINE
  8
0
 10
98.5742
 20
119.905
 11
98.3291
 21
120.102
  0
LINE
  8
0
 10
98.3291
 20
120.102
 11
98.0779
 21
120.29
  0
LINE
  8
0
 10
98.0779
 20
120.29
 11
97.8208
 21
120.471
  0
LINE
  8
0
 10
97.8208
 20
120.471
 11
97.5583
 21
120.643
  0
LINE
  8
0
 10
97.5583
 20
120.643
 11
97.2904
 21
120.807
  0
LINE
  8
0
 10
97.2904
 20
120.807
 11
97.0175
 21
120.963
  0
LINE
  8
0
 10
97.0175
 20
120.963
 11
96.7399
 21
121.11
  0
LINE
  8
0
 10
96.7399
 20
121.11
 11
96.4578
 21
121.248
  0
LINE
  8
0
 10
96.4578
 20
121.248
 11
96.1715
 21
121.378
  0
LINE
  8
0
 10
96.1715
 20
121.378
 11
95.8812
 21
121.498
  0
LINE
  8
0
 10
95.8812
 20
121.498
 11
95.5874
 21
121.609
  0
LINE
  8
0
 10
95.5874
 20
121.609
 11
95.2902
 21
121.711
  0
LINE
  8
0
 10
95.2902
 20
121.711
 11
94.9899
 21
121.803
  0
LINE
  8
0
 10
94.9899
 20
121.803
 11
94.6869
 21
121.886
  0
LINE
  8
0
 10
94.6869
 20
121.886
 11
94.3814
 21
121.959
  0
LINE
  8
0
 10
94.3814
 20
121.959
 11
94.0738
 21
122.023
  0
LINE
  8
0
 10
94.0738
 20
122.023
 11
93.7643
 21
122.077
  0
LINE
  8
0
 10
93.7643
 20
122.077
 11
93.4533
 21
122.121
  0
LINE
  8
0
 10
93.4533
 20
122.121
 11
93.1411
 21
122.156
  0
LINE
  8
0
 10
93.1411
 20
122.156
 11
92.8279
 21
122.18
  0
LINE
  8
0
 10
92.8279
 20
122.18
 11
92.5141
 21
122.195
  0
LINE
  8
0
 10
92.5141
 20
122.195
 11
92.2
 21
122.2
  0
LINE
  8
0
 10
92.2
 20
122.2
 11
58.6
 21
122.2
  0
LINE
  8
0
 10
58.6
 20
122.2
 11
58.6
 21
112.2
  0
LINE
  8
0
 10
58.6
 20
112.2
 11
92.2
 21
112.2
  0
LINE
  8
0
 10
92.2
 20
112.2
 11
92.2
 21
92.2
  0
LINE
  8
0
 10
92.2
 20
92.2
 11
10
 21
92.2
  0
LINE
  8
0
 10
10
 20
92.2
 11
10
 21
112.2
  0
LINE
  8
0
 10
10
 20
112.2
 11
43.6
 21
112.2
  0
LINE
  8
0
 10
43.6
 20
112.2
 11
43.6
 21
122.2
  0
LINE
  8
0
 10
43.6
 20
122.2
 11
10
 21
122.2
  0
LINE
  8
0
 10
10
 20
122.2
 11
9.68588
 21
122.195
  0
LINE
  8
0
 10
9.68588
 20
122.195
 11
9.37209
 21
122.18
  0
LINE
  8
0
 10
9.37209
 20
122.18
 11
9.05891
 21
122.156
  0
LINE
  8
0
 10
9.05891
 20
122.156
 11
8.74666
 21
122.121
  0
LINE
  8
0
 10
8.74666
 20
122.121
 11
8.43565
 21
122.077
  0
LINE
  8
0
 10
8.43565
 20
122.077
 11
8.12617
 21
122.023
  0
LINE
  8
0
 10
8.12617
 20
122.023
 11
7.81856
 21
121.959
  0
LINE
  8
0
 10
7.81856
 20
121.959
 11
7.51309
 21
121.886
  0
LINE
  8
0
 10
7.51309
 20
121.886
 11
7.21008
 21
121.803
  0
LINE
  8
0
 10
7.21008
 20
121.803
 11
6.90982
 21
121.711
  0
LINE
  8
0
 10
6.90982
 20
121.711
 11
6.61261
 21
121.609
  0
LINE
  8
0
 10
6.61261
 20
121.609
 11
6.31874
 21
121.498
  0
LINE
  8
0
 10
6.31874
 20
121.498
 11
6.02852
 21
121.378
  0
LINE
  8
0
 10
6.02852
 20
121.378
 11
5.7422
 21
121.248
  0
LINE
  8
0
 10
5.7422
 20
121.248
 11
5.46008
 21
121.11
  0
LINE
  8
0
 10
5.46008
 20
121.11
 11
5.18245
 21
120.963
  0
LINE
  8
0
 10
5.18245
 20
120.963
 11
4.90958
 21
120.807
  0
LINE
  8
0
 10
4.90958
 20
120.807
 11
4.64172
 21
120.643
  0
LINE
  8
0
 10
4.64172
 20
120.643
 11
4.37917
 21
120.471
  0
LINE
  8
0
 10
4.37917
 20
120.471
 11
4.12215
 21
120.29
  0
LINE
  8
0
 10
4.12215
 20
120.29
 11
3.87093
 21
120.102
  0
LINE
  8
0
 10
3.87093
 20
120.102
 11
3.62575
 21
119.905
  0
LINE
  8
0
 10
3.62575
 20
119.905
 11
3.38687
 21
119.701
  0
LINE
  8
0
 10
3.38687
 20
119.701
 11
3.15453
 21
119.49
  0
LINE
  8
0
 10
3.15453
 20
119.49
 11
2.92892
 21
119.271
  0
LINE
  8
0
 10
2.92892
 20
119.271
 11
2.71031
 21
119.045
  0
LINE
  8
0
 10
2.71031
 20
119.045
 11
2.49889
 21
118.813
  0
LINE
  8
0
 10
2.49889
 20
118.813
 11
2.29486
 21
118.574
  0
LINE
  8
0
 10
2.29486
 20
118.574
 11
2.09845
 21
118.329
  0
LINE
  8
0
 10
2.09845
 20
118.329
 11
1.90982
 21
118.078
  0
LINE
  8
0
 10
1.90982
 20
118.078
 11
1.72919
 21
117.821
  0
LINE
  8
0
 10
1.72919
 20
117.821
 11
1.55672
 21
117.558
  0
LINE
  8
0
 10
1.55672
 20
117.558
 11
1.39258
 21
117.29
  0
LINE
  8
0
 10
1.39258
 20
117.29
 11
1.23692
 21
117.018
  0
LINE
  8
0
 10
1.23692
 20
117.018
 11
1.08992
 21
116.74
  0
LINE
  8
0
 10
1.08992
 20
116.74
 11
0.951721
 21
116.458
  0
LINE
  8
0
 10
0.951721
 20
116.458
 11
0.822449
 21
116.171
  0
LINE
  8
0
 10
0.822449
 20
116.171
 11
0.702225
 21
115.881
  0
LINE
  8
0
 10
0.702225
 20
115.881
 11
0.591187
 21
115.587
  0
LINE
  8
0
 10
0.591187
 20
115.587
 11
0.489426
 21
115.29
  0
LINE
  8
0
 10
0.489426
 20
115.29
 11
0.397049
 21
114.99
  0
LINE
  8
0
 10
0.397049
 20
114.99
 11
0.314163
 21
114.687
  0
LINE
  8
0
 10
0.314163
 20
114.687
 11
0.240829
 21
114.381
  0
LINE
  8
0
 10
0.240829
 20
114.381
 11
0.177124
 21
114.074
  0
LINE
  8
0
 10
0.177124
 20
114.074
 11
0.123108
 21
113.764
  0
LINE
  8
0
 10
0.123108
 20
113.764
 11
0.0788422
 21
113.453
  0
LINE
  8
0
 10
0.0788422
 20
113.453
 11
0.0443726
 21
113.141
  0
LINE
  8
0
 10
0.0443726
 20
113.141
 11
0.0197296
 21
112.828
  0
LINE
  8
0
 10
0.0197296
 20
112.828
 11
0.00492859
 21
112.514
  0
LINE
  8
0
 10
0.00492859
 20
112.514
 11
0
 21
112.2
  0
LINE
  8
0
 10
0
 20
112.2
 11
0
 21
10
  0
LINE
  8
0
 10
0
 20
10
 11
0.00492859
 21
9.68588
  0
LINE
  8
0
 10
0.00492859
 20
9.68588
 11
0.0197296
 21
9.37209
  0
LINE
  8
0
 10
0.0197296
 20
9.37209
 11
0.0443726
 21
9.05891
  0
LINE
  8
0
 10
0.0443726
 20
9.05891
 11
0.0788422
 21
8.74666
  0
LINE
  8
0
 10
0.0788422
 20
8.74666
 11
0.123108
 21
8.43565
  0
LINE
  8
0
 10
0.123108
 20
8.43565
 11
0.177124
 21
8.12617
  0
LINE
  8
0
 10
0.177124
 20
8.12617
 11
0.240829
 21
7.81856
  0
LINE
  8
0
 10
0.240829
 20
7.81856
 11
0.314163
 21
7.51309
  0
LINE
  8
0
 10
0.314163
 20
7.51309
 11
0.397049
 21
7.21008
  0
LINE
  8
0
 10
0.397049
 20
7.21008
 11
0.489426
 21
6.90982
  0
LINE
  8
0
 10
0.489426
 20
6.90982
 11
0.591187
 21
6.61261
  0
LINE
  8
0
 10
0.591187
 20
6.61261
 11
0.702225
 21
6.31874
  0
LINE
  8
0
 10
0.702225
 20
6.31874
 11
0.822449
 21
6.02852
  0
LINE
  8
0
 10
0.822449
 20
6.02852
 11
0.951721
 21
5.7422
  0
LINE
  8
0
 10
0.951721
 20
5.7422
 11
1.08992
 21
5.46008
  0
LINE
  8
0
 10
1.08992
 20
5.46008
 11
1.23692
 21
5.18245
  0
LINE
  8
0
 10
1.23692
 20
5.18245
 11
1.39258
 21
4.90958
  0
LINE
  8
0
 10
1.39258
 20
4.90958
 11
1.55672
 21
4.64172
  0
LINE
  8
0
 10
1.55672
 20
4.64172
 11
1.72919
 21
4.37917
  0
LINE
  8
0
 10
1.72919
 20
4.37917
 11
1.90982
 21
4.12215
  0
LINE
  8
0
 10
1.90982
 20
4.12215
 11
2.09845
 21
3.87093
  0
LINE
  8
0
 10
2.09845
 20
3.87093
 11
2.29486
 21
3.62575
  0
LINE
  8
0
 10
2.29486
 20
3.62575
 11
2.49889
 21
3.38687
  0
LINE
  8
0
 10
2.49889
 20
3.38687
 11
2.71031
 21
3.15453
  0
LINE
  8
0
 10
2.71031
 20
3.15453
 11
2.92892
 21
2.92892
  0
LINE
  8
0
 10
2.92892
 20
2.92892
 11
3.15453
 21
2.71031
  0
LINE
  8
0
 10
3.15453
 20
2.71031
 11
3.38687
 21
2.49889
  0
LINE
  8
0
 10
3.38687
 20
2.49889
 11
3.62575
 21
2.29486
  0
LINE
  8
0
 10
3.62575
 20
2.29486
 11
3.87093
 21
2.09845
  0
LINE
  8
0
 10
3.87093
 20
2.09845
 11
4.12215
 21
1.90982
  0
LINE
  8
0
 10
4.12215
 20
1.90982
 11
4.37917
 21
1.72919
  0
LINE
  8
0
 10
4.37917
 20
1.72919
 11
4.64172
 21
1.55672
  0
LINE
  8
0
 10
4.64172
 20
1.55672
 11
4.90958
 21
1.39258
  0
LINE
  8
0
 10
4.90958
 20
1.39258
 11
5.18245
 21
1.23692
  0
LINE
  8
0
 10
5.18245
 20
1.23692
 11
5.46008
 21
1.08992
  0
LINE
  8
0
 10
5.46008
 20
1.08992
 11
5.7422
 21
0.951721
  0
LINE
  8
0
 10
5.7422
 20
0.951721
 11
6.02852
 21
0.822449
  0
LINE
  8
0
 10
6.02852
 20
0.822449
 11
6.31874
 21
0.702225
  0
LINE
  8
0
 10
6.31874
 20
0.702225
 11
6.61261
 21
0.591187
  0
LINE
  8
0
 10
6.61261
 20
0.591187
 11
6.90982
 21
0.489426
  0
LINE
  8
0
 10
6.90982
 20
0.489426
 11
7.21008
 21
0.397049
  0
LINE
  8
0
 10
7.21008
 20
0.397049
 11
7.51309
 21
0.314163
  0
LINE
  8
0
 10
7.51309
 20
0.314163
 11
7.81856
 21
0.240829
  0
LINE
  8
0
 10
7.81856
 20
0.240829
 11
8.12617
 21
0.177124
  0
LINE
  8
0
 10
8.12617
 20
0.177124
 11
8.43565
 21
0.123108
  0
LINE
  8
0
 10
8.43565
 20
0.123108
 11
8.74666
 21
0.0788422
  0
LINE
  8
0
 10
8.74666
 20
0.0788422
 11
9.05891
 21
0.0443726
  0
LINE
  8
0
 10
9.05891
 20
0.0443726
 11
9.37209
 21
0.0197296
  0
LINE
  8
0
 10
9.37209
 20
0.0197296
 11
9.68588
 21
0.00492859
  0
LINE
  8
0
 10
9.68588
 20
0.00492859
 11
10
 21
0
  0
LINE
  8
0
 10
10
 20
0
 11
92.2
 21
0
  0
LINE
  8
0
 10
92.2
 20
0
 11
92.5141
 21
0.00492859
  0
LINE
  8
0
 10
34.0101
 20
115.401
 11
33.9536
 21
115.404
  0
LINE
  8
0
 10
33.9536
 20
115.404
 11
33.8973
 21
115.408
  0
LINE
  8
0
 10
33.8973
 20
115.408
 11
33.8411
 21
115.414
  0
LINE
  8
0
 10
33.8411
 20
115.414
 11
33.7851
 21
115.422
  0
LINE
  8
0
 10
33.7851
 20
115.422
 11
33.7294
 21
115.432
  0
LINE
  8
0
 10
33.7294
 20
115.432
 11
33.674
 21
115.443
  0
LINE
  8
0
 10
33.674
 20
115.443
 11
33.619
 21
115.457
  0
LINE
  8
0
 10
33.619
 20
115.457
 11
33.5645
 21
115.471
  0
LINE
  8
0
 10
33.5645
 20
115.471
 11
33.5104
 21
115.488
  0
LINE
  8
0
 10
33.5104
 20
115.488
 11
33.4569
 21
115.506
  0
LINE
  8
0
 10
33.4569
 20
115.506
 11
33.404
 21
115.526
  0
LINE
  8
0
 10
33.404
 20
115.526
 11
33.3518
 21
115.548
  0
LINE
  8
0
 10
33.3518
 20
115.548
 11
33.3003
 21
115.571
  0
LINE
  8
0
 10
33.3003
 20
115.571
 11
33.2495
 21
115.596
  0
LINE
  8
0
 10
33.2495
 20
115.596
 11
33.1995
 21
115.623
  0
LINE
  8
0
 10
33.1995
 20
115.623
 11
33.1504
 21
115.651
  0
LINE
  8
0
 10
33.1504
 20
115.651
 11
33.1022
 21
115.68
  0
LINE
  8
0
 10
33.1022
 20
115.68
 11
33.0549
 21
115.711
  0
LINE
  8
0
 10
33.0549
 20
115.711
 11
33.0087
 21
115.744
  0
LINE
  8
0
 10
33.0087
 20
115.744
 11
32.9634
 21
115.778
  0
LINE
  8
0
 10
32.9634
 20
115.778
 11
32.9193
 21
115.813
  0
LINE
  8
0
 10
32.9193
 20
115.813
 11
32.8763
 21
115.85
  0
LINE
  8
0
 10
32.8763
 20
115.85
 11
32.8345
 21
115.888
  0
LINE
  8
0
 10
32.8345
 20
115.888
 11
32.7939
 21
115.927
  0
LINE
  8
0
 10
32.7939
 20
115.927
 11
32.7545
 21
115.968
  0
LINE
  8
0
 10
32.7545
 20
115.968
 11
32.7165
 21
116.01
  0
LINE
  8
0
 10
32.7165
 20
116.01
 11
32.6797
 21
116.053
  0
LINE
  8
0
 10
32.6797
 20
116.053
 11
32.6444
 21
116.097
  0
LINE
  8
0
 10
32.6444
 20
116.097
 11
32.6104
 21
116.142
  0
LINE
  8
0
 10
32.6104
 20
116.142
 11
32.5779
 21
116.188
  0
LINE
  8
0
 10
32.5779
 20
116.188
 11
32.5469
 21
116.236
  0
LINE
  8
0
 10
32.5469
 20
116.236
 11
32.5173
 21
116.284
  0
LINE
  8
0
 10
32.5173
 20
116.284
 11
32.4893
 21
116.333
  0
LINE
  8
0
 10
32.4893
 20
116.333
 11
32.4628
 21
116.383
  0
LINE
  8
0
 10
32.4628
 20
116.383
 11
32.438
 21
116.434
  0
LINE
  8
0
 10
32.438
 20
116.434
 11
32.4147
 21
116.485
  0
LINE
  8
0
 10
32.4147
 20
116.485
 11
32.3931
 21
116.537
  0
LINE
  8
0
 10
32.3931
 20
116.537
 11
32.3731
 21
116.59
  0
LINE
  8
0
 10
32.3731
 20
116.59
 11
32.3548
 21
116.644
  0
LINE
  8
0
 10
32.3548
 20
116.644
 11
32.3381
 21
116.698
  0
LINE
  8
0
 10
32.3381
 20
116.698
 11
32.3232
 21
116.752
  0
LINE
  8
0
 10
32.3232
 20
116.752
 11
32.31
 21
116.807
  0
LINE
  8
0
 10
32.31
 20
116.807
 11
32.2985
 21
116.863
  0
LINE
  8
0
 10
32.2985
 20
116.863
 11
32.2888
 21
116.918
  0
LINE
  8
0
 10
32.2888
 20
116.918
 11
32.2809
 21
116.974
  0
LINE
  8
0
 10
32.2809
 20
116.974
 11
32.2746
 21
117.031
  0
LINE
  8
0
 10
32.2746
 20
117.031
 11
32.2702
 21
117.087
  0
LINE
  8
0
 10
32.2702
 20
117.087
 11
32.2675
 21
117.143
  0
LINE
  8
0
 10
32.2675
 20
117.143
 11
32.2667
 21
117.2
  0
LINE
  8
0
 10
32.2667
 20
117.2
 11
32.2675
 21
117.257
  0
LINE
  8
0
 10
32.2675
 20
117.257
 11
32.2702
 21
117.313
  0
LINE
  8
0
 10
32.2702
 20
117.313
 11
32.2746
 21
117.369
  0
LINE
  8
0
 10
32.2746
 20
117.369
 11
32.2809
 21
117.426
  0
LINE
  8
0
 10
32.2809
 20
117.426
 11
32.2888
 21
117.482
  0
LINE
  8
0
 10
32.2888
 20
117.482
 11
32.2985
 21
117.537
  0
LINE
  8
0
 10
32.2985
 20
117.537
 11
32.31
 21
117.593
  0
LINE
  8
0
 10
32.31
 20
117.593
 11
32.3232
 21
117.648
  0
LINE
  8
0
 10
32.3232
 20
117.648
 11
32.3381
 21
117.702
  0
LINE
  8
0
 10
32.3381
 20
117.702
 11
32.3548
 21
117.756
  0
LINE
  8
0
 10
32.3548
 20
117.756
 11
32.3731
 21
117.81
  0
LINE
  8
0
 10
32.3731
 20
117.81
 11
32.3931
 21
117.863
  0
LINE
  8
0
 10
32.3931
 20
117.863
 11
32.4147
 21
117.915
  0
LINE
  8
0
 10
32.4147
 20
117.915
 11
32.438
 21
117.966
  0
LINE
  8
0
 10
32.438
 20
117.966
 11
32.4628
 21
118.017
  0
LINE
  8
0
 10
32.4628
 20
118.017
 11
32.4893
 21
118.067
  0
LINE
  8
0
 10
32.4893
 20
118.067
 11
32.5173
 21
118.116
  0
LINE
  8
0
 10
32.5173
 20
118.116
 11
32.5469
 21
118.164
  0
LINE
  8
0
 10
32.5469
 20
118.164
 11
32.5779
 21
118.212
  0
LINE
  8
0
 10
32.5779
 20
118.212
 11
32.6104
 21
118.258
  0
LINE
  8
0
 10
32.6104
 20
118.258
 11
32.6444
 21
118.303
  0
LINE
  8
0
 10
32.6444
 20
118.303
 11
32.6797
 21
118.347
  0
LINE
  8
0
 10
32.6797
 20
118.347
 11
32.7165
 21
118.39
  0
LINE
  8
0
 10
32.7165
 20
118.39
 11
32.7545
 21
118.432
  0
LINE
  8
0
 10
32.7545
 20
118.432
 11
32.7939
 21
118.473
  0
LINE
  8
0
 10
32.7939
 20
118.473
 11
32.8345
 21
118.512
  0
LINE
  8
0
 10
32.8345
 20
118.512
 11
32.8763
 21
118.55
  0
LINE
  8
0
 10
32.8763
 20
118.55
 11
32.9193
 21
118.587
  0
LINE
  8
0
 10
32.9193
 20
118.587
 11
32.9634
 21
118.622
  0
LINE
  8
0
 10
32.9634
 20
118.622
 11
33.0087
 21
118.656
  0
LINE
  8
0
 10
33.0087
 20
118.656
 11
33.0549
 21
118.689
  0
LINE
  8
0
 10
33.0549
 20
118.689
 11
33.1022
 21
118.72
  0
LINE
  8
0
 10
33.1022
 20
118.72
 11
33.1504
 21
118.749
  0
LINE
  8
0
 10
33.1504
 20
118.749
 11
33.1995
 21
118.777
  0
LINE
  8
0
 10
33.1995
 20
118.777
 11
33.2495
 21
118.804
  0
LINE
  8
0
 10
33.2495
 20
118.804
 11
33.3003
 21
118.829
  0
LINE
  8
0
 10
33.3003
 20
118.829
 11
33.3518
 21
118.852
  0
LINE
  8
0
 10
33.3518
 20
118.852
 11
33.404
 21
118.874
  0
LINE
  8
0
 10
33.404
 20
118.874
 11
33.4569
 21
118.894
  0
LINE
  8
0
 10
33.4569
 20
118.894
 11
33.5104
 21
118.912
  0
LINE
  8
0
 10
33.5104
 20
118.912
 11
33.5645
 21
118.929
  0
LINE
  8
0
 10
33.5645
 20
118.929
 11
33.619
 21
118.943
  0
LINE
  8
0
 10
33.619
 20
118.943
 11
33.674
 21
118.957
  0
LINE
  8
0
 10
33.674
 20
118.957
 11
33.7294
 21
118.968
  0
LINE
  8
0
 10
33.7294
 20
118.968
 11
33.7851
 21
118.978
  0
LINE
  8
0
 10
33.7851
 20
118.978
 11
33.8411
 21
118.986
  0
LINE
  8
0
 10
33.8411
 20
118.986
 11
33.8973
 21
118.992
  0
LINE
  8
0
 10
33.8973
 20
118.992
 11
33.9536
 21
118.996
  0
LINE
  8
0
 10
33.9536
 20
118.996
 11
34.0101
 21
118.999
  0
LINE
  8
0
 10
34.0101
 20
118.999
 11
34.0667
 21
119
  0
LINE
  8
0
 10
34.0667
 20
119
 11
34.1232
 21
118.999
  0
LINE
  8
0
 10
34.1232
 20
118.999
 11
34.1797
 21
118.996
  0
LINE
  8
0
 10
34.1797
 20
118.996
 11
34.2361
 21
118.992
  0
LINE
  8
0
 10
34.2361
 20
118.992
 11
34.2923
 21
118.986
  0
LINE
  8
0
 10
34.2923
 20
118.986
 11
34.3482
 21
118.978
  0
LINE
  8
0
 10
34.3482
 20
118.978
 11
34.4039
 21
118.968
  0
LINE
  8
0
 10
34.4039
 20
118.968
 11
34.4593
 21
118.957
  0
LINE
  8
0
 10
34.4593
 20
118.957
 11
34.5143
 21
118.943
  0
LINE
  8
0
 10
34.5143
 20
118.943
 11
34.5688
 21
118.929
  0
LINE
  8
0
 10
34.5688
 20
118.929
 11
34.6229
 21
118.912
  0
LINE
  8
0
 10
34.6229
 20
118.912
 11
34.6764
 21
118.894
  0
LINE
  8
0
 10
34.6764
 20
118.894
 11
34.7293
 21
118.874
  0
LINE
  8
0
 10
34.7293
 20
118.874
 11
34.7815
 21
118.852
  0
LINE
  8
0
 10
34.7815
 20
118.852
 11
34.8331
 21
118.829
  0
LINE
  8
0
 10
34.8331
 20
118.829
 11
34.8838
 21
118.804
  0
LINE
  8
0
 10
34.8838
 20
118.804
 11
34.9338
 21
118.777
  0
LINE
  8
0
 10
34.9338
 20
118.777
 11
34.9829
 21
118.749
  0
LINE
  8
0
 10
34.9829
 20
118.749
 11
35.0311
 21
118.72
  0
LINE
  8
0
 10
35.0311
 20
118.72
 11
35.0784
 21
118.689
  0
LINE
  8
0
 10
35.0784
 20
118.689
 11
35.1247
 21
118.656
  0
LINE
  8
0
 10
35.1247
 20
118.656
 11
35.1699
 21
118.622
  0
LINE
  8
0
 10
35.1699
 20
118.622
 11
35.214
 21
118.587
  0
LINE
  8
0
 10
35.214
 20
118.587
 11
35.257
 21
118.55
  0
LINE
  8
0
 10
35.257
 20
118.55
 11
35.2988
 21
118.512
  0
LINE
  8
0
 10
35.2988
 20
118.512
 11
35.3394
 21
118.473
  0
LINE
  8
0
 10
35.3394
 20
118.473
 11
35.3788
 21
118.432
  0
LINE
  8
0
 10
35.3788
 20
118.432
 11
35.4169
 21
118.39
  0
LINE
  8
0
 10
35.4169
 20
118.39
 11
35.4536
 21
118.347
  0
LINE
  8
0
 10
35.4536
 20
118.347
 11
35.4889
 21
118.303
  0
LINE
  8
0
 10
35.4889
 20
118.303
 11
35.5229
 21
118.258
  0
LINE
  8
0
 10
35.5229
 20
118.258
 11
35.5554
 21
118.212
  0
LINE
  8
0
 10
35.5554
 20
118.212
 11
35.5865
 21
118.164
  0
LINE
  8
0
 10
35.5865
 20
118.164
 11
35.616
 21
118.116
  0
LINE
  8
0
 10
35.616
 20
118.116
 11
35.644
 21
118.067
  0
LINE
  8
0
 10
35.644
 20
118.067
 11
35.6705
 21
118.017
  0
LINE
  8
0
 10
35.6705
 20
118.017
 11
35.6953
 21
117.966
  0
LINE
  8
0
 10
35.6953
 20
117.966
 11
35.7186
 21
117.915
  0
LINE
  8
0
 10
35.7186
 20
117.915
 11
35.7402
 21
117.863
  0
LINE
  8
0
 10
35.7402
 20
117.863
 11
35.7602
 21
117.81
  0
LINE
  8
0
 10
35.7602
 20
117.81
 11
35.7786
 21
117.756
  0
LINE
  8
0
 10
35.7786
 20
117.756
 11
35.7952
 21
117.702
  0
LINE
  8
0
 10
35.7952
 20
117.702
 11
35.8101
 21
117.648
  0
LINE
  8
0
 10
35.8101
 20
117.648
 11
35.8233
 21
117.593
  0
LINE
  8
0
 10
35.8233
 20
117.593
 11
35.8348
 21
117.537
  0
LINE
  8
0
 10
35.8348
 20
117.537
 11
35.8445
 21
117.482
  0
LINE
  8
0
 10
35.8445
 20
117.482
 11
35.8525
 21
117.426
  0
LINE
  8
0
 10
35.8525
 20
117.426
 11
35.8587
 21
117.369
  0
LINE
  8
0
 10
35.8587
 20
117.369
 11
35.8631
 21
117.313
  0
LINE
  8
0
 10
35.8631
 20
117.313
 11
35.8658
 21
117.257
  0
LINE
  8
0
 10
35.8658
 20
117.257
 11
35.8667
 21
117.2
  0
LINE
  8
0
 10
35.8667
 20
117.2
 11
35.8658
 21
117.143
  0
LINE
  8
0
 10
35.8658
 20
117.143
 11
35.8631
 21
117.087
  0
LINE
  8
0
 10
35.8631
 20
117.087
 11
35.8587
 21
117.031
  0
LINE
  8
0
 10
35.8587
 20
117.031
 11
35.8525
 21
116.974
  0
LINE
  8
0
 10
35.8525
 20
116.974
 11
35.8445
 21
116.918
  0
LINE
  8
0
 10
35.8445
 20
116.918
 11
35.8348
 21
116.863
  0
LINE
  8
0
 10
35.8348
 20
116.863
 11
35.8233
 21
116.807
  0
LINE
  8
0
 10
35.8233
 20
116.807
 11
35.8101
 21
116.752
  0
LINE
  8
0
 10
35.8101
 20
116.752
 11
35.7952
 21
116.698
  0
LINE
  8
0
 10
35.7952
 20
116.698
 11
35.7786
 21
116.644
  0
LINE
  8
0
 10
35.7786
 20
116.644
 11
35.7602
 21
116.59
  0
LINE
  8
0
 10
35.7602
 20
116.59
 11
35.7402
 21
116.537
  0
LINE
  8
0
 10
35.7402
 20
116.537
 11
35.7186
 21
116.485
  0
LINE
  8
0
 10
35.7186
 20
116.485
 11
35.6953
 21
116.434
  0
LINE
  8
0
 10
35.6953
 20
116.434
 11
35.6705
 21
116.383
  0
LINE
  8
0
 10
35.6705
 20
116.383
 11
35.644
 21
116.333
  0
LINE
  8
0
 10
35.644
 20
116.333
 11
35.616
 21
116.284
  0
LINE
  8
0
 10
35.616
 20
116.284
 11
35.5865
 21
116.236
  0
LINE
  8
0
 10
35.5865
 20
116.236
 11
35.5554
 21
116.188
  0
LINE
  8
0
 10
35.5554
 20
116.188
 11
35.5229
 21
116.142
  0
LINE
  8
0
 10
35.5229
 20
116.142
 11
35.4889
 21
116.097
  0
LINE
  8
0
 10
35.4889
 20
116.097
 11
35.4536
 21
116.053
  0
LINE
  8
0
 10
35.4536
 20
116.053
 11
35.4169
 21
116.01
  0
LINE
  8
0
 10
35.4169
 20
116.01
 11
35.3788
 21
115.968
  0
LINE
  8
0
 10
35.3788
 20
115.968
 11
35.3394
 21
115.927
  0
LINE
  8
0
 10
35.3394
 20
115.927
 11
35.2988
 21
115.888
  0
LINE
  8
0
 10
35.2988
 20
115.888
 11
35.257
 21
115.85
  0
LINE
  8
0
 10
35.257
 20
115.85
 11
35.214
 21
115.813
  0
LINE
  8
0
 10
35.214
 20
115.813
 11
35.1699
 21
115.778
  0
LINE
  8
0
 10
35.1699
 20
115.778
 11
35.1247
 21
115.744
  0
LINE
  8
0
 10
35.1247
 20
115.744
 11
35.0784
 21
115.711
  0
LINE
  8
0
 10
35.0784
 20
115.711
 11
35.0311
 21
115.68
  0
LINE
  8
0
 10
35.0311
 20
115.68
 11
34.9829
 21
115.651
  0
LINE
  8
0
 10
34.9829
 20
115.651
 11
34.9338
 21
115.623
  0
LINE
  8
0
 10
34.9338
 20
115.623
 11
34.8838
 21
115.596
  0
LINE
  8
0
 10
34.8838
 20
115.596
 11
34.8331
 21
115.571
  0
LINE
  8
0
 10
34.8331
 20
115.571
 11
34.7815
 21
115.548
  0
LINE
  8
0
 10
34.7815
 20
115.548
 11
34.7293
 21
115.526
  0
LINE
  8
0
 10
34.7293
 20
115.526
 11
34.6764
 21
115.506
  0
LINE
  8
0
 10
34.6764
 20
115.506
 11
34.6229
 21
115.488
  0
LINE
  8
0
 10
34.6229
 20
115.488
 11
34.5688
 21
115.471
  0
LINE
  8
0
 10
34.5688
 20
115.471
 11
34.5143
 21
115.457
  0
LINE
  8
0
 10
34.5143
 20
115.457
 11
34.4593
 21
115.443
  0
LINE
  8
0
 10
34.4593
 20
115.443
 11
34.4039
 21
115.432
  0
LINE
  8
0
 10
34.4039
 20
115.432
 11
34.3482
 21
115.422
  0
LINE
  8
0
 10
34.3482
 20
115.422
 11
34.2923
 21
115.414
  0
LINE
  8
0
 10
34.2923
 20
115.414
 11
34.2361
 21
115.408
  0
LINE
  8
0
 10
34.2361
 20
115.408
 11
34.1797
 21
115.404
  0
LINE
  8
0
 10
34.1797
 20
115.404
 11
34.1232
 21
115.401
  0
LINE
  8
0
 10
34.1232
 20
115.401
 11
34.0667
 21
115.4
  0
LINE
  8
0
 10
34.0667
 20
115.4
 11
34.0101
 21
115.401
  0
LINE
  8
0
 10
68.0768
 20
115.401
 11
68.0203
 21
115.404
  0
LINE
  8
0
 10
68.0203
 20
115.404
 11
67.9639
 21
115.408
  0
LINE
  8
0
 10
67.9639
 20
115.408
 11
67.9077
 21
115.414
  0
LINE
  8
0
 10
67.9077
 20
115.414
 11
67.8517
 21
115.422
  0
LINE
  8
0
 10
67.8517
 20
115.422
 11
67.796
 21
115.432
  0
LINE
  8
0
 10
67.796
 20
115.432
 11
67.7407
 21
115.443
  0
LINE
  8
0
 10
67.7407
 20
115.443
 11
67.6857
 21
115.457
  0
LINE
  8
0
 10
67.6857
 20
115.457
 11
67.6311
 21
115.471
  0
LINE
  8
0
 10
67.6311
 20
115.471
 11
67.5771
 21
115.488
  0
LINE
  8
0
 10
67.5771
 20
115.488
 11
67.5236
 21
115.506
  0
LINE
  8
0
 10
67.5236
 20
115.506
 11
67.4707
 21
115.526
  0
LINE
  8
0
 10
67.4707
 20
115.526
 11
67.4185
 21
115.548
  0
LINE
  8
0
 10
67.4185
 20
115.548
 11
67.3669
 21
115.571
  0
LINE
  8
0
 10
67.3669
 20
115.571
 11
67.3161
 21
115.596
  0
LINE
  8
0
 10
67.3161
 20
115.596
 11
67.2662
 21
115.623
  0
LINE
  8
0
 10
67.2662
 20
115.623
 11
67.2171
 21
115.651
  0
LINE
  8
0
 10
67.2171
 20
115.651
 11
67.1688
 21
115.68
  0
LINE
  8
0
 10
67.1688
 20
115.68
 11
67.1216
 21
115.711
  0
LINE
  8
0
 10
67.1216
 20
115.711
 11
67.0753
 21
115.744
  0
LINE
  8
0
 10
67.0753
 20
115.744
 11
67.0301
 21
115.778
  0
LINE
  8
0
 10
67.0301
 20
115.778
 11
66.986
 21
115.813
  0
LINE
  8
0
 10
66.986
 20
115.813
 11
66.943
 21
115.85
  0
LINE
  8
0
 10
66.943
 20
115.85
 11
66.9011
 21
115.888
  0
LINE
  8
0
 10
66.9011
 20
115.888
 11
66.8605
 21
115.927
  0
LINE
  8
0
 10
66.8605
 20
115.927
 11
66.8212
 21
115.968
  0
LINE
  8
0
 10
66.8212
 20
115.968
 11
66.7831
 21
116.01
  0
LINE
  8
0
 10
66.7831
 20
116.01
 11
66.7464
 21
116.053
  0
LINE
  8
0
 10
66.7464
 20
116.053
 11
66.711
 21
116.097
  0
LINE
  8
0
 10
66.711
 20
116.097
 11
66.6771
 21
116.142
  0
LINE
  8
0
 10
66.6771
 20
116.142
 11
66.6446
 21
116.188
  0
LINE
  8
0
 10
66.6446
 20
116.188
 11
66.6135
 21
116.236
  0
LINE
  8
0
 10
66.6135
 20
116.236
 11
66.584
 21
116.284
  0
LINE
  8
0
 10
66.584
 20
116.284
 11
66.556
 21
116.333
  0
LINE
  8
0
 10
66.556
 20
116.333
 11
66.5295
 21
116.383
  0
LINE
  8
0
 10
66.5295
 20
116.383
 11
66.5046
 21
116.434
  0
LINE
  8
0
 10
66.5046
 20
116.434
 11
66.4814
 21
116.485
  0
LINE
  8
0
 10
66.4814
 20
116.485
 11
66.4597
 21
116.537
  0
LINE
  8
0
 10
66.4597
 20
116.537
 11
66.4397
 21
116.59
  0
LINE
  8
0
 10
66.4397
 20
116.59
 11
66.4214
 21
116.644
  0
LINE
  8
0
 10
66.4214
 20
116.644
 11
66.4048
 21
116.698
  0
LINE
  8
0
 10
66.4048
 20
116.698
 11
66.3899
 21
116.752
  0
LINE
  8
0
 10
66.3899
 20
116.752
 11
66.3767
 21
116.807
  0
LINE
  8
0
 10
66.3767
 20
116.807
 11
66.3652
 21
116.863
  0
LINE
  8
0
 10
66.3652
 20
116.863
 11
66.3555
 21
116.918
  0
LINE
  8
0
 10
66.3555
 20
116.918
 11
66.3475
 21
116.974
  0
LINE
  8
0
 10
66.3475
 20
116.974
 11
66.3413
 21
117.031
  0
LINE
  8
0
 10
66.3413
 20
117.031
 11
66.3369
 21
117.087
  0
LINE
  8
0
 10
66.3369
 20
117.087
 11
66.3342
 21
117.143
  0
LINE
  8
0
 10
66.3342
 20
117.143
 11
66.3333
 21
117.2
  0
LINE
  8
0
 10
66.3333
 20
117.2
 11
66.3342
 21
117.257
  0
LINE
  8
0
 10
66.3342
 20
117.257
 11
66.3369
 21
117.313
  0
LINE
  8
0
 10
66.3369
 20
117.313
 11
66.3413
 21
117.369
  0
LINE
  8
0
 10
66.3413
 20
117.369
 11
66.3475
 21
117.426
  0
LINE
  8
0
 10
66.3475
 20
117.426
 11
66.3555
 21
117.482
  0
LINE
  8
0
 10
66.3555
 20
117.482
 11
66.3652
 21
117.537
  0
LINE
  8
0
 10
66.3652
 20
117.537
 11
66.3767
 21
117.593
  0
LINE
  8
0
 10
66.3767
 20
117.593
 11
66.3899
 21
117.648
  0
LINE
  8
0
 10
66.3899
 20
117.648
 11
66.4048
 21
117.702
  0
LINE
  8
0
 10
66.4048
 20
117.702
 11
66.4214
 21
117.756
  0
LINE
  8
0
 10
66.4214
 20
117.756
 11
66.4397
 21
117.81
  0
LINE
  8
0
 10
66.4397
 20
117.81
 11
66.4597
 21
117.863
  0
LINE
  8
0
 10
66.4597
 20
117.863
 11
66.4814
 21
117.915
  0
LINE
  8
0
 10
66.4814
 20
117.915
 11
66.5046
 21
117.966
  0
LINE
  8
0
 10
66.5046
 20
117.966
 11
66.5295
 21
118.017
  0
LINE
  8
0
 10
66.5295
 20
118.017
 11
66.556
 21
118.067
  0
LINE
  8
0
 10
66.556
 20
118.067
 11
66.584
 21
118.116
  0
LINE
  8
0
 10
66.584
 20
118.116
 11
66.6135
 21
118.164
  0
LINE
  8
0
 10
66.6135
 20
118.164
 11
66.6446
 21
118.212
  0
LINE
  8
0
 10
66.6446
 20
118.212
 11
66.6771
 21
118.258
  0
LINE
  8
0
 10
66.6771
 20
118.258
 11
66.711
 21
118.303
  0
LINE
  8
0
 10
66.711
 20
118.303
 11
66.7464
 21
118.347
  0
LINE
  8
0
 10
66.7464
 20
118.347
 11
66.7831
 21
118.39
  0
LINE
  8
0
 10
66.7831
 20
118.39
 11
66.8212
 21
118.432
  0
LINE
  8
0
 10
66.8212
 20
118.432
 11
66.8605
 21
118.473
  0
LINE
  8
0
 10
66.8605
 20
118.473
 11
66.9011
 21
118.512
  0
LINE
  8
0
 10
66.9011
 20
118.512
 11
66.943
 21
118.55
  0
LINE
  8
0
 10
66.943
 20
118.55
 11
66.986
 21
118.587
  0
LINE
  8
0
 10
66.986
 20
118.587
 11
67.0301
 21
118.622
  0
LINE
  8
0
 10
67.0301
 20
118.622
 11
67.0753
 21
118.656
  0
LINE
  8
0
 10
67.0753
 20
118.656
 11
67.1216
 21
118.689
  0
LINE
  8
0
 10
67.1216
 20
118.689
 11
67.1688
 21
118.72
  0
LINE
  8
0
 10
67.1688
 20
118.72
 11
67.2171
 21
118.749
  0
LINE
  8
0
 10
67.2171
 20
118.749
 11
67.2662
 21
118.777
  0
LINE
  8
0
 10
67.2662
 20
118.777
 11
67.3161
 21
118.804
  0
LINE
  8
0
 10
67.3161
 20
118.804
 11
67.3669
 21
118.829
  0
LINE
  8
0
 10
67.3669
 20
118.829
 11
67.4185
 21
118.852
  0
LINE
  8
0
 10
67.4185
 20
118.852
 11
67.4707
 21
118.874
  0
LINE
  8
0
 10
67.4707
 20
118.874
 11
67.5236
 21
118.894
  0
LINE
  8
0
 10
67.5236
 20
118.894
 11
67.5771
 21
118.912
  0
LINE
  8
0
 10
67.5771
 20
118.912
 11
67.6311
 21
118.929
  0
LINE
  8
0
 10
67.6311
 20
118.929
 11
67.6857
 21
118.943
  0
LINE
  8
0
 10
67.6857
 20
118.943
 11
67.7407
 21
118.957
  0
LINE
  8
0
 10
67.7407
 20
118.957
 11
67.796
 21
118.968
  0
LINE
  8
0
 10
67.796
 20
118.968
 11
67.8517
 21
118.978
  0
LINE
  8
0
 10
67.8517
 20
118.978
 11
67.9077
 21
118.986
  0
LINE
  8
0
 10
67.9077
 20
118.986
 11
67.9639
 21
118.992
  0
LINE
  8
0
 10
67.9639
 20
118.992
 11
68.0203
 21
118.996
  0
LINE
  8
0
 10
68.0203
 20
118.996
 11
68.0768
 21
118.999
  0
LINE
  8
0
 10
68.0768
 20
118.999
 11
68.1333
 21
119
  0
LINE
  8
0
 10
68.1333
 20
119
 11
68.1899
 21
118.999
  0
LINE
  8
0
 10
68.1899
 20
118.999
 11
68.2464
 21
118.996
  0
LINE
  8
0
 10
68.2464
 20
118.996
 11
68.3027
 21
118.992
  0
LINE
  8
0
 10
68.3027
 20
118.992
 11
68.3589
 21
118.986
  0
LINE
  8
0
 10
68.3589
 20
118.986
 11
68.4149
 21
118.978
  0
LINE
  8
0
 10
68.4149
 20
118.978
 11
68.4706
 21
118.968
  0
LINE
  8
0
 10
68.4706
 20
118.968
 11
68.526
 21
118.957
  0
LINE
  8
0
 10
68.526
 20
118.957
 11
68.581
 21
118.943
  0
LINE
  8
0
 10
68.581
 20
118.943
 11
68.6355
 21
118.929
  0
LINE
  8
0
 10
68.6355
 20
118.929
 11
68.6896
 21
118.912
  0
LINE
  8
0
 10
68.6896
 20
118.912
 11
68.7431
 21
118.894
  0
LINE
  8
0
 10
68.7431
 20
118.894
 11
68.7959
 21
118.874
  0
LINE
  8
0
 10
68.7959
 20
118.874
 11
68.8482
 21
118.852
  0
LINE
  8
0
 10
68.8482
 20
118.852
 11
68.8997
 21
118.829
  0
LINE
  8
0
 10
68.8997
 20
118.829
 11
68.9505
 21
118.804
  0
LINE
  8
0
 10
68.9505
 20
118.804
 11
69.0005
 21
118.777
  0
LINE
  8
0
 10
69.0005
 20
118.777
 11
69.0496
 21
118.749
  0
LINE
  8
0
 10
69.0496
 20
118.749
 11
69.0978
 21
118.72
  0
LINE
  8
0
 10
69.0978
 20
118.72
 11
69.1451
 21
118.689
  0
LINE
  8
0
 10
69.1451
 20
118.689
 11
69.1913
 21
118.656
  0
LINE
  8
0
 10
69.1913
 20
118.656
 11
69.2366
 21
118.622
  0
LINE
  8
0
 10
69.2366
 20
118.622
 11
69.2807
 21
118.587
  0
LINE
  8
0
 10
69.2807
 20
118.587
 11
69.3237
 21
118.55
  0
LINE
  8
0
 10
69.3237
 20
118.55
 11
69.3655
 21
118.512
  0
LINE
  8
0
 10
69.3655
 20
118.512
 11
69.4061
 21
118.473
  0
LINE
  8
0
 10
69.4061
 20
118.473
 11
69.4455
 21
118.432
  0
LINE
  8
0
 10
69.4455
 20
118.432
 11
69.4835
 21
118.39
  0
LINE
  8
0
 10
69.4835
 20
118.39
 11
69.5202
 21
118.347
  0
LINE
  8
0
 10
69.5202
 20
118.347
 11
69.5556
 21
118.303
  0
LINE
  8
0
 10
69.5556
 20
118.303
 11
69.5896
 21
118.258
  0
LINE
  8
0
 10
69.5896
 20
118.258
 11
69.6221
 21
118.212
  0
LINE
  8
0
 10
69.6221
 20
118.212
 11
69.6531
 21
118.164
  0
LINE
  8
0
 10
69.6531
 20
118.164
 11
69.6827
 21
118.116
  0
LINE
  8
0
 10
69.6827
 20
118.116
 11
69.7107
 21
118.067
  0
LINE
  8
0
 10
69.7107
 20
118.067
 11
69.7371
 21
118.017
  0
LINE
  8
0
 10
69.7371
 20
118.017
 11
69.762
 21
117.966
  0
LINE
  8
0
 10
69.762
 20
117.966
 11
69.7853
 21
117.915
  0
LINE
  8
0
 10
69.7853
 20
117.915
 11
69.8069
 21
117.863
  0
LINE
  8
0
 10
69.8069
 20
117.863
 11
69.8269
 21
117.81
  0
LINE
  8
0
 10
69.8269
 20
117.81
 11
69.8452
 21
117.756
  0
LINE
  8
0
 10
69.8452
 20
117.756
 11
69.8618
 21
117.702
  0
LINE
  8
0
 10
69.8618
 20
117.702
 11
69.8768
 21
117.648
  0
LINE
  8
0
 10
69.8768
 20
117.648
 11
69.89
 21
117.593
  0
LINE
  8
0
 10
69.89
 20
117.593
 11
69.9014
 21
117.537
  0
LINE
  8
0
 10
69.9014
 20
117.537
 11
69.9112
 21
117.482
  0
LINE
  8
0
 10
69.9112
 20
117.482
 11
69.9191
 21
117.426
  0
LINE
  8
0
 10
69.9191
 20
117.426
 11
69.9253
 21
117.369
  0
LINE
  8
0
 10
69.9253
 20
117.369
 11
69.9298
 21
117.313
  0
LINE
  8
0
 10
69.9298
 20
117.313
 11
69.9324
 21
117.257
  0
LINE
  8
0
 10
69.9324
 20
117.257
 11
69.9333
 21
117.2
  0
LINE
  8
0
 10
69.9333
 20
117.2
 11
69.9324
 21
117.143
  0
LINE
  8
0
 10
69.9324
 20
117.143
 11
69.9298
 21
117.087
  0
LINE
  8
0
 10
69.9298
 20
117.087
 11
69.9253
 21
117.031
  0
LINE
  8
0
 10
69.9253
 20
117.031
 11
69.9191
 21
116.974
  0
LINE
  8
0
 10
69.9191
 20
116.974
 11
69.9112
 21
116.918
  0
LINE
  8
0
 10
69.9112
 20
116.918
 11
69.9014
 21
116.863
  0
LINE
  8
0
 10
69.9014
 20
116.863
 11
69.89
 21
116.807
  0
LINE
  8
0
 10
69.89
 20
116.807
 11
69.8768
 21
116.752
  0
LINE
  8
0
 10
69.8768
 20
116.752
 11
69.8618
 21
116.698
  0
LINE
  8
0
 10
69.8618
 20
116.698
 11
69.8452
 21
116.644
  0
LINE
  8
0
 10
69.8452
 20
116.644
 11
69.8269
 21
116.59
  0
LINE
  8
0
 10
69.8269
 20
116.59
 11
69.8069
 21
116.537
  0
LINE
  8
0
 10
69.8069
 20
116.537
 11
69.7853
 21
116.485
  0
LINE
  8
0
 10
69.7853
 20
116.485
 11
69.762
 21
116.434
  0
LINE
  8
0
 10
69.762
 20
116.434
 11
69.7371
 21
116.383
  0
LINE
  8
0
 10
69.7371
 20
116.383
 11
69.7107
 21
116.333
  0
LINE
  8
0
 10
69.7107
 20
116.333
 11
69.6827
 21
116.284
  0
LINE
  8
0
 10
69.6827
 20
116.284
 11
69.6531
 21
116.236
  0
LINE
  8
0
 10
69.6531
 20
116.236
 11
69.6221
 21
116.188
  0
LINE
  8
0
 10
69.6221
 20
116.188
 11
69.5896
 21
116.142
  0
LINE
  8
0
 10
69.5896
 20
116.142
 11
69.5556
 21
116.097
  0
LINE
  8
0
 10
69.5556
 20
116.097
 11
69.5202
 21
116.053
  0
LINE
  8
0
 10
69.5202
 20
116.053
 11
69.4835
 21
116.01
  0
LINE
  8
0
 10
69.4835
 20
116.01
 11
69.4455
 21
115.968
  0
LINE
  8
0
 10
69.4455
 20
115.968
 11
69.4061
 21
115.927
  0
LINE
  8
0
 10
69.4061
 20
115.927
 11
69.3655
 21
115.888
  0
LINE
  8
0
 10
69.3655
 20
115.888
 11
69.3237
 21
115.85
  0
LINE
  8
0
 10
69.3237
 20
115.85
 11
69.2807
 21
115.813
  0
LINE
  8
0
 10
69.2807
 20
115.813
 11
69.2366
 21
115.778
  0
LINE
  8
0
 10
69.2366
 20
115.778
 11
69.1913
 21
115.744
  0
LINE
  8
0
 10
69.1913
 20
115.744
 11
69.1451
 21
115.711
  0
LINE
  8
0
 10
69.1451
 20
115.711
 11
69.0978
 21
115.68
  0
LINE
  8
0
 10
69.0978
 20
115.68
 11
69.0496
 21
115.651
  0
LINE
  8
0
 10
69.0496
 20
115.651
 11
69.0005
 21
115.623
  0
LINE
  8
0
 10
69.0005
 20
115.623
 11
68.9505
 21
115.596
  0
LINE
  8
0
 10
68.9505
 20
115.596
 11
68.8997
 21
115.571
  0
LINE
  8
0
 10
68.8997
 20
115.571
 11
68.8482
 21
115.548
  0
LINE
  8
0
 10
68.8482
 20
115.548
 11
68.7959
 21
115.526
  0
LINE
  8
0
 10
68.7959
 20
115.526
 11
68.7431
 21
115.506
  0
LINE
  8
0
 10
68.7431
 20
115.506
 11
68.6896
 21
115.488
  0
LINE
  8
0
 10
68.6896
 20
115.488
 11
68.6355
 21
115.471
  0
LINE
  8
0
 10
68.6355
 20
115.471
 11
68.581
 21
115.457
  0
LINE
  8
0
 10
68.581
 20
115.457
 11
68.526
 21
115.443
  0
LINE
  8
0
 10
68.526
 20
115.443
 11
68.4706
 21
115.432
  0
LINE
  8
0
 10
68.4706
 20
115.432
 11
68.4149
 21
115.422
  0
LINE
  8
0
 10
68.4149
 20
115.422
 11
68.3589
 21
115.414
  0
LINE
  8
0
 10
68.3589
 20
115.414
 11
68.3027
 21
115.408
  0
LINE
  8
0
 10
68.3027
 20
115.408
 11
68.2464
 21
115.404
  0
LINE
  8
0
 10
68.2464
 20
115.404
 11
68.1899
 21
115.401
  0
LINE
  8
0
 10
68.1899
 20
115.401
 11
68.1333
 21
115.4
  0
LINE
  8
0
 10
68.1333
 20
115.4
 11
68.0768
 21
115.401
  0
LINE
  8
0
 10
16.025
 20
72.675
 11
15.9382
 21
72.6826
  0
LINE
  8
0
 10
15.9382
 20
72.6826
 11
15.854
 21
72.7051
  0
LINE
  8
0
 10
15.854
 20
72.7051
 11
15.775
 21
72.742
  0
LINE
  8
0
 10
15.775
 20
72.742
 11
15.7036
 21
72.792
  0
LINE
  8
0
 10
15.7036
 20
72.792
 11
15.642
 21
72.8536
  0
LINE
  8
0
 10
15.642
 20
72.8536
 11
15.592
 21
72.925
  0
LINE
  8
0
 10
15.592
 20
72.925
 11
15.5551
 21
73.004
  0
LINE
  8
0
 10
15.5551
 20
73.004
 11
15.5326
 21
73.0882
  0
LINE
  8
0
 10
15.5326
 20
73.0882
 11
15.525
 21
73.175
  0
LINE
  8
0
 10
15.525
 20
73.175
 11
15.525
 21
86.175
  0
LINE
  8
0
 10
15.525
 20
86.175
 11
15.5326
 21
86.2618
  0
LINE
  8
0
 10
15.5326
 20
86.2618
 11
15.5551
 21
86.346
  0
LINE
  8
0
 10
15.5551
 20
86.346
 11
15.592
 21
86.425
  0
LINE
  8
0
 10
15.592
 20
86.425
 11
15.642
 21
86.4964
  0
LINE
  8
0
 10
15.642
 20
86.4964
 11
15.7036
 21
86.558
  0
LINE
  8
0
 10
15.7036
 20
86.558
 11
15.775
 21
86.608
  0
LINE
  8
0
 10
15.775
 20
86.608
 11
15.854
 21
86.6448
  0
LINE
  8
0
 10
15.854
 20
86.6448
 11
15.9382
 21
86.6674
  0
LINE
  8
0
 10
15.9382
 20
86.6674
 11
16.025
 21
86.675
  0
LINE
  8
0
 10
16.025
 20
86.675
 11
29.025
 21
86.675
  0
LINE
  8
0
 10
29.025
 20
86.675
 11
29.1118
 21
86.6674
  0
LINE
  8
0
 10
29.1118
 20
86.6674
 11
29.196
 21
86.6448
  0
LINE
  8
0
 10
29.196
 20
86.6448
 11
29.275
 21
86.608
  0
LINE
  8
0
 10
29.275
 20
86.608
 11
29.3464
 21
86.558
  0
LINE
  8
0
 10
29.3464
 20
86.558
 11
29.408
 21
86.4964
  0
LINE
  8
0
 10
29.408
 20
86.4964
 11
29.458
 21
86.425
  0
LINE
  8
0
 10
29.458
 20
86.425
 11
29.4948
 21
86.346
  0
LINE
  8
0
 10
29.4948
 20
86.346
 11
29.5174
 21
86.2618
  0
LINE
  8
0
 10
29.5174
 20
86.2618
 11
29.525
 21
86.175
  0
LINE
  8
0
 10
29.525
 20
86.175
 11
29.525
 21
73.175
  0
LINE
  8
0
 10
29.525
 20
73.175
 11
29.5174
 21
73.0882
  0
LINE
  8
0
 10
29.5174
 20
73.0882
 11
29.4948
 21
73.004
  0
LINE
  8
0
 10
29.4948
 20
73.004
 11
29.458
 21
72.925
  0
LINE
  8
0
 10
29.458
 20
72.925
 11
29.408
 21
72.8536
  0
LINE
  8
0
 10
29.408
 20
72.8536
 11
29.3464
 21
72.792
  0
LINE
  8
0
 10
29.3464
 20
72.792
 11
29.275
 21
72.742
  0
LINE
  8
0
 10
29.275
 20
72.742
 11
29.196
 21
72.7051
  0
LINE
  8
0
 10
29.196
 20
72.7051
 11
29.1118
 21
72.6826
  0
LINE
  8
0
 10
29.1118
 20
72.6826
 11
29.025
 21
72.675
  0
LINE
  8
0
 10
29.025
 20
72.675
 11
16.025
 21
72.675
  0
LINE
  8
0
 10
35.075
 20
72.675
 11
34.9882
 21
72.6826
  0
LINE
  8
0
 10
34.9882
 20
72.6826
 11
34.904
 21
72.7051
  0
LINE
  8
0
 10
34.904
 20
72.7051
 11
34.825
 21
72.742
  0
LINE
  8
0
 10
34.825
 20
72.742
 11
34.7536
 21
72.792
  0
LINE
  8
0
 10
34.7536
 20
72.792
 11
34.692
 21
72.8536
  0
LINE
  8
0
 10
34.692
 20
72.8536
 11
34.642
 21
72.925
  0
LINE
  8
0
 10
34.642
 20
72.925
 11
34.6051
 21
73.004
  0
LINE
  8
0
 10
34.6051
 20
73.004
 11
34.5826
 21
73.0882
  0
LINE
  8
0
 10
34.5826
 20
73.0882
 11
34.575
 21
73.175
  0
LINE
  8
0
 10
34.575
 20
73.175
 11
34.575
 21
86.175
  0
LINE
  8
0
 10
34.575
 20
86.175
 11
34.5826
 21
86.2618
  0
LINE
  8
0
 10
34.5826
 20
86.2618
 11
34.6051
 21
86.346
  0
LINE
  8
0
 10
34.6051
 20
86.346
 11
34.642
 21
86.425
  0
LINE
  8
0
 10
34.642
 20
86.425
 11
34.692
 21
86.4964
  0
LINE
  8
0
 10
34.692
 20
86.4964
 11
34.7536
 21
86.558
  0
LINE
  8
0
 10
34.7536
 20
86.558
 11
34.825
 21
86.608
  0
LINE
  8
0
 10
34.825
 20
86.608
 11
34.904
 21
86.6448
  0
LINE
  8
0
 10
34.904
 20
86.6448
 11
34.9882
 21
86.6674
  0
LINE
  8
0
 10
34.9882
 20
86.6674
 11
35.075
 21
86.675
  0
LINE
  8
0
 10
35.075
 20
86.675
 11
48.075
 21
86.675
  0
LINE
  8
0
 10
48.075
 20
86.675
 11
48.1618
 21
86.6674
  0
LINE
  8
0
 10
48.1618
 20
86.6674
 11
48.246
 21
86.6448
  0
LINE
  8
0
 10
48.246
 20
86.6448
 11
48.325
 21
86.608
  0
LINE
  8
0
 10
48.325
 20
86.608
 11
48.3964
 21
86.558
  0
LINE
  8
0
 10
48.3964
 20
86.558
 11
48.458
 21
86.4964
  0
LINE
  8
0
 10
48.458
 20
86.4964
 11
48.508
 21
86.425
  0
LINE
  8
0
 10
48.508
 20
86.425
 11
48.5448
 21
86.346
  0
LINE
  8
0
 10
48.5448
 20
86.346
 11
48.5674
 21
86.2618
  0
LINE
  8
0
 10
48.5674
 20
86.2618
 11
48.575
 21
86.175
  0
LINE
  8
0
 10
48.575
 20
86.175
 11
48.575
 21
73.175
  0
LINE
  8
0
 10
48.575
 20
73.175
 11
48.5674
 21
73.0882
  0
LINE
  8
0
 10
48.5674
 20
73.0882
 11
48.5448
 21
73.004
  0
LINE
  8
0
 10
48.5448
 20
73.004
 11
48.508
 21
72.925
  0
LINE
  8
0
 10
48.508
 20
72.925
 11
48.458
 21
72.8536
  0
LINE
  8
0
 10
48.458
 20
72.8536
 11
48.3964
 21
72.792
  0
LINE
  8
0
 10
48.3964
 20
72.792
 11
48.325
 21
72.742
  0
LINE
  8
0
 10
48.325
 20
72.742
 11
48.246
 21
72.7051
  0
LINE
  8
0
 10
48.246
 20
72.7051
 11
48.1618
 21
72.6826
  0
LINE
  8
0
 10
48.1618
 20
72.6826
 11
48.075
 21
72.675
  0
LINE
  8
0
 10
48.075
 20
72.675
 11
35.075
 21
72.675
  0
LINE
  8
0
 10
73.175
 20
72.675
 11
73.0882
 21
72.6826
  0
LINE
  8
0
 10
73.0882
 20
72.6826
 11
73.004
 21
72.7051
  0
LINE
  8
0
 10
73.004
 20
72.7051
 11
72.925
 21
72.742
  0
LINE
  8
0
 10
72.925
 20
72.742
 11
72.8536
 21
72.792
  0
LINE
  8
0
 10
72.8536
 20
72.792
 11
72.792
 21
72.8536
  0
LINE
  8
0
 10
72.792
 20
72.8536
 11
72.742
 21
72.925
  0
LINE
  8
0
 10
72.742
 20
72.925
 11
72.7051
 21
73.004
  0
LINE
  8
0
 10
72.7051
 20
73.004
 11
72.6826
 21
73.0882
  0
LINE
  8
0
 10
72.6826
 20
73.0882
 11
72.675
 21
73.175
  0
LINE
  8
0
 10
72.675
 20
73.175
 11
72.675
 21
86.175
  0
LINE
  8
0
 10
72.675
 20
86.175
 11
72.6826
 21
86.2618
  0
LINE
  8
0
 10
72.6826
 20
86.2618
 11
72.7051
 21
86.346
  0
LINE
  8
0
 10
72.7051
 20
86.346
 11
72.742
 21
86.425
  0
LINE
  8
0
 10
72.742
 20
86.425
 11
72.792
 21
86.4964
  0
LINE
  8
0
 10
72.792
 20
86.4964
 11
72.8536
 21
86.558
  0
LINE
  8
0
 10
72.8536
 20
86.558
 11
72.925
 21
86.608
  0
LINE
  8
0
 10
72.925
 20
86.608
 11
73.004
 21
86.6448
  0
LINE
  8
0
 10
73.004
 20
86.6448
 11
73.0882
 21
86.6674
  0
LINE
  8
0
 10
73.0882
 20
86.6674
 11
73.175
 21
86.675
  0
LINE
  8
0
 10
73.175
 20
86.675
 11
86.175
 21
86.675
  0
LINE
  8
0
 10
86.175
 20
86.675
 11
86.2618
 21
86.6674
  0
LINE
  8
0
 10
86.2618
 20
86.6674
 11
86.346
 21
86.6448
  0
LINE
  8
0
 10
86.346
 20
86.6448
 11
86.425
 21
86.608
  0
LINE
  8
0
 10
86.425
 20
86.608
 11
86.4964
 21
86.558
  0
LINE
  8
0
 10
86.4964
 20
86.558
 11
86.558
 21
86.4964
  0
LINE
  8
0
 10
86.558
 20
86.4964
 11
86.608
 21
86.425
  0
LINE
  8
0
 10
86.608
 20
86.425
 11
86.6448
 21
86.346
  0
LINE
  8
0
 10
86.6448
 20
86.346
 11
86.6674
 21
86.2618
  0
LINE
  8
0
 10
86.6674
 20
86.2618
 11
86.675
 21
86.175
  0
LINE
  8
0
 10
86.675
 20
86.175
 11
86.675
 21
73.175
  0
LINE
  8
0
 10
86.675
 20
73.175
 11
86.6674
 21
73.0882
  0
LINE
  8
0
 10
86.6674
 20
73.0882
 11
86.6448
 21
73.004
  0
LINE
  8
0
 10
86.6448
 20
73.004
 11
86.608
 21
72.925
  0
LINE
  8
0
 10
86.608
 20
72.925
 11
86.558
 21
72.8536
  0
LINE
  8
0
 10
86.558
 20
72.8536
 11
86.4964
 21
72.792
  0
LINE
  8
0
 10
86.4964
 20
72.792
 11
86.425
 21
72.742
  0
LINE
  8
0
 10
86.425
 20
72.742
 11
86.346
 21
72.7051
  0
LINE
  8
0
 10
86.346
 20
72.7051
 11
86.2618
 21
72.6826
  0
LINE
  8
0
 10
86.2618
 20
72.6826
 11
86.175
 21
72.675
  0
LINE
  8
0
 10
86.175
 20
72.675
 11
73.175
 21
72.675
  0
LINE
  8
0
 10
54.125
 20
72.675
 11
54.0382
 21
72.6826
  0
LINE
  8
0
 10
54.0382
 20
72.6826
 11
53.954
 21
72.7051
  0
LINE
  8
0
 10
53.954
 20
72.7051
 11
53.875
 21
72.742
  0
LINE
  8
0
 10
53.875
 20
72.742
 11
53.8036
 21
72.792
  0
LINE
  8
0
 10
53.8036
 20
72.792
 11
53.742
 21
72.8536
  0
LINE
  8
0
 10
53.742
 20
72.8536
 11
53.692
 21
72.925
  0
LINE
  8
0
 10
53.692
 20
72.925
 11
53.6552
 21
73.004
  0
LINE
  8
0
 10
53.6552
 20
73.004
 11
53.6326
 21
73.0882
  0
LINE
  8
0
 10
53.6326
 20
73.0882
 11
53.625
 21
73.175
  0
LINE
  8
0
 10
53.625
 20
73.175
 11
53.625
 21
86.175
  0
LINE
  8
0
 10
53.625
 20
86.175
 11
53.6326
 21
86.2618
  0
LINE
  8
0
 10
53.6326
 20
86.2618
 11
53.6552
 21
86.346
  0
LINE
  8
0
 10
53.6552
 20
86.346
 11
53.692
 21
86.425
  0
LINE
  8
0
 10
53.692
 20
86.425
 11
53.742
 21
86.4964
  0
LINE
  8
0
 10
53.742
 20
86.4964
 11
53.8036
 21
86.558
  0
LINE
  8
0
 10
53.8036
 20
86.558
 11
53.875
 21
86.608
  0
LINE
  8
0
 10
53.875
 20
86.608
 11
53.954
 21
86.6448
  0
LINE
  8
0
 10
53.954
 20
86.6448
 11
54.0382
 21
86.6674
  0
LINE
  8
0
 10
54.0382
 20
86.6674
 11
54.125
 21
86.675
  0
LINE
  8
0
 10
54.125
 20
86.675
 11
67.125
 21
86.675
  0
LINE
  8
0
 10
67.125
 20
86.675
 11
67.2118
 21
86.6674
  0
LINE
  8
0
 10
67.2118
 20
86.6674
 11
67.296
 21
86.6448
  0
LINE
  8
0
 10
67.296
 20
86.6448
 11
67.375
 21
86.608
  0
LINE
  8
0
 10
67.375
 20
86.608
 11
67.4464
 21
86.558
  0
LINE
  8
0
 10
67.4464
 20
86.558
 11
67.508
 21
86.4964
  0
LINE
  8
0
 10
67.508
 20
86.4964
 11
67.558
 21
86.425
  0
LINE
  8
0
 10
67.558
 20
86.425
 11
67.5948
 21
86.346
  0
LINE
  8
0
 10
67.5948
 20
86.346
 11
67.6174
 21
86.2618
  0
LINE
  8
0
 10
67.6174
 20
86.2618
 11
67.625
 21
86.175
  0
LINE
  8
0
 10
67.625
 20
86.175
 11
67.625
 21
73.175
  0
LINE
  8
0
 10
67.625
 20
73.175
 11
67.6174
 21
73.0882
  0
LINE
  8
0
 10
67.6174
 20
73.0882
 11
67.5948
 21
73.004
  0
LINE
  8
0
 10
67.5948
 20
73.004
 11
67.558
 21
72.925
  0
LINE
  8
0
 10
67.558
 20
72.925
 11
67.508
 21
72.8536
  0
LINE
  8
0
 10
67.508
 20
72.8536
 11
67.4464
 21
72.792
  0
LINE
  8
0
 10
67.4464
 20
72.792
 11
67.375
 21
72.742
  0
LINE
  8
0
 10
67.375
 20
72.742
 11
67.296
 21
72.7051
  0
LINE
  8
0
 10
67.296
 20
72.7051
 11
67.2118
 21
72.6826
  0
LINE
  8
0
 10
67.2118
 20
72.6826
 11
67.125
 21
72.675
  0
LINE
  8
0
 10
67.125
 20
72.675
 11
54.125
 21
72.675
  0
LINE
  8
0
 10
97.1434
 20
79.6675
 11
97.087
 21
79.6702
  0
LINE
  8
0
 10
97.087
 20
79.6702
 11
97.0306
 21
79.6747
  0
LINE
  8
0
 10
97.0306
 20
79.6747
 11
96.9744
 21
79.6808
  0
LINE
  8
0
 10
96.9744
 20
79.6808
 11
96.9184
 21
79.6888
  0
LINE
  8
0
 10
96.9184
 20
79.6888
 11
96.8627
 21
79.6985
  0
LINE
  8
0
 10
96.8627
 20
79.6985
 11
96.8073
 21
79.71
  0
LINE
  8
0
 10
96.8073
 20
79.71
 11
96.7523
 21
79.7232
  0
LINE
  8
0
 10
96.7523
 20
79.7232
 11
96.6978
 21
79.7381
  0
LINE
  8
0
 10
96.6978
 20
79.7381
 11
96.6438
 21
79.7548
  0
LINE
  8
0
 10
96.6438
 20
79.7548
 11
96.5903
 21
79.7731
  0
LINE
  8
0
 10
96.5903
 20
79.7731
 11
96.5374
 21
79.7931
  0
LINE
  8
0
 10
96.5374
 20
79.7931
 11
96.4851
 21
79.8147
  0
LINE
  8
0
 10
96.4851
 20
79.8147
 11
96.4336
 21
79.838
  0
LINE
  8
0
 10
96.4336
 20
79.838
 11
96.3828
 21
79.8629
  0
LINE
  8
0
 10
96.3828
 20
79.8629
 11
96.3328
 21
79.8893
  0
LINE
  8
0
 10
96.3328
 20
79.8893
 11
96.2837
 21
79.9173
  0
LINE
  8
0
 10
96.2837
 20
79.9173
 11
96.2355
 21
79.9469
  0
LINE
  8
0
 10
96.2355
 20
79.9469
 11
96.1882
 21
79.9779
  0
LINE
  8
0
 10
96.1882
 20
79.9779
 11
96.142
 21
80.0104
  0
LINE
  8
0
 10
96.142
 20
80.0104
 11
96.0968
 21
80.0444
  0
LINE
  8
0
 10
96.0968
 20
80.0444
 11
96.0526
 21
80.0797
  0
LINE
  8
0
 10
96.0526
 20
80.0797
 11
96.0096
 21
80.1165
  0
LINE
  8
0
 10
96.0096
 20
80.1165
 11
95.9678
 21
80.1545
  0
LINE
  8
0
 10
95.9678
 20
80.1545
 11
95.9272
 21
80.1939
  0
LINE
  8
0
 10
95.9272
 20
80.1939
 11
95.8878
 21
80.2345
  0
LINE
  8
0
 10
95.8878
 20
80.2345
 11
95.8498
 21
80.2763
  0
LINE
  8
0
 10
95.8498
 20
80.2763
 11
95.8131
 21
80.3193
  0
LINE
  8
0
 10
95.8131
 20
80.3193
 11
95.7777
 21
80.3634
  0
LINE
  8
0
 10
95.7777
 20
80.3634
 11
95.7438
 21
80.4086
  0
LINE
  8
0
 10
95.7438
 20
80.4086
 11
95.7112
 21
80.4549
  0
LINE
  8
0
 10
95.7112
 20
80.4549
 11
95.6802
 21
80.5022
  0
LINE
  8
0
 10
95.6802
 20
80.5022
 11
95.6507
 21
80.5504
  0
LINE
  8
0
 10
95.6507
 20
80.5504
 11
95.6226
 21
80.5995
  0
LINE
  8
0
 10
95.6226
 20
80.5995
 11
95.5962
 21
80.6495
  0
LINE
  8
0
 10
95.5962
 20
80.6495
 11
95.5713
 21
80.7003
  0
LINE
  8
0
 10
95.5713
 20
80.7003
 11
95.548
 21
80.7518
  0
LINE
  8
0
 10
95.548
 20
80.7518
 11
95.5264
 21
80.804
  0
LINE
  8
0
 10
95.5264
 20
80.804
 11
95.5064
 21
80.8569
  0
LINE
  8
0
 10
95.5064
 20
80.8569
 11
95.4881
 21
80.9104
  0
LINE
  8
0
 10
95.4881
 20
80.9104
 11
95.4715
 21
80.9645
  0
LINE
  8
0
 10
95.4715
 20
80.9645
 11
95.4565
 21
81.019
  0
LINE
  8
0
 10
95.4565
 20
81.019
 11
95.4433
 21
81.074
  0
LINE
  8
0
 10
95.4433
 20
81.074
 11
95.4319
 21
81.1294
  0
LINE
  8
0
 10
95.4319
 20
81.1294
 11
95.4221
 21
81.1851
  0
LINE
  8
0
 10
95.4221
 20
81.1851
 11
95.4142
 21
81.2411
  0
LINE
  8
0
 10
95.4142
 20
81.2411
 11
95.408
 21
81.2973
  0
LINE
  8
0
 10
95.408
 20
81.2973
 11
95.4035
 21
81.3536
  0
LINE
  8
0
 10
95.4035
 20
81.3536
 11
95.4009
 21
81.4101
  0
LINE
  8
0
 10
95.4009
 20
81.4101
 11
95.4
 21
81.4667
  0
LINE
  8
0
 10
95.4
 20
81.4667
 11
95.4009
 21
81.5232
  0
LINE
  8
0
 10
95.4009
 20
81.5232
 11
95.4035
 21
81.5797
  0
LINE
  8
0
 10
95.4035
 20
81.5797
 11
95.408
 21
81.636
  0
LINE
  8
0
 10
95.408
 20
81.636
 11
95.4142
 21
81.6923
  0
LINE
  8
0
 10
95.4142
 20
81.6923
 11
95.4221
 21
81.7482
  0
LINE
  8
0
 10
95.4221
 20
81.7482
 11
95.4319
 21
81.8039
  0
LINE
  8
0
 10
95.4319
 20
81.8039
 11
95.4433
 21
81.8593
  0
LINE
  8
0
 10
95.4433
 20
81.8593
 11
95.4565
 21
81.9143
  0
LINE
  8
0
 10
95.4565
 20
81.9143
 11
95.4715
 21
81.9688
  0
LINE
  8
0
 10
95.4715
 20
81.9688
 11
95.4881
 21
82.0229
  0
LINE
  8
0
 10
95.4881
 20
82.0229
 11
95.5064
 21
82.0764
  0
LINE
  8
0
 10
95.5064
 20
82.0764
 11
95.5264
 21
82.1293
  0
LINE
  8
0
 10
95.5264
 20
82.1293
 11
95.548
 21
82.1815
  0
LINE
  8
0
 10
95.548
 20
82.1815
 11
95.5713
 21
82.2331
  0
LINE
  8
0
 10
95.5713
 20
82.2331
 11
95.5962
 21
82.2838
  0
LINE
  8
0
 10
95.5962
 20
82.2838
 11
95.6226
 21
82.3338
  0
LINE
  8
0
 10
95.6226
 20
82.3338
 11
95.6507
 21
82.3829
  0
LINE
  8
0
 10
95.6507
 20
82.3829
 11
95.6802
 21
82.4312
  0
LINE
  8
0
 10
95.6802
 20
82.4312
 11
95.7112
 21
82.4784
  0
LINE
  8
0
 10
95.7112
 20
82.4784
 11
95.7438
 21
82.5247
  0
LINE
  8
0
 10
95.7438
 20
82.5247
 11
95.7777
 21
82.5699
  0
LINE
  8
0
 10
95.7777
 20
82.5699
 11
95.8131
 21
82.614
  0
LINE
  8
0
 10
95.8131
 20
82.614
 11
95.8498
 21
82.657
  0
LINE
  8
0
 10
95.8498
 20
82.657
 11
95.8878
 21
82.6988
  0
LINE
  8
0
 10
95.8878
 20
82.6988
 11
95.9272
 21
82.7395
  0
LINE
  8
0
 10
95.9272
 20
82.7395
 11
95.9678
 21
82.7788
  0
LINE
  8
0
 10
95.9678
 20
82.7788
 11
96.0096
 21
82.8169
  0
LINE
  8
0
 10
96.0096
 20
82.8169
 11
96.0526
 21
82.8536
  0
LINE
  8
0
 10
96.0526
 20
82.8536
 11
96.0968
 21
82.8889
  0
LINE
  8
0
 10
96.0968
 20
82.8889
 11
96.142
 21
82.9229
  0
LINE
  8
0
 10
96.142
 20
82.9229
 11
96.1882
 21
82.9554
  0
LINE
  8
0
 10
96.1882
 20
82.9554
 11
96.2355
 21
82.9865
  0
LINE
  8
0
 10
96.2355
 20
82.9865
 11
96.2837
 21
83.016
  0
LINE
  8
0
 10
96.2837
 20
83.016
 11
96.3328
 21
83.044
  0
LINE
  8
0
 10
96.3328
 20
83.044
 11
96.3828
 21
83.0705
  0
LINE
  8
0
 10
96.3828
 20
83.0705
 11
96.4336
 21
83.0954
  0
LINE
  8
0
 10
96.4336
 20
83.0954
 11
96.4851
 21
83.1186
  0
LINE
  8
0
 10
96.4851
 20
83.1186
 11
96.5374
 21
83.1403
  0
LINE
  8
0
 10
96.5374
 20
83.1403
 11
96.5903
 21
83.1602
  0
LINE
  8
0
 10
96.5903
 20
83.1602
 11
96.6438
 21
83.1786
  0
LINE
  8
0
 10
96.6438
 20
83.1786
 11
96.6978
 21
83.1952
  0
LINE
  8
0
 10
96.6978
 20
83.1952
 11
96.7523
 21
83.2101
  0
LINE
  8
0
 10
96.7523
 20
83.2101
 11
96.8073
 21
83.2233
  0
LINE
  8
0
 10
96.8073
 20
83.2233
 11
96.8627
 21
83.2348
  0
LINE
  8
0
 10
96.8627
 20
83.2348
 11
96.9184
 21
83.2445
  0
LINE
  8
0
 10
96.9184
 20
83.2445
 11
96.9744
 21
83.2525
  0
LINE
  8
0
 10
96.9744
 20
83.2525
 11
97.0306
 21
83.2587
  0
LINE
  8
0
 10
97.0306
 20
83.2587
 11
97.087
 21
83.2631
  0
LINE
  8
0
 10
97.087
 20
83.2631
 11
97.1434
 21
83.2658
  0
LINE
  8
0
 10
97.1434
 20
83.2658
 11
97.2
 21
83.2667
  0
LINE
  8
0
 10
97.2
 20
83.2667
 11
97.2565
 21
83.2658
  0
LINE
  8
0
 10
97.2565
 20
83.2658
 11
97.313
 21
83.2631
  0
LINE
  8
0
 10
97.313
 20
83.2631
 11
97.3694
 21
83.2587
  0
LINE
  8
0
 10
97.3694
 20
83.2587
 11
97.4256
 21
83.2525
  0
LINE
  8
0
 10
97.4256
 20
83.2525
 11
97.4816
 21
83.2445
  0
LINE
  8
0
 10
97.4816
 20
83.2445
 11
97.5373
 21
83.2348
  0
LINE
  8
0
 10
97.5373
 20
83.2348
 11
97.5927
 21
83.2233
  0
LINE
  8
0
 10
97.5927
 20
83.2233
 11
97.6476
 21
83.2101
  0
LINE
  8
0
 10
97.6476
 20
83.2101
 11
97.7022
 21
83.1952
  0
LINE
  8
0
 10
97.7022
 20
83.1952
 11
97.7562
 21
83.1786
  0
LINE
  8
0
 10
97.7562
 20
83.1786
 11
97.8097
 21
83.1602
  0
LINE
  8
0
 10
97.8097
 20
83.1602
 11
97.8626
 21
83.1403
  0
LINE
  8
0
 10
97.8626
 20
83.1403
 11
97.9149
 21
83.1186
  0
LINE
  8
0
 10
97.9149
 20
83.1186
 11
97.9664
 21
83.0954
  0
LINE
  8
0
 10
97.9664
 20
83.0954
 11
98.0172
 21
83.0705
  0
LINE
  8
0
 10
98.0172
 20
83.0705
 11
98.0672
 21
83.044
  0
LINE
  8
0
 10
98.0672
 20
83.044
 11
98.1163
 21
83.016
  0
LINE
  8
0
 10
98.1163
 20
83.016
 11
98.1645
 21
82.9865
  0
LINE
  8
0
 10
98.1645
 20
82.9865
 11
98.2117
 21
82.9554
  0
LINE
  8
0
 10
98.2117
 20
82.9554
 11
98.258
 21
82.9229
  0
LINE
  8
0
 10
98.258
 20
82.9229
 11
98.3032
 21
82.8889
  0
LINE
  8
0
 10
98.3032
 20
82.8889
 11
98.3474
 21
82.8536
  0
LINE
  8
0
 10
98.3474
 20
82.8536
 11
98.3904
 21
82.8169
  0
LINE
  8
0
 10
98.3904
 20
82.8169
 11
98.4322
 21
82.7788
  0
LINE
  8
0
 10
98.4322
 20
82.7788
 11
98.4728
 21
82.7395
  0
LINE
  8
0
 10
98.4728
 20
82.7395
 11
98.5121
 21
82.6988
  0
LINE
  8
0
 10
98.5121
 20
82.6988
 11
98.5502
 21
82.657
  0
LINE
  8
0
 10
98.5502
 20
82.657
 11
98.5869
 21
82.614
  0
LINE
  8
0
 10
98.5869
 20
82.614
 11
98.6223
 21
82.5699
  0
LINE
  8
0
 10
98.6223
 20
82.5699
 11
98.6562
 21
82.5247
  0
LINE
  8
0
 10
98.6562
 20
82.5247
 11
98.6887
 21
82.4784
  0
LINE
  8
0
 10
98.6887
 20
82.4784
 11
98.7198
 21
82.4312
  0
LINE
  8
0
 10
98.7198
 20
82.4312
 11
98.7493
 21
82.3829
  0
LINE
  8
0
 10
98.7493
 20
82.3829
 11
98.7773
 21
82.3338
  0
LINE
  8
0
 10
98.7773
 20
82.3338
 11
98.8038
 21
82.2838
  0
LINE
  8
0
 10
98.8038
 20
82.2838
 11
98.8287
 21
82.2331
  0
LINE
  8
0
 10
98.8287
 20
82.2331
 11
98.8519
 21
82.1815
  0
LINE
  8
0
 10
98.8519
 20
82.1815
 11
98.8736
 21
82.1293
  0
LINE
  8
0
 10
98.8736
 20
82.1293
 11
98.8936
 21
82.0764
  0
LINE
  8
0
 10
98.8936
 20
82.0764
 11
98.9119
 21
82.0229
  0
LINE
  8
0
 10
98.9119
 20
82.0229
 11
98.9285
 21
81.9688
  0
LINE
  8
0
 10
98.9285
 20
81.9688
 11
98.9434
 21
81.9143
  0
LINE
  8
0
 10
98.9434
 20
81.9143
 11
98.9566
 21
81.8593
  0
LINE
  8
0
 10
98.9566
 20
81.8593
 11
98.9681
 21
81.8039
  0
LINE
  8
0
 10
98.9681
 20
81.8039
 11
98.9778
 21
81.7482
  0
LINE
  8
0
 10
98.9778
 20
81.7482
 11
98.9858
 21
81.6923
  0
LINE
  8
0
 10
98.9858
 20
81.6923
 11
98.992
 21
81.636
  0
LINE
  8
0
 10
98.992
 20
81.636
 11
98.9964
 21
81.5797
  0
LINE
  8
0
 10
98.9964
 20
81.5797
 11
98.9991
 21
81.5232
  0
LINE
  8
0
 10
98.9991
 20
81.5232
 11
99
 21
81.4667
  0
LINE
  8
0
 10
99
 20
81.4667
 11
98.9991
 21
81.4101
  0
LINE
  8
0
 10
98.9991
 20
81.4101
 11
98.9964
 21
81.3536
  0
LINE
  8
0
 10
98.9964
 20
81.3536
 11
98.992
 21
81.2973
  0
LINE
  8
0
 10
98.992
 20
81.2973
 11
98.9858
 21
81.2411
  0
LINE
  8
0
 10
98.9858
 20
81.2411
 11
98.9778
 21
81.1851
  0
LINE
  8
0
 10
98.9778
 20
81.1851
 11
98.9681
 21
81.1294
  0
LINE
  8
0
 10
98.9681
 20
81.1294
 11
98.9566
 21
81.074
  0
LINE
  8
0
 10
98.9566
 20
81.074
 11
98.9434
 21
81.019
  0
LINE
  8
0
 10
98.9434
 20
81.019
 11
98.9285
 21
80.9645
  0
LINE
  8
0
 10
98.9285
 20
80.9645
 11
98.9119
 21
80.9104
  0
LINE
  8
0
 10
98.9119
 20
80.9104
 11
98.8936
 21
80.8569
  0
LINE
  8
0
 10
98.8936
 20
80.8569
 11
98.8736
 21
80.804
  0
LINE
  8
0
 10
98.8736
 20
80.804
 11
98.8519
 21
80.7518
  0
LINE
  8
0
 10
98.8519
 20
80.7518
 11
98.8287
 21
80.7003
  0
LINE
  8
0
 10
98.8287
 20
80.7003
 11
98.8038
 21
80.6495
  0
LINE
  8
0
 10
98.8038
 20
80.6495
 11
98.7773
 21
80.5995
  0
LINE
  8
0
 10
98.7773
 20
80.5995
 11
98.7493
 21
80.5504
  0
LINE
  8
0
 10
98.7493
 20
80.5504
 11
98.7198
 21
80.5022
  0
LINE
  8
0
 10
98.7198
 20
80.5022
 11
98.6887
 21
80.4549
  0
LINE
  8
0
 10
98.6887
 20
80.4549
 11
98.6562
 21
80.4086
  0
LINE
  8
0
 10
98.6562
 20
80.4086
 11
98.6223
 21
80.3634
  0
LINE
  8
0
 10
98.6223
 20
80.3634
 11
98.5869
 21
80.3193
  0
LINE
  8
0
 10
98.5869
 20
80.3193
 11
98.5502
 21
80.2763
  0
LINE
  8
0
 10
98.5502
 20
80.2763
 11
98.5121
 21
80.2345
  0
LINE
  8
0
 10
98.5121
 20
80.2345
 11
98.4728
 21
80.1939
  0
LINE
  8
0
 10
98.4728
 20
80.1939
 11
98.4322
 21
80.1545
  0
LINE
  8
0
 10
98.4322
 20
80.1545
 11
98.3904
 21
80.1165
  0
LINE
  8
0
 10
98.3904
 20
80.1165
 11
98.3474
 21
80.0797
  0
LINE
  8
0
 10
98.3474
 20
80.0797
 11
98.3032
 21
80.0444
  0
LINE
  8
0
 10
98.3032
 20
80.0444
 11
98.258
 21
80.0104
  0
LINE
  8
0
 10
98.258
 20
80.0104
 11
98.2117
 21
79.9779
  0
LINE
  8
0
 10
98.2117
 20
79.9779
 11
98.1645
 21
79.9469
  0
LINE
  8
0
 10
98.1645
 20
79.9469
 11
98.1163
 21
79.9173
  0
LINE
  8
0
 10
98.1163
 20
79.9173
 11
98.0672
 21
79.8893
  0
LINE
  8
0
 10
98.0672
 20
79.8893
 11
98.0172
 21
79.8629
  0
LINE
  8
0
 10
98.0172
 20
79.8629
 11
97.9664
 21
79.838
  0
LINE
  8
0
 10
97.9664
 20
79.838
 11
97.9149
 21
79.8147
  0
LINE
  8
0
 10
97.9149
 20
79.8147
 11
97.8626
 21
79.7931
  0
LINE
  8
0
 10
97.8626
 20
79.7931
 11
97.8097
 21
79.7731
  0
LINE
  8
0
 10
97.8097
 20
79.7731
 11
97.7562
 21
79.7548
  0
LINE
  8
0
 10
97.7562
 20
79.7548
 11
97.7022
 21
79.7381
  0
LINE
  8
0
 10
97.7022
 20
79.7381
 11
97.6476
 21
79.7232
  0
LINE
  8
0
 10
97.6476
 20
79.7232
 11
97.5927
 21
79.71
  0
LINE
  8
0
 10
97.5927
 20
79.71
 11
97.5373
 21
79.6985
  0
LINE
  8
0
 10
97.5373
 20
79.6985
 11
97.4816
 21
79.6888
  0
LINE
  8
0
 10
97.4816
 20
79.6888
 11
97.4256
 21
79.6808
  0
LINE
  8
0
 10
97.4256
 20
79.6808
 11
97.3694
 21
79.6747
  0
LINE
  8
0
 10
97.3694
 20
79.6747
 11
97.313
 21
79.6702
  0
LINE
  8
0
 10
97.313
 20
79.6702
 11
97.2565
 21
79.6675
  0
LINE
  8
0
 10
97.2565
 20
79.6675
 11
97.2
 21
79.6667
  0
LINE
  8
0
 10
97.2
 20
79.6667
 11
97.1434
 21
79.6675
  0
LINE
  8
0
 10
4.94345
 20
79.6675
 11
4.88696
 21
79.6702
  0
LINE
  8
0
 10
4.88696
 20
79.6702
 11
4.8306
 21
79.6747
  0
LINE
  8
0
 10
4.8306
 20
79.6747
 11
4.7744
 21
79.6808
  0
LINE
  8
0
 10
4.7744
 20
79.6808
 11
4.71841
 21
79.6888
  0
LINE
  8
0
 10
4.71841
 20
79.6888
 11
4.6627
 21
79.6985
  0
LINE
  8
0
 10
4.6627
 20
79.6985
 11
4.60733
 21
79.71
  0
LINE
  8
0
 10
4.60733
 20
79.71
 11
4.55235
 21
79.7232
  0
LINE
  8
0
 10
4.55235
 20
79.7232
 11
4.4978
 21
79.7381
  0
LINE
  8
0
 10
4.4978
 20
79.7381
 11
4.44376
 21
79.7548
  0
LINE
  8
0
 10
4.44376
 20
79.7548
 11
4.39026
 21
79.7731
  0
LINE
  8
0
 10
4.39026
 20
79.7731
 11
4.33737
 21
79.7931
  0
LINE
  8
0
 10
4.33737
 20
79.7931
 11
4.28513
 21
79.8147
  0
LINE
  8
0
 10
4.28513
 20
79.8147
 11
4.2336
 21
79.838
  0
LINE
  8
0
 10
4.2336
 20
79.838
 11
4.18282
 21
79.8629
  0
LINE
  8
0
 10
4.18282
 20
79.8629
 11
4.13284
 21
79.8893
  0
LINE
  8
0
 10
4.13284
 20
79.8893
 11
4.08372
 21
79.9173
  0
LINE
  8
0
 10
4.08372
 20
79.9173
 11
4.03551
 21
79.9469
  0
LINE
  8
0
 10
4.03551
 20
79.9469
 11
3.98824
 21
79.9779
  0
LINE
  8
0
 10
3.98824
 20
79.9779
 11
3.94199
 21
80.0104
  0
LINE
  8
0
 10
3.94199
 20
80.0104
 11
3.89676
 21
80.0444
  0
LINE
  8
0
 10
3.89676
 20
80.0444
 11
3.85263
 21
80.0797
  0
LINE
  8
0
 10
3.85263
 20
80.0797
 11
3.80963
 21
80.1165
  0
LINE
  8
0
 10
3.80963
 20
80.1165
 11
3.76781
 21
80.1545
  0
LINE
  8
0
 10
3.76781
 20
80.1545
 11
3.7272
 21
80.1939
  0
LINE
  8
0
 10
3.7272
 20
80.1939
 11
3.68785
 21
80.2345
  0
LINE
  8
0
 10
3.68785
 20
80.2345
 11
3.6498
 21
80.2763
  0
LINE
  8
0
 10
3.6498
 20
80.2763
 11
3.61307
 21
80.3193
  0
LINE
  8
0
 10
3.61307
 20
80.3193
 11
3.57771
 21
80.3634
  0
LINE
  8
0
 10
3.57771
 20
80.3634
 11
3.54376
 21
80.4086
  0
LINE
  8
0
 10
3.54376
 20
80.4086
 11
3.51125
 21
80.4549
  0
LINE
  8
0
 10
3.51125
 20
80.4549
 11
3.48021
 21
80.5022
  0
LINE
  8
0
 10
3.48021
 20
80.5022
 11
3.45065
 21
80.5504
  0
LINE
  8
0
 10
3.45065
 20
80.5504
 11
3.42264
 21
80.5995
  0
LINE
  8
0
 10
3.42264
 20
80.5995
 11
3.39618
 21
80.6495
  0
LINE
  8
0
 10
3.39618
 20
80.6495
 11
3.37131
 21
80.7003
  0
LINE
  8
0
 10
3.37131
 20
80.7003
 11
3.34804
 21
80.7518
  0
LINE
  8
0
 10
3.34804
 20
80.7518
 11
3.3264
 21
80.804
  0
LINE
  8
0
 10
3.3264
 20
80.804
 11
3.30641
 21
80.8569
  0
LINE
  8
0
 10
3.30641
 20
80.8569
 11
3.28809
 21
80.9104
  0
LINE
  8
0
 10
3.28809
 20
80.9104
 11
3.27147
 21
80.9645
  0
LINE
  8
0
 10
3.27147
 20
80.9645
 11
3.25655
 21
81.019
  0
LINE
  8
0
 10
3.25655
 20
81.019
 11
3.24335
 21
81.074
  0
LINE
  8
0
 10
3.24335
 20
81.074
 11
3.23187
 21
81.1294
  0
LINE
  8
0
 10
3.23187
 20
81.1294
 11
3.22215
 21
81.1851
  0
LINE
  8
0
 10
3.22215
 20
81.1851
 11
3.21419
 21
81.2411
  0
LINE
  8
0
 10
3.21419
 20
81.2411
 11
3.20798
 21
81.2973
  0
LINE
  8
0
 10
3.20798
 20
81.2973
 11
3.20354
 21
81.3536
  0
LINE
  8
0
 10
3.20354
 20
81.3536
 11
3.20088
 21
81.4101
  0
LINE
  8
0
 10
3.20088
 20
81.4101
 11
3.2
 21
81.4667
  0
LINE
  8
0
 10
3.2
 20
81.4667
 11
3.20088
 21
81.5232
  0
LINE
  8
0
 10
3.20088
 20
81.5232
 11
3.20354
 21
81.5797
  0
LINE
  8
0
 10
3.20354
 20
81.5797
 11
3.20798
 21
81.636
  0
LINE
  8
0
 10
3.20798
 20
81.636
 11
3.21419
 21
81.6923
  0
LINE
  8
0
 10
3.21419
 20
81.6923
 11
3.22215
 21
81.7482
  0
LINE
  8
0
 10
3.22215
 20
81.7482
 11
3.23187
 21
81.8039
  0
LINE
  8
0
 10
3.23187
 20
81.8039
 11
3.24335
 21
81.8593
  0
LINE
  8
0
 10
3.24335
 20
81.8593
 11
3.25655
 21
81.9143
  0
LINE
  8
0
 10
3.25655
 20
81.9143
 11
3.27147
 21
81.9688
  0
LINE
  8
0
 10
3.27147
 20
81.9688
 11
3.28809
 21
82.0229
  0
LINE
  8
0
 10
3.28809
 20
82.0229
 11
3.30641
 21
82.0764
  0
LINE
  8
0
 10
3.30641
 20
82.0764
 11
3.3264
 21
82.1293
  0
LINE
  8
0
 10
3.3264
 20
82.1293
 11
3.34804
 21
82.1815
  0
LINE
  8
0
 10
3.34804
 20
82.1815
 11
3.37131
 21
82.2331
  0
LINE
  8
0
 10
3.37131
 20
82.2331
 11
3.39618
 21
82.2838
  0
LINE
  8
0
 10
3.39618
 20
82.2838
 11
3.42264
 21
82.3338
  0
LINE
  8
0
 10
3.42264
 20
82.3338
 11
3.45065
 21
82.3829
  0
LINE
  8
0
 10
3.45065
 20
82.3829
 11
3.48021
 21
82.4312
  0
LINE
  8
0
 10
3.48021
 20
82.4312
 11
3.51125
 21
82.4784
  0
LINE
  8
0
 10
3.51125
 20
82.4784
 11
3.54376
 21
82.5247
  0
LINE
  8
0
 10
3.54376
 20
82.5247
 11
3.57771
 21
82.5699
  0
LINE
  8
0
 10
3.57771
 20
82.5699
 11
3.61307
 21
82.614
  0
LINE
  8
0
 10
3.61307
 20
82.614
 11
3.6498
 21
82.657
  0
LINE
  8
0
 10
3.6498
 20
82.657
 11
3.68785
 21
82.6988
  0
LINE
  8
0
 10
3.68785
 20
82.6988
 11
3.7272
 21
82.7395
  0
LINE
  8
0
 10
3.7272
 20
82.7395
 11
3.76781
 21
82.7788
  0
LINE
  8
0
 10
3.76781
 20
82.7788
 11
3.80963
 21
82.8169
  0
LINE
  8
0
 10
3.80963
 20
82.8169
 11
3.85263
 21
82.8536
  0
LINE
  8
0
 10
3.85263
 20
82.8536
 11
3.89676
 21
82.8889
  0
LINE
  8
0
 10
3.89676
 20
82.8889
 11
3.94199
 21
82.9229
  0
LINE
  8
0
 10
3.94199
 20
82.9229
 11
3.98824
 21
82.9554
  0
LINE
  8
0
 10
3.98824
 20
82.9554
 11
4.03551
 21
82.9865
  0
LINE
  8
0
 10
4.03551
 20
82.9865
 11
4.08372
 21
83.016
  0
LINE
  8
0
 10
4.08372
 20
83.016
 11
4.13284
 21
83.044
  0
LINE
  8
0
 10
4.13284
 20
83.044
 11
4.18282
 21
83.0705
  0
LINE
  8
0
 10
4.18282
 20
83.0705
 11
4.2336
 21
83.0954
  0
LINE
  8
0
 10
4.2336
 20
83.0954
 11
4.28513
 21
83.1186
  0
LINE
  8
0
 10
4.28513
 20
83.1186
 11
4.33737
 21
83.1403
  0
LINE
  8
0
 10
4.33737
 20
83.1403
 11
4.39026
 21
83.1602
  0
LINE
  8
0
 10
4.39026
 20
83.1602
 11
4.44376
 21
83.1786
  0
LINE
  8
0
 10
4.44376
 20
83.1786
 11
4.4978
 21
83.1952
  0
LINE
  8
0
 10
4.4978
 20
83.1952
 11
4.55235
 21
83.2101
  0
LINE
  8
0
 10
4.55235
 20
83.2101
 11
4.60733
 21
83.2233
  0
LINE
  8
0
 10
4.60733
 20
83.2233
 11
4.6627
 21
83.2348
  0
LINE
  8
0
 10
4.6627
 20
83.2348
 11
4.71841
 21
83.2445
  0
LINE
  8
0
 10
4.71841
 20
83.2445
 11
4.7744
 21
83.2525
  0
LINE
  8
0
 10
4.7744
 20
83.2525
 11
4.8306
 21
83.2587
  0
LINE
  8
0
 10
4.8306
 20
83.2587
 11
4.88696
 21
83.2631
  0
LINE
  8
0
 10
4.88696
 20
83.2631
 11
4.94345
 21
83.2658
  0
LINE
  8
0
 10
4.94345
 20
83.2658
 11
5
 21
83.2667
  0
LINE
  8
0
 10
5
 20
83.2667
 11
5.05653
 21
83.2658
  0
LINE
  8
0
 10
5.05653
 20
83.2658
 11
5.11302
 21
83.2631
  0
LINE
  8
0
 10
5.11302
 20
83.2631
 11
5.16939
 21
83.2587
  0
LINE
  8
0
 10
5.16939
 20
83.2587
 11
5.22559
 21
83.2525
  0
LINE
  8
0
 10
5.22559
 20
83.2525
 11
5.28157
 21
83.2445
  0
LINE
  8
0
 10
5.28157
 20
83.2445
 11
5.33728
 21
83.2348
  0
LINE
  8
0
 10
5.33728
 20
83.2348
 11
5.39265
 21
83.2233
  0
LINE
  8
0
 10
5.39265
 20
83.2233
 11
5.44763
 21
83.2101
  0
LINE
  8
0
 10
5.44763
 20
83.2101
 11
5.50218
 21
83.1952
  0
LINE
  8
0
 10
5.50218
 20
83.1952
 11
5.55623
 21
83.1786
  0
LINE
  8
0
 10
5.55623
 20
83.1786
 11
5.60973
 21
83.1602
  0
LINE
  8
0
 10
5.60973
 20
83.1602
 11
5.66261
 21
83.1403
  0
LINE
  8
0
 10
5.66261
 20
83.1403
 11
5.71486
 21
83.1186
  0
LINE
  8
0
 10
5.71486
 20
83.1186
 11
5.76639
 21
83.0954
  0
LINE
  8
0
 10
5.76639
 20
83.0954
 11
5.81717
 21
83.0705
  0
LINE
  8
0
 10
5.81717
 20
83.0705
 11
5.86714
 21
83.044
  0
LINE
  8
0
 10
5.86714
 20
83.044
 11
5.91626
 21
83.016
  0
LINE
  8
0
 10
5.91626
 20
83.016
 11
5.96448
 21
82.9865
  0
LINE
  8
0
 10
5.96448
 20
82.9865
 11
6.01175
 21
82.9554
  0
LINE
  8
0
 10
6.01175
 20
82.9554
 11
6.058
 21
82.9229
  0
LINE
  8
0
 10
6.058
 20
82.9229
 11
6.10323
 21
82.8889
  0
LINE
  8
0
 10
6.10323
 20
82.8889
 11
6.14735
 21
82.8536
  0
LINE
  8
0
 10
6.14735
 20
82.8536
 11
6.19035
 21
82.8169
  0
LINE
  8
0
 10
6.19035
 20
82.8169
 11
6.23218
 21
82.7788
  0
LINE
  8
0
 10
6.23218
 20
82.7788
 11
6.27278
 21
82.7395
  0
LINE
  8
0
 10
6.27278
 20
82.7395
 11
6.31213
 21
82.6988
  0
LINE
  8
0
 10
6.31213
 20
82.6988
 11
6.35019
 21
82.657
  0
LINE
  8
0
 10
6.35019
 20
82.657
 11
6.38692
 21
82.614
  0
LINE
  8
0
 10
6.38692
 20
82.614
 11
6.42227
 21
82.5699
  0
LINE
  8
0
 10
6.42227
 20
82.5699
 11
6.45622
 21
82.5247
  0
LINE
  8
0
 10
6.45622
 20
82.5247
 11
6.48874
 21
82.4784
  0
LINE
  8
0
 10
6.48874
 20
82.4784
 11
6.51978
 21
82.4312
  0
LINE
  8
0
 10
6.51978
 20
82.4312
 11
6.54933
 21
82.3829
  0
LINE
  8
0
 10
6.54933
 20
82.3829
 11
6.57735
 21
82.3338
  0
LINE
  8
0
 10
6.57735
 20
82.3338
 11
6.60381
 21
82.2838
  0
LINE
  8
0
 10
6.60381
 20
82.2838
 11
6.62868
 21
82.2331
  0
LINE
  8
0
 10
6.62868
 20
82.2331
 11
6.65195
 21
82.1815
  0
LINE
  8
0
 10
6.65195
 20
82.1815
 11
6.67358
 21
82.1293
  0
LINE
  8
0
 10
6.67358
 20
82.1293
 11
6.69357
 21
82.0764
  0
LINE
  8
0
 10
6.69357
 20
82.0764
 11
6.7119
 21
82.0229
  0
LINE
  8
0
 10
6.7119
 20
82.0229
 11
6.72852
 21
81.9688
  0
LINE
  8
0
 10
6.72852
 20
81.9688
 11
6.74344
 21
81.9143
  0
LINE
  8
0
 10
6.74344
 20
81.9143
 11
6.75664
 21
81.8593
  0
LINE
  8
0
 10
6.75664
 20
81.8593
 11
6.76811
 21
81.8039
  0
LINE
  8
0
 10
6.76811
 20
81.8039
 11
6.77783
 21
81.7482
  0
LINE
  8
0
 10
6.77783
 20
81.7482
 11
6.7858
 21
81.6923
  0
LINE
  8
0
 10
6.7858
 20
81.6923
 11
6.79201
 21
81.636
  0
LINE
  8
0
 10
6.79201
 20
81.636
 11
6.79645
 21
81.5797
  0
LINE
  8
0
 10
6.79645
 20
81.5797
 11
6.7991
 21
81.5232
  0
LINE
  8
0
 10
6.7991
 20
81.5232
 11
6.79999
 21
81.4667
  0
LINE
  8
0
 10
6.79999
 20
81.4667
 11
6.7991
 21
81.4101
  0
LINE
  8
0
 10
6.7991
 20
81.4101
 11
6.79645
 21
81.3536
  0
LINE
  8
0
 10
6.79645
 20
81.3536
 11
6.79201
 21
81.2973
  0
LINE
  8
0
 10
6.79201
 20
81.2973
 11
6.7858
 21
81.2411
  0
LINE
  8
0
 10
6.7858
 20
81.2411
 11
6.77783
 21
81.1851
  0
LINE
  8
0
 10
6.77783
 20
81.1851
 11
6.76811
 21
81.1294
  0
LINE
  8
0
 10
6.76811
 20
81.1294
 11
6.75664
 21
81.074
  0
LINE
  8
0
 10
6.75664
 20
81.074
 11
6.74344
 21
81.019
  0
LINE
  8
0
 10
6.74344
 20
81.019
 11
6.72852
 21
80.9645
  0
LINE
  8
0
 10
6.72852
 20
80.9645
 11
6.7119
 21
80.9104
  0
LINE
  8
0
 10
6.7119
 20
80.9104
 11
6.69357
 21
80.8569
  0
LINE
  8
0
 10
6.69357
 20
80.8569
 11
6.67358
 21
80.804
  0
LINE
  8
0
 10
6.67358
 20
80.804
 11
6.65195
 21
80.7518
  0
LINE
  8
0
 10
6.65195
 20
80.7518
 11
6.62868
 21
80.7003
  0
LINE
  8
0
 10
6.62868
 20
80.7003
 11
6.60381
 21
80.6495
  0
LINE
  8
0
 10
6.60381
 20
80.6495
 11
6.57735
 21
80.5995
  0
LINE
  8
0
 10
6.57735
 20
80.5995
 11
6.54933
 21
80.5504
  0
LINE
  8
0
 10
6.54933
 20
80.5504
 11
6.51978
 21
80.5022
  0
LINE
  8
0
 10
6.51978
 20
80.5022
 11
6.48874
 21
80.4549
  0
LINE
  8
0
 10
6.48874
 20
80.4549
 11
6.45622
 21
80.4086
  0
LINE
  8
0
 10
6.45622
 20
80.4086
 11
6.42227
 21
80.3634
  0
LINE
  8
0
 10
6.42227
 20
80.3634
 11
6.38692
 21
80.3193
  0
LINE
  8
0
 10
6.38692
 20
80.3193
 11
6.35019
 21
80.2763
  0
LINE
  8
0
 10
6.35019
 20
80.2763
 11
6.31213
 21
80.2345
  0
LINE
  8
0
 10
6.31213
 20
80.2345
 11
6.27278
 21
80.1939
  0
LINE
  8
0
 10
6.27278
 20
80.1939
 11
6.23218
 21
80.1545
  0
LINE
  8
0
 10
6.23218
 20
80.1545
 11
6.19035
 21
80.1165
  0
LINE
  8
0
 10
6.19035
 20
80.1165
 11
6.14735
 21
80.0797
  0
LINE
  8
0
 10
6.14735
 20
80.0797
 11
6.10323
 21
80.0444
  0
LINE
  8
0
 10
6.10323
 20
80.0444
 11
6.058
 21
80.0104
  0
LINE
  8
0
 10
6.058
 20
80.0104
 11
6.01175
 21
79.9779
  0
LINE
  8
0
 10
6.01175
 20
79.9779
 11
5.96448
 21
79.9469
  0
LINE
  8
0
 10
5.96448
 20
79.9469
 11
5.91626
 21
79.9173
  0
LINE
  8
0
 10
5.91626
 20
79.9173
 11
5.86714
 21
79.8893
  0
LINE
  8
0
 10
5.86714
 20
79.8893
 11
5.81717
 21
79.8629
  0
LINE
  8
0
 10
5.81717
 20
79.8629
 11
5.76639
 21
79.838
  0
LINE
  8
0
 10
5.76639
 20
79.838
 11
5.71486
 21
79.8147
  0
LINE
  8
0
 10
5.71486
 20
79.8147
 11
5.66261
 21
79.7931
  0
LINE
  8
0
 10
5.66261
 20
79.7931
 11
5.60973
 21
79.7731
  0
LINE
  8
0
 10
5.60973
 20
79.7731
 11
5.55623
 21
79.7548
  0
LINE
  8
0
 10
5.55623
 20
79.7548
 11
5.50218
 21
79.7381
  0
LINE
  8
0
 10
5.50218
 20
79.7381
 11
5.44763
 21
79.7232
  0
LINE
  8
0
 10
5.44763
 20
79.7232
 11
5.39265
 21
79.71
  0
LINE
  8
0
 10
5.39265
 20
79.71
 11
5.33728
 21
79.6985
  0
LINE
  8
0
 10
5.33728
 20
79.6985
 11
5.28157
 21
79.6888
  0
LINE
  8
0
 10
5.28157
 20
79.6888
 11
5.22559
 21
79.6808
  0
LINE
  8
0
 10
5.22559
 20
79.6808
 11
5.16939
 21
79.6747
  0
LINE
  8
0
 10
5.16939
 20
79.6747
 11
5.11302
 21
79.6702
  0
LINE
  8
0
 10
5.11302
 20
79.6702
 11
5.05653
 21
79.6675
  0
LINE
  8
0
 10
5.05653
 20
79.6675
 11
5
 21
79.6667
  0
LINE
  8
0
 10
5
 20
79.6667
 11
4.94345
 21
79.6675
  0
LINE
  8
0
 10
16.025
 20
53.625
 11
15.9382
 21
53.6326
  0
LINE
  8
0
 10
15.9382
 20
53.6326
 11
15.854
 21
53.6552
  0
LINE
  8
0
 10
15.854
 20
53.6552
 11
15.775
 21
53.692
  0
LINE
  8
0
 10
15.775
 20
53.692
 11
15.7036
 21
53.742
  0
LINE
  8
0
 10
15.7036
 20
53.742
 11
15.642
 21
53.8036
  0
LINE
  8
0
 10
15.642
 20
53.8036
 11
15.592
 21
53.875
  0
LINE
  8
0
 10
15.592
 20
53.875
 11
15.5551
 21
53.954
  0
LINE
  8
0
 10
15.5551
 20
53.954
 11
15.5326
 21
54.0382
  0
LINE
  8
0
 10
15.5326
 20
54.0382
 11
15.525
 21
54.125
  0
LINE
  8
0
 10
15.525
 20
54.125
 11
15.525
 21
67.125
  0
LINE
  8
0
 10
15.525
 20
67.125
 11
15.5326
 21
67.2118
  0
LINE
  8
0
 10
15.5326
 20
67.2118
 11
15.5551
 21
67.296
  0
LINE
  8
0
 10
15.5551
 20
67.296
 11
15.592
 21
67.375
  0
LINE
  8
0
 10
15.592
 20
67.375
 11
15.642
 21
67.4464
  0
LINE
  8
0
 10
15.642
 20
67.4464
 11
15.7036
 21
67.508
  0
LINE
  8
0
 10
15.7036
 20
67.508
 11
15.775
 21
67.558
  0
LINE
  8
0
 10
15.775
 20
67.558
 11
15.854
 21
67.5948
  0
LINE
  8
0
 10
15.854
 20
67.5948
 11
15.9382
 21
67.6174
  0
LINE
  8
0
 10
15.9382
 20
67.6174
 11
16.025
 21
67.625
  0
LINE
  8
0
 10
16.025
 20
67.625
 11
29.025
 21
67.625
  0
LINE
  8
0
 10
29.025
 20
67.625
 11
29.1118
 21
67.6174
  0
LINE
  8
0
 10
29.1118
 20
67.6174
 11
29.196
 21
67.5948
  0
LINE
  8
0
 10
29.196
 20
67.5948
 11
29.275
 21
67.558
  0
LINE
  8
0
 10
29.275
 20
67.558
 11
29.3464
 21
67.508
  0
LINE
  8
0
 10
29.3464
 20
67.508
 11
29.408
 21
67.4464
  0
LINE
  8
0
 10
29.408
 20
67.4464
 11
29.458
 21
67.375
  0
LINE
  8
0
 10
29.458
 20
67.375
 11
29.4948
 21
67.296
  0
LINE
  8
0
 10
29.4948
 20
67.296
 11
29.5174
 21
67.2118
  0
LINE
  8
0
 10
29.5174
 20
67.2118
 11
29.525
 21
67.125
  0
LINE
  8
0
 10
29.525
 20
67.125
 11
29.525
 21
54.125
  0
LINE
  8
0
 10
29.525
 20
54.125
 11
29.5174
 21
54.0382
  0
LINE
  8
0
 10
29.5174
 20
54.0382
 11
29.4948
 21
53.954
  0
LINE
  8
0
 10
29.4948
 20
53.954
 11
29.458
 21
53.875
  0
LINE
  8
0
 10
29.458
 20
53.875
 11
29.408
 21
53.8036
  0
LINE
  8
0
 10
29.408
 20
53.8036
 11
29.3464
 21
53.742
  0
LINE
  8
0
 10
29.3464
 20
53.742
 11
29.275
 21
53.692
  0
LINE
  8
0
 10
29.275
 20
53.692
 11
29.196
 21
53.6552
  0
LINE
  8
0
 10
29.196
 20
53.6552
 11
29.1118
 21
53.6326
  0
LINE
  8
0
 10
29.1118
 20
53.6326
 11
29.025
 21
53.625
  0
LINE
  8
0
 10
29.025
 20
53.625
 11
16.025
 21
53.625
  0
LINE
  8
0
 10
73.175
 20
53.625
 11
73.0882
 21
53.6326
  0
LINE
  8
0
 10
73.0882
 20
53.6326
 11
73.004
 21
53.6552
  0
LINE
  8
0
 10
73.004
 20
53.6552
 11
72.925
 21
53.692
  0
LINE
  8
0
 10
72.925
 20
53.692
 11
72.8536
 21
53.742
  0
LINE
  8
0
 10
72.8536
 20
53.742
 11
72.792
 21
53.8036
  0
LINE
  8
0
 10
72.792
 20
53.8036
 11
72.742
 21
53.875
  0
LINE
  8
0
 10
72.742
 20
53.875
 11
72.7051
 21
53.954
  0
LINE
  8
0
 10
72.7051
 20
53.954
 11
72.6826
 21
54.0382
  0
LINE
  8
0
 10
72.6826
 20
54.0382
 11
72.675
 21
54.125
  0
LINE
  8
0
 10
72.675
 20
54.125
 11
72.675
 21
67.125
  0
LINE
  8
0
 10
72.675
 20
67.125
 11
72.6826
 21
67.2118
  0
LINE
  8
0
 10
72.6826
 20
67.2118
 11
72.7051
 21
67.296
  0
LINE
  8
0
 10
72.7051
 20
67.296
 11
72.742
 21
67.375
  0
LINE
  8
0
 10
72.742
 20
67.375
 11
72.792
 21
67.4464
  0
LINE
  8
0
 10
72.792
 20
67.4464
 11
72.8536
 21
67.508
  0
LINE
  8
0
 10
72.8536
 20
67.508
 11
72.925
 21
67.558
  0
LINE
  8
0
 10
72.925
 20
67.558
 11
73.004
 21
67.5948
  0
LINE
  8
0
 10
73.004
 20
67.5948
 11
73.0882
 21
67.6174
  0
LINE
  8
0
 10
73.0882
 20
67.6174
 11
73.175
 21
67.625
  0
LINE
  8
0
 10
73.175
 20
67.625
 11
86.175
 21
67.625
  0
LINE
  8
0
 10
86.175
 20
67.625
 11
86.2618
 21
67.6174
  0
LINE
  8
0
 10
86.2618
 20
67.6174
 11
86.346
 21
67.5948
  0
LINE
  8
0
 10
86.346
 20
67.5948
 11
86.425
 21
67.558
  0
LINE
  8
0
 10
86.425
 20
67.558
 11
86.4964
 21
67.508
  0
LINE
  8
0
 10
86.4964
 20
67.508
 11
86.558
 21
67.4464
  0
LINE
  8
0
 10
86.558
 20
67.4464
 11
86.608
 21
67.375
  0
LINE
  8
0
 10
86.608
 20
67.375
 11
86.6448
 21
67.296
  0
LINE
  8
0
 10
86.6448
 20
67.296
 11
86.6674
 21
67.2118
  0
LINE
  8
0
 10
86.6674
 20
67.2118
 11
86.675
 21
67.125
  0
LINE
  8
0
 10
86.675
 20
67.125
 11
86.675
 21
54.125
  0
LINE
  8
0
 10
86.675
 20
54.125
 11
86.6674
 21
54.0382
  0
LINE
  8
0
 10
86.6674
 20
54.0382
 11
86.6448
 21
53.954
  0
LINE
  8
0
 10
86.6448
 20
53.954
 11
86.608
 21
53.875
  0
LINE
  8
0
 10
86.608
 20
53.875
 11
86.558
 21
53.8036
  0
LINE
  8
0
 10
86.558
 20
53.8036
 11
86.4964
 21
53.742
  0
LINE
  8
0
 10
86.4964
 20
53.742
 11
86.425
 21
53.692
  0
LINE
  8
0
 10
86.425
 20
53.692
 11
86.346
 21
53.6552
  0
LINE
  8
0
 10
86.346
 20
53.6552
 11
86.2618
 21
53.6326
  0
LINE
  8
0
 10
86.2618
 20
53.6326
 11
86.175
 21
53.625
  0
LINE
  8
0
 10
86.175
 20
53.625
 11
73.175
 21
53.625
  0
LINE
  8
0
 10
54.125
 20
53.625
 11
54.0382
 21
53.6326
  0
LINE
  8
0
 10
54.0382
 20
53.6326
 11
53.954
 21
53.6552
  0
LINE
  8
0
 10
53.954
 20
53.6552
 11
53.875
 21
53.692
  0
LINE
  8
0
 10
53.875
 20
53.692
 11
53.8036
 21
53.742
  0
LINE
  8
0
 10
53.8036
 20
53.742
 11
53.742
 21
53.8036
  0
LINE
  8
0
 10
53.742
 20
53.8036
 11
53.692
 21
53.875
  0
LINE
  8
0
 10
53.692
 20
53.875
 11
53.6552
 21
53.954
  0
LINE
  8
0
 10
53.6552
 20
53.954
 11
53.6326
 21
54.0382
  0
LINE
  8
0
 10
53.6326
 20
54.0382
 11
53.625
 21
54.125
  0
LINE
  8
0
 10
53.625
 20
54.125
 11
53.625
 21
67.125
  0
LINE
  8
0
 10
53.625
 20
67.125
 11
53.6326
 21
67.2118
  0
LINE
  8
0
 10
53.6326
 20
67.2118
 11
53.6552
 21
67.296
  0
LINE
  8
0
 10
53.6552
 20
67.296
 11
53.692
 21
67.375
  0
LINE
  8
0
 10
53.692
 20
67.375
 11
53.742
 21
67.4464
  0
LINE
  8
0
 10
53.742
 20
67.4464
 11
53.8036
 21
67.508
  0
LINE
  8
0
 10
53.8036
 20
67.508
 11
53.875
 21
67.558
  0
LINE
  8
0
 10
53.875
 20
67.558
 11
53.954
 21
67.5948
  0
LINE
  8
0
 10
53.954
 20
67.5948
 11
54.0382
 21
67.6174
  0
LINE
  8
0
 10
54.0382
 20
67.6174
 11
54.125
 21
67.625
  0
LINE
  8
0
 10
54.125
 20
67.625
 11
67.125
 21
67.625
  0
LINE
  8
0
 10
67.125
 20
67.625
 11
67.2118
 21
67.6174
  0
LINE
  8
0
 10
67.2118
 20
67.6174
 11
67.296
 21
67.5948
  0
LINE
  8
0
 10
67.296
 20
67.5948
 11
67.375
 21
67.558
  0
LINE
  8
0
 10
67.375
 20
67.558
 11
67.4464
 21
67.508
  0
LINE
  8
0
 10
67.4464
 20
67.508
 11
67.508
 21
67.4464
  0
LINE
  8
0
 10
67.508
 20
67.4464
 11
67.558
 21
67.375
  0
LINE
  8
0
 10
67.558
 20
67.375
 11
67.5948
 21
67.296
  0
LINE
  8
0
 10
67.5948
 20
67.296
 11
67.6174
 21
67.2118
  0
LINE
  8
0
 10
67.6174
 20
67.2118
 11
67.625
 21
67.125
  0
LINE
  8
0
 10
67.625
 20
67.125
 11
67.625
 21
54.125
  0
LINE
  8
0
 10
67.625
 20
54.125
 11
67.6174
 21
54.0382
  0
LINE
  8
0
 10
67.6174
 20
54.0382
 11
67.5948
 21
53.954
  0
LINE
  8
0
 10
67.5948
 20
53.954
 11
67.558
 21
53.875
  0
LINE
  8
0
 10
67.558
 20
53.875
 11
67.508
 21
53.8036
  0
LINE
  8
0
 10
67.508
 20
53.8036
 11
67.4464
 21
53.742
  0
LINE
  8
0
 10
67.4464
 20
53.742
 11
67.375
 21
53.692
  0
LINE
  8
0
 10
67.375
 20
53.692
 11
67.296
 21
53.6552
  0
LINE
  8
0
 10
67.296
 20
53.6552
 11
67.2118
 21
53.6326
  0
LINE
  8
0
 10
67.2118
 20
53.6326
 11
67.125
 21
53.625
  0
LINE
  8
0
 10
67.125
 20
53.625
 11
54.125
 21
53.625
  0
LINE
  8
0
 10
35.075
 20
53.625
 11
34.9882
 21
53.6326
  0
LINE
  8
0
 10
34.9882
 20
53.6326
 11
34.904
 21
53.6552
  0
LINE
  8
0
 10
34.904
 20
53.6552
 11
34.825
 21
53.692
  0
LINE
  8
0
 10
34.825
 20
53.692
 11
34.7536
 21
53.742
  0
LINE
  8
0
 10
34.7536
 20
53.742
 11
34.692
 21
53.8036
  0
LINE
  8
0
 10
34.692
 20
53.8036
 11
34.642
 21
53.875
  0
LINE
  8
0
 10
34.642
 20
53.875
 11
34.6051
 21
53.954
  0
LINE
  8
0
 10
34.6051
 20
53.954
 11
34.5826
 21
54.0382
  0
LINE
  8
0
 10
34.5826
 20
54.0382
 11
34.575
 21
54.125
  0
LINE
  8
0
 10
34.575
 20
54.125
 11
34.575
 21
67.125
  0
LINE
  8
0
 10
34.575
 20
67.125
 11
34.5826
 21
67.2118
  0
LINE
  8
0
 10
34.5826
 20
67.2118
 11
34.6051
 21
67.296
  0
LINE
  8
0
 10
34.6051
 20
67.296
 11
34.642
 21
67.375
  0
LINE
  8
0
 10
34.642
 20
67.375
 11
34.692
 21
67.4464
  0
LINE
  8
0
 10
34.692
 20
67.4464
 11
34.7536
 21
67.508
  0
LINE
  8
0
 10
34.7536
 20
67.508
 11
34.825
 21
67.558
  0
LINE
  8
0
 10
34.825
 20
67.558
 11
34.904
 21
67.5948
  0
LINE
  8
0
 10
34.904
 20
67.5948
 11
34.9882
 21
67.6174
  0
LINE
  8
0
 10
34.9882
 20
67.6174
 11
35.075
 21
67.625
  0
LINE
  8
0
 10
35.075
 20
67.625
 11
48.075
 21
67.625
  0
LINE
  8
0
 10
48.075
 20
67.625
 11
48.1618
 21
67.6174
  0
LINE
  8
0
 10
48.1618
 20
67.6174
 11
48.246
 21
67.5948
  0
LINE
  8
0
 10
48.246
 20
67.5948
 11
48.325
 21
67.558
  0
LINE
  8
0
 10
48.325
 20
67.558
 11
48.3964
 21
67.508
  0
LINE
  8
0
 10
48.3964
 20
67.508
 11
48.458
 21
67.4464
  0
LINE
  8
0
 10
48.458
 20
67.4464
 11
48.508
 21
67.375
  0
LINE
  8
0
 10
48.508
 20
67.375
 11
48.5448
 21
67.296
  0
LINE
  8
0
 10
48.5448
 20
67.296
 11
48.5674
 21
67.2118
  0
LINE
  8
0
 10
48.5674
 20
67.2118
 11
48.575
 21
67.125
  0
LINE
  8
0
 10
48.575
 20
67.125
 11
48.575
 21
54.125
  0
LINE
  8
0
 10
48.575
 20
54.125
 11
48.5674
 21
54.0382
  0
LINE
  8
0
 10
48.5674
 20
54.0382
 11
48.5448
 21
53.954
  0
LINE
  8
0
 10
48.5448
 20
53.954
 11
48.508
 21
53.875
  0
LINE
  8
0
 10
48.508
 20
53.875
 11
48.458
 21
53.8036
  0
LINE
  8
0
 10
48.458
 20
53.8036
 11
48.3964
 21
53.742
  0
LINE
  8
0
 10
48.3964
 20
53.742
 11
48.325
 21
53.692
  0
LINE
  8
0
 10
48.325
 20
53.692
 11
48.246
 21
53.6552
  0
LINE
  8
0
 10
48.246
 20
53.6552
 11
48.1618
 21
53.6326
  0
LINE
  8
0
 10
48.1618
 20
53.6326
 11
48.075
 21
53.625
  0
LINE
  8
0
 10
48.075
 20
53.625
 11
35.075
 21
53.625
  0
LINE
  8
0
 10
73.175
 20
34.575
 11
73.0882
 21
34.5826
  0
LINE
  8
0
 10
73.0882
 20
34.5826
 11
73.004
 21
34.6051
  0
LINE
  8
0
 10
73.004
 20
34.6051
 11
72.925
 21
34.642
  0
LINE
  8
0
 10
72.925
 20
34.642
 11
72.8536
 21
34.692
  0
LINE
  8
0
 10
72.8536
 20
34.692
 11
72.792
 21
34.7536
  0
LINE
  8
0
 10
72.792
 20
34.7536
 11
72.742
 21
34.825
  0
LINE
  8
0
 10
72.742
 20
34.825
 11
72.7051
 21
34.904
  0
LINE
  8
0
 10
72.7051
 20
34.904
 11
72.6826
 21
34.9882
  0
LINE
  8
0
 10
72.6826
 20
34.9882
 11
72.675
 21
35.075
  0
LINE
  8
0
 10
72.675
 20
35.075
 11
72.675
 21
48.075
  0
LINE
  8
0
 10
72.675
 20
48.075
 11
72.6826
 21
48.1618
  0
LINE
  8
0
 10
72.6826
 20
48.1618
 11
72.7051
 21
48.246
  0
LINE
  8
0
 10
72.7051
 20
48.246
 11
72.742
 21
48.325
  0
LINE
  8
0
 10
72.742
 20
48.325
 11
72.792
 21
48.3964
  0
LINE
  8
0
 10
72.792
 20
48.3964
 11
72.8536
 21
48.458
  0
LINE
  8
0
 10
72.8536
 20
48.458
 11
72.925
 21
48.508
  0
LINE
  8
0
 10
72.925
 20
48.508
 11
73.004
 21
48.5448
  0
LINE
  8
0
 10
73.004
 20
48.5448
 11
73.0882
 21
48.5674
  0
LINE
  8
0
 10
73.0882
 20
48.5674
 11
73.175
 21
48.575
  0
LINE
  8
0
 10
73.175
 20
48.575
 11
86.175
 21
48.575
  0
LINE
  8
0
 10
86.175
 20
48.575
 11
86.2618
 21
48.5674
  0
LINE
  8
0
 10
86.2618
 20
48.5674
 11
86.346
 21
48.5448
  0
LINE
  8
0
 10
86.346
 20
48.5448
 11
86.425
 21
48.508
  0
LINE
  8
0
 10
86.425
 20
48.508
 11
86.4964
 21
48.458
  0
LINE
  8
0
 10
86.4964
 20
48.458
 11
86.558
 21
48.3964
  0
LINE
  8
0
 10
86.558
 20
48.3964
 11
86.608
 21
48.325
  0
LINE
  8
0
 10
86.608
 20
48.325
 11
86.6448
 21
48.246
  0
LINE
  8
0
 10
86.6448
 20
48.246
 11
86.6674
 21
48.1618
  0
LINE
  8
0
 10
86.6674
 20
48.1618
 11
86.675
 21
48.075
  0
LINE
  8
0
 10
86.675
 20
48.075
 11
86.675
 21
35.075
  0
LINE
  8
0
 10
86.675
 20
35.075
 11
86.6674
 21
34.9882
  0
LINE
  8
0
 10
86.6674
 20
34.9882
 11
86.6448
 21
34.904
  0
LINE
  8
0
 10
86.6448
 20
34.904
 11
86.608
 21
34.825
  0
LINE
  8
0
 10
86.608
 20
34.825
 11
86.558
 21
34.7536
  0
LINE
  8
0
 10
86.558
 20
34.7536
 11
86.4964
 21
34.692
  0
LINE
  8
0
 10
86.4964
 20
34.692
 11
86.425
 21
34.642
  0
LINE
  8
0
 10
86.425
 20
34.642
 11
86.346
 21
34.6051
  0
LINE
  8
0
 10
86.346
 20
34.6051
 11
86.2618
 21
34.5826
  0
LINE
  8
0
 10
86.2618
 20
34.5826
 11
86.175
 21
34.575
  0
LINE
  8
0
 10
86.175
 20
34.575
 11
73.175
 21
34.575
  0
LINE
  8
0
 10
35.075
 20
34.575
 11
34.9882
 21
34.5826
  0
LINE
  8
0
 10
34.9882
 20
34.5826
 11
34.904
 21
34.6051
  0
LINE
  8
0
 10
34.904
 20
34.6051
 11
34.825
 21
34.642
  0
LINE
  8
0
 10
34.825
 20
34.642
 11
34.7536
 21
34.692
  0
LINE
  8
0
 10
34.7536
 20
34.692
 11
34.692
 21
34.7536
  0
LINE
  8
0
 10
34.692
 20
34.7536
 11
34.642
 21
34.825
  0
LINE
  8
0
 10
34.642
 20
34.825
 11
34.6051
 21
34.904
  0
LINE
  8
0
 10
34.6051
 20
34.904
 11
34.5826
 21
34.9882
  0
LINE
  8
0
 10
34.5826
 20
34.9882
 11
34.575
 21
35.075
  0
LINE
  8
0
 10
34.575
 20
35.075
 11
34.575
 21
48.075
  0
LINE
  8
0
 10
34.575
 20
48.075
 11
34.5826
 21
48.1618
  0
LINE
  8
0
 10
34.5826
 20
48.1618
 11
34.6051
 21
48.246
  0
LINE
  8
0
 10
34.6051
 20
48.246
 11
34.642
 21
48.325
  0
LINE
  8
0
 10
34.642
 20
48.325
 11
34.692
 21
48.3964
  0
LINE
  8
0
 10
34.692
 20
48.3964
 11
34.7536
 21
48.458
  0
LINE
  8
0
 10
34.7536
 20
48.458
 11
34.825
 21
48.508
  0
LINE
  8
0
 10
34.825
 20
48.508
 11
34.904
 21
48.5448
  0
LINE
  8
0
 10
34.904
 20
48.5448
 11
34.9882
 21
48.5674
  0
LINE
  8
0
 10
34.9882
 20
48.5674
 11
35.075
 21
48.575
  0
LINE
  8
0
 10
35.075
 20
48.575
 11
48.075
 21
48.575
  0
LINE
  8
0
 10
48.075
 20
48.575
 11
48.1618
 21
48.5674
  0
LINE
  8
0
 10
48.1618
 20
48.5674
 11
48.246
 21
48.5448
  0
LINE
  8
0
 10
48.246
 20
48.5448
 11
48.325
 21
48.508
  0
LINE
  8
0
 10
48.325
 20
48.508
 11
48.3964
 21
48.458
  0
LINE
  8
0
 10
48.3964
 20
48.458
 11
48.458
 21
48.3964
  0
LINE
  8
0
 10
48.458
 20
48.3964
 11
48.508
 21
48.325
  0
LINE
  8
0
 10
48.508
 20
48.325
 11
48.5448
 21
48.246
  0
LINE
  8
0
 10
48.5448
 20
48.246
 11
48.5674
 21
48.1618
  0
LINE
  8
0
 10
48.5674
 20
48.1618
 11
48.575
 21
48.075
  0
LINE
  8
0
 10
48.575
 20
48.075
 11
48.575
 21
35.075
  0
LINE
  8
0
 10
48.575
 20
35.075
 11
48.5674
 21
34.9882
  0
LINE
  8
0
 10
48.5674
 20
34.9882
 11
48.5448
 21
34.904
  0
LINE
  8
0
 10
48.5448
 20
34.904
 11
48.508
 21
34.825
  0
LINE
  8
0
 10
48.508
 20
34.825
 11
48.458
 21
34.7536
  0
LINE
  8
0
 10
48.458
 20
34.7536
 11
48.3964
 21
34.692
  0
LINE
  8
0
 10
48.3964
 20
34.692
 11
48.325
 21
34.642
  0
LINE
  8
0
 10
48.325
 20
34.642
 11
48.246
 21
34.6051
  0
LINE
  8
0
 10
48.246
 20
34.6051
 11
48.1618
 21
34.5826
  0
LINE
  8
0
 10
48.1618
 20
34.5826
 11
48.075
 21
34.575
  0
LINE
  8
0
 10
48.075
 20
34.575
 11
35.075
 21
34.575
  0
LINE
  8
0
 10
16.025
 20
34.575
 11
15.9382
 21
34.5826
  0
LINE
  8
0
 10
15.9382
 20
34.5826
 11
15.854
 21
34.6051
  0
LINE
  8
0
 10
15.854
 20
34.6051
 11
15.775
 21
34.642
  0
LINE
  8
0
 10
15.775
 20
34.642
 11
15.7036
 21
34.692
  0
LINE
  8
0
 10
15.7036
 20
34.692
 11
15.642
 21
34.7536
  0
LINE
  8
0
 10
15.642
 20
34.7536
 11
15.592
 21
34.825
  0
LINE
  8
0
 10
15.592
 20
34.825
 11
15.5551
 21
34.904
  0
LINE
  8
0
 10
15.5551
 20
34.904
 11
15.5326
 21
34.9882
  0
LINE
  8
0
 10
15.5326
 20
34.9882
 11
15.525
 21
35.075
  0
LINE
  8
0
 10
15.525
 20
35.075
 11
15.525
 21
48.075
  0
LINE
  8
0
 10
15.525
 20
48.075
 11
15.5326
 21
48.1618
  0
LINE
  8
0
 10
15.5326
 20
48.1618
 11
15.5551
 21
48.246
  0
LINE
  8
0
 10
15.5551
 20
48.246
 11
15.592
 21
48.325
  0
LINE
  8
0
 10
15.592
 20
48.325
 11
15.642
 21
48.3964
  0
LINE
  8
0
 10
15.642
 20
48.3964
 11
15.7036
 21
48.458
  0
LINE
  8
0
 10
15.7036
 20
48.458
 11
15.775
 21
48.508
  0
LINE
  8
0
 10
15.775
 20
48.508
 11
15.854
 21
48.5448
  0
LINE
  8
0
 10
15.854
 20
48.5448
 11
15.9382
 21
48.5674
  0
LINE
  8
0
 10
15.9382
 20
48.5674
 11
16.025
 21
48.575
  0
LINE
  8
0
 10
16.025
 20
48.575
 11
29.025
 21
48.575
  0
LINE
  8
0
 10
29.025
 20
48.575
 11
29.1118
 21
48.5674
  0
LINE
  8
0
 10
29.1118
 20
48.5674
 11
29.196
 21
48.5448
  0
LINE
  8
0
 10
29.196
 20
48.5448
 11
29.275
 21
48.508
  0
LINE
  8
0
 10
29.275
 20
48.508
 11
29.3464
 21
48.458
  0
LINE
  8
0
 10
29.3464
 20
48.458
 11
29.408
 21
48.3964
  0
LINE
  8
0
 10
29.408
 20
48.3964
 11
29.458
 21
48.325
  0
LINE
  8
0
 10
29.458
 20
48.325
 11
29.4948
 21
48.246
  0
LINE
  8
0
 10
29.4948
 20
48.246
 11
29.5174
 21
48.1618
  0
LINE
  8
0
 10
29.5174
 20
48.1618
 11
29.525
 21
48.075
  0
LINE
  8
0
 10
29.525
 20
48.075
 11
29.525
 21
35.075
  0
LINE
  8
0
 10
29.525
 20
35.075
 11
29.5174
 21
34.9882
  0
LINE
  8
0
 10
29.5174
 20
34.9882
 11
29.4948
 21
34.904
  0
LINE
  8
0
 10
29.4948
 20
34.904
 11
29.458
 21
34.825
  0
LINE
  8
0
 10
29.458
 20
34.825
 11
29.408
 21
34.7536
  0
LINE
  8
0
 10
29.408
 20
34.7536
 11
29.3464
 21
34.692
  0
LINE
  8
0
 10
29.3464
 20
34.692
 11
29.275
 21
34.642
  0
LINE
  8
0
 10
29.275
 20
34.642
 11
29.196
 21
34.6051
  0
LINE
  8
0
 10
29.196
 20
34.6051
 11
29.1118
 21
34.5826
  0
LINE
  8
0
 10
29.1118
 20
34.5826
 11
29.025
 21
34.575
  0
LINE
  8
0
 10
29.025
 20
34.575
 11
16.025
 21
34.575
  0
LINE
  8
0
 10
54.125
 20
34.575
 11
54.0382
 21
34.5826
  0
LINE
  8
0
 10
54.0382
 20
34.5826
 11
53.954
 21
34.6051
  0
LINE
  8
0
 10
53.954
 20
34.6051
 11
53.875
 21
34.642
  0
LINE
  8
0
 10
53.875
 20
34.642
 11
53.8036
 21
34.692
  0
LINE
  8
0
 10
53.8036
 20
34.692
 11
53.742
 21
34.7536
  0
LINE
  8
0
 10
53.742
 20
34.7536
 11
53.692
 21
34.825
  0
LINE
  8
0
 10
53.692
 20
34.825
 11
53.6552
 21
34.904
  0
LINE
  8
0
 10
53.6552
 20
34.904
 11
53.6326
 21
34.9882
  0
LINE
  8
0
 10
53.6326
 20
34.9882
 11
53.625
 21
35.075
  0
LINE
  8
0
 10
53.625
 20
35.075
 11
53.625
 21
48.075
  0
LINE
  8
0
 10
53.625
 20
48.075
 11
53.6326
 21
48.1618
  0
LINE
  8
0
 10
53.6326
 20
48.1618
 11
53.6552
 21
48.246
  0
LINE
  8
0
 10
53.6552
 20
48.246
 11
53.692
 21
48.325
  0
LINE
  8
0
 10
53.692
 20
48.325
 11
53.742
 21
48.3964
  0
LINE
  8
0
 10
53.742
 20
48.3964
 11
53.8036
 21
48.458
  0
LINE
  8
0
 10
53.8036
 20
48.458
 11
53.875
 21
48.508
  0
LINE
  8
0
 10
53.875
 20
48.508
 11
53.954
 21
48.5448
  0
LINE
  8
0
 10
53.954
 20
48.5448
 11
54.0382
 21
48.5674
  0
LINE
  8
0
 10
54.0382
 20
48.5674
 11
54.125
 21
48.575
  0
LINE
  8
0
 10
54.125
 20
48.575
 11
67.125
 21
48.575
  0
LINE
  8
0
 10
67.125
 20
48.575
 11
67.2118
 21
48.5674
  0
LINE
  8
0
 10
67.2118
 20
48.5674
 11
67.296
 21
48.5448
  0
LINE
  8
0
 10
67.296
 20
48.5448
 11
67.375
 21
48.508
  0
LINE
  8
0
 10
67.375
 20
48.508
 11
67.4464
 21
48.458
  0
LINE
  8
0
 10
67.4464
 20
48.458
 11
67.508
 21
48.3964
  0
LINE
  8
0
 10
67.508
 20
48.3964
 11
67.558
 21
48.325
  0
LINE
  8
0
 10
67.558
 20
48.325
 11
67.5948
 21
48.246
  0
LINE
  8
0
 10
67.5948
 20
48.246
 11
67.6174
 21
48.1618
  0
LINE
  8
0
 10
67.6174
 20
48.1618
 11
67.625
 21
48.075
  0
LINE
  8
0
 10
67.625
 20
48.075
 11
67.625
 21
35.075
  0
LINE
  8
0
 10
67.625
 20
35.075
 11
67.6174
 21
34.9882
  0
LINE
  8
0
 10
67.6174
 20
34.9882
 11
67.5948
 21
34.904
  0
LINE
  8
0
 10
67.5948
 20
34.904
 11
67.558
 21
34.825
  0
LINE
  8
0
 10
67.558
 20
34.825
 11
67.508
 21
34.7536
  0
LINE
  8
0
 10
67.508
 20
34.7536
 11
67.4464
 21
34.692
  0
LINE
  8
0
 10
67.4464
 20
34.692
 11
67.375
 21
34.642
  0
LINE
  8
0
 10
67.375
 20
34.642
 11
67.296
 21
34.6051
  0
LINE
  8
0
 10
67.296
 20
34.6051
 11
67.2118
 21
34.5826
  0
LINE
  8
0
 10
67.2118
 20
34.5826
 11
67.125
 21
34.575
  0
LINE
  8
0
 10
67.125
 20
34.575
 11
54.125
 21
34.575
  0
LINE
  8
0
 10
4.94345
 20
38.9342
 11
4.88696
 21
38.9369
  0
LINE
  8
0
 10
4.88696
 20
38.9369
 11
4.8306
 21
38.9413
  0
LINE
  8
0
 10
4.8306
 20
38.9413
 11
4.7744
 21
38.9475
  0
LINE
  8
0
 10
4.7744
 20
38.9475
 11
4.71841
 21
38.9555
  0
LINE
  8
0
 10
4.71841
 20
38.9555
 11
4.6627
 21
38.9652
  0
LINE
  8
0
 10
4.6627
 20
38.9652
 11
4.60733
 21
38.9767
  0
LINE
  8
0
 10
4.60733
 20
38.9767
 11
4.55235
 21
38.9899
  0
LINE
  8
0
 10
4.55235
 20
38.9899
 11
4.4978
 21
39.0048
  0
LINE
  8
0
 10
4.4978
 20
39.0048
 11
4.44376
 21
39.0214
  0
LINE
  8
0
 10
4.44376
 20
39.0214
 11
4.39026
 21
39.0397
  0
LINE
  8
0
 10
4.39026
 20
39.0397
 11
4.33737
 21
39.0597
  0
LINE
  8
0
 10
4.33737
 20
39.0597
 11
4.28513
 21
39.0814
  0
LINE
  8
0
 10
4.28513
 20
39.0814
 11
4.2336
 21
39.1046
  0
LINE
  8
0
 10
4.2336
 20
39.1046
 11
4.18282
 21
39.1295
  0
LINE
  8
0
 10
4.18282
 20
39.1295
 11
4.13284
 21
39.156
  0
LINE
  8
0
 10
4.13284
 20
39.156
 11
4.08372
 21
39.184
  0
LINE
  8
0
 10
4.08372
 20
39.184
 11
4.03551
 21
39.2135
  0
LINE
  8
0
 10
4.03551
 20
39.2135
 11
3.98824
 21
39.2446
  0
LINE
  8
0
 10
3.98824
 20
39.2446
 11
3.94199
 21
39.2771
  0
LINE
  8
0
 10
3.94199
 20
39.2771
 11
3.89676
 21
39.3111
  0
LINE
  8
0
 10
3.89676
 20
39.3111
 11
3.85263
 21
39.3464
  0
LINE
  8
0
 10
3.85263
 20
39.3464
 11
3.80963
 21
39.3831
  0
LINE
  8
0
 10
3.80963
 20
39.3831
 11
3.76781
 21
39.4212
  0
LINE
  8
0
 10
3.76781
 20
39.4212
 11
3.7272
 21
39.4605
  0
LINE
  8
0
 10
3.7272
 20
39.4605
 11
3.68785
 21
39.5011
  0
LINE
  8
0
 10
3.68785
 20
39.5011
 11
3.6498
 21
39.543
  0
LINE
  8
0
 10
3.6498
 20
39.543
 11
3.61307
 21
39.586
  0
LINE
  8
0
 10
3.61307
 20
39.586
 11
3.57771
 21
39.6301
  0
LINE
  8
0
 10
3.57771
 20
39.6301
 11
3.54376
 21
39.6753
  0
LINE
  8
0
 10
3.54376
 20
39.6753
 11
3.51125
 21
39.7216
  0
LINE
  8
0
 10
3.51125
 20
39.7216
 11
3.48021
 21
39.7688
  0
LINE
  8
0
 10
3.48021
 20
39.7688
 11
3.45065
 21
39.817
  0
LINE
  8
0
 10
3.45065
 20
39.817
 11
3.42264
 21
39.8662
  0
LINE
  8
0
 10
3.42264
 20
39.8662
 11
3.39618
 21
39.9161
  0
LINE
  8
0
 10
3.39618
 20
39.9161
 11
3.37131
 21
39.9669
  0
LINE
  8
0
 10
3.37131
 20
39.9669
 11
3.34804
 21
40.0185
  0
LINE
  8
0
 10
3.34804
 20
40.0185
 11
3.3264
 21
40.0707
  0
LINE
  8
0
 10
3.3264
 20
40.0707
 11
3.30641
 21
40.1236
  0
LINE
  8
0
 10
3.30641
 20
40.1236
 11
3.28809
 21
40.1771
  0
LINE
  8
0
 10
3.28809
 20
40.1771
 11
3.27147
 21
40.2311
  0
LINE
  8
0
 10
3.27147
 20
40.2311
 11
3.25655
 21
40.2857
  0
LINE
  8
0
 10
3.25655
 20
40.2857
 11
3.24335
 21
40.3407
  0
LINE
  8
0
 10
3.24335
 20
40.3407
 11
3.23187
 21
40.396
  0
LINE
  8
0
 10
3.23187
 20
40.396
 11
3.22215
 21
40.4517
  0
LINE
  8
0
 10
3.22215
 20
40.4517
 11
3.21419
 21
40.5077
  0
LINE
  8
0
 10
3.21419
 20
40.5077
 11
3.20798
 21
40.5639
  0
LINE
  8
0
 10
3.20798
 20
40.5639
 11
3.20354
 21
40.6203
  0
LINE
  8
0
 10
3.20354
 20
40.6203
 11
3.20088
 21
40.6768
  0
LINE
  8
0
 10
3.20088
 20
40.6768
 11
3.2
 21
40.7333
  0
LINE
  8
0
 10
3.2
 20
40.7333
 11
3.20088
 21
40.7899
  0
LINE
  8
0
 10
3.20088
 20
40.7899
 11
3.20354
 21
40.8463
  0
LINE
  8
0
 10
3.20354
 20
40.8463
 11
3.20798
 21
40.9027
  0
LINE
  8
0
 10
3.20798
 20
40.9027
 11
3.21419
 21
40.9589
  0
LINE
  8
0
 10
3.21419
 20
40.9589
 11
3.22215
 21
41.0149
  0
LINE
  8
0
 10
3.22215
 20
41.0149
 11
3.23187
 21
41.0706
  0
LINE
  8
0
 10
3.23187
 20
41.0706
 11
3.24335
 21
41.126
  0
LINE
  8
0
 10
3.24335
 20
41.126
 11
3.25655
 21
41.181
  0
LINE
  8
0
 10
3.25655
 20
41.181
 11
3.27147
 21
41.2355
  0
LINE
  8
0
 10
3.27147
 20
41.2355
 11
3.28809
 21
41.2896
  0
LINE
  8
0
 10
3.28809
 20
41.2896
 11
3.30641
 21
41.343
  0
LINE
  8
0
 10
3.30641
 20
41.343
 11
3.3264
 21
41.396
  0
LINE
  8
0
 10
3.3264
 20
41.396
 11
3.34804
 21
41.4482
  0
LINE
  8
0
 10
3.34804
 20
41.4482
 11
3.37131
 21
41.4997
  0
LINE
  8
0
 10
3.37131
 20
41.4997
 11
3.39618
 21
41.5505
  0
LINE
  8
0
 10
3.39618
 20
41.5505
 11
3.42264
 21
41.6005
  0
LINE
  8
0
 10
3.42264
 20
41.6005
 11
3.45065
 21
41.6496
  0
LINE
  8
0
 10
3.45065
 20
41.6496
 11
3.48021
 21
41.6978
  0
LINE
  8
0
 10
3.48021
 20
41.6978
 11
3.51125
 21
41.7451
  0
LINE
  8
0
 10
3.51125
 20
41.7451
 11
3.54376
 21
41.7913
  0
LINE
  8
0
 10
3.54376
 20
41.7913
 11
3.57771
 21
41.8366
  0
LINE
  8
0
 10
3.57771
 20
41.8366
 11
3.61307
 21
41.8807
  0
LINE
  8
0
 10
3.61307
 20
41.8807
 11
3.6498
 21
41.9237
  0
LINE
  8
0
 10
3.6498
 20
41.9237
 11
3.68785
 21
41.9655
  0
LINE
  8
0
 10
3.68785
 20
41.9655
 11
3.7272
 21
42.0061
  0
LINE
  8
0
 10
3.7272
 20
42.0061
 11
3.76781
 21
42.0455
  0
LINE
  8
0
 10
3.76781
 20
42.0455
 11
3.80963
 21
42.0835
  0
LINE
  8
0
 10
3.80963
 20
42.0835
 11
3.85263
 21
42.1203
  0
LINE
  8
0
 10
3.85263
 20
42.1203
 11
3.89676
 21
42.1556
  0
LINE
  8
0
 10
3.89676
 20
42.1556
 11
3.94199
 21
42.1896
  0
LINE
  8
0
 10
3.94199
 20
42.1896
 11
3.98824
 21
42.2221
  0
LINE
  8
0
 10
3.98824
 20
42.2221
 11
4.03551
 21
42.2531
  0
LINE
  8
0
 10
4.03551
 20
42.2531
 11
4.08372
 21
42.2827
  0
LINE
  8
0
 10
4.08372
 20
42.2827
 11
4.13284
 21
42.3107
  0
LINE
  8
0
 10
4.13284
 20
42.3107
 11
4.18282
 21
42.3371
  0
LINE
  8
0
 10
4.18282
 20
42.3371
 11
4.2336
 21
42.362
  0
LINE
  8
0
 10
4.2336
 20
42.362
 11
4.28513
 21
42.3853
  0
LINE
  8
0
 10
4.28513
 20
42.3853
 11
4.33737
 21
42.4069
  0
LINE
  8
0
 10
4.33737
 20
42.4069
 11
4.39026
 21
42.4269
  0
LINE
  8
0
 10
4.39026
 20
42.4269
 11
4.44376
 21
42.4452
  0
LINE
  8
0
 10
4.44376
 20
42.4452
 11
4.4978
 21
42.4619
  0
LINE
  8
0
 10
4.4978
 20
42.4619
 11
4.55235
 21
42.4768
  0
LINE
  8
0
 10
4.55235
 20
42.4768
 11
4.60733
 21
42.49
  0
LINE
  8
0
 10
4.60733
 20
42.49
 11
4.6627
 21
42.5014
  0
LINE
  8
0
 10
4.6627
 20
42.5014
 11
4.71841
 21
42.5112
  0
LINE
  8
0
 10
4.71841
 20
42.5112
 11
4.7744
 21
42.5191
  0
LINE
  8
0
 10
4.7744
 20
42.5191
 11
4.8306
 21
42.5253
  0
LINE
  8
0
 10
4.8306
 20
42.5253
 11
4.88696
 21
42.5298
  0
LINE
  8
0
 10
4.88696
 20
42.5298
 11
4.94345
 21
42.5324
  0
LINE
  8
0
 10
4.94345
 20
42.5324
 11
5
 21
42.5333
  0
LINE
  8
0
 10
5
 20
42.5333
 11
5.05653
 21
42.5324
  0
LINE
  8
0
 10
5.05653
 20
42.5324
 11
5.11302
 21
42.5298
  0
LINE
  8
0
 10
5.11302
 20
42.5298
 11
5.16939
 21
42.5253
  0
LINE
  8
0
 10
5.16939
 20
42.5253
 11
5.22559
 21
42.5191
  0
LINE
  8
0
 10
5.22559
 20
42.5191
 11
5.28157
 21
42.5112
  0
LINE
  8
0
 10
5.28157
 20
42.5112
 11
5.33728
 21
42.5014
  0
LINE
  8
0
 10
5.33728
 20
42.5014
 11
5.39265
 21
42.49
  0
LINE
  8
0
 10
5.39265
 20
42.49
 11
5.44763
 21
42.4768
  0
LINE
  8
0
 10
5.44763
 20
42.4768
 11
5.50218
 21
42.4619
  0
LINE
  8
0
 10
5.50218
 20
42.4619
 11
5.55623
 21
42.4452
  0
LINE
  8
0
 10
5.55623
 20
42.4452
 11
5.60973
 21
42.4269
  0
LINE
  8
0
 10
5.60973
 20
42.4269
 11
5.66261
 21
42.4069
  0
LINE
  8
0
 10
5.66261
 20
42.4069
 11
5.71486
 21
42.3853
  0
LINE
  8
0
 10
5.71486
 20
42.3853
 11
5.76639
 21
42.362
  0
LINE
  8
0
 10
5.76639
 20
42.362
 11
5.81717
 21
42.3371
  0
LINE
  8
0
 10
5.81717
 20
42.3371
 11
5.86714
 21
42.3107
  0
LINE
  8
0
 10
5.86714
 20
42.3107
 11
5.91626
 21
42.2827
  0
LINE
  8
0
 10
5.91626
 20
42.2827
 11
5.96448
 21
42.2531
  0
LINE
  8
0
 10
5.96448
 20
42.2531
 11
6.01175
 21
42.2221
  0
LINE
  8
0
 10
6.01175
 20
42.2221
 11
6.058
 21
42.1896
  0
LINE
  8
0
 10
6.058
 20
42.1896
 11
6.10323
 21
42.1556
  0
LINE
  8
0
 10
6.10323
 20
42.1556
 11
6.14735
 21
42.1203
  0
LINE
  8
0
 10
6.14735
 20
42.1203
 11
6.19035
 21
42.0835
  0
LINE
  8
0
 10
6.19035
 20
42.0835
 11
6.23218
 21
42.0455
  0
LINE
  8
0
 10
6.23218
 20
42.0455
 11
6.27278
 21
42.0061
  0
LINE
  8
0
 10
6.27278
 20
42.0061
 11
6.31213
 21
41.9655
  0
LINE
  8
0
 10
6.31213
 20
41.9655
 11
6.35019
 21
41.9237
  0
LINE
  8
0
 10
6.35019
 20
41.9237
 11
6.38692
 21
41.8807
  0
LINE
  8
0
 10
6.38692
 20
41.8807
 11
6.42227
 21
41.8366
  0
LINE
  8
0
 10
6.42227
 20
41.8366
 11
6.45622
 21
41.7913
  0
LINE
  8
0
 10
6.45622
 20
41.7913
 11
6.48874
 21
41.7451
  0
LINE
  8
0
 10
6.48874
 20
41.7451
 11
6.51978
 21
41.6978
  0
LINE
  8
0
 10
6.51978
 20
41.6978
 11
6.54933
 21
41.6496
  0
LINE
  8
0
 10
6.54933
 20
41.6496
 11
6.57735
 21
41.6005
  0
LINE
  8
0
 10
6.57735
 20
41.6005
 11
6.60381
 21
41.5505
  0
LINE
  8
0
 10
6.60381
 20
41.5505
 11
6.62868
 21
41.4997
  0
LINE
  8
0
 10
6.62868
 20
41.4997
 11
6.65195
 21
41.4482
  0
LINE
  8
0
 10
6.65195
 20
41.4482
 11
6.67358
 21
41.396
  0
LINE
  8
0
 10
6.67358
 20
41.396
 11
6.69357
 21
41.343
  0
LINE
  8
0
 10
6.69357
 20
41.343
 11
6.7119
 21
41.2896
  0
LINE
  8
0
 10
6.7119
 20
41.2896
 11
6.72852
 21
41.2355
  0
LINE
  8
0
 10
6.72852
 20
41.2355
 11
6.74344
 21
41.181
  0
LINE
  8
0
 10
6.74344
 20
41.181
 11
6.75664
 21
41.126
  0
LINE
  8
0
 10
6.75664
 20
41.126
 11
6.76811
 21
41.0706
  0
LINE
  8
0
 10
6.76811
 20
41.0706
 11
6.77783
 21
41.0149
  0
LINE
  8
0
 10
6.77783
 20
41.0149
 11
6.7858
 21
40.9589
  0
LINE
  8
0
 10
6.7858
 20
40.9589
 11
6.79201
 21
40.9027
  0
LINE
  8
0
 10
6.79201
 20
40.9027
 11
6.79645
 21
40.8463
  0
LINE
  8
0
 10
6.79645
 20
40.8463
 11
6.7991
 21
40.7899
  0
LINE
  8
0
 10
6.7991
 20
40.7899
 11
6.79999
 21
40.7333
  0
LINE
  8
0
 10
6.79999
 20
40.7333
 11
6.7991
 21
40.6768
  0
LINE
  8
0
 10
6.7991
 20
40.6768
 11
6.79645
 21
40.6203
  0
LINE
  8
0
 10
6.79645
 20
40.6203
 11
6.79201
 21
40.5639
  0
LINE
  8
0
 10
6.79201
 20
40.5639
 11
6.7858
 21
40.5077
  0
LINE
  8
0
 10
6.7858
 20
40.5077
 11
6.77783
 21
40.4517
  0
LINE
  8
0
 10
6.77783
 20
40.4517
 11
6.76811
 21
40.396
  0
LINE
  8
0
 10
6.76811
 20
40.396
 11
6.75664
 21
40.3407
  0
LINE
  8
0
 10
6.75664
 20
40.3407
 11
6.74344
 21
40.2857
  0
LINE
  8
0
 10
6.74344
 20
40.2857
 11
6.72852
 21
40.2311
  0
LINE
  8
0
 10
6.72852
 20
40.2311
 11
6.7119
 21
40.1771
  0
LINE
  8
0
 10
6.7119
 20
40.1771
 11
6.69357
 21
40.1236
  0
LINE
  8
0
 10
6.69357
 20
40.1236
 11
6.67358
 21
40.0707
  0
LINE
  8
0
 10
6.67358
 20
40.0707
 11
6.65195
 21
40.0185
  0
LINE
  8
0
 10
6.65195
 20
40.0185
 11
6.62868
 21
39.9669
  0
LINE
  8
0
 10
6.62868
 20
39.9669
 11
6.60381
 21
39.9161
  0
LINE
  8
0
 10
6.60381
 20
39.9161
 11
6.57735
 21
39.8662
  0
LINE
  8
0
 10
6.57735
 20
39.8662
 11
6.54933
 21
39.817
  0
LINE
  8
0
 10
6.54933
 20
39.817
 11
6.51978
 21
39.7688
  0
LINE
  8
0
 10
6.51978
 20
39.7688
 11
6.48874
 21
39.7216
  0
LINE
  8
0
 10
6.48874
 20
39.7216
 11
6.45622
 21
39.6753
  0
LINE
  8
0
 10
6.45622
 20
39.6753
 11
6.42227
 21
39.6301
  0
LINE
  8
0
 10
6.42227
 20
39.6301
 11
6.38692
 21
39.586
  0
LINE
  8
0
 10
6.38692
 20
39.586
 11
6.35019
 21
39.543
  0
LINE
  8
0
 10
6.35019
 20
39.543
 11
6.31213
 21
39.5011
  0
LINE
  8
0
 10
6.31213
 20
39.5011
 11
6.27278
 21
39.4605
  0
LINE
  8
0
 10
6.27278
 20
39.4605
 11
6.23218
 21
39.4212
  0
LINE
  8
0
 10
6.23218
 20
39.4212
 11
6.19035
 21
39.3831
  0
LINE
  8
0
 10
6.19035
 20
39.3831
 11
6.14735
 21
39.3464
  0
LINE
  8
0
 10
6.14735
 20
39.3464
 11
6.10323
 21
39.3111
  0
LINE
  8
0
 10
6.10323
 20
39.3111
 11
6.058
 21
39.2771
  0
LINE
  8
0
 10
6.058
 20
39.2771
 11
6.01175
 21
39.2446
  0
LINE
  8
0
 10
6.01175
 20
39.2446
 11
5.96448
 21
39.2135
  0
LINE
  8
0
 10
5.96448
 20
39.2135
 11
5.91626
 21
39.184
  0
LINE
  8
0
 10
5.91626
 20
39.184
 11
5.86714
 21
39.156
  0
LINE
  8
0
 10
5.86714
 20
39.156
 11
5.81717
 21
39.1295
  0
LINE
  8
0
 10
5.81717
 20
39.1295
 11
5.76639
 21
39.1046
  0
LINE
  8
0
 10
5.76639
 20
39.1046
 11
5.71486
 21
39.0814
  0
LINE
  8
0
 10
5.71486
 20
39.0814
 11
5.66261
 21
39.0597
  0
LINE
  8
0
 10
5.66261
 20
39.0597
 11
5.60973
 21
39.0397
  0
LINE
  8
0
 10
5.60973
 20
39.0397
 11
5.55623
 21
39.0214
  0
LINE
  8
0
 10
5.55623
 20
39.0214
 11
5.50218
 21
39.0048
  0
LINE
  8
0
 10
5.50218
 20
39.0048
 11
5.44763
 21
38.9899
  0
LINE
  8
0
 10
5.44763
 20
38.9899
 11
5.39265
 21
38.9767
  0
LINE
  8
0
 10
5.39265
 20
38.9767
 11
5.33728
 21
38.9652
  0
LINE
  8
0
 10
5.33728
 20
38.9652
 11
5.28157
 21
38.9555
  0
LINE
  8
0
 10
5.28157
 20
38.9555
 11
5.22559
 21
38.9475
  0
LINE
  8
0
 10
5.22559
 20
38.9475
 11
5.16939
 21
38.9413
  0
LINE
  8
0
 10
5.16939
 20
38.9413
 11
5.11302
 21
38.9369
  0
LINE
  8
0
 10
5.11302
 20
38.9369
 11
5.05653
 21
38.9342
  0
LINE
  8
0
 10
5.05653
 20
38.9342
 11
5
 21
38.9333
  0
LINE
  8
0
 10
5
 20
38.9333
 11
4.94345
 21
38.9342
  0
LINE
  8
0
 10
97.1434
 20
38.9342
 11
97.087
 21
38.9369
  0
LINE
  8
0
 10
97.087
 20
38.9369
 11
97.0306
 21
38.9413
  0
LINE
  8
0
 10
97.0306
 20
38.9413
 11
96.9744
 21
38.9475
  0
LINE
  8
0
 10
96.9744
 20
38.9475
 11
96.9184
 21
38.9555
  0
LINE
  8
0
 10
96.9184
 20
38.9555
 11
96.8627
 21
38.9652
  0
LINE
  8
0
 10
96.8627
 20
38.9652
 11
96.8073
 21
38.9767
  0
LINE
  8
0
 10
96.8073
 20
38.9767
 11
96.7523
 21
38.9899
  0
LINE
  8
0
 10
96.7523
 20
38.9899
 11
96.6978
 21
39.0048
  0
LINE
  8
0
 10
96.6978
 20
39.0048
 11
96.6438
 21
39.0214
  0
LINE
  8
0
 10
96.6438
 20
39.0214
 11
96.5903
 21
39.0397
  0
LINE
  8
0
 10
96.5903
 20
39.0397
 11
96.5374
 21
39.0597
  0
LINE
  8
0
 10
96.5374
 20
39.0597
 11
96.4851
 21
39.0814
  0
LINE
  8
0
 10
96.4851
 20
39.0814
 11
96.4336
 21
39.1046
  0
LINE
  8
0
 10
96.4336
 20
39.1046
 11
96.3828
 21
39.1295
  0
LINE
  8
0
 10
96.3828
 20
39.1295
 11
96.3328
 21
39.156
  0
LINE
  8
0
 10
96.3328
 20
39.156
 11
96.2837
 21
39.184
  0
LINE
  8
0
 10
96.2837
 20
39.184
 11
96.2355
 21
39.2135
  0
LINE
  8
0
 10
96.2355
 20
39.2135
 11
96.1882
 21
39.2446
  0
LINE
  8
0
 10
96.1882
 20
39.2446
 11
96.142
 21
39.2771
  0
LINE
  8
0
 10
96.142
 20
39.2771
 11
96.0968
 21
39.3111
  0
LINE
  8
0
 10
96.0968
 20
39.3111
 11
96.0526
 21
39.3464
  0
LINE
  8
0
 10
96.0526
 20
39.3464
 11
96.0096
 21
39.3831
  0
LINE
  8
0
 10
96.0096
 20
39.3831
 11
95.9678
 21
39.4212
  0
LINE
  8
0
 10
95.9678
 20
39.4212
 11
95.9272
 21
39.4605
  0
LINE
  8
0
 10
95.9272
 20
39.4605
 11
95.8878
 21
39.5011
  0
LINE
  8
0
 10
95.8878
 20
39.5011
 11
95.8498
 21
39.543
  0
LINE
  8
0
 10
95.8498
 20
39.543
 11
95.8131
 21
39.586
  0
LINE
  8
0
 10
95.8131
 20
39.586
 11
95.7777
 21
39.6301
  0
LINE
  8
0
 10
95.7777
 20
39.6301
 11
95.7438
 21
39.6753
  0
LINE
  8
0
 10
95.7438
 20
39.6753
 11
95.7112
 21
39.7216
  0
LINE
  8
0
 10
95.7112
 20
39.7216
 11
95.6802
 21
39.7688
  0
LINE
  8
0
 10
95.6802
 20
39.7688
 11
95.6507
 21
39.817
  0
LINE
  8
0
 10
95.6507
 20
39.817
 11
95.6226
 21
39.8662
  0
LINE
  8
0
 10
95.6226
 20
39.8662
 11
95.5962
 21
39.9161
  0
LINE
  8
0
 10
95.5962
 20
39.9161
 11
95.5713
 21
39.9669
  0
LINE
  8
0
 10
95.5713
 20
39.9669
 11
95.548
 21
40.0185
  0
LINE
  8
0
 10
95.548
 20
40.0185
 11
95.5264
 21
40.0707
  0
LINE
  8
0
 10
95.5264
 20
40.0707
 11
95.5064
 21
40.1236
  0
LINE
  8
0
 10
95.5064
 20
40.1236
 11
95.4881
 21
40.1771
  0
LINE
  8
0
 10
95.4881
 20
40.1771
 11
95.4715
 21
40.2311
  0
LINE
  8
0
 10
95.4715
 20
40.2311
 11
95.4565
 21
40.2857
  0
LINE
  8
0
 10
95.4565
 20
40.2857
 11
95.4433
 21
40.3407
  0
LINE
  8
0
 10
95.4433
 20
40.3407
 11
95.4319
 21
40.396
  0
LINE
  8
0
 10
95.4319
 20
40.396
 11
95.4221
 21
40.4517
  0
LINE
  8
0
 10
95.4221
 20
40.4517
 11
95.4142
 21
40.5077
  0
LINE
  8
0
 10
95.4142
 20
40.5077
 11
95.408
 21
40.5639
  0
LINE
  8
0
 10
95.408
 20
40.5639
 11
95.4035
 21
40.6203
  0
LINE
  8
0
 10
95.4035
 20
40.6203
 11
95.4009
 21
40.6768
  0
LINE
  8
0
 10
95.4009
 20
40.6768
 11
95.4
 21
40.7333
  0
LINE
  8
0
 10
95.4
 20
40.7333
 11
95.4009
 21
40.7899
  0
LINE
  8
0
 10
95.4009
 20
40.7899
 11
95.4035
 21
40.8463
  0
LINE
  8
0
 10
95.4035
 20
40.8463
 11
95.408
 21
40.9027
  0
LINE
  8
0
 10
95.408
 20
40.9027
 11
95.4142
 21
40.9589
  0
LINE
  8
0
 10
95.4142
 20
40.9589
 11
95.4221
 21
41.0149
  0
LINE
  8
0
 10
95.4221
 20
41.0149
 11
95.4319
 21
41.0706
  0
LINE
  8
0
 10
95.4319
 20
41.0706
 11
95.4433
 21
41.126
  0
LINE
  8
0
 10
95.4433
 20
41.126
 11
95.4565
 21
41.181
  0
LINE
  8
0
 10
95.4565
 20
41.181
 11
95.4715
 21
41.2355
  0
LINE
  8
0
 10
95.4715
 20
41.2355
 11
95.4881
 21
41.2896
  0
LINE
  8
0
 10
95.4881
 20
41.2896
 11
95.5064
 21
41.343
  0
LINE
  8
0
 10
95.5064
 20
41.343
 11
95.5264
 21
41.396
  0
LINE
  8
0
 10
95.5264
 20
41.396
 11
95.548
 21
41.4482
  0
LINE
  8
0
 10
95.548
 20
41.4482
 11
95.5713
 21
41.4997
  0
LINE
  8
0
 10
95.5713
 20
41.4997
 11
95.5962
 21
41.5505
  0
LINE
  8
0
 10
95.5962
 20
41.5505
 11
95.6226
 21
41.6005
  0
LINE
  8
0
 10
95.6226
 20
41.6005
 11
95.6507
 21
41.6496
  0
LINE
  8
0
 10
95.6507
 20
41.6496
 11
95.6802
 21
41.6978
  0
LINE
  8
0
 10
95.6802
 20
41.6978
 11
95.7112
 21
41.7451
  0
LINE
  8
0
 10
95.7112
 20
41.7451
 11
95.7438
 21
41.7913
  0
LINE
  8
0
 10
95.7438
 20
41.7913
 11
95.7777
 21
41.8366
  0
LINE
  8
0
 10
95.7777
 20
41.8366
 11
95.8131
 21
41.8807
  0
LINE
  8
0
 10
95.8131
 20
41.8807
 11
95.8498
 21
41.9237
  0
LINE
  8
0
 10
95.8498
 20
41.9237
 11
95.8878
 21
41.9655
  0
LINE
  8
0
 10
95.8878
 20
41.9655
 11
95.9272
 21
42.0061
  0
LINE
  8
0
 10
95.9272
 20
42.0061
 11
95.9678
 21
42.0455
  0
LINE
  8
0
 10
95.9678
 20
42.0455
 11
96.0096
 21
42.0835
  0
LINE
  8
0
 10
96.0096
 20
42.0835
 11
96.0526
 21
42.1203
  0
LINE
  8
0
 10
96.0526
 20
42.1203
 11
96.0968
 21
42.1556
  0
LINE
  8
0
 10
96.0968
 20
42.1556
 11
96.142
 21
42.1896
  0
LINE
  8
0
 10
96.142
 20
42.1896
 11
96.1882
 21
42.2221
  0
LINE
  8
0
 10
96.1882
 20
42.2221
 11
96.2355
 21
42.2531
  0
LINE
  8
0
 10
96.2355
 20
42.2531
 11
96.2837
 21
42.2827
  0
LINE
  8
0
 10
96.2837
 20
42.2827
 11
96.3328
 21
42.3107
  0
LINE
  8
0
 10
96.3328
 20
42.3107
 11
96.3828
 21
42.3371
  0
LINE
  8
0
 10
96.3828
 20
42.3371
 11
96.4336
 21
42.362
  0
LINE
  8
0
 10
96.4336
 20
42.362
 11
96.4851
 21
42.3853
  0
LINE
  8
0
 10
96.4851
 20
42.3853
 11
96.5374
 21
42.4069
  0
LINE
  8
0
 10
96.5374
 20
42.4069
 11
96.5903
 21
42.4269
  0
LINE
  8
0
 10
96.5903
 20
42.4269
 11
96.6438
 21
42.4452
  0
LINE
  8
0
 10
96.6438
 20
42.4452
 11
96.6978
 21
42.4619
  0
LINE
  8
0
 10
96.6978
 20
42.4619
 11
96.7523
 21
42.4768
  0
LINE
  8
0
 10
96.7523
 20
42.4768
 11
96.8073
 21
42.49
  0
LINE
  8
0
 10
96.8073
 20
42.49
 11
96.8627
 21
42.5014
  0
LINE
  8
0
 10
96.8627
 20
42.5014
 11
96.9184
 21
42.5112
  0
LINE
  8
0
 10
96.9184
 20
42.5112
 11
96.9744
 21
42.5191
  0
LINE
  8
0
 10
96.9744
 20
42.5191
 11
97.0306
 21
42.5253
  0
LINE
  8
0
 10
97.0306
 20
42.5253
 11
97.087
 21
42.5298
  0
LINE
  8
0
 10
97.087
 20
42.5298
 11
97.1434
 21
42.5324
  0
LINE
  8
0
 10
97.1434
 20
42.5324
 11
97.2
 21
42.5333
  0
LINE
  8
0
 10
97.2
 20
42.5333
 11
97.2565
 21
42.5324
  0
LINE
  8
0
 10
97.2565
 20
42.5324
 11
97.313
 21
42.5298
  0
LINE
  8
0
 10
97.313
 20
42.5298
 11
97.3694
 21
42.5253
  0
LINE
  8
0
 10
97.3694
 20
42.5253
 11
97.4256
 21
42.5191
  0
LINE
  8
0
 10
97.4256
 20
42.5191
 11
97.4816
 21
42.5112
  0
LINE
  8
0
 10
97.4816
 20
42.5112
 11
97.5373
 21
42.5014
  0
LINE
  8
0
 10
97.5373
 20
42.5014
 11
97.5927
 21
42.49
  0
LINE
  8
0
 10
97.5927
 20
42.49
 11
97.6476
 21
42.4768
  0
LINE
  8
0
 10
97.6476
 20
42.4768
 11
97.7022
 21
42.4619
  0
LINE
  8
0
 10
97.7022
 20
42.4619
 11
97.7562
 21
42.4452
  0
LINE
  8
0
 10
97.7562
 20
42.4452
 11
97.8097
 21
42.4269
  0
LINE
  8
0
 10
97.8097
 20
42.4269
 11
97.8626
 21
42.4069
  0
LINE
  8
0
 10
97.8626
 20
42.4069
 11
97.9149
 21
42.3853
  0
LINE
  8
0
 10
97.9149
 20
42.3853
 11
97.9664
 21
42.362
  0
LINE
  8
0
 10
97.9664
 20
42.362
 11
98.0172
 21
42.3371
  0
LINE
  8
0
 10
98.0172
 20
42.3371
 11
98.0672
 21
42.3107
  0
LINE
  8
0
 10
98.0672
 20
42.3107
 11
98.1163
 21
42.2827
  0
LINE
  8
0
 10
98.1163
 20
42.2827
 11
98.1645
 21
42.2531
  0
LINE
  8
0
 10
98.1645
 20
42.2531
 11
98.2117
 21
42.2221
  0
LINE
  8
0
 10
98.2117
 20
42.2221
 11
98.258
 21
42.1896
  0
LINE
  8
0
 10
98.258
 20
42.1896
 11
98.3032
 21
42.1556
  0
LINE
  8
0
 10
98.3032
 20
42.1556
 11
98.3474
 21
42.1203
  0
LINE
  8
0
 10
98.3474
 20
42.1203
 11
98.3904
 21
42.0835
  0
LINE
  8
0
 10
98.3904
 20
42.0835
 11
98.4322
 21
42.0455
  0
LINE
  8
0
 10
98.4322
 20
42.0455
 11
98.4728
 21
42.0061
  0
LINE
  8
0
 10
98.4728
 20
42.0061
 11
98.5121
 21
41.9655
  0
LINE
  8
0
 10
98.5121
 20
41.9655
 11
98.5502
 21
41.9237
  0
LINE
  8
0
 10
98.5502
 20
41.9237
 11
98.5869
 21
41.8807
  0
LINE
  8
0
 10
98.5869
 20
41.8807
 11
98.6223
 21
41.8366
  0
LINE
  8
0
 10
98.6223
 20
41.8366
 11
98.6562
 21
41.7913
  0
LINE
  8
0
 10
98.6562
 20
41.7913
 11
98.6887
 21
41.7451
  0
LINE
  8
0
 10
98.6887
 20
41.7451
 11
98.7198
 21
41.6978
  0
LINE
  8
0
 10
98.7198
 20
41.6978
 11
98.7493
 21
41.6496
  0
LINE
  8
0
 10
98.7493
 20
41.6496
 11
98.7773
 21
41.6005
  0
LINE
  8
0
 10
98.7773
 20
41.6005
 11
98.8038
 21
41.5505
  0
LINE
  8
0
 10
98.8038
 20
41.5505
 11
98.8287
 21
41.4997
  0
LINE
  8
0
 10
98.8287
 20
41.4997
 11
98.8519
 21
41.4482
  0
LINE
  8
0
 10
98.8519
 20
41.4482
 11
98.8736
 21
41.396
  0
LINE
  8
0
 10
98.8736
 20
41.396
 11
98.8936
 21
41.343
  0
LINE
  8
0
 10
98.8936
 20
41.343
 11
98.9119
 21
41.2896
  0
LINE
  8
0
 10
98.9119
 20
41.2896
 11
98.9285
 21
41.2355
  0
LINE
  8
0
 10
98.9285
 20
41.2355
 11
98.9434
 21
41.181
  0
LINE
  8
0
 10
98.9434
 20
41.181
 11
98.9566
 21
41.126
  0
LINE
  8
0
 10
98.9566
 20
41.126
 11
98.9681
 21
41.0706
  0
LINE
  8
0
 10
98.9681
 20
41.0706
 11
98.9778
 21
41.0149
  0
LINE
  8
0
 10
98.9778
 20
41.0149
 11
98.9858
 21
40.9589
  0
LINE
  8
0
 10
98.9858
 20
40.9589
 11
98.992
 21
40.9027
  0
LINE
  8
0
 10
98.992
 20
40.9027
 11
98.9964
 21
40.8463
  0
LINE
  8
0
 10
98.9964
 20
40.8463
 11
98.9991
 21
40.7899
  0
LINE
  8
0
 10
98.9991
 20
40.7899
 11
99
 21
40.7333
  0
LINE
  8
0
 10
99
 20
40.7333
 11
98.9991
 21
40.6768
  0
LINE
  8
0
 10
98.9991
 20
40.6768
 11
98.9964
 21
40.6203
  0
LINE
  8
0
 10
98.9964
 20
40.6203
 11
98.992
 21
40.5639
  0
LINE
  8
0
 10
98.992
 20
40.5639
 11
98.9858
 21
40.5077
  0
LINE
  8
0
 10
98.9858
 20
40.5077
 11
98.9778
 21
40.4517
  0
LINE
  8
0
 10
98.9778
 20
40.4517
 11
98.9681
 21
40.396
  0
LINE
  8
0
 10
98.9681
 20
40.396
 11
98.9566
 21
40.3407
  0
LINE
  8
0
 10
98.9566
 20
40.3407
 11
98.9434
 21
40.2857
  0
LINE
  8
0
 10
98.9434
 20
40.2857
 11
98.9285
 21
40.2311
  0
LINE
  8
0
 10
98.9285
 20
40.2311
 11
98.9119
 21
40.1771
  0
LINE
  8
0
 10
98.9119
 20
40.1771
 11
98.8936
 21
40.1236
  0
LINE
  8
0
 10
98.8936
 20
40.1236
 11
98.8736
 21
40.0707
  0
LINE
  8
0
 10
98.8736
 20
40.0707
 11
98.8519
 21
40.0185
  0
LINE
  8
0
 10
98.8519
 20
40.0185
 11
98.8287
 21
39.9669
  0
LINE
  8
0
 10
98.8287
 20
39.9669
 11
98.8038
 21
39.9161
  0
LINE
  8
0
 10
98.8038
 20
39.9161
 11
98.7773
 21
39.8662
  0
LINE
  8
0
 10
98.7773
 20
39.8662
 11
98.7493
 21
39.817
  0
LINE
  8
0
 10
98.7493
 20
39.817
 11
98.7198
 21
39.7688
  0
LINE
  8
0
 10
98.7198
 20
39.7688
 11
98.6887
 21
39.7216
  0
LINE
  8
0
 10
98.6887
 20
39.7216
 11
98.6562
 21
39.6753
  0
LINE
  8
0
 10
98.6562
 20
39.6753
 11
98.6223
 21
39.6301
  0
LINE
  8
0
 10
98.6223
 20
39.6301
 11
98.5869
 21
39.586
  0
LINE
  8
0
 10
98.5869
 20
39.586
 11
98.5502
 21
39.543
  0
LINE
  8
0
 10
98.5502
 20
39.543
 11
98.5121
 21
39.5011
  0
LINE
  8
0
 10
98.5121
 20
39.5011
 11
98.4728
 21
39.4605
  0
LINE
  8
0
 10
98.4728
 20
39.4605
 11
98.4322
 21
39.4212
  0
LINE
  8
0
 10
98.4322
 20
39.4212
 11
98.3904
 21
39.3831
  0
LINE
  8
0
 10
98.3904
 20
39.3831
 11
98.3474
 21
39.3464
  0
LINE
  8
0
 10
98.3474
 20
39.3464
 11
98.3032
 21
39.3111
  0
LINE
  8
0
 10
98.3032
 20
39.3111
 11
98.258
 21
39.2771
  0
LINE
  8
0
 10
98.258
 20
39.2771
 11
98.2117
 21
39.2446
  0
LINE
  8
0
 10
98.2117
 20
39.2446
 11
98.1645
 21
39.2135
  0
LINE
  8
0
 10
98.1645
 20
39.2135
 11
98.1163
 21
39.184
  0
LINE
  8
0
 10
98.1163
 20
39.184
 11
98.0672
 21
39.156
  0
LINE
  8
0
 10
98.0672
 20
39.156
 11
98.0172
 21
39.1295
  0
LINE
  8
0
 10
98.0172
 20
39.1295
 11
97.9664
 21
39.1046
  0
LINE
  8
0
 10
97.9664
 20
39.1046
 11
97.9149
 21
39.0814
  0
LINE
  8
0
 10
97.9149
 20
39.0814
 11
97.8626
 21
39.0597
  0
LINE
  8
0
 10
97.8626
 20
39.0597
 11
97.8097
 21
39.0397
  0
LINE
  8
0
 10
97.8097
 20
39.0397
 11
97.7562
 21
39.0214
  0
LINE
  8
0
 10
97.7562
 20
39.0214
 11
97.7022
 21
39.0048
  0
LINE
  8
0
 10
97.7022
 20
39.0048
 11
97.6476
 21
38.9899
  0
LINE
  8
0
 10
97.6476
 20
38.9899
 11
97.5927
 21
38.9767
  0
LINE
  8
0
 10
97.5927
 20
38.9767
 11
97.5373
 21
38.9652
  0
LINE
  8
0
 10
97.5373
 20
38.9652
 11
97.4816
 21
38.9555
  0
LINE
  8
0
 10
97.4816
 20
38.9555
 11
97.4256
 21
38.9475
  0
LINE
  8
0
 10
97.4256
 20
38.9475
 11
97.3694
 21
38.9413
  0
LINE
  8
0
 10
97.3694
 20
38.9413
 11
97.313
 21
38.9369
  0
LINE
  8
0
 10
97.313
 20
38.9369
 11
97.2565
 21
38.9342
  0
LINE
  8
0
 10
97.2565
 20
38.9342
 11
97.2
 21
38.9333
  0
LINE
  8
0
 10
97.2
 20
38.9333
 11
97.1434
 21
38.9342
  0
LINE
  8
0
 10
73.175
 20
15.525
 11
73.0882
 21
15.5326
  0
LINE
  8
0
 10
73.0882
 20
15.5326
 11
73.004
 21
15.5551
  0
LINE
  8
0
 10
73.004
 20
15.5551
 11
72.925
 21
15.592
  0
LINE
  8
0
 10
72.925
 20
15.592
 11
72.8536
 21
15.642
  0
LINE
  8
0
 10
72.8536
 20
15.642
 11
72.792
 21
15.7036
  0
LINE
  8
0
 10
72.792
 20
15.7036
 11
72.742
 21
15.775
  0
LINE
  8
0
 10
72.742
 20
15.775
 11
72.7051
 21
15.854
  0
LINE
  8
0
 10
72.7051
 20
15.854
 11
72.6826
 21
15.9382
  0
LINE
  8
0
 10
72.6826
 20
15.9382
 11
72.675
 21
16.025
  0
LINE
  8
0
 10
72.675
 20
16.025
 11
72.675
 21
29.025
  0
LINE
  8
0
 10
72.675
 20
29.025
 11
72.6826
 21
29.1118
  0
LINE
  8
0
 10
72.6826
 20
29.1118
 11
72.7051
 21
29.196
  0
LINE
  8
0
 10
72.7051
 20
29.196
 11
72.742
 21
29.275
  0
LINE
  8
0
 10
72.742
 20
29.275
 11
72.792
 21
29.3464
  0
LINE
  8
0
 10
72.792
 20
29.3464
 11
72.8536
 21
29.408
  0
LINE
  8
0
 10
72.8536
 20
29.408
 11
72.925
 21
29.458
  0
LINE
  8
0
 10
72.925
 20
29.458
 11
73.004
 21
29.4948
  0
LINE
  8
0
 10
73.004
 20
29.4948
 11
73.0882
 21
29.5174
  0
LINE
  8
0
 10
73.0882
 20
29.5174
 11
73.175
 21
29.525
  0
LINE
  8
0
 10
73.175
 20
29.525
 11
86.175
 21
29.525
  0
LINE
  8
0
 10
86.175
 20
29.525
 11
86.2618
 21
29.5174
  0
LINE
  8
0
 10
86.2618
 20
29.5174
 11
86.346
 21
29.4948
  0
LINE
  8
0
 10
86.346
 20
29.4948
 11
86.425
 21
29.458
  0
LINE
  8
0
 10
86.425
 20
29.458
 11
86.4964
 21
29.408
  0
LINE
  8
0
 10
86.4964
 20
29.408
 11
86.558
 21
29.3464
  0
LINE
  8
0
 10
86.558
 20
29.3464
 11
86.608
 21
29.275
  0
LINE
  8
0
 10
86.608
 20
29.275
 11
86.6448
 21
29.196
  0
LINE
  8
0
 10
86.6448
 20
29.196
 11
86.6674
 21
29.1118
  0
LINE
  8
0
 10
86.6674
 20
29.1118
 11
86.675
 21
29.025
  0
LINE
  8
0
 10
86.675
 20
29.025
 11
86.675
 21
16.025
  0
LINE
  8
0
 10
86.675
 20
16.025
 11
86.6674
 21
15.9382
  0
LINE
  8
0
 10
86.6674
 20
15.9382
 11
86.6448
 21
15.854
  0
LINE
  8
0
 10
86.6448
 20
15.854
 11
86.608
 21
15.775
  0
LINE
  8
0
 10
86.608
 20
15.775
 11
86.558
 21
15.7036
  0
LINE
  8
0
 10
86.558
 20
15.7036
 11
86.4964
 21
15.642
  0
LINE
  8
0
 10
86.4964
 20
15.642
 11
86.425
 21
15.592
  0
LINE
  8
0
 10
86.425
 20
15.592
 11
86.346
 21
15.5551
  0
LINE
  8
0
 10
86.346
 20
15.5551
 11
86.2618
 21
15.5326
  0
LINE
  8
0
 10
86.2618
 20
15.5326
 11
86.175
 21
15.525
  0
LINE
  8
0
 10
86.175
 20
15.525
 11
73.175
 21
15.525
  0
LINE
  8
0
 10
54.125
 20
15.525
 11
54.0382
 21
15.5326
  0
LINE
  8
0
 10
54.0382
 20
15.5326
 11
53.954
 21
15.5551
  0
LINE
  8
0
 10
53.954
 20
15.5551
 11
53.875
 21
15.592
  0
LINE
  8
0
 10
53.875
 20
15.592
 11
53.8036
 21
15.642
  0
LINE
  8
0
 10
53.8036
 20
15.642
 11
53.742
 21
15.7036
  0
LINE
  8
0
 10
53.742
 20
15.7036
 11
53.692
 21
15.775
  0
LINE
  8
0
 10
53.692
 20
15.775
 11
53.6552
 21
15.854
  0
LINE
  8
0
 10
53.6552
 20
15.854
 11
53.6326
 21
15.9382
  0
LINE
  8
0
 10
53.6326
 20
15.9382
 11
53.625
 21
16.025
  0
LINE
  8
0
 10
53.625
 20
16.025
 11
53.625
 21
29.025
  0
LINE
  8
0
 10
53.625
 20
29.025
 11
53.6326
 21
29.1118
  0
LINE
  8
0
 10
53.6326
 20
29.1118
 11
53.6552
 21
29.196
  0
LINE
  8
0
 10
53.6552
 20
29.196
 11
53.692
 21
29.275
  0
LINE
  8
0
 10
53.692
 20
29.275
 11
53.742
 21
29.3464
  0
LINE
  8
0
 10
53.742
 20
29.3464
 11
53.8036
 21
29.408
  0
LINE
  8
0
 10
53.8036
 20
29.408
 11
53.875
 21
29.458
  0
LINE
  8
0
 10
53.875
 20
29.458
 11
53.954
 21
29.4948
  0
LINE
  8
0
 10
53.954
 20
29.4948
 11
54.0382
 21
29.5174
  0
LINE
  8
0
 10
54.0382
 20
29.5174
 11
54.125
 21
29.525
  0
LINE
  8
0
 10
54.125
 20
29.525
 11
67.125
 21
29.525
  0
LINE
  8
0
 10
67.125
 20
29.525
 11
67.2118
 21
29.5174
  0
LINE
  8
0
 10
67.2118
 20
29.5174
 11
67.296
 21
29.4948
  0
LINE
  8
0
 10
67.296
 20
29.4948
 11
67.375
 21
29.458
  0
LINE
  8
0
 10
67.375
 20
29.458
 11
67.4464
 21
29.408
  0
LINE
  8
0
 10
67.4464
 20
29.408
 11
67.508
 21
29.3464
  0
LINE
  8
0
 10
67.508
 20
29.3464
 11
67.558
 21
29.275
  0
LINE
  8
0
 10
67.558
 20
29.275
 11
67.5948
 21
29.196
  0
LINE
  8
0
 10
67.5948
 20
29.196
 11
67.6174
 21
29.1118
  0
LINE
  8
0
 10
67.6174
 20
29.1118
 11
67.625
 21
29.025
  0
LINE
  8
0
 10
67.625
 20
29.025
 11
67.625
 21
16.025
  0
LINE
  8
0
 10
67.625
 20
16.025
 11
67.6174
 21
15.9382
  0
LINE
  8
0
 10
67.6174
 20
15.9382
 11
67.5948
 21
15.854
  0
LINE
  8
0
 10
67.5948
 20
15.854
 11
67.558
 21
15.775
  0
LINE
  8
0
 10
67.558
 20
15.775
 11
67.508
 21
15.7036
  0
LINE
  8
0
 10
67.508
 20
15.7036
 11
67.4464
 21
15.642
  0
LINE
  8
0
 10
67.4464
 20
15.642
 11
67.375
 21
15.592
  0
LINE
  8
0
 10
67.375
 20
15.592
 11
67.296
 21
15.5551
  0
LINE
  8
0
 10
67.296
 20
15.5551
 11
67.2118
 21
15.5326
  0
LINE
  8
0
 10
67.2118
 20
15.5326
 11
67.125
 21
15.525
  0
LINE
  8
0
 10
67.125
 20
15.525
 11
54.125
 21
15.525
  0
LINE
  8
0
 10
35.075
 20
15.525
 11
34.9882
 21
15.5326
  0
LINE
  8
0
 10
34.9882
 20
15.5326
 11
34.904
 21
15.5551
  0
LINE
  8
0
 10
34.904
 20
15.5551
 11
34.825
 21
15.592
  0
LINE
  8
0
 10
34.825
 20
15.592
 11
34.7536
 21
15.642
  0
LINE
  8
0
 10
34.7536
 20
15.642
 11
34.692
 21
15.7036
  0
LINE
  8
0
 10
34.692
 20
15.7036
 11
34.642
 21
15.775
  0
LINE
  8
0
 10
34.642
 20
15.775
 11
34.6051
 21
15.854
  0
LINE
  8
0
 10
34.6051
 20
15.854
 11
34.5826
 21
15.9382
  0
LINE
  8
0
 10
34.5826
 20
15.9382
 11
34.575
 21
16.025
  0
LINE
  8
0
 10
34.575
 20
16.025
 11
34.575
 21
29.025
  0
LINE
  8
0
 10
34.575
 20
29.025
 11
34.5826
 21
29.1118
  0
LINE
  8
0
 10
34.5826
 20
29.1118
 11
34.6051
 21
29.196
  0
LINE
  8
0
 10
34.6051
 20
29.196
 11
34.642
 21
29.275
  0
LINE
  8
0
 10
34.642
 20
29.275
 11
34.692
 21
29.3464
  0
LINE
  8
0
 10
34.692
 20
29.3464
 11
34.7536
 21
29.408
  0
LINE
  8
0
 10
34.7536
 20
29.408
 11
34.825
 21
29.458
  0
LINE
  8
0
 10
34.825
 20
29.458
 11
34.904
 21
29.4948
  0
LINE
  8
0
 10
34.904
 20
29.4948
 11
34.9882
 21
29.5174
  0
LINE
  8
0
 10
34.9882
 20
29.5174
 11
35.075
 21
29.525
  0
LINE
  8
0
 10
35.075
 20
29.525
 11
48.075
 21
29.525
  0
LINE
  8
0
 10
48.075
 20
29.525
 11
48.1618
 21
29.5174
  0
LINE
  8
0
 10
48.1618
 20
29.5174
 11
48.246
 21
29.4948
  0
LINE
  8
0
 10
48.246
 20
29.4948
 11
48.325
 21
29.458
  0
LINE
  8
0
 10
48.325
 20
29.458
 11
48.3964
 21
29.408
  0
LINE
  8
0
 10
48.3964
 20
29.408
 11
48.458
 21
29.3464
  0
LINE
  8
0
 10
48.458
 20
29.3464
 11
48.508
 21
29.275
  0
LINE
  8
0
 10
48.508
 20
29.275
 11
48.5448
 21
29.196
  0
LINE
  8
0
 10
48.5448
 20
29.196
 11
48.5674
 21
29.1118
  0
LINE
  8
0
 10
48.5674
 20
29.1118
 11
48.575
 21
29.025
  0
LINE
  8
0
 10
48.575
 20
29.025
 11
48.575
 21
16.025
  0
LINE
  8
0
 10
48.575
 20
16.025
 11
48.5674
 21
15.9382
  0
LINE
  8
0
 10
48.5674
 20
15.9382
 11
48.5448
 21
15.854
  0
LINE
  8
0
 10
48.5448
 20
15.854
 11
48.508
 21
15.775
  0
LINE
  8
0
 10
48.508
 20
15.775
 11
48.458
 21
15.7036
  0
LINE
  8
0
 10
48.458
 20
15.7036
 11
48.3964
 21
15.642
  0
LINE
  8
0
 10
48.3964
 20
15.642
 11
48.325
 21
15.592
  0
LINE
  8
0
 10
48.325
 20
15.592
 11
48.246
 21
15.5551
  0
LINE
  8
0
 10
48.246
 20
15.5551
 11
48.1618
 21
15.5326
  0
LINE
  8
0
 10
48.1618
 20
15.5326
 11
48.075
 21
15.525
  0
LINE
  8
0
 10
48.075
 20
15.525
 11
35.075
 21
15.525
  0
LINE
  8
0
 10
16.025
 20
15.525
 11
15.9382
 21
15.5326
  0
LINE
  8
0
 10
15.9382
 20
15.5326
 11
15.854
 21
15.5551
  0
LINE
  8
0
 10
15.854
 20
15.5551
 11
15.775
 21
15.592
  0
LINE
  8
0
 10
15.775
 20
15.592
 11
15.7036
 21
15.642
  0
LINE
  8
0
 10
15.7036
 20
15.642
 11
15.642
 21
15.7036
  0
LINE
  8
0
 10
15.642
 20
15.7036
 11
15.592
 21
15.775
  0
LINE
  8
0
 10
15.592
 20
15.775
 11
15.5551
 21
15.854
  0
LINE
  8
0
 10
15.5551
 20
15.854
 11
15.5326
 21
15.9382
  0
LINE
  8
0
 10
15.5326
 20
15.9382
 11
15.525
 21
16.025
  0
LINE
  8
0
 10
15.525
 20
16.025
 11
15.525
 21
29.025
  0
LINE
  8
0
 10
15.525
 20
29.025
 11
15.5326
 21
29.1118
  0
LINE
  8
0
 10
15.5326
 20
29.1118
 11
15.5551
 21
29.196
  0
LINE
  8
0
 10
15.5551
 20
29.196
 11
15.592
 21
29.275
  0
LINE
  8
0
 10
15.592
 20
29.275
 11
15.642
 21
29.3464
  0
LINE
  8
0
 10
15.642
 20
29.3464
 11
15.7036
 21
29.408
  0
LINE
  8
0
 10
15.7036
 20
29.408
 11
15.775
 21
29.458
  0
LINE
  8
0
 10
15.775
 20
29.458
 11
15.854
 21
29.4948
  0
LINE
  8
0
 10
15.854
 20
29.4948
 11
15.9382
 21
29.5174
  0
LINE
  8
0
 10
15.9382
 20
29.5174
 11
16.025
 21
29.525
  0
LINE
  8
0
 10
16.025
 20
29.525
 11
29.025
 21
29.525
  0
LINE
  8
0
 10
29.025
 20
29.525
 11
29.1118
 21
29.5174
  0
LINE
  8
0
 10
29.1118
 20
29.5174
 11
29.196
 21
29.4948
  0
LINE
  8
0
 10
29.196
 20
29.4948
 11
29.275
 21
29.458
  0
LINE
  8
0
 10
29.275
 20
29.458
 11
29.3464
 21
29.408
  0
LINE
  8
0
 10
29.3464
 20
29.408
 11
29.408
 21
29.3464
  0
LINE
  8
0
 10
29.408
 20
29.3464
 11
29.458
 21
29.275
  0
LINE
  8
0
 10
29.458
 20
29.275
 11
29.4948
 21
29.196
  0
LINE
  8
0
 10
29.4948
 20
29.196
 11
29.5174
 21
29.1118
  0
LINE
  8
0
 10
29.5174
 20
29.1118
 11
29.525
 21
29.025
  0
LINE
  8
0
 10
29.525
 20
29.025
 11
29.525
 21
16.025
  0
LINE
  8
0
 10
29.525
 20
16.025
 11
29.5174
 21
15.9382
  0
LINE
  8
0
 10
29.5174
 20
15.9382
 11
29.4948
 21
15.854
  0
LINE
  8
0
 10
29.4948
 20
15.854
 11
29.458
 21
15.775
  0
LINE
  8
0
 10
29.458
 20
15.775
 11
29.408
 21
15.7036
  0
LINE
  8
0
 10
29.408
 20
15.7036
 11
29.3464
 21
15.642
  0
LINE
  8
0
 10
29.3464
 20
15.642
 11
29.275
 21
15.592
  0
LINE
  8
0
 10
29.275
 20
15.592
 11
29.196
 21
15.5551
  0
LINE
  8
0
 10
29.196
 20
15.5551
 11
29.1118
 21
15.5326
  0
LINE
  8
0
 10
29.1118
 20
15.5326
 11
29.025
 21
15.525
  0
LINE
  8
0
 10
29.025
 20
15.525
 11
16.025
 21
15.525
  0
LINE
  8
0
 10
68.0768
 20
3.20088
 11
68.0203
 21
3.20354
  0
LINE
  8
0
 10
68.0203
 20
3.20354
 11
67.9639
 21
3.20798
  0
LINE
  8
0
 10
67.9639
 20
3.20798
 11
67.9077
 21
3.21419
  0
LINE
  8
0
 10
67.9077
 20
3.21419
 11
67.8517
 21
3.22215
  0
LINE
  8
0
 10
67.8517
 20
3.22215
 11
67.796
 21
3.23187
  0
LINE
  8
0
 10
67.796
 20
3.23187
 11
67.7407
 21
3.24335
  0
LINE
  8
0
 10
67.7407
 20
3.24335
 11
67.6857
 21
3.25655
  0
LINE
  8
0
 10
67.6857
 20
3.25655
 11
67.6311
 21
3.27147
  0
LINE
  8
0
 10
67.6311
 20
3.27147
 11
67.5771
 21
3.28809
  0
LINE
  8
0
 10
67.5771
 20
3.28809
 11
67.5236
 21
3.30641
  0
LINE
  8
0
 10
67.5236
 20
3.30641
 11
67.4707
 21
3.3264
  0
LINE
  8
0
 10
67.4707
 20
3.3264
 11
67.4185
 21
3.34804
  0
LINE
  8
0
 10
67.4185
 20
3.34804
 11
67.3669
 21
3.37131
  0
LINE
  8
0
 10
67.3669
 20
3.37131
 11
67.3161
 21
3.39618
  0
LINE
  8
0
 10
67.3161
 20
3.39618
 11
67.2662
 21
3.42264
  0
LINE
  8
0
 10
67.2662
 20
3.42264
 11
67.2171
 21
3.45065
  0
LINE
  8
0
 10
67.2171
 20
3.45065
 11
67.1688
 21
3.48021
  0
LINE
  8
0
 10
67.1688
 20
3.48021
 11
67.1216
 21
3.51125
  0
LINE
  8
0
 10
67.1216
 20
3.51125
 11
67.0753
 21
3.54376
  0
LINE
  8
0
 10
67.0753
 20
3.54376
 11
67.0301
 21
3.57771
  0
LINE
  8
0
 10
67.0301
 20
3.57771
 11
66.986
 21
3.61307
  0
LINE
  8
0
 10
66.986
 20
3.61307
 11
66.943
 21
3.6498
  0
LINE
  8
0
 10
66.943
 20
3.6498
 11
66.9011
 21
3.68785
  0
LINE
  8
0
 10
66.9011
 20
3.68785
 11
66.8605
 21
3.7272
  0
LINE
  8
0
 10
66.8605
 20
3.7272
 11
66.8212
 21
3.76781
  0
LINE
  8
0
 10
66.8212
 20
3.76781
 11
66.7831
 21
3.80963
  0
LINE
  8
0
 10
66.7831
 20
3.80963
 11
66.7464
 21
3.85263
  0
LINE
  8
0
 10
66.7464
 20
3.85263
 11
66.711
 21
3.89676
  0
LINE
  8
0
 10
66.711
 20
3.89676
 11
66.6771
 21
3.94199
  0
LINE
  8
0
 10
66.6771
 20
3.94199
 11
66.6446
 21
3.98824
  0
LINE
  8
0
 10
66.6446
 20
3.98824
 11
66.6135
 21
4.03551
  0
LINE
  8
0
 10
66.6135
 20
4.03551
 11
66.584
 21
4.08372
  0
LINE
  8
0
 10
66.584
 20
4.08372
 11
66.556
 21
4.13284
  0
LINE
  8
0
 10
66.556
 20
4.13284
 11
66.5295
 21
4.18282
  0
LINE
  8
0
 10
66.5295
 20
4.18282
 11
66.5046
 21
4.2336
  0
LINE
  8
0
 10
66.5046
 20
4.2336
 11
66.4814
 21
4.28513
  0
LINE
  8
0
 10
66.4814
 20
4.28513
 11
66.4597
 21
4.33737
  0
LINE
  8
0
 10
66.4597
 20
4.33737
 11
66.4397
 21
4.39026
  0
LINE
  8
0
 10
66.4397
 20
4.39026
 11
66.4214
 21
4.44376
  0
LINE
  8
0
 10
66.4214
 20
4.44376
 11
66.4048
 21
4.4978
  0
LINE
  8
0
 10
66.4048
 20
4.4978
 11
66.3899
 21
4.55235
  0
LINE
  8
0
 10
66.3899
 20
4.55235
 11
66.3767
 21
4.60733
  0
LINE
  8
0
 10
66.3767
 20
4.60733
 11
66.3652
 21
4.6627
  0
LINE
  8
0
 10
66.3652
 20
4.6627
 11
66.3555
 21
4.71841
  0
LINE
  8
0
 10
66.3555
 20
4.71841
 11
66.3475
 21
4.7744
  0
LINE
  8
0
 10
66.3475
 20
4.7744
 11
66.3413
 21
4.8306
  0
LINE
  8
0
 10
66.3413
 20
4.8306
 11
66.3369
 21
4.88696
  0
LINE
  8
0
 10
66.3369
 20
4.88696
 11
66.3342
 21
4.94345
  0
LINE
  8
0
 10
66.3342
 20
4.94345
 11
66.3333
 21
5
  0
LINE
  8
0
 10
66.3333
 20
5
 11
66.3342
 21
5.05653
  0
LINE
  8
0
 10
66.3342
 20
5.05653
 11
66.3369
 21
5.11302
  0
LINE
  8
0
 10
66.3369
 20
5.11302
 11
66.3413
 21
5.16939
  0
LINE
  8
0
 10
66.3413
 20
5.16939
 11
66.3475
 21
5.22559
  0
LINE
  8
0
 10
66.3475
 20
5.22559
 11
66.3555
 21
5.28157
  0
LINE
  8
0
 10
66.3555
 20
5.28157
 11
66.3652
 21
5.33728
  0
LINE
  8
0
 10
66.3652
 20
5.33728
 11
66.3767
 21
5.39265
  0
LINE
  8
0
 10
66.3767
 20
5.39265
 11
66.3899
 21
5.44763
  0
LINE
  8
0
 10
66.3899
 20
5.44763
 11
66.4048
 21
5.50218
  0
LINE
  8
0
 10
66.4048
 20
5.50218
 11
66.4214
 21
5.55623
  0
LINE
  8
0
 10
66.4214
 20
5.55623
 11
66.4397
 21
5.60973
  0
LINE
  8
0
 10
66.4397
 20
5.60973
 11
66.4597
 21
5.66261
  0
LINE
  8
0
 10
66.4597
 20
5.66261
 11
66.4814
 21
5.71486
  0
LINE
  8
0
 10
66.4814
 20
5.71486
 11
66.5046
 21
5.76639
  0
LINE
  8
0
 10
66.5046
 20
5.76639
 11
66.5295
 21
5.81717
  0
LINE
  8
0
 10
66.5295
 20
5.81717
 11
66.556
 21
5.86714
  0
LINE
  8
0
 10
66.556
 20
5.86714
 11
66.584
 21
5.91626
  0
LINE
  8
0
 10
66.584
 20
5.91626
 11
66.6135
 21
5.96448
  0
LINE
  8
0
 10
66.6135
 20
5.96448
 11
66.6446
 21
6.01175
  0
LINE
  8
0
 10
66.6446
 20
6.01175
 11
66.6771
 21
6.058
  0
LINE
  8
0
 10
66.6771
 20
6.058
 11
66.711
 21
6.10323
  0
LINE
  8
0
 10
66.711
 20
6.10323
 11
66.7464
 21
6.14735
  0
LINE
  8
0
 10
66.7464
 20
6.14735
 11
66.7831
 21
6.19035
  0
LINE
  8
0
 10
66.7831
 20
6.19035
 11
66.8212
 21
6.23218
  0
LINE
  8
0
 10
66.8212
 20
6.23218
 11
66.8605
 21
6.27278
  0
LINE
  8
0
 10
66.8605
 20
6.27278
 11
66.9011
 21
6.31213
  0
LINE
  8
0
 10
66.9011
 20
6.31213
 11
66.943
 21
6.35019
  0
LINE
  8
0
 10
66.943
 20
6.35019
 11
66.986
 21
6.38692
  0
LINE
  8
0
 10
66.986
 20
6.38692
 11
67.0301
 21
6.42227
  0
LINE
  8
0
 10
67.0301
 20
6.42227
 11
67.0753
 21
6.45622
  0
LINE
  8
0
 10
67.0753
 20
6.45622
 11
67.1216
 21
6.48874
  0
LINE
  8
0
 10
67.1216
 20
6.48874
 11
67.1688
 21
6.51978
  0
LINE
  8
0
 10
67.1688
 20
6.51978
 11
67.2171
 21
6.54933
  0
LINE
  8
0
 10
67.2171
 20
6.54933
 11
67.2662
 21
6.57735
  0
LINE
  8
0
 10
67.2662
 20
6.57735
 11
67.3161
 21
6.60381
  0
LINE
  8
0
 10
67.3161
 20
6.60381
 11
67.3669
 21
6.62868
  0
LINE
  8
0
 10
67.3669
 20
6.62868
 11
67.4185
 21
6.65195
  0
LINE
  8
0
 10
67.4185
 20
6.65195
 11
67.4707
 21
6.67358
  0
LINE
  8
0
 10
67.4707
 20
6.67358
 11
67.5236
 21
6.69357
  0
LINE
  8
0
 10
67.5236
 20
6.69357
 11
67.5771
 21
6.7119
  0
LINE
  8
0
 10
67.5771
 20
6.7119
 11
67.6311
 21
6.72852
  0
LINE
  8
0
 10
67.6311
 20
6.72852
 11
67.6857
 21
6.74344
  0
LINE
  8
0
 10
67.6857
 20
6.74344
 11
67.7407
 21
6.75664
  0
LINE
  8
0
 10
67.7407
 20
6.75664
 11
67.796
 21
6.76811
  0
LINE
  8
0
 10
67.796
 20
6.76811
 11
67.8517
 21
6.77783
  0
LINE
  8
0
 10
67.8517
 20
6.77783
 11
67.9077
 21
6.7858
  0
LINE
  8
0
 10
67.9077
 20
6.7858
 11
67.9639
 21
6.79201
  0
LINE
  8
0
 10
67.9639
 20
6.79201
 11
68.0203
 21
6.79645
  0
LINE
  8
0
 10
68.0203
 20
6.79645
 11
68.0768
 21
6.7991
  0
LINE
  8
0
 10
68.0768
 20
6.7991
 11
68.1333
 21
6.79999
  0
LINE
  8
0
 10
68.1333
 20
6.79999
 11
68.1899
 21
6.7991
  0
LINE
  8
0
 10
68.1899
 20
6.7991
 11
68.2464
 21
6.79645
  0
LINE
  8
0
 10
68.2464
 20
6.79645
 11
68.3027
 21
6.79201
  0
LINE
  8
0
 10
68.3027
 20
6.79201
 11
68.3589
 21
6.7858
  0
LINE
  8
0
 10
68.3589
 20
6.7858
 11
68.4149
 21
6.77783
  0
LINE
  8
0
 10
68.4149
 20
6.77783
 11
68.4706
 21
6.76811
  0
LINE
  8
0
 10
68.4706
 20
6.76811
 11
68.526
 21
6.75664
  0
LINE
  8
0
 10
68.526
 20
6.75664
 11
68.581
 21
6.74344
  0
LINE
  8
0
 10
68.581
 20
6.74344
 11
68.6355
 21
6.72852
  0
LINE
  8
0
 10
68.6355
 20
6.72852
 11
68.6896
 21
6.7119
  0
LINE
  8
0
 10
68.6896
 20
6.7119
 11
68.7431
 21
6.69357
  0
LINE
  8
0
 10
68.7431
 20
6.69357
 11
68.7959
 21
6.67358
  0
LINE
  8
0
 10
68.7959
 20
6.67358
 11
68.8482
 21
6.65195
  0
LINE
  8
0
 10
68.8482
 20
6.65195
 11
68.8997
 21
6.62868
  0
LINE
  8
0
 10
68.8997
 20
6.62868
 11
68.9505
 21
6.60381
  0
LINE
  8
0
 10
68.9505
 20
6.60381
 11
69.0005
 21
6.57735
  0
LINE
  8
0
 10
69.0005
 20
6.57735
 11
69.0496
 21
6.54933
  0
LINE
  8
0
 10
69.0496
 20
6.54933
 11
69.0978
 21
6.51978
  0
LINE
  8
0
 10
69.0978
 20
6.51978
 11
69.1451
 21
6.48874
  0
LINE
  8
0
 10
69.1451
 20
6.48874
 11
69.1913
 21
6.45622
  0
LINE
  8
0
 10
69.1913
 20
6.45622
 11
69.2366
 21
6.42227
  0
LINE
  8
0
 10
69.2366
 20
6.42227
 11
69.2807
 21
6.38692
  0
LINE
  8
0
 10
69.2807
 20
6.38692
 11
69.3237
 21
6.35019
  0
LINE
  8
0
 10
69.3237
 20
6.35019
 11
69.3655
 21
6.31213
  0
LINE
  8
0
 10
69.3655
 20
6.31213
 11
69.4061
 21
6.27278
  0
LINE
  8
0
 10
69.4061
 20
6.27278
 11
69.4455
 21
6.23218
  0
LINE
  8
0
 10
69.4455
 20
6.23218
 11
69.4835
 21
6.19035
  0
LINE
  8
0
 10
69.4835
 20
6.19035
 11
69.5202
 21
6.14735
  0
LINE
  8
0
 10
69.5202
 20
6.14735
 11
69.5556
 21
6.10323
  0
LINE
  8
0
 10
69.5556
 20
6.10323
 11
69.5896
 21
6.058
  0
LINE
  8
0
 10
69.5896
 20
6.058
 11
69.6221
 21
6.01175
  0
LINE
  8
0
 10
69.6221
 20
6.01175
 11
69.6531
 21
5.96448
  0
LINE
  8
0
 10
69.6531
 20
5.96448
 11
69.6827
 21
5.91626
  0
LINE
  8
0
 10
69.6827
 20
5.91626
 11
69.7107
 21
5.86714
  0
LINE
  8
0
 10
69.7107
 20
5.86714
 11
69.7371
 21
5.81717
  0
LINE
  8
0
 10
69.7371
 20
5.81717
 11
69.762
 21
5.76639
  0
LINE
  8
0
 10
69.762
 20
5.76639
 11
69.7853
 21
5.71486
  0
LINE
  8
0
 10
69.7853
 20
5.71486
 11
69.8069
 21
5.66261
  0
LINE
  8
0
 10
69.8069
 20
5.66261
 11
69.8269
 21
5.60973
  0
LINE
  8
0
 10
69.8269
 20
5.60973
 11
69.8452
 21
5.55623
  0
LINE
  8
0
 10
69.8452
 20
5.55623
 11
69.8618
 21
5.50218
  0
LINE
  8
0
 10
69.8618
 20
5.50218
 11
69.8768
 21
5.44763
  0
LINE
  8
0
 10
69.8768
 20
5.44763
 11
69.89
 21
5.39265
  0
LINE
  8
0
 10
69.89
 20
5.39265
 11
69.9014
 21
5.33728
  0
LINE
  8
0
 10
69.9014
 20
5.33728
 11
69.9112
 21
5.28157
  0
LINE
  8
0
 10
69.9112
 20
5.28157
 11
69.9191
 21
5.22559
  0
LINE
  8
0
 10
69.9191
 20
5.22559
 11
69.9253
 21
5.16939
  0
LINE
  8
0
 10
69.9253
 20
5.16939
 11
69.9298
 21
5.11302
  0
LINE
  8
0
 10
69.9298
 20
5.11302
 11
69.9324
 21
5.05653
  0
LINE
  8
0
 10
69.9324
 20
5.05653
 11
69.9333
 21
5
  0
LINE
  8
0
 10
69.9333
 20
5
 11
69.9324
 21
4.94345
  0
LINE
  8
0
 10
69.9324
 20
4.94345
 11
69.9298
 21
4.88696
  0
LINE
  8
0
 10
69.9298
 20
4.88696
 11
69.9253
 21
4.8306
  0
LINE
  8
0
 10
69.9253
 20
4.8306
 11
69.9191
 21
4.7744
  0
LINE
  8
0
 10
69.9191
 20
4.7744
 11
69.9112
 21
4.71841
  0
LINE
  8
0
 10
69.9112
 20
4.71841
 11
69.9014
 21
4.6627
  0
LINE
  8
0
 10
69.9014
 20
4.6627
 11
69.89
 21
4.60733
  0
LINE
  8
0
 10
69.89
 20
4.60733
 11
69.8768
 21
4.55235
  0
LINE
  8
0
 10
69.8768
 20
4.55235
 11
69.8618
 21
4.4978
  0
LINE
  8
0
 10
69.8618
 20
4.4978
 11
69.8452
 21
4.44376
  0
LINE
  8
0
 10
69.8452
 20
4.44376
 11
69.8269
 21
4.39026
  0
LINE
  8
0
 10
69.8269
 20
4.39026
 11
69.8069
 21
4.33737
  0
LINE
  8
0
 10
69.8069
 20
4.33737
 11
69.7853
 21
4.28513
  0
LINE
  8
0
 10
69.7853
 20
4.28513
 11
69.762
 21
4.2336
  0
LINE
  8
0
 10
69.762
 20
4.2336
 11
69.7371
 21
4.18282
  0
LINE
  8
0
 10
69.7371
 20
4.18282
 11
69.7107
 21
4.13284
  0
LINE
  8
0
 10
69.7107
 20
4.13284
 11
69.6827
 21
4.08372
  0
LINE
  8
0
 10
69.6827
 20
4.08372
 11
69.6531
 21
4.03551
  0
LINE
  8
0
 10
69.6531
 20
4.03551
 11
69.6221
 21
3.98824
  0
LINE
  8
0
 10
69.6221
 20
3.98824
 11
69.5896
 21
3.94199
  0
LINE
  8
0
 10
69.5896
 20
3.94199
 11
69.5556
 21
3.89676
  0
LINE
  8
0
 10
69.5556
 20
3.89676
 11
69.5202
 21
3.85263
  0
LINE
  8
0
 10
69.5202
 20
3.85263
 11
69.4835
 21
3.80963
  0
LINE
  8
0
 10
69.4835
 20
3.80963
 11
69.4455
 21
3.76781
  0
LINE
  8
0
 10
69.4455
 20
3.76781
 11
69.4061
 21
3.7272
  0
LINE
  8
0
 10
69.4061
 20
3.7272
 11
69.3655
 21
3.68785
  0
LINE
  8
0
 10
69.3655
 20
3.68785
 11
69.3237
 21
3.6498
  0
LINE
  8
0
 10
69.3237
 20
3.6498
 11
69.2807
 21
3.61307
  0
LINE
  8
0
 10
69.2807
 20
3.61307
 11
69.2366
 21
3.57771
  0
LINE
  8
0
 10
69.2366
 20
3.57771
 11
69.1913
 21
3.54376
  0
LINE
  8
0
 10
69.1913
 20
3.54376
 11
69.1451
 21
3.51125
  0
LINE
  8
0
 10
69.1451
 20
3.51125
 11
69.0978
 21
3.48021
  0
LINE
  8
0
 10
69.0978
 20
3.48021
 11
69.0496
 21
3.45065
  0
LINE
  8
0
 10
69.0496
 20
3.45065
 11
69.0005
 21
3.42264
  0
LINE
  8
0
 10
69.0005
 20
3.42264
 11
68.9505
 21
3.39618
  0
LINE
  8
0
 10
68.9505
 20
3.39618
 11
68.8997
 21
3.37131
  0
LINE
  8
0
 10
68.8997
 20
3.37131
 11
68.8482
 21
3.34804
  0
LINE
  8
0
 10
68.8482
 20
3.34804
 11
68.7959
 21
3.3264
  0
LINE
  8
0
 10
68.7959
 20
3.3264
 11
68.7431
 21
3.30641
  0
LINE
  8
0
 10
68.7431
 20
3.30641
 11
68.6896
 21
3.28809
  0
LINE
  8
0
 10
68.6896
 20
3.28809
 11
68.6355
 21
3.27147
  0
LINE
  8
0
 10
68.6355
 20
3.27147
 11
68.581
 21
3.25655
  0
LINE
  8
0
 10
68.581
 20
3.25655
 11
68.526
 21
3.24335
  0
LINE
  8
0
 10
68.526
 20
3.24335
 11
68.4706
 21
3.23187
  0
LINE
  8
0
 10
68.4706
 20
3.23187
 11
68.4149
 21
3.22215
  0
LINE
  8
0
 10
68.4149
 20
3.22215
 11
68.3589
 21
3.21419
  0
LINE
  8
0
 10
68.3589
 20
3.21419
 11
68.3027
 21
3.20798
  0
LINE
  8
0
 10
68.3027
 20
3.20798
 11
68.2464
 21
3.20354
  0
LINE
  8
0
 10
68.2464
 20
3.20354
 11
68.1899
 21
3.20088
  0
LINE
  8
0
 10
68.1899
 20
3.20088
 11
68.1333
 21
3.2
  0
LINE
  8
0
 10
68.1333
 20
3.2
 11
68.0768
 21
3.20088
  0
LINE
  8
0
 10
34.0101
 20
3.20088
 11
33.9536
 21
3.20354
  0
LINE
  8
0
 10
33.9536
 20
3.20354
 11
33.8973
 21
3.20798
  0
LINE
  8
0
 10
33.8973
 20
3.20798
 11
33.8411
 21
3.21419
  0
LINE
  8
0
 10
33.8411
 20
3.21419
 11
33.7851
 21
3.22215
  0
LINE
  8
0
 10
33.7851
 20
3.22215
 11
33.7294
 21
3.23187
  0
LINE
  8
0
 10
33.7294
 20
3.23187
 11
33.674
 21
3.24335
  0
LINE
  8
0
 10
33.674
 20
3.24335
 11
33.619
 21
3.25655
  0
LINE
  8
0
 10
33.619
 20
3.25655
 11
33.5645
 21
3.27147
  0
LINE
  8
0
 10
33.5645
 20
3.27147
 11
33.5104
 21
3.28809
  0
LINE
  8
0
 10
33.5104
 20
3.28809
 11
33.4569
 21
3.30641
  0
LINE
  8
0
 10
33.4569
 20
3.30641
 11
33.404
 21
3.3264
  0
LINE
  8
0
 10
33.404
 20
3.3264
 11
33.3518
 21
3.34804
  0
LINE
  8
0
 10
33.3518
 20
3.34804
 11
33.3003
 21
3.37131
  0
LINE
  8
0
 10
33.3003
 20
3.37131
 11
33.2495
 21
3.39618
  0
LINE
  8
0
 10
33.2495
 20
3.39618
 11
33.1995
 21
3.42264
  0
LINE
  8
0
 10
33.1995
 20
3.42264
 11
33.1504
 21
3.45065
  0
LINE
  8
0
 10
33.1504
 20
3.45065
 11
33.1022
 21
3.48021
  0
LINE
  8
0
 10
33.1022
 20
3.48021
 11
33.0549
 21
3.51125
  0
LINE
  8
0
 10
33.0549
 20
3.51125
 11
33.0087
 21
3.54376
  0
LINE
  8
0
 10
33.0087
 20
3.54376
 11
32.9634
 21
3.57771
  0
LINE
  8
0
 10
32.9634
 20
3.57771
 11
32.9193
 21
3.61307
  0
LINE
  8
0
 10
32.9193
 20
3.61307
 11
32.8763
 21
3.6498
  0
LINE
  8
0
 10
32.8763
 20
3.6498
 11
32.8345
 21
3.68785
  0
LINE
  8
0
 10
32.8345
 20
3.68785
 11
32.7939
 21
3.7272
  0
LINE
  8
0
 10
32.7939
 20
3.7272
 11
32.7545
 21
3.76781
  0
LINE
  8
0
 10
32.7545
 20
3.76781
 11
32.7165
 21
3.80963
  0
LINE
  8
0
 10
32.7165
 20
3.80963
 11
32.6797
 21
3.85263
  0
LINE
  8
0
 10
32.6797
 20
3.85263
 11
32.6444
 21
3.89676
  0
LINE
  8
0
 10
32.6444
 20
3.89676
 11
32.6104
 21
3.94199
  0
LINE
  8
0
 10
32.6104
 20
3.94199
 11
32.5779
 21
3.98824
  0
LINE
  8
0
 10
32.5779
 20
3.98824
 11
32.5469
 21
4.03551
  0
LINE
  8
0
 10
32.5469
 20
4.03551
 11
32.5173
 21
4.08372
  0
LINE
  8
0
 10
32.5173
 20
4.08372
 11
32.4893
 21
4.13284
  0
LINE
  8
0
 10
32.4893
 20
4.13284
 11
32.4628
 21
4.18282
  0
LINE
  8
0
 10
32.4628
 20
4.18282
 11
32.438
 21
4.2336
  0
LINE
  8
0
 10
32.438
 20
4.2336
 11
32.4147
 21
4.28513
  0
LINE
  8
0
 10
32.4147
 20
4.28513
 11
32.3931
 21
4.33737
  0
LINE
  8
0
 10
32.3931
 20
4.33737
 11
32.3731
 21
4.39026
  0
LINE
  8
0
 10
32.3731
 20
4.39026
 11
32.3548
 21
4.44376
  0
LINE
  8
0
 10
32.3548
 20
4.44376
 11
32.3381
 21
4.4978
  0
LINE
  8
0
 10
32.3381
 20
4.4978
 11
32.3232
 21
4.55235
  0
LINE
  8
0
 10
32.3232
 20
4.55235
 11
32.31
 21
4.60733
  0
LINE
  8
0
 10
32.31
 20
4.60733
 11
32.2985
 21
4.6627
  0
LINE
  8
0
 10
32.2985
 20
4.6627
 11
32.2888
 21
4.71841
  0
LINE
  8
0
 10
32.2888
 20
4.71841
 11
32.2809
 21
4.7744
  0
LINE
  8
0
 10
32.2809
 20
4.7744
 11
32.2746
 21
4.8306
  0
LINE
  8
0
 10
32.2746
 20
4.8306
 11
32.2702
 21
4.88696
  0
LINE
  8
0
 10
32.2702
 20
4.88696
 11
32.2675
 21
4.94345
  0
LINE
  8
0
 10
32.2675
 20
4.94345
 11
32.2667
 21
5
  0
LINE
  8
0
 10
32.2667
 20
5
 11
32.2675
 21
5.05653
  0
LINE
  8
0
 10
32.2675
 20
5.05653
 11
32.2702
 21
5.11302
  0
LINE
  8
0
 10
32.2702
 20
5.11302
 11
32.2746
 21
5.16939
  0
LINE
  8
0
 10
32.2746
 20
5.16939
 11
32.2809
 21
5.22559
  0
LINE
  8
0
 10
32.2809
 20
5.22559
 11
32.2888
 21
5.28157
  0
LINE
  8
0
 10
32.2888
 20
5.28157
 11
32.2985
 21
5.33728
  0
LINE
  8
0
 10
32.2985
 20
5.33728
 11
32.31
 21
5.39265
  0
LINE
  8
0
 10
32.31
 20
5.39265
 11
32.3232
 21
5.44763
  0
LINE
  8
0
 10
32.3232
 20
5.44763
 11
32.3381
 21
5.50218
  0
LINE
  8
0
 10
32.3381
 20
5.50218
 11
32.3548
 21
5.55623
  0
LINE
  8
0
 10
32.3548
 20
5.55623
 11
32.3731
 21
5.60973
  0
LINE
  8
0
 10
32.3731
 20
5.60973
 11
32.3931
 21
5.66261
  0
LINE
  8
0
 10
32.3931
 20
5.66261
 11
32.4147
 21
5.71486
  0
LINE
  8
0
 10
32.4147
 20
5.71486
 11
32.438
 21
5.76639
  0
LINE
  8
0
 10
32.438
 20
5.76639
 11
32.4628
 21
5.81717
  0
LINE
  8
0
 10
32.4628
 20
5.81717
 11
32.4893
 21
5.86714
  0
LINE
  8
0
 10
32.4893
 20
5.86714
 11
32.5173
 21
5.91626
  0
LINE
  8
0
 10
32.5173
 20
5.91626
 11
32.5469
 21
5.96448
  0
LINE
  8
0
 10
32.5469
 20
5.96448
 11
32.5779
 21
6.01175
  0
LINE
  8
0
 10
32.5779
 20
6.01175
 11
32.6104
 21
6.058
  0
LINE
  8
0
 10
32.6104
 20
6.058
 11
32.6444
 21
6.10323
  0
LINE
  8
0
 10
32.6444
 20
6.10323
 11
32.6797
 21
6.14735
  0
LINE
  8
0
 10
32.6797
 20
6.14735
 11
32.7165
 21
6.19035
  0
LINE
  8
0
 10
32.7165
 20
6.19035
 11
32.7545
 21
6.23218
  0
LINE
  8
0
 10
32.7545
 20
6.23218
 11
32.7939
 21
6.27278
  0
LINE
  8
0
 10
32.7939
 20
6.27278
 11
32.8345
 21
6.31213
  0
LINE
  8
0
 10
32.8345
 20
6.31213
 11
32.8763
 21
6.35019
  0
LINE
  8
0
 10
32.8763
 20
6.35019
 11
32.9193
 21
6.38692
  0
LINE
  8
0
 10
32.9193
 20
6.38692
 11
32.9634
 21
6.42227
  0
LINE
  8
0
 10
32.9634
 20
6.42227
 11
33.0087
 21
6.45622
  0
LINE
  8
0
 10
33.0087
 20
6.45622
 11
33.0549
 21
6.48874
  0
LINE
  8
0
 10
33.0549
 20
6.48874
 11
33.1022
 21
6.51978
  0
LINE
  8
0
 10
33.1022
 20
6.51978
 11
33.1504
 21
6.54933
  0
LINE
  8
0
 10
33.1504
 20
6.54933
 11
33.1995
 21
6.57735
  0
LINE
  8
0
 10
33.1995
 20
6.57735
 11
33.2495
 21
6.60381
  0
LINE
  8
0
 10
33.2495
 20
6.60381
 11
33.3003
 21
6.62868
  0
LINE
  8
0
 10
33.3003
 20
6.62868
 11
33.3518
 21
6.65195
  0
LINE
  8
0
 10
33.3518
 20
6.65195
 11
33.404
 21
6.67358
  0
LINE
  8
0
 10
33.404
 20
6.67358
 11
33.4569
 21
6.69357
  0
LINE
  8
0
 10
33.4569
 20
6.69357
 11
33.5104
 21
6.7119
  0
LINE
  8
0
 10
33.5104
 20
6.7119
 11
33.5645
 21
6.72852
  0
LINE
  8
0
 10
33.5645
 20
6.72852
 11
33.619
 21
6.74344
  0
LINE
  8
0
 10
33.619
 20
6.74344
 11
33.674
 21
6.75664
  0
LINE
  8
0
 10
33.674
 20
6.75664
 11
33.7294
 21
6.76811
  0
LINE
  8
0
 10
33.7294
 20
6.76811
 11
33.7851
 21
6.77783
  0
LINE
  8
0
 10
33.7851
 20
6.77783
 11
33.8411
 21
6.7858
  0
LINE
  8
0
 10
33.8411
 20
6.7858
 11
33.8973
 21
6.79201
  0
LINE
  8
0
 10
33.8973
 20
6.79201
 11
33.9536
 21
6.79645
  0
LINE
  8
0
 10
33.9536
 20
6.79645
 11
34.0101
 21
6.7991
  0
LINE
  8
0
 10
34.0101
 20
6.7991
 11
34.0667
 21
6.79999
  0
LINE
  8
0
 10
34.0667
 20
6.79999
 11
34.1232
 21
6.7991
  0
LINE
  8
0
 10
34.1232
 20
6.7991
 11
34.1797
 21
6.79645
  0
LINE
  8
0
 10
34.1797
 20
6.79645
 11
34.2361
 21
6.79201
  0
LINE
  8
0
 10
34.2361
 20
6.79201
 11
34.2923
 21
6.7858
  0
LINE
  8
0
 10
34.2923
 20
6.7858
 11
34.3482
 21
6.77783
  0
LINE
  8
0
 10
34.3482
 20
6.77783
 11
34.4039
 21
6.76811
  0
LINE
  8
0
 10
34.4039
 20
6.76811
 11
34.4593
 21
6.75664
  0
LINE
  8
0
 10
34.4593
 20
6.75664
 11
34.5143
 21
6.74344
  0
LINE
  8
0
 10
34.5143
 20
6.74344
 11
34.5688
 21
6.72852
  0
LINE
  8
0
 10
34.5688
 20
6.72852
 11
34.6229
 21
6.7119
  0
LINE
  8
0
 10
34.6229
 20
6.7119
 11
34.6764
 21
6.69357
  0
LINE
  8
0
 10
34.6764
 20
6.69357
 11
34.7293
 21
6.67358
  0
LINE
  8
0
 10
34.7293
 20
6.67358
 11
34.7815
 21
6.65195
  0
LINE
  8
0
 10
34.7815
 20
6.65195
 11
34.8331
 21
6.62868
  0
LINE
  8
0
 10
34.8331
 20
6.62868
 11
34.8838
 21
6.60381
  0
LINE
  8
0
 10
34.8838
 20
6.60381
 11
34.9338
 21
6.57735
  0
LINE
  8
0
 10
34.9338
 20
6.57735
 11
34.9829
 21
6.54933
  0
LINE
  8
0
 10
34.9829
 20
6.54933
 11
35.0311
 21
6.51978
  0
LINE
  8
0
 10
35.0311
 20
6.51978
 11
35.0784
 21
6.48874
  0
LINE
  8
0
 10
35.0784
 20
6.48874
 11
35.1247
 21
6.45622
  0
LINE
  8
0
 10
35.1247
 20
6.45622
 11
35.1699
 21
6.42227
  0
LINE
  8
0
 10
35.1699
 20
6.42227
 11
35.214
 21
6.38692
  0
LINE
  8
0
 10
35.214
 20
6.38692
 11
35.257
 21
6.35019
  0
LINE
  8
0
 10
35.257
 20
6.35019
 11
35.2988
 21
6.31213
  0
LINE
  8
0
 10
35.2988
 20
6.31213
 11
35.3394
 21
6.27278
  0
LINE
  8
0
 10
35.3394
 20
6.27278
 11
35.3788
 21
6.23218
  0
LINE
  8
0
 10
35.3788
 20
6.23218
 11
35.4169
 21
6.19035
  0
LINE
  8
0
 10
35.4169
 20
6.19035
 11
35.4536
 21
6.14735
  0
LINE
  8
0
 10
35.4536
 20
6.14735
 11
35.4889
 21
6.10323
  0
LINE
  8
0
 10
35.4889
 20
6.10323
 11
35.5229
 21
6.058
  0
LINE
  8
0
 10
35.5229
 20
6.058
 11
35.5554
 21
6.01175
  0
LINE
  8
0
 10
35.5554
 20
6.01175
 11
35.5865
 21
5.96448
  0
LINE
  8
0
 10
35.5865
 20
5.96448
 11
35.616
 21
5.91626
  0
LINE
  8
0
 10
35.616
 20
5.91626
 11
35.644
 21
5.86714
  0
LINE
  8
0
 10
35.644
 20
5.86714
 11
35.6705
 21
5.81717
  0
LINE
  8
0
 10
35.6705
 20
5.81717
 11
35.6953
 21
5.76639
  0
LINE
  8
0
 10
35.6953
 20
5.76639
 11
35.7186
 21
5.71486
  0
LINE
  8
0
 10
35.7186
 20
5.71486
 11
35.7402
 21
5.66261
  0
LINE
  8
0
 10
35.7402
 20
5.66261
 11
35.7602
 21
5.60973
  0
LINE
  8
0
 10
35.7602
 20
5.60973
 11
35.7786
 21
5.55623
  0
LINE
  8
0
 10
35.7786
 20
5.55623
 11
35.7952
 21
5.50218
  0
LINE
  8
0
 10
35.7952
 20
5.50218
 11
35.8101
 21
5.44763
  0
LINE
  8
0
 10
35.8101
 20
5.44763
 11
35.8233
 21
5.39265
  0
LINE
  8
0
 10
35.8233
 20
5.39265
 11
35.8348
 21
5.33728
  0
LINE
  8
0
 10
35.8348
 20
5.33728
 11
35.8445
 21
5.28157
  0
LINE
  8
0
 10
35.8445
 20
5.28157
 11
35.8525
 21
5.22559
  0
LINE
  8
0
 10
35.8525
 20
5.22559
 11
35.8587
 21
5.16939
  0
LINE
  8
0
 10
35.8587
 20
5.16939
 11
35.8631
 21
5.11302
  0
LINE
  8
0
 10
35.8631
 20
5.11302
 11
35.8658
 21
5.05653
  0
LINE
  8
0
 10
35.8658
 20
5.05653
 11
35.8667
 21
5
  0
LINE
  8
0
 10
35.8667
 20
5
 11
35.8658
 21
4.94345
  0
LINE
  8
0
 10
35.8658
 20
4.94345
 11
35.8631
 21
4.88696
  0
LINE
  8
0
 10
35.8631
 20
4.88696
 11
35.8587
 21
4.8306
  0
LINE
  8
0
 10
35.8587
 20
4.8306
 11
35.8525
 21
4.7744
  0
LINE
  8
0
 10
35.8525
 20
4.7744
 11
35.8445
 21
4.71841
  0
LINE
  8
0
 10
35.8445
 20
4.71841
 11
35.8348
 21
4.6627
  0
LINE
  8
0
 10
35.8348
 20
4.6627
 11
35.8233
 21
4.60733
  0
LINE
  8
0
 10
35.8233
 20
4.60733
 11
35.8101
 21
4.55235
  0
LINE
  8
0
 10
35.8101
 20
4.55235
 11
35.7952
 21
4.4978
  0
LINE
  8
0
 10
35.7952
 20
4.4978
 11
35.7786
 21
4.44376
  0
LINE
  8
0
 10
35.7786
 20
4.44376
 11
35.7602
 21
4.39026
  0
LINE
  8
0
 10
35.7602
 20
4.39026
 11
35.7402
 21
4.33737
  0
LINE
  8
0
 10
35.7402
 20
4.33737
 11
35.7186
 21
4.28513
  0
LINE
  8
0
 10
35.7186
 20
4.28513
 11
35.6953
 21
4.2336
  0
LINE
  8
0
 10
35.6953
 20
4.2336
 11
35.6705
 21
4.18282
  0
LINE
  8
0
 10
35.6705
 20
4.18282
 11
35.644
 21
4.13284
  0
LINE
  8
0
 10
35.644
 20
4.13284
 11
35.616
 21
4.08372
  0
LINE
  8
0
 10
35.616
 20
4.08372
 11
35.5865
 21
4.03551
  0
LINE
  8
0
 10
35.5865
 20
4.03551
 11
35.5554
 21
3.98824
  0
LINE
  8
0
 10
35.5554
 20
3.98824
 11
35.5229
 21
3.94199
  0
LINE
  8
0
 10
35.5229
 20
3.94199
 11
35.4889
 21
3.89676
  0
LINE
  8
0
 10
35.4889
 20
3.89676
 11
35.4536
 21
3.85263
  0
LINE
  8
0
 10
35.4536
 20
3.85263
 11
35.4169
 21
3.80963
  0
LINE
  8
0
 10
35.4169
 20
3.80963
 11
35.3788
 21
3.76781
  0
LINE
  8
0
 10
35.3788
 20
3.76781
 11
35.3394
 21
3.7272
  0
LINE
  8
0
 10
35.3394
 20
3.7272
 11
35.2988
 21
3.68785
  0
LINE
  8
0
 10
35.2988
 20
3.68785
 11
35.257
 21
3.6498
  0
LINE
  8
0
 10
35.257
 20
3.6498
 11
35.214
 21
3.61307
  0
LINE
  8
0
 10
35.214
 20
3.61307
 11
35.1699
 21
3.57771
  0
LINE
  8
0
 10
35.1699
 20
3.57771
 11
35.1247
 21
3.54376
  0
LINE
  8
0
 10
35.1247
 20
3.54376
 11
35.0784
 21
3.51125
  0
LINE
  8
0
 10
35.0784
 20
3.51125
 11
35.0311
 21
3.48021
  0
LINE
  8
0
 10
35.0311
 20
3.48021
 11
34.9829
 21
3.45065
  0
LINE
  8
0
 10
34.9829
 20
3.45065
 11
34.9338
 21
3.42264
  0
LINE
  8
0
 10
34.9338
 20
3.42264
 11
34.8838
 21
3.39618
  0
LINE
  8
0
 10
34.8838
 20
3.39618
 11
34.8331
 21
3.37131
  0
LINE
  8
0
 10
34.8331
 20
3.37131
 11
34.7815
 21
3.34804
  0
LINE
  8
0
 10
34.7815
 20
3.34804
 11
34.7293
 21
3.3264
  0
LINE
  8
0
 10
34.7293
 20
3.3264
 11
34.6764
 21
3.30641
  0
LINE
  8
0
 10
34.6764
 20
3.30641
 11
34.6229
 21
3.28809
  0
LINE
  8
0
 10
34.6229
 20
3.28809
 11
34.5688
 21
3.27147
  0
LINE
  8
0
 10
34.5688
 20
3.27147
 11
34.5143
 21
3.25655
  0
LINE
  8
0
 10
34.5143
 20
3.25655
 11
34.4593
 21
3.24335
  0
LINE
  8
0
 10
34.4593
 20
3.24335
 11
34.4039
 21
3.23187
  0
LINE
  8
0
 10
34.4039
 20
3.23187
 11
34.3482
 21
3.22215
  0
LINE
  8
0
 10
34.3482
 20
3.22215
 11
34.2923
 21
3.21419
  0
LINE
  8
0
 10
34.2923
 20
3.21419
 11
34.2361
 21
3.20798
  0
LINE
  8
0
 10
34.2361
 20
3.20798
 11
34.1797
 21
3.20354
  0
LINE
  8
0
 10
34.1797
 20
3.20354
 11
34.1232
 21
3.20088
  0
LINE
  8
0
 10
34.1232
 20
3.20088
 11
34.0667
 21
3.2
  0
LINE
  8
0
 10
34.0667
 20
3.2
 11
34.0101
 21
3.20088
  0
ENDSEC
  0
SECTION
  2
OBJECTS
  0
DICTIONARY
  0
ENDSEC
  0
EOF
