  0
SECTION
  2
BLOCKS
  0
ENDSEC
  0
SECTION
  2
ENTITIES
  0
LINE
  8
0
 10
79.2942
 20
0.00149536
 11
79.3884
 21
0.00592041
  0
LINE
  8
0
 10
79.3884
 20
0.00592041
 11
79.4823
 21
0.0133209
  0
LINE
  8
0
 10
79.4823
 20
0.0133209
 11
79.576
 21
0.0236664
  0
LINE
  8
0
 10
79.576
 20
0.0236664
 11
79.6693
 21
0.0369415
  0
LINE
  8
0
 10
79.6693
 20
0.0369415
 11
79.7621
 21
0.0531464
  0
LINE
  8
0
 10
79.7621
 20
0.0531464
 11
79.8544
 21
0.0722504
  0
LINE
  8
0
 10
79.8544
 20
0.0722504
 11
79.9461
 21
0.0942535
  0
LINE
  8
0
 10
79.9461
 20
0.0942535
 11
80.037
 21
0.119125
  0
LINE
  8
0
 10
80.037
 20
0.119125
 11
80.127
 21
0.146835
  0
LINE
  8
0
 10
80.127
 20
0.146835
 11
80.2162
 21
0.177368
  0
LINE
  8
0
 10
80.2162
 20
0.177368
 11
80.3044
 21
0.210678
  0
LINE
  8
0
 10
80.3044
 20
0.210678
 11
80.3914
 21
0.24675
  0
LINE
  8
0
 10
80.3914
 20
0.24675
 11
80.4773
 21
0.285522
  0
LINE
  8
0
 10
80.4773
 20
0.285522
 11
80.562
 21
0.326981
  0
LINE
  8
0
 10
80.562
 20
0.326981
 11
80.6452
 21
0.371094
  0
LINE
  8
0
 10
80.6452
 20
0.371094
 11
80.7271
 21
0.417786
  0
LINE
  8
0
 10
80.7271
 20
0.417786
 11
80.8075
 21
0.467026
  0
LINE
  8
0
 10
80.8075
 20
0.467026
 11
80.8862
 21
0.518768
  0
LINE
  8
0
 10
80.8862
 20
0.518768
 11
80.9633
 21
0.572952
  0
LINE
  8
0
 10
80.9633
 20
0.572952
 11
81.0387
 21
0.629547
  0
LINE
  8
0
 10
81.0387
 20
0.629547
 11
81.1123
 21
0.688461
  0
LINE
  8
0
 10
81.1123
 20
0.688461
 11
81.1839
 21
0.74968
  0
LINE
  8
0
 10
81.1839
 20
0.74968
 11
81.2536
 21
0.813095
  0
LINE
  8
0
 10
81.2536
 20
0.813095
 11
81.3213
 21
0.878693
  0
LINE
  8
0
 10
81.3213
 20
0.878693
 11
81.3869
 21
0.946365
  0
LINE
  8
0
 10
81.3869
 20
0.946365
 11
81.4503
 21
1.01607
  0
LINE
  8
0
 10
81.4503
 20
1.01607
 11
81.5115
 21
1.08774
  0
LINE
  8
0
 10
81.5115
 20
1.08774
 11
81.5704
 21
1.16129
  0
LINE
  8
0
 10
81.5704
 20
1.16129
 11
81.627
 21
1.23665
  0
LINE
  8
0
 10
81.627
 20
1.23665
 11
81.6812
 21
1.31375
  0
LINE
  8
0
 10
81.6812
 20
1.31375
 11
81.733
 21
1.39253
  0
LINE
  8
0
 10
81.733
 20
1.39253
 11
81.7822
 21
1.47289
  0
LINE
  8
0
 10
81.7822
 20
1.47289
 11
81.8289
 21
1.55475
  0
LINE
  8
0
 10
81.8289
 20
1.55475
 11
81.873
 21
1.63803
  0
LINE
  8
0
 10
81.873
 20
1.63803
 11
81.9145
 21
1.72267
  0
LINE
  8
0
 10
81.9145
 20
1.72267
 11
81.9532
 21
1.80856
  0
LINE
  8
0
 10
81.9532
 20
1.80856
 11
81.9893
 21
1.89563
  0
LINE
  8
0
 10
81.9893
 20
1.89563
 11
82.0226
 21
1.9838
  0
LINE
  8
0
 10
82.0226
 20
1.9838
 11
82.0532
 21
2.07295
  0
LINE
  8
0
 10
82.0532
 20
2.07295
 11
82.0809
 21
2.16304
  0
LINE
  8
0
 10
82.0809
 20
2.16304
 11
82.1057
 21
2.25394
  0
LINE
  8
0
 10
82.1057
 20
2.25394
 11
82.1277
 21
2.34558
  0
LINE
  8
0
 10
82.1277
 20
2.34558
 11
82.1469
 21
2.43787
  0
LINE
  8
0
 10
82.1469
 20
2.43787
 11
82.1631
 21
2.5307
  0
LINE
  8
0
 10
82.1631
 20
2.5307
 11
82.1763
 21
2.62401
  0
LINE
  8
0
 10
82.1763
 20
2.62401
 11
82.1867
 21
2.71768
  0
LINE
  8
0
 10
82.1867
 20
2.71768
 11
82.1941
 21
2.81163
  0
LINE
  8
0
 10
82.1941
 20
2.81163
 11
82.1985
 21
2.90578
  0
LINE
  8
0
 10
82.1985
 20
2.90578
 11
82.2
 21
3
  0
LINE
  8
0
 10
82.2
 20
3
 11
82.2
 21
79.2
  0
LINE
  8
0
 10
82.2
 20
79.2
 11
82.1985
 21
79.2942
  0
LINE
  8
0
 10
82.1985
 20
79.2942
 11
82.1941
 21
79.3884
  0
LINE
  8
0
 10
82.1941
 20
79.3884
 11
82.1867
 21
79.4823
  0
LINE
  8
0
 10
82.1867
 20
79.4823
 11
82.1763
 21
79.576
  0
LINE
  8
0
 10
82.1763
 20
79.576
 11
82.1631
 21
79.6693
  0
LINE
  8
0
 10
82.1631
 20
79.6693
 11
82.1469
 21
79.7621
  0
LINE
  8
0
 10
82.1469
 20
79.7621
 11
82.1277
 21
79.8544
  0
LINE
  8
0
 10
82.1277
 20
79.8544
 11
82.1057
 21
79.9461
  0
LINE
  8
0
 10
82.1057
 20
79.9461
 11
82.0809
 21
80.037
  0
LINE
  8
0
 10
82.0809
 20
80.037
 11
82.0532
 21
80.127
  0
LINE
  8
0
 10
82.0532
 20
80.127
 11
82.0226
 21
80.2162
  0
LINE
  8
0
 10
82.0226
 20
80.2162
 11
81.9893
 21
80.3044
  0
LINE
  8
0
 10
81.9893
 20
80.3044
 11
81.9532
 21
80.3914
  0
LINE
  8
0
 10
81.9532
 20
80.3914
 11
81.9145
 21
80.4773
  0
LINE
  8
0
 10
81.9145
 20
80.4773
 11
81.873
 21
80.562
  0
LINE
  8
0
 10
81.873
 20
80.562
 11
81.8289
 21
80.6452
  0
LINE
  8
0
 10
81.8289
 20
80.6452
 11
81.7822
 21
80.7271
  0
LINE
  8
0
 10
81.7822
 20
80.7271
 11
81.733
 21
80.8075
  0
LINE
  8
0
 10
81.733
 20
80.8075
 11
81.6812
 21
80.8862
  0
LINE
  8
0
 10
81.6812
 20
80.8862
 11
81.627
 21
80.9633
  0
LINE
  8
0
 10
81.627
 20
80.9633
 11
81.5704
 21
81.0387
  0
LINE
  8
0
 10
81.5704
 20
81.0387
 11
81.5115
 21
81.1123
  0
LINE
  8
0
 10
81.5115
 20
81.1123
 11
81.4503
 21
81.1839
  0
LINE
  8
0
 10
81.4503
 20
81.1839
 11
81.3869
 21
81.2536
  0
LINE
  8
0
 10
81.3869
 20
81.2536
 11
81.3213
 21
81.3213
  0
LINE
  8
0
 10
81.3213
 20
81.3213
 11
81.2536
 21
81.3869
  0
LINE
  8
0
 10
81.2536
 20
81.3869
 11
81.1839
 21
81.4503
  0
LINE
  8
0
 10
81.1839
 20
81.4503
 11
81.1123
 21
81.5115
  0
LINE
  8
0
 10
81.1123
 20
81.5115
 11
81.0387
 21
81.5704
  0
LINE
  8
0
 10
81.0387
 20
81.5704
 11
80.9633
 21
81.627
  0
LINE
  8
0
 10
80.9633
 20
81.627
 11
80.8862
 21
81.6812
  0
LINE
  8
0
 10
80.8862
 20
81.6812
 11
80.8075
 21
81.733
  0
LINE
  8
0
 10
80.8075
 20
81.733
 11
80.7271
 21
81.7822
  0
LINE
  8
0
 10
80.7271
 20
81.7822
 11
80.6452
 21
81.8289
  0
LINE
  8
0
 10
80.6452
 20
81.8289
 11
80.562
 21
81.873
  0
LINE
  8
0
 10
80.562
 20
81.873
 11
80.4773
 21
81.9145
  0
LINE
  8
0
 10
80.4773
 20
81.9145
 11
80.3914
 21
81.9532
  0
LINE
  8
0
 10
80.3914
 20
81.9532
 11
80.3044
 21
81.9893
  0
LINE
  8
0
 10
80.3044
 20
81.9893
 11
80.2162
 21
82.0226
  0
LINE
  8
0
 10
80.2162
 20
82.0226
 11
80.127
 21
82.0532
  0
LINE
  8
0
 10
80.127
 20
82.0532
 11
80.037
 21
82.0809
  0
LINE
  8
0
 10
80.037
 20
82.0809
 11
79.9461
 21
82.1057
  0
LINE
  8
0
 10
79.9461
 20
82.1057
 11
79.8544
 21
82.1277
  0
LINE
  8
0
 10
79.8544
 20
82.1277
 11
79.7621
 21
82.1469
  0
LINE
  8
0
 10
79.7621
 20
82.1469
 11
79.6693
 21
82.1631
  0
LINE
  8
0
 10
79.6693
 20
82.1631
 11
79.576
 21
82.1763
  0
LINE
  8
0
 10
79.576
 20
82.1763
 11
79.4823
 21
82.1867
  0
LINE
  8
0
 10
79.4823
 20
82.1867
 11
79.3884
 21
82.1941
  0
LINE
  8
0
 10
79.3884
 20
82.1941
 11
79.2942
 21
82.1985
  0
LINE
  8
0
 10
79.2942
 20
82.1985
 11
79.2
 21
82.2
  0
LINE
  8
0
 10
79.2
 20
82.2
 11
3
 21
82.2
  0
LINE
  8
0
 10
3
 20
82.2
 11
2.90578
 21
82.1985
  0
LINE
  8
0
 10
2.90578
 20
82.1985
 11
2.81163
 21
82.1941
  0
LINE
  8
0
 10
2.81163
 20
82.1941
 11
2.71768
 21
82.1867
  0
LINE
  8
0
 10
2.71768
 20
82.1867
 11
2.62401
 21
82.1763
  0
LINE
  8
0
 10
2.62401
 20
82.1763
 11
2.5307
 21
82.1631
  0
LINE
  8
0
 10
2.5307
 20
82.1631
 11
2.43787
 21
82.1469
  0
LINE
  8
0
 10
2.43787
 20
82.1469
 11
2.34558
 21
82.1277
  0
LINE
  8
0
 10
2.34558
 20
82.1277
 11
2.25394
 21
82.1057
  0
LINE
  8
0
 10
2.25394
 20
82.1057
 11
2.16304
 21
82.0809
  0
LINE
  8
0
 10
2.16304
 20
82.0809
 11
2.07295
 21
82.0532
  0
LINE
  8
0
 10
2.07295
 20
82.0532
 11
1.9838
 21
82.0226
  0
LINE
  8
0
 10
1.9838
 20
82.0226
 11
1.89563
 21
81.9893
  0
LINE
  8
0
 10
1.89563
 20
81.9893
 11
1.80856
 21
81.9532
  0
LINE
  8
0
 10
1.80856
 20
81.9532
 11
1.72267
 21
81.9145
  0
LINE
  8
0
 10
1.72267
 20
81.9145
 11
1.63803
 21
81.873
  0
LINE
  8
0
 10
1.63803
 20
81.873
 11
1.55475
 21
81.8289
  0
LINE
  8
0
 10
1.55475
 20
81.8289
 11
1.47289
 21
81.7822
  0
LINE
  8
0
 10
1.47289
 20
81.7822
 11
1.39253
 21
81.733
  0
LINE
  8
0
 10
1.39253
 20
81.733
 11
1.31375
 21
81.6812
  0
LINE
  8
0
 10
1.31375
 20
81.6812
 11
1.23665
 21
81.627
  0
LINE
  8
0
 10
1.23665
 20
81.627
 11
1.16129
 21
81.5704
  0
LINE
  8
0
 10
1.16129
 20
81.5704
 11
1.08774
 21
81.5115
  0
LINE
  8
0
 10
1.08774
 20
81.5115
 11
1.01607
 21
81.4503
  0
LINE
  8
0
 10
1.01607
 20
81.4503
 11
0.946365
 21
81.3869
  0
LINE
  8
0
 10
0.946365
 20
81.3869
 11
0.878693
 21
81.3213
  0
LINE
  8
0
 10
0.878693
 20
81.3213
 11
0.813095
 21
81.2536
  0
LINE
  8
0
 10
0.813095
 20
81.2536
 11
0.74968
 21
81.1839
  0
LINE
  8
0
 10
0.74968
 20
81.1839
 11
0.688461
 21
81.1123
  0
LINE
  8
0
 10
0.688461
 20
81.1123
 11
0.629547
 21
81.0387
  0
LINE
  8
0
 10
0.629547
 20
81.0387
 11
0.572952
 21
80.9633
  0
LINE
  8
0
 10
0.572952
 20
80.9633
 11
0.518768
 21
80.8862
  0
LINE
  8
0
 10
0.518768
 20
80.8862
 11
0.467026
 21
80.8075
  0
LINE
  8
0
 10
0.467026
 20
80.8075
 11
0.417786
 21
80.7271
  0
LINE
  8
0
 10
0.417786
 20
80.7271
 11
0.371094
 21
80.6452
  0
LINE
  8
0
 10
0.371094
 20
80.6452
 11
0.326981
 21
80.562
  0
LINE
  8
0
 10
0.326981
 20
80.562
 11
0.285522
 21
80.4773
  0
LINE
  8
0
 10
0.285522
 20
80.4773
 11
0.24675
 21
80.3914
  0
LINE
  8
0
 10
0.24675
 20
80.3914
 11
0.210678
 21
80.3044
  0
LINE
  8
0
 10
0.210678
 20
80.3044
 11
0.177368
 21
80.2162
  0
LINE
  8
0
 10
0.177368
 20
80.2162
 11
0.146835
 21
80.127
  0
LINE
  8
0
 10
0.146835
 20
80.127
 11
0.119125
 21
80.037
  0
LINE
  8
0
 10
0.119125
 20
80.037
 11
0.0942535
 21
79.9461
  0
LINE
  8
0
 10
0.0942535
 20
79.9461
 11
0.0722504
 21
79.8544
  0
LINE
  8
0
 10
0.0722504
 20
79.8544
 11
0.0531464
 21
79.7621
  0
LINE
  8
0
 10
0.0531464
 20
79.7621
 11
0.0369415
 21
79.6693
  0
LINE
  8
0
 10
0.0369415
 20
79.6693
 11
0.0236664
 21
79.576
  0
LINE
  8
0
 10
0.0236664
 20
79.576
 11
0.0133209
 21
79.4823
  0
LINE
  8
0
 10
0.0133209
 20
79.4823
 11
0.00592041
 21
79.3884
  0
LINE
  8
0
 10
0.00592041
 20
79.3884
 11
0.00149536
 21
79.2942
  0
LINE
  8
0
 10
0.00149536
 20
79.2942
 11
0
 21
79.2
  0
LINE
  8
0
 10
0
 20
79.2
 11
0
 21
3
  0
LINE
  8
0
 10
0
 20
3
 11
0.00149536
 21
2.90578
  0
LINE
  8
0
 10
0.00149536
 20
2.90578
 11
0.00592041
 21
2.81163
  0
LINE
  8
0
 10
0.00592041
 20
2.81163
 11
0.0133209
 21
2.71768
  0
LINE
  8
0
 10
0.0133209
 20
2.71768
 11
0.0236664
 21
2.62401
  0
LINE
  8
0
 10
0.0236664
 20
2.62401
 11
0.0369415
 21
2.5307
  0
LINE
  8
0
 10
0.0369415
 20
2.5307
 11
0.0531464
 21
2.43787
  0
LINE
  8
0
 10
0.0531464
 20
2.43787
 11
0.0722504
 21
2.34558
  0
LINE
  8
0
 10
0.0722504
 20
2.34558
 11
0.0942535
 21
2.25394
  0
LINE
  8
0
 10
0.0942535
 20
2.25394
 11
0.119125
 21
2.16304
  0
LINE
  8
0
 10
0.119125
 20
2.16304
 11
0.146835
 21
2.07295
  0
LINE
  8
0
 10
0.146835
 20
2.07295
 11
0.177368
 21
1.9838
  0
LINE
  8
0
 10
0.177368
 20
1.9838
 11
0.210678
 21
1.89563
  0
LINE
  8
0
 10
0.210678
 20
1.89563
 11
0.24675
 21
1.80856
  0
LINE
  8
0
 10
0.24675
 20
1.80856
 11
0.285522
 21
1.72267
  0
LINE
  8
0
 10
0.285522
 20
1.72267
 11
0.326981
 21
1.63803
  0
LINE
  8
0
 10
0.326981
 20
1.63803
 11
0.371094
 21
1.55475
  0
LINE
  8
0
 10
0.371094
 20
1.55475
 11
0.417786
 21
1.47289
  0
LINE
  8
0
 10
0.417786
 20
1.47289
 11
0.467026
 21
1.39253
  0
LINE
  8
0
 10
0.467026
 20
1.39253
 11
0.518768
 21
1.31375
  0
LINE
  8
0
 10
0.518768
 20
1.31375
 11
0.572952
 21
1.23665
  0
LINE
  8
0
 10
0.572952
 20
1.23665
 11
0.629547
 21
1.16129
  0
LINE
  8
0
 10
0.629547
 20
1.16129
 11
0.688461
 21
1.08774
  0
LINE
  8
0
 10
0.688461
 20
1.08774
 11
0.74968
 21
1.01607
  0
LINE
  8
0
 10
0.74968
 20
1.01607
 11
0.813095
 21
0.946365
  0
LINE
  8
0
 10
0.813095
 20
0.946365
 11
0.878693
 21
0.878693
  0
LINE
  8
0
 10
0.878693
 20
0.878693
 11
0.946365
 21
0.813095
  0
LINE
  8
0
 10
0.946365
 20
0.813095
 11
1.01607
 21
0.74968
  0
LINE
  8
0
 10
1.01607
 20
0.74968
 11
1.08774
 21
0.688461
  0
LINE
  8
0
 10
1.08774
 20
0.688461
 11
1.16129
 21
0.629547
  0
LINE
  8
0
 10
1.16129
 20
0.629547
 11
1.23665
 21
0.572952
  0
LINE
  8
0
 10
1.23665
 20
0.572952
 11
1.31375
 21
0.518768
  0
LINE
  8
0
 10
1.31375
 20
0.518768
 11
1.39253
 21
0.467026
  0
LINE
  8
0
 10
1.39253
 20
0.467026
 11
1.47289
 21
0.417786
  0
LINE
  8
0
 10
1.47289
 20
0.417786
 11
1.55475
 21
0.371094
  0
LINE
  8
0
 10
1.55475
 20
0.371094
 11
1.63803
 21
0.326981
  0
LINE
  8
0
 10
1.63803
 20
0.326981
 11
1.72267
 21
0.285522
  0
LINE
  8
0
 10
1.72267
 20
0.285522
 11
1.80856
 21
0.24675
  0
LINE
  8
0
 10
1.80856
 20
0.24675
 11
1.89563
 21
0.210678
  0
LINE
  8
0
 10
1.89563
 20
0.210678
 11
1.9838
 21
0.177368
  0
LINE
  8
0
 10
1.9838
 20
0.177368
 11
2.07295
 21
0.146835
  0
LINE
  8
0
 10
2.07295
 20
0.146835
 11
2.16304
 21
0.119125
  0
LINE
  8
0
 10
2.16304
 20
0.119125
 11
2.25394
 21
0.0942535
  0
LINE
  8
0
 10
2.25394
 20
0.0942535
 11
2.34558
 21
0.0722504
  0
LINE
  8
0
 10
2.34558
 20
0.0722504
 11
2.43787
 21
0.0531464
  0
LINE
  8
0
 10
2.43787
 20
0.0531464
 11
2.5307
 21
0.0369415
  0
LINE
  8
0
 10
2.5307
 20
0.0369415
 11
2.62401
 21
0.0236664
  0
LINE
  8
0
 10
2.62401
 20
0.0236664
 11
2.71768
 21
0.0133209
  0
LINE
  8
0
 10
2.71768
 20
0.0133209
 11
2.81163
 21
0.00592041
  0
LINE
  8
0
 10
2.81163
 20
0.00592041
 11
2.90578
 21
0.00149536
  0
LINE
  8
0
 10
2.90578
 20
0.00149536
 11
3
 21
0
  0
LINE
  8
0
 10
3
 20
0
 11
79.2
 21
0
  0
LINE
  8
0
 10
79.2
 20
0
 11
79.2942
 21
0.00149536
  0
LINE
  8
0
 10
25.075
 20
62.675
 11
24.9882
 21
62.6826
  0
LINE
  8
0
 10
24.9882
 20
62.6826
 11
24.904
 21
62.7051
  0
LINE
  8
0
 10
24.904
 20
62.7051
 11
24.825
 21
62.742
  0
LINE
  8
0
 10
24.825
 20
62.742
 11
24.7536
 21
62.792
  0
LINE
  8
0
 10
24.7536
 20
62.792
 11
24.692
 21
62.8536
  0
LINE
  8
0
 10
24.692
 20
62.8536
 11
24.642
 21
62.925
  0
LINE
  8
0
 10
24.642
 20
62.925
 11
24.6051
 21
63.004
  0
LINE
  8
0
 10
24.6051
 20
63.004
 11
24.5826
 21
63.0882
  0
LINE
  8
0
 10
24.5826
 20
63.0882
 11
24.575
 21
63.175
  0
LINE
  8
0
 10
24.575
 20
63.175
 11
24.575
 21
76.175
  0
LINE
  8
0
 10
24.575
 20
76.175
 11
24.5826
 21
76.2618
  0
LINE
  8
0
 10
24.5826
 20
76.2618
 11
24.6051
 21
76.346
  0
LINE
  8
0
 10
24.6051
 20
76.346
 11
24.642
 21
76.425
  0
LINE
  8
0
 10
24.642
 20
76.425
 11
24.692
 21
76.4964
  0
LINE
  8
0
 10
24.692
 20
76.4964
 11
24.7536
 21
76.558
  0
LINE
  8
0
 10
24.7536
 20
76.558
 11
24.825
 21
76.608
  0
LINE
  8
0
 10
24.825
 20
76.608
 11
24.904
 21
76.6448
  0
LINE
  8
0
 10
24.904
 20
76.6448
 11
24.9882
 21
76.6674
  0
LINE
  8
0
 10
24.9882
 20
76.6674
 11
25.075
 21
76.675
  0
LINE
  8
0
 10
25.075
 20
76.675
 11
38.075
 21
76.675
  0
LINE
  8
0
 10
38.075
 20
76.675
 11
38.1618
 21
76.6674
  0
LINE
  8
0
 10
38.1618
 20
76.6674
 11
38.246
 21
76.6448
  0
LINE
  8
0
 10
38.246
 20
76.6448
 11
38.325
 21
76.608
  0
LINE
  8
0
 10
38.325
 20
76.608
 11
38.3964
 21
76.558
  0
LINE
  8
0
 10
38.3964
 20
76.558
 11
38.458
 21
76.4964
  0
LINE
  8
0
 10
38.458
 20
76.4964
 11
38.508
 21
76.425
  0
LINE
  8
0
 10
38.508
 20
76.425
 11
38.5448
 21
76.346
  0
LINE
  8
0
 10
38.5448
 20
76.346
 11
38.5674
 21
76.2618
  0
LINE
  8
0
 10
38.5674
 20
76.2618
 11
38.575
 21
76.175
  0
LINE
  8
0
 10
38.575
 20
76.175
 11
38.575
 21
63.175
  0
LINE
  8
0
 10
38.575
 20
63.175
 11
38.5674
 21
63.0882
  0
LINE
  8
0
 10
38.5674
 20
63.0882
 11
38.5448
 21
63.004
  0
LINE
  8
0
 10
38.5448
 20
63.004
 11
38.508
 21
62.925
  0
LINE
  8
0
 10
38.508
 20
62.925
 11
38.458
 21
62.8536
  0
LINE
  8
0
 10
38.458
 20
62.8536
 11
38.3964
 21
62.792
  0
LINE
  8
0
 10
38.3964
 20
62.792
 11
38.325
 21
62.742
  0
LINE
  8
0
 10
38.325
 20
62.742
 11
38.246
 21
62.7051
  0
LINE
  8
0
 10
38.246
 20
62.7051
 11
38.1618
 21
62.6826
  0
LINE
  8
0
 10
38.1618
 20
62.6826
 11
38.075
 21
62.675
  0
LINE
  8
0
 10
38.075
 20
62.675
 11
25.075
 21
62.675
  0
LINE
  8
0
 10
6.02499
 20
62.675
 11
5.93817
 21
62.6826
  0
LINE
  8
0
 10
5.93817
 20
62.6826
 11
5.85399
 21
62.7051
  0
LINE
  8
0
 10
5.85399
 20
62.7051
 11
5.77499
 21
62.742
  0
LINE
  8
0
 10
5.77499
 20
62.742
 11
5.7036
 21
62.792
  0
LINE
  8
0
 10
5.7036
 20
62.792
 11
5.64197
 21
62.8536
  0
LINE
  8
0
 10
5.64197
 20
62.8536
 11
5.59198
 21
62.925
  0
LINE
  8
0
 10
5.59198
 20
62.925
 11
5.55515
 21
63.004
  0
LINE
  8
0
 10
5.55515
 20
63.004
 11
5.53259
 21
63.0882
  0
LINE
  8
0
 10
5.53259
 20
63.0882
 11
5.52499
 21
63.175
  0
LINE
  8
0
 10
5.52499
 20
63.175
 11
5.52499
 21
76.175
  0
LINE
  8
0
 10
5.52499
 20
76.175
 11
5.53259
 21
76.2618
  0
LINE
  8
0
 10
5.53259
 20
76.2618
 11
5.55515
 21
76.346
  0
LINE
  8
0
 10
5.55515
 20
76.346
 11
5.59198
 21
76.425
  0
LINE
  8
0
 10
5.59198
 20
76.425
 11
5.64197
 21
76.4964
  0
LINE
  8
0
 10
5.64197
 20
76.4964
 11
5.7036
 21
76.558
  0
LINE
  8
0
 10
5.7036
 20
76.558
 11
5.77499
 21
76.608
  0
LINE
  8
0
 10
5.77499
 20
76.608
 11
5.85399
 21
76.6448
  0
LINE
  8
0
 10
5.85399
 20
76.6448
 11
5.93817
 21
76.6674
  0
LINE
  8
0
 10
5.93817
 20
76.6674
 11
6.02499
 21
76.675
  0
LINE
  8
0
 10
6.02499
 20
76.675
 11
19.025
 21
76.675
  0
LINE
  8
0
 10
19.025
 20
76.675
 11
19.1118
 21
76.6674
  0
LINE
  8
0
 10
19.1118
 20
76.6674
 11
19.196
 21
76.6448
  0
LINE
  8
0
 10
19.196
 20
76.6448
 11
19.275
 21
76.608
  0
LINE
  8
0
 10
19.275
 20
76.608
 11
19.3464
 21
76.558
  0
LINE
  8
0
 10
19.3464
 20
76.558
 11
19.408
 21
76.4964
  0
LINE
  8
0
 10
19.408
 20
76.4964
 11
19.458
 21
76.425
  0
LINE
  8
0
 10
19.458
 20
76.425
 11
19.4948
 21
76.346
  0
LINE
  8
0
 10
19.4948
 20
76.346
 11
19.5174
 21
76.2618
  0
LINE
  8
0
 10
19.5174
 20
76.2618
 11
19.525
 21
76.175
  0
LINE
  8
0
 10
19.525
 20
76.175
 11
19.525
 21
63.175
  0
LINE
  8
0
 10
19.525
 20
63.175
 11
19.5174
 21
63.0882
  0
LINE
  8
0
 10
19.5174
 20
63.0882
 11
19.4948
 21
63.004
  0
LINE
  8
0
 10
19.4948
 20
63.004
 11
19.458
 21
62.925
  0
LINE
  8
0
 10
19.458
 20
62.925
 11
19.408
 21
62.8536
  0
LINE
  8
0
 10
19.408
 20
62.8536
 11
19.3464
 21
62.792
  0
LINE
  8
0
 10
19.3464
 20
62.792
 11
19.275
 21
62.742
  0
LINE
  8
0
 10
19.275
 20
62.742
 11
19.196
 21
62.7051
  0
LINE
  8
0
 10
19.196
 20
62.7051
 11
19.1118
 21
62.6826
  0
LINE
  8
0
 10
19.1118
 20
62.6826
 11
19.025
 21
62.675
  0
LINE
  8
0
 10
19.025
 20
62.675
 11
6.02499
 21
62.675
  0
LINE
  8
0
 10
44.125
 20
62.675
 11
44.0382
 21
62.6826
  0
LINE
  8
0
 10
44.0382
 20
62.6826
 11
43.954
 21
62.7051
  0
LINE
  8
0
 10
43.954
 20
62.7051
 11
43.875
 21
62.742
  0
LINE
  8
0
 10
43.875
 20
62.742
 11
43.8036
 21
62.792
  0
LINE
  8
0
 10
43.8036
 20
62.792
 11
43.742
 21
62.8536
  0
LINE
  8
0
 10
43.742
 20
62.8536
 11
43.692
 21
62.925
  0
LINE
  8
0
 10
43.692
 20
62.925
 11
43.6552
 21
63.004
  0
LINE
  8
0
 10
43.6552
 20
63.004
 11
43.6326
 21
63.0882
  0
LINE
  8
0
 10
43.6326
 20
63.0882
 11
43.625
 21
63.175
  0
LINE
  8
0
 10
43.625
 20
63.175
 11
43.625
 21
76.175
  0
LINE
  8
0
 10
43.625
 20
76.175
 11
43.6326
 21
76.2618
  0
LINE
  8
0
 10
43.6326
 20
76.2618
 11
43.6552
 21
76.346
  0
LINE
  8
0
 10
43.6552
 20
76.346
 11
43.692
 21
76.425
  0
LINE
  8
0
 10
43.692
 20
76.425
 11
43.742
 21
76.4964
  0
LINE
  8
0
 10
43.742
 20
76.4964
 11
43.8036
 21
76.558
  0
LINE
  8
0
 10
43.8036
 20
76.558
 11
43.875
 21
76.608
  0
LINE
  8
0
 10
43.875
 20
76.608
 11
43.954
 21
76.6448
  0
LINE
  8
0
 10
43.954
 20
76.6448
 11
44.0382
 21
76.6674
  0
LINE
  8
0
 10
44.0382
 20
76.6674
 11
44.125
 21
76.675
  0
LINE
  8
0
 10
44.125
 20
76.675
 11
57.125
 21
76.675
  0
LINE
  8
0
 10
57.125
 20
76.675
 11
57.2118
 21
76.6674
  0
LINE
  8
0
 10
57.2118
 20
76.6674
 11
57.296
 21
76.6448
  0
LINE
  8
0
 10
57.296
 20
76.6448
 11
57.375
 21
76.608
  0
LINE
  8
0
 10
57.375
 20
76.608
 11
57.4464
 21
76.558
  0
LINE
  8
0
 10
57.4464
 20
76.558
 11
57.508
 21
76.4964
  0
LINE
  8
0
 10
57.508
 20
76.4964
 11
57.558
 21
76.425
  0
LINE
  8
0
 10
57.558
 20
76.425
 11
57.5948
 21
76.346
  0
LINE
  8
0
 10
57.5948
 20
76.346
 11
57.6174
 21
76.2618
  0
LINE
  8
0
 10
57.6174
 20
76.2618
 11
57.625
 21
76.175
  0
LINE
  8
0
 10
57.625
 20
76.175
 11
57.625
 21
63.175
  0
LINE
  8
0
 10
57.625
 20
63.175
 11
57.6174
 21
63.0882
  0
LINE
  8
0
 10
57.6174
 20
63.0882
 11
57.5948
 21
63.004
  0
LINE
  8
0
 10
57.5948
 20
63.004
 11
57.558
 21
62.925
  0
LINE
  8
0
 10
57.558
 20
62.925
 11
57.508
 21
62.8536
  0
LINE
  8
0
 10
57.508
 20
62.8536
 11
57.4464
 21
62.792
  0
LINE
  8
0
 10
57.4464
 20
62.792
 11
57.375
 21
62.742
  0
LINE
  8
0
 10
57.375
 20
62.742
 11
57.296
 21
62.7051
  0
LINE
  8
0
 10
57.296
 20
62.7051
 11
57.2118
 21
62.6826
  0
LINE
  8
0
 10
57.2118
 20
62.6826
 11
57.125
 21
62.675
  0
LINE
  8
0
 10
57.125
 20
62.675
 11
44.125
 21
62.675
  0
LINE
  8
0
 10
63.175
 20
62.675
 11
63.0882
 21
62.6826
  0
LINE
  8
0
 10
63.0882
 20
62.6826
 11
63.004
 21
62.7051
  0
LINE
  8
0
 10
63.004
 20
62.7051
 11
62.925
 21
62.742
  0
LINE
  8
0
 10
62.925
 20
62.742
 11
62.8536
 21
62.792
  0
LINE
  8
0
 10
62.8536
 20
62.792
 11
62.792
 21
62.8536
  0
LINE
  8
0
 10
62.792
 20
62.8536
 11
62.742
 21
62.925
  0
LINE
  8
0
 10
62.742
 20
62.925
 11
62.7051
 21
63.004
  0
LINE
  8
0
 10
62.7051
 20
63.004
 11
62.6826
 21
63.0882
  0
LINE
  8
0
 10
62.6826
 20
63.0882
 11
62.675
 21
63.175
  0
LINE
  8
0
 10
62.675
 20
63.175
 11
62.675
 21
76.175
  0
LINE
  8
0
 10
62.675
 20
76.175
 11
62.6826
 21
76.2618
  0
LINE
  8
0
 10
62.6826
 20
76.2618
 11
62.7051
 21
76.346
  0
LINE
  8
0
 10
62.7051
 20
76.346
 11
62.742
 21
76.425
  0
LINE
  8
0
 10
62.742
 20
76.425
 11
62.792
 21
76.4964
  0
LINE
  8
0
 10
62.792
 20
76.4964
 11
62.8536
 21
76.558
  0
LINE
  8
0
 10
62.8536
 20
76.558
 11
62.925
 21
76.608
  0
LINE
  8
0
 10
62.925
 20
76.608
 11
63.004
 21
76.6448
  0
LINE
  8
0
 10
63.004
 20
76.6448
 11
63.0882
 21
76.6674
  0
LINE
  8
0
 10
63.0882
 20
76.6674
 11
63.175
 21
76.675
  0
LINE
  8
0
 10
63.175
 20
76.675
 11
76.175
 21
76.675
  0
LINE
  8
0
 10
76.175
 20
76.675
 11
76.2618
 21
76.6674
  0
LINE
  8
0
 10
76.2618
 20
76.6674
 11
76.346
 21
76.6448
  0
LINE
  8
0
 10
76.346
 20
76.6448
 11
76.425
 21
76.608
  0
LINE
  8
0
 10
76.425
 20
76.608
 11
76.4964
 21
76.558
  0
LINE
  8
0
 10
76.4964
 20
76.558
 11
76.558
 21
76.4964
  0
LINE
  8
0
 10
76.558
 20
76.4964
 11
76.608
 21
76.425
  0
LINE
  8
0
 10
76.608
 20
76.425
 11
76.6448
 21
76.346
  0
LINE
  8
0
 10
76.6448
 20
76.346
 11
76.6674
 21
76.2618
  0
LINE
  8
0
 10
76.6674
 20
76.2618
 11
76.675
 21
76.175
  0
LINE
  8
0
 10
76.675
 20
76.175
 11
76.675
 21
63.175
  0
LINE
  8
0
 10
76.675
 20
63.175
 11
76.6674
 21
63.0882
  0
LINE
  8
0
 10
76.6674
 20
63.0882
 11
76.6448
 21
63.004
  0
LINE
  8
0
 10
76.6448
 20
63.004
 11
76.608
 21
62.925
  0
LINE
  8
0
 10
76.608
 20
62.925
 11
76.558
 21
62.8536
  0
LINE
  8
0
 10
76.558
 20
62.8536
 11
76.4964
 21
62.792
  0
LINE
  8
0
 10
76.4964
 20
62.792
 11
76.425
 21
62.742
  0
LINE
  8
0
 10
76.425
 20
62.742
 11
76.346
 21
62.7051
  0
LINE
  8
0
 10
76.346
 20
62.7051
 11
76.2618
 21
62.6826
  0
LINE
  8
0
 10
76.2618
 20
62.6826
 11
76.175
 21
62.675
  0
LINE
  8
0
 10
76.175
 20
62.675
 11
63.175
 21
62.675
  0
LINE
  8
0
 10
63.175
 20
43.625
 11
63.0882
 21
43.6326
  0
LINE
  8
0
 10
63.0882
 20
43.6326
 11
63.004
 21
43.6552
  0
LINE
  8
0
 10
63.004
 20
43.6552
 11
62.925
 21
43.692
  0
LINE
  8
0
 10
62.925
 20
43.692
 11
62.8536
 21
43.742
  0
LINE
  8
0
 10
62.8536
 20
43.742
 11
62.792
 21
43.8036
  0
LINE
  8
0
 10
62.792
 20
43.8036
 11
62.742
 21
43.875
  0
LINE
  8
0
 10
62.742
 20
43.875
 11
62.7051
 21
43.954
  0
LINE
  8
0
 10
62.7051
 20
43.954
 11
62.6826
 21
44.0382
  0
LINE
  8
0
 10
62.6826
 20
44.0382
 11
62.675
 21
44.125
  0
LINE
  8
0
 10
62.675
 20
44.125
 11
62.675
 21
57.125
  0
LINE
  8
0
 10
62.675
 20
57.125
 11
62.6826
 21
57.2118
  0
LINE
  8
0
 10
62.6826
 20
57.2118
 11
62.7051
 21
57.296
  0
LINE
  8
0
 10
62.7051
 20
57.296
 11
62.742
 21
57.375
  0
LINE
  8
0
 10
62.742
 20
57.375
 11
62.792
 21
57.4464
  0
LINE
  8
0
 10
62.792
 20
57.4464
 11
62.8536
 21
57.508
  0
LINE
  8
0
 10
62.8536
 20
57.508
 11
62.925
 21
57.558
  0
LINE
  8
0
 10
62.925
 20
57.558
 11
63.004
 21
57.5948
  0
LINE
  8
0
 10
63.004
 20
57.5948
 11
63.0882
 21
57.6174
  0
LINE
  8
0
 10
63.0882
 20
57.6174
 11
63.175
 21
57.625
  0
LINE
  8
0
 10
63.175
 20
57.625
 11
76.175
 21
57.625
  0
LINE
  8
0
 10
76.175
 20
57.625
 11
76.2618
 21
57.6174
  0
LINE
  8
0
 10
76.2618
 20
57.6174
 11
76.346
 21
57.5948
  0
LINE
  8
0
 10
76.346
 20
57.5948
 11
76.425
 21
57.558
  0
LINE
  8
0
 10
76.425
 20
57.558
 11
76.4964
 21
57.508
  0
LINE
  8
0
 10
76.4964
 20
57.508
 11
76.558
 21
57.4464
  0
LINE
  8
0
 10
76.558
 20
57.4464
 11
76.608
 21
57.375
  0
LINE
  8
0
 10
76.608
 20
57.375
 11
76.6448
 21
57.296
  0
LINE
  8
0
 10
76.6448
 20
57.296
 11
76.6674
 21
57.2118
  0
LINE
  8
0
 10
76.6674
 20
57.2118
 11
76.675
 21
57.125
  0
LINE
  8
0
 10
76.675
 20
57.125
 11
76.675
 21
44.125
  0
LINE
  8
0
 10
76.675
 20
44.125
 11
76.6674
 21
44.0382
  0
LINE
  8
0
 10
76.6674
 20
44.0382
 11
76.6448
 21
43.954
  0
LINE
  8
0
 10
76.6448
 20
43.954
 11
76.608
 21
43.875
  0
LINE
  8
0
 10
76.608
 20
43.875
 11
76.558
 21
43.8036
  0
LINE
  8
0
 10
76.558
 20
43.8036
 11
76.4964
 21
43.742
  0
LINE
  8
0
 10
76.4964
 20
43.742
 11
76.425
 21
43.692
  0
LINE
  8
0
 10
76.425
 20
43.692
 11
76.346
 21
43.6552
  0
LINE
  8
0
 10
76.346
 20
43.6552
 11
76.2618
 21
43.6326
  0
LINE
  8
0
 10
76.2618
 20
43.6326
 11
76.175
 21
43.625
  0
LINE
  8
0
 10
76.175
 20
43.625
 11
63.175
 21
43.625
  0
LINE
  8
0
 10
44.125
 20
43.625
 11
44.0382
 21
43.6326
  0
LINE
  8
0
 10
44.0382
 20
43.6326
 11
43.954
 21
43.6552
  0
LINE
  8
0
 10
43.954
 20
43.6552
 11
43.875
 21
43.692
  0
LINE
  8
0
 10
43.875
 20
43.692
 11
43.8036
 21
43.742
  0
LINE
  8
0
 10
43.8036
 20
43.742
 11
43.742
 21
43.8036
  0
LINE
  8
0
 10
43.742
 20
43.8036
 11
43.692
 21
43.875
  0
LINE
  8
0
 10
43.692
 20
43.875
 11
43.6552
 21
43.954
  0
LINE
  8
0
 10
43.6552
 20
43.954
 11
43.6326
 21
44.0382
  0
LINE
  8
0
 10
43.6326
 20
44.0382
 11
43.625
 21
44.125
  0
LINE
  8
0
 10
43.625
 20
44.125
 11
43.625
 21
57.125
  0
LINE
  8
0
 10
43.625
 20
57.125
 11
43.6326
 21
57.2118
  0
LINE
  8
0
 10
43.6326
 20
57.2118
 11
43.6552
 21
57.296
  0
LINE
  8
0
 10
43.6552
 20
57.296
 11
43.692
 21
57.375
  0
LINE
  8
0
 10
43.692
 20
57.375
 11
43.742
 21
57.4464
  0
LINE
  8
0
 10
43.742
 20
57.4464
 11
43.8036
 21
57.508
  0
LINE
  8
0
 10
43.8036
 20
57.508
 11
43.875
 21
57.558
  0
LINE
  8
0
 10
43.875
 20
57.558
 11
43.954
 21
57.5948
  0
LINE
  8
0
 10
43.954
 20
57.5948
 11
44.0382
 21
57.6174
  0
LINE
  8
0
 10
44.0382
 20
57.6174
 11
44.125
 21
57.625
  0
LINE
  8
0
 10
44.125
 20
57.625
 11
57.125
 21
57.625
  0
LINE
  8
0
 10
57.125
 20
57.625
 11
57.2118
 21
57.6174
  0
LINE
  8
0
 10
57.2118
 20
57.6174
 11
57.296
 21
57.5948
  0
LINE
  8
0
 10
57.296
 20
57.5948
 11
57.375
 21
57.558
  0
LINE
  8
0
 10
57.375
 20
57.558
 11
57.4464
 21
57.508
  0
LINE
  8
0
 10
57.4464
 20
57.508
 11
57.508
 21
57.4464
  0
LINE
  8
0
 10
57.508
 20
57.4464
 11
57.558
 21
57.375
  0
LINE
  8
0
 10
57.558
 20
57.375
 11
57.5948
 21
57.296
  0
LINE
  8
0
 10
57.5948
 20
57.296
 11
57.6174
 21
57.2118
  0
LINE
  8
0
 10
57.6174
 20
57.2118
 11
57.625
 21
57.125
  0
LINE
  8
0
 10
57.625
 20
57.125
 11
57.625
 21
44.125
  0
LINE
  8
0
 10
57.625
 20
44.125
 11
57.6174
 21
44.0382
  0
LINE
  8
0
 10
57.6174
 20
44.0382
 11
57.5948
 21
43.954
  0
LINE
  8
0
 10
57.5948
 20
43.954
 11
57.558
 21
43.875
  0
LINE
  8
0
 10
57.558
 20
43.875
 11
57.508
 21
43.8036
  0
LINE
  8
0
 10
57.508
 20
43.8036
 11
57.4464
 21
43.742
  0
LINE
  8
0
 10
57.4464
 20
43.742
 11
57.375
 21
43.692
  0
LINE
  8
0
 10
57.375
 20
43.692
 11
57.296
 21
43.6552
  0
LINE
  8
0
 10
57.296
 20
43.6552
 11
57.2118
 21
43.6326
  0
LINE
  8
0
 10
57.2118
 20
43.6326
 11
57.125
 21
43.625
  0
LINE
  8
0
 10
57.125
 20
43.625
 11
44.125
 21
43.625
  0
LINE
  8
0
 10
25.075
 20
43.625
 11
24.9882
 21
43.6326
  0
LINE
  8
0
 10
24.9882
 20
43.6326
 11
24.904
 21
43.6552
  0
LINE
  8
0
 10
24.904
 20
43.6552
 11
24.825
 21
43.692
  0
LINE
  8
0
 10
24.825
 20
43.692
 11
24.7536
 21
43.742
  0
LINE
  8
0
 10
24.7536
 20
43.742
 11
24.692
 21
43.8036
  0
LINE
  8
0
 10
24.692
 20
43.8036
 11
24.642
 21
43.875
  0
LINE
  8
0
 10
24.642
 20
43.875
 11
24.6051
 21
43.954
  0
LINE
  8
0
 10
24.6051
 20
43.954
 11
24.5826
 21
44.0382
  0
LINE
  8
0
 10
24.5826
 20
44.0382
 11
24.575
 21
44.125
  0
LINE
  8
0
 10
24.575
 20
44.125
 11
24.575
 21
57.125
  0
LINE
  8
0
 10
24.575
 20
57.125
 11
24.5826
 21
57.2118
  0
LINE
  8
0
 10
24.5826
 20
57.2118
 11
24.6051
 21
57.296
  0
LINE
  8
0
 10
24.6051
 20
57.296
 11
24.642
 21
57.375
  0
LINE
  8
0
 10
24.642
 20
57.375
 11
24.692
 21
57.4464
  0
LINE
  8
0
 10
24.692
 20
57.4464
 11
24.7536
 21
57.508
  0
LINE
  8
0
 10
24.7536
 20
57.508
 11
24.825
 21
57.558
  0
LINE
  8
0
 10
24.825
 20
57.558
 11
24.904
 21
57.5948
  0
LINE
  8
0
 10
24.904
 20
57.5948
 11
24.9882
 21
57.6174
  0
LINE
  8
0
 10
24.9882
 20
57.6174
 11
25.075
 21
57.625
  0
LINE
  8
0
 10
25.075
 20
57.625
 11
38.075
 21
57.625
  0
LINE
  8
0
 10
38.075
 20
57.625
 11
38.1618
 21
57.6174
  0
LINE
  8
0
 10
38.1618
 20
57.6174
 11
38.246
 21
57.5948
  0
LINE
  8
0
 10
38.246
 20
57.5948
 11
38.325
 21
57.558
  0
LINE
  8
0
 10
38.325
 20
57.558
 11
38.3964
 21
57.508
  0
LINE
  8
0
 10
38.3964
 20
57.508
 11
38.458
 21
57.4464
  0
LINE
  8
0
 10
38.458
 20
57.4464
 11
38.508
 21
57.375
  0
LINE
  8
0
 10
38.508
 20
57.375
 11
38.5448
 21
57.296
  0
LINE
  8
0
 10
38.5448
 20
57.296
 11
38.5674
 21
57.2118
  0
LINE
  8
0
 10
38.5674
 20
57.2118
 11
38.575
 21
57.125
  0
LINE
  8
0
 10
38.575
 20
57.125
 11
38.575
 21
44.125
  0
LINE
  8
0
 10
38.575
 20
44.125
 11
38.5674
 21
44.0382
  0
LINE
  8
0
 10
38.5674
 20
44.0382
 11
38.5448
 21
43.954
  0
LINE
  8
0
 10
38.5448
 20
43.954
 11
38.508
 21
43.875
  0
LINE
  8
0
 10
38.508
 20
43.875
 11
38.458
 21
43.8036
  0
LINE
  8
0
 10
38.458
 20
43.8036
 11
38.3964
 21
43.742
  0
LINE
  8
0
 10
38.3964
 20
43.742
 11
38.325
 21
43.692
  0
LINE
  8
0
 10
38.325
 20
43.692
 11
38.246
 21
43.6552
  0
LINE
  8
0
 10
38.246
 20
43.6552
 11
38.1618
 21
43.6326
  0
LINE
  8
0
 10
38.1618
 20
43.6326
 11
38.075
 21
43.625
  0
LINE
  8
0
 10
38.075
 20
43.625
 11
25.075
 21
43.625
  0
LINE
  8
0
 10
6.02499
 20
43.625
 11
5.93817
 21
43.6326
  0
LINE
  8
0
 10
5.93817
 20
43.6326
 11
5.85399
 21
43.6552
  0
LINE
  8
0
 10
5.85399
 20
43.6552
 11
5.77499
 21
43.692
  0
LINE
  8
0
 10
5.77499
 20
43.692
 11
5.7036
 21
43.742
  0
LINE
  8
0
 10
5.7036
 20
43.742
 11
5.64197
 21
43.8036
  0
LINE
  8
0
 10
5.64197
 20
43.8036
 11
5.59198
 21
43.875
  0
LINE
  8
0
 10
5.59198
 20
43.875
 11
5.55515
 21
43.954
  0
LINE
  8
0
 10
5.55515
 20
43.954
 11
5.53259
 21
44.0382
  0
LINE
  8
0
 10
5.53259
 20
44.0382
 11
5.52499
 21
44.125
  0
LINE
  8
0
 10
5.52499
 20
44.125
 11
5.52499
 21
57.125
  0
LINE
  8
0
 10
5.52499
 20
57.125
 11
5.53259
 21
57.2118
  0
LINE
  8
0
 10
5.53259
 20
57.2118
 11
5.55515
 21
57.296
  0
LINE
  8
0
 10
5.55515
 20
57.296
 11
5.59198
 21
57.375
  0
LINE
  8
0
 10
5.59198
 20
57.375
 11
5.64197
 21
57.4464
  0
LINE
  8
0
 10
5.64197
 20
57.4464
 11
5.7036
 21
57.508
  0
LINE
  8
0
 10
5.7036
 20
57.508
 11
5.77499
 21
57.558
  0
LINE
  8
0
 10
5.77499
 20
57.558
 11
5.85399
 21
57.5948
  0
LINE
  8
0
 10
5.85399
 20
57.5948
 11
5.93817
 21
57.6174
  0
LINE
  8
0
 10
5.93817
 20
57.6174
 11
6.02499
 21
57.625
  0
LINE
  8
0
 10
6.02499
 20
57.625
 11
19.025
 21
57.625
  0
LINE
  8
0
 10
19.025
 20
57.625
 11
19.1118
 21
57.6174
  0
LINE
  8
0
 10
19.1118
 20
57.6174
 11
19.196
 21
57.5948
  0
LINE
  8
0
 10
19.196
 20
57.5948
 11
19.275
 21
57.558
  0
LINE
  8
0
 10
19.275
 20
57.558
 11
19.3464
 21
57.508
  0
LINE
  8
0
 10
19.3464
 20
57.508
 11
19.408
 21
57.4464
  0
LINE
  8
0
 10
19.408
 20
57.4464
 11
19.458
 21
57.375
  0
LINE
  8
0
 10
19.458
 20
57.375
 11
19.4948
 21
57.296
  0
LINE
  8
0
 10
19.4948
 20
57.296
 11
19.5174
 21
57.2118
  0
LINE
  8
0
 10
19.5174
 20
57.2118
 11
19.525
 21
57.125
  0
LINE
  8
0
 10
19.525
 20
57.125
 11
19.525
 21
44.125
  0
LINE
  8
0
 10
19.525
 20
44.125
 11
19.5174
 21
44.0382
  0
LINE
  8
0
 10
19.5174
 20
44.0382
 11
19.4948
 21
43.954
  0
LINE
  8
0
 10
19.4948
 20
43.954
 11
19.458
 21
43.875
  0
LINE
  8
0
 10
19.458
 20
43.875
 11
19.408
 21
43.8036
  0
LINE
  8
0
 10
19.408
 20
43.8036
 11
19.3464
 21
43.742
  0
LINE
  8
0
 10
19.3464
 20
43.742
 11
19.275
 21
43.692
  0
LINE
  8
0
 10
19.275
 20
43.692
 11
19.196
 21
43.6552
  0
LINE
  8
0
 10
19.196
 20
43.6552
 11
19.1118
 21
43.6326
  0
LINE
  8
0
 10
19.1118
 20
43.6326
 11
19.025
 21
43.625
  0
LINE
  8
0
 10
19.025
 20
43.625
 11
6.02499
 21
43.625
  0
LINE
  8
0
 10
44.125
 20
24.575
 11
44.0382
 21
24.5826
  0
LINE
  8
0
 10
44.0382
 20
24.5826
 11
43.954
 21
24.6051
  0
LINE
  8
0
 10
43.954
 20
24.6051
 11
43.875
 21
24.642
  0
LINE
  8
0
 10
43.875
 20
24.642
 11
43.8036
 21
24.692
  0
LINE
  8
0
 10
43.8036
 20
24.692
 11
43.742
 21
24.7536
  0
LINE
  8
0
 10
43.742
 20
24.7536
 11
43.692
 21
24.825
  0
LINE
  8
0
 10
43.692
 20
24.825
 11
43.6552
 21
24.904
  0
LINE
  8
0
 10
43.6552
 20
24.904
 11
43.6326
 21
24.9882
  0
LINE
  8
0
 10
43.6326
 20
24.9882
 11
43.625
 21
25.075
  0
LINE
  8
0
 10
43.625
 20
25.075
 11
43.625
 21
38.075
  0
LINE
  8
0
 10
43.625
 20
38.075
 11
43.6326
 21
38.1618
  0
LINE
  8
0
 10
43.6326
 20
38.1618
 11
43.6552
 21
38.246
  0
LINE
  8
0
 10
43.6552
 20
38.246
 11
43.692
 21
38.325
  0
LINE
  8
0
 10
43.692
 20
38.325
 11
43.742
 21
38.3964
  0
LINE
  8
0
 10
43.742
 20
38.3964
 11
43.8036
 21
38.458
  0
LINE
  8
0
 10
43.8036
 20
38.458
 11
43.875
 21
38.508
  0
LINE
  8
0
 10
43.875
 20
38.508
 11
43.954
 21
38.5448
  0
LINE
  8
0
 10
43.954
 20
38.5448
 11
44.0382
 21
38.5674
  0
LINE
  8
0
 10
44.0382
 20
38.5674
 11
44.125
 21
38.575
  0
LINE
  8
0
 10
44.125
 20
38.575
 11
57.125
 21
38.575
  0
LINE
  8
0
 10
57.125
 20
38.575
 11
57.2118
 21
38.5674
  0
LINE
  8
0
 10
57.2118
 20
38.5674
 11
57.296
 21
38.5448
  0
LINE
  8
0
 10
57.296
 20
38.5448
 11
57.375
 21
38.508
  0
LINE
  8
0
 10
57.375
 20
38.508
 11
57.4464
 21
38.458
  0
LINE
  8
0
 10
57.4464
 20
38.458
 11
57.508
 21
38.3964
  0
LINE
  8
0
 10
57.508
 20
38.3964
 11
57.558
 21
38.325
  0
LINE
  8
0
 10
57.558
 20
38.325
 11
57.5948
 21
38.246
  0
LINE
  8
0
 10
57.5948
 20
38.246
 11
57.6174
 21
38.1618
  0
LINE
  8
0
 10
57.6174
 20
38.1618
 11
57.625
 21
38.075
  0
LINE
  8
0
 10
57.625
 20
38.075
 11
57.625
 21
25.075
  0
LINE
  8
0
 10
57.625
 20
25.075
 11
57.6174
 21
24.9882
  0
LINE
  8
0
 10
57.6174
 20
24.9882
 11
57.5948
 21
24.904
  0
LINE
  8
0
 10
57.5948
 20
24.904
 11
57.558
 21
24.825
  0
LINE
  8
0
 10
57.558
 20
24.825
 11
57.508
 21
24.7536
  0
LINE
  8
0
 10
57.508
 20
24.7536
 11
57.4464
 21
24.692
  0
LINE
  8
0
 10
57.4464
 20
24.692
 11
57.375
 21
24.642
  0
LINE
  8
0
 10
57.375
 20
24.642
 11
57.296
 21
24.6051
  0
LINE
  8
0
 10
57.296
 20
24.6051
 11
57.2118
 21
24.5826
  0
LINE
  8
0
 10
57.2118
 20
24.5826
 11
57.125
 21
24.575
  0
LINE
  8
0
 10
57.125
 20
24.575
 11
44.125
 21
24.575
  0
LINE
  8
0
 10
6.02499
 20
24.575
 11
5.93817
 21
24.5826
  0
LINE
  8
0
 10
5.93817
 20
24.5826
 11
5.85399
 21
24.6051
  0
LINE
  8
0
 10
5.85399
 20
24.6051
 11
5.77499
 21
24.642
  0
LINE
  8
0
 10
5.77499
 20
24.642
 11
5.7036
 21
24.692
  0
LINE
  8
0
 10
5.7036
 20
24.692
 11
5.64197
 21
24.7536
  0
LINE
  8
0
 10
5.64197
 20
24.7536
 11
5.59198
 21
24.825
  0
LINE
  8
0
 10
5.59198
 20
24.825
 11
5.55515
 21
24.904
  0
LINE
  8
0
 10
5.55515
 20
24.904
 11
5.53259
 21
24.9882
  0
LINE
  8
0
 10
5.53259
 20
24.9882
 11
5.52499
 21
25.075
  0
LINE
  8
0
 10
5.52499
 20
25.075
 11
5.52499
 21
38.075
  0
LINE
  8
0
 10
5.52499
 20
38.075
 11
5.53259
 21
38.1618
  0
LINE
  8
0
 10
5.53259
 20
38.1618
 11
5.55515
 21
38.246
  0
LINE
  8
0
 10
5.55515
 20
38.246
 11
5.59198
 21
38.325
  0
LINE
  8
0
 10
5.59198
 20
38.325
 11
5.64197
 21
38.3964
  0
LINE
  8
0
 10
5.64197
 20
38.3964
 11
5.7036
 21
38.458
  0
LINE
  8
0
 10
5.7036
 20
38.458
 11
5.77499
 21
38.508
  0
LINE
  8
0
 10
5.77499
 20
38.508
 11
5.85399
 21
38.5448
  0
LINE
  8
0
 10
5.85399
 20
38.5448
 11
5.93817
 21
38.5674
  0
LINE
  8
0
 10
5.93817
 20
38.5674
 11
6.02499
 21
38.575
  0
LINE
  8
0
 10
6.02499
 20
38.575
 11
19.025
 21
38.575
  0
LINE
  8
0
 10
19.025
 20
38.575
 11
19.1118
 21
38.5674
  0
LINE
  8
0
 10
19.1118
 20
38.5674
 11
19.196
 21
38.5448
  0
LINE
  8
0
 10
19.196
 20
38.5448
 11
19.275
 21
38.508
  0
LINE
  8
0
 10
19.275
 20
38.508
 11
19.3464
 21
38.458
  0
LINE
  8
0
 10
19.3464
 20
38.458
 11
19.408
 21
38.3964
  0
LINE
  8
0
 10
19.408
 20
38.3964
 11
19.458
 21
38.325
  0
LINE
  8
0
 10
19.458
 20
38.325
 11
19.4948
 21
38.246
  0
LINE
  8
0
 10
19.4948
 20
38.246
 11
19.5174
 21
38.1618
  0
LINE
  8
0
 10
19.5174
 20
38.1618
 11
19.525
 21
38.075
  0
LINE
  8
0
 10
19.525
 20
38.075
 11
19.525
 21
25.075
  0
LINE
  8
0
 10
19.525
 20
25.075
 11
19.5174
 21
24.9882
  0
LINE
  8
0
 10
19.5174
 20
24.9882
 11
19.4948
 21
24.904
  0
LINE
  8
0
 10
19.4948
 20
24.904
 11
19.458
 21
24.825
  0
LINE
  8
0
 10
19.458
 20
24.825
 11
19.408
 21
24.7536
  0
LINE
  8
0
 10
19.408
 20
24.7536
 11
19.3464
 21
24.692
  0
LINE
  8
0
 10
19.3464
 20
24.692
 11
19.275
 21
24.642
  0
LINE
  8
0
 10
19.275
 20
24.642
 11
19.196
 21
24.6051
  0
LINE
  8
0
 10
19.196
 20
24.6051
 11
19.1118
 21
24.5826
  0
LINE
  8
0
 10
19.1118
 20
24.5826
 11
19.025
 21
24.575
  0
LINE
  8
0
 10
19.025
 20
24.575
 11
6.02499
 21
24.575
  0
LINE
  8
0
 10
63.175
 20
24.575
 11
63.0882
 21
24.5826
  0
LINE
  8
0
 10
63.0882
 20
24.5826
 11
63.004
 21
24.6051
  0
LINE
  8
0
 10
63.004
 20
24.6051
 11
62.925
 21
24.642
  0
LINE
  8
0
 10
62.925
 20
24.642
 11
62.8536
 21
24.692
  0
LINE
  8
0
 10
62.8536
 20
24.692
 11
62.792
 21
24.7536
  0
LINE
  8
0
 10
62.792
 20
24.7536
 11
62.742
 21
24.825
  0
LINE
  8
0
 10
62.742
 20
24.825
 11
62.7051
 21
24.904
  0
LINE
  8
0
 10
62.7051
 20
24.904
 11
62.6826
 21
24.9882
  0
LINE
  8
0
 10
62.6826
 20
24.9882
 11
62.675
 21
25.075
  0
LINE
  8
0
 10
62.675
 20
25.075
 11
62.675
 21
38.075
  0
LINE
  8
0
 10
62.675
 20
38.075
 11
62.6826
 21
38.1618
  0
LINE
  8
0
 10
62.6826
 20
38.1618
 11
62.7051
 21
38.246
  0
LINE
  8
0
 10
62.7051
 20
38.246
 11
62.742
 21
38.325
  0
LINE
  8
0
 10
62.742
 20
38.325
 11
62.792
 21
38.3964
  0
LINE
  8
0
 10
62.792
 20
38.3964
 11
62.8536
 21
38.458
  0
LINE
  8
0
 10
62.8536
 20
38.458
 11
62.925
 21
38.508
  0
LINE
  8
0
 10
62.925
 20
38.508
 11
63.004
 21
38.5448
  0
LINE
  8
0
 10
63.004
 20
38.5448
 11
63.0882
 21
38.5674
  0
LINE
  8
0
 10
63.0882
 20
38.5674
 11
63.175
 21
38.575
  0
LINE
  8
0
 10
63.175
 20
38.575
 11
76.175
 21
38.575
  0
LINE
  8
0
 10
76.175
 20
38.575
 11
76.2618
 21
38.5674
  0
LINE
  8
0
 10
76.2618
 20
38.5674
 11
76.346
 21
38.5448
  0
LINE
  8
0
 10
76.346
 20
38.5448
 11
76.425
 21
38.508
  0
LINE
  8
0
 10
76.425
 20
38.508
 11
76.4964
 21
38.458
  0
LINE
  8
0
 10
76.4964
 20
38.458
 11
76.558
 21
38.3964
  0
LINE
  8
0
 10
76.558
 20
38.3964
 11
76.608
 21
38.325
  0
LINE
  8
0
 10
76.608
 20
38.325
 11
76.6448
 21
38.246
  0
LINE
  8
0
 10
76.6448
 20
38.246
 11
76.6674
 21
38.1618
  0
LINE
  8
0
 10
76.6674
 20
38.1618
 11
76.675
 21
38.075
  0
LINE
  8
0
 10
76.675
 20
38.075
 11
76.675
 21
25.075
  0
LINE
  8
0
 10
76.675
 20
25.075
 11
76.6674
 21
24.9882
  0
LINE
  8
0
 10
76.6674
 20
24.9882
 11
76.6448
 21
24.904
  0
LINE
  8
0
 10
76.6448
 20
24.904
 11
76.608
 21
24.825
  0
LINE
  8
0
 10
76.608
 20
24.825
 11
76.558
 21
24.7536
  0
LINE
  8
0
 10
76.558
 20
24.7536
 11
76.4964
 21
24.692
  0
LINE
  8
0
 10
76.4964
 20
24.692
 11
76.425
 21
24.642
  0
LINE
  8
0
 10
76.425
 20
24.642
 11
76.346
 21
24.6051
  0
LINE
  8
0
 10
76.346
 20
24.6051
 11
76.2618
 21
24.5826
  0
LINE
  8
0
 10
76.2618
 20
24.5826
 11
76.175
 21
24.575
  0
LINE
  8
0
 10
76.175
 20
24.575
 11
63.175
 21
24.575
  0
LINE
  8
0
 10
25.075
 20
24.575
 11
24.9882
 21
24.5826
  0
LINE
  8
0
 10
24.9882
 20
24.5826
 11
24.904
 21
24.6051
  0
LINE
  8
0
 10
24.904
 20
24.6051
 11
24.825
 21
24.642
  0
LINE
  8
0
 10
24.825
 20
24.642
 11
24.7536
 21
24.692
  0
LINE
  8
0
 10
24.7536
 20
24.692
 11
24.692
 21
24.7536
  0
LINE
  8
0
 10
24.692
 20
24.7536
 11
24.642
 21
24.825
  0
LINE
  8
0
 10
24.642
 20
24.825
 11
24.6051
 21
24.904
  0
LINE
  8
0
 10
24.6051
 20
24.904
 11
24.5826
 21
24.9882
  0
LINE
  8
0
 10
24.5826
 20
24.9882
 11
24.575
 21
25.075
  0
LINE
  8
0
 10
24.575
 20
25.075
 11
24.575
 21
38.075
  0
LINE
  8
0
 10
24.575
 20
38.075
 11
24.5826
 21
38.1618
  0
LINE
  8
0
 10
24.5826
 20
38.1618
 11
24.6051
 21
38.246
  0
LINE
  8
0
 10
24.6051
 20
38.246
 11
24.642
 21
38.325
  0
LINE
  8
0
 10
24.642
 20
38.325
 11
24.692
 21
38.3964
  0
LINE
  8
0
 10
24.692
 20
38.3964
 11
24.7536
 21
38.458
  0
LINE
  8
0
 10
24.7536
 20
38.458
 11
24.825
 21
38.508
  0
LINE
  8
0
 10
24.825
 20
38.508
 11
24.904
 21
38.5448
  0
LINE
  8
0
 10
24.904
 20
38.5448
 11
24.9882
 21
38.5674
  0
LINE
  8
0
 10
24.9882
 20
38.5674
 11
25.075
 21
38.575
  0
LINE
  8
0
 10
25.075
 20
38.575
 11
38.075
 21
38.575
  0
LINE
  8
0
 10
38.075
 20
38.575
 11
38.1618
 21
38.5674
  0
LINE
  8
0
 10
38.1618
 20
38.5674
 11
38.246
 21
38.5448
  0
LINE
  8
0
 10
38.246
 20
38.5448
 11
38.325
 21
38.508
  0
LINE
  8
0
 10
38.325
 20
38.508
 11
38.3964
 21
38.458
  0
LINE
  8
0
 10
38.3964
 20
38.458
 11
38.458
 21
38.3964
  0
LINE
  8
0
 10
38.458
 20
38.3964
 11
38.508
 21
38.325
  0
LINE
  8
0
 10
38.508
 20
38.325
 11
38.5448
 21
38.246
  0
LINE
  8
0
 10
38.5448
 20
38.246
 11
38.5674
 21
38.1618
  0
LINE
  8
0
 10
38.5674
 20
38.1618
 11
38.575
 21
38.075
  0
LINE
  8
0
 10
38.575
 20
38.075
 11
38.575
 21
25.075
  0
LINE
  8
0
 10
38.575
 20
25.075
 11
38.5674
 21
24.9882
  0
LINE
  8
0
 10
38.5674
 20
24.9882
 11
38.5448
 21
24.904
  0
LINE
  8
0
 10
38.5448
 20
24.904
 11
38.508
 21
24.825
  0
LINE
  8
0
 10
38.508
 20
24.825
 11
38.458
 21
24.7536
  0
LINE
  8
0
 10
38.458
 20
24.7536
 11
38.3964
 21
24.692
  0
LINE
  8
0
 10
38.3964
 20
24.692
 11
38.325
 21
24.642
  0
LINE
  8
0
 10
38.325
 20
24.642
 11
38.246
 21
24.6051
  0
LINE
  8
0
 10
38.246
 20
24.6051
 11
38.1618
 21
24.5826
  0
LINE
  8
0
 10
38.1618
 20
24.5826
 11
38.075
 21
24.575
  0
LINE
  8
0
 10
38.075
 20
24.575
 11
25.075
 21
24.575
  0
LINE
  8
0
 10
63.175
 20
5.52499
 11
63.0882
 21
5.53259
  0
LINE
  8
0
 10
63.0882
 20
5.53259
 11
63.004
 21
5.55515
  0
LINE
  8
0
 10
63.004
 20
5.55515
 11
62.925
 21
5.59198
  0
LINE
  8
0
 10
62.925
 20
5.59198
 11
62.8536
 21
5.64197
  0
LINE
  8
0
 10
62.8536
 20
5.64197
 11
62.792
 21
5.7036
  0
LINE
  8
0
 10
62.792
 20
5.7036
 11
62.742
 21
5.77499
  0
LINE
  8
0
 10
62.742
 20
5.77499
 11
62.7051
 21
5.85399
  0
LINE
  8
0
 10
62.7051
 20
5.85399
 11
62.6826
 21
5.93817
  0
LINE
  8
0
 10
62.6826
 20
5.93817
 11
62.675
 21
6.02499
  0
LINE
  8
0
 10
62.675
 20
6.02499
 11
62.675
 21
19.025
  0
LINE
  8
0
 10
62.675
 20
19.025
 11
62.6826
 21
19.1118
  0
LINE
  8
0
 10
62.6826
 20
19.1118
 11
62.7051
 21
19.196
  0
LINE
  8
0
 10
62.7051
 20
19.196
 11
62.742
 21
19.275
  0
LINE
  8
0
 10
62.742
 20
19.275
 11
62.792
 21
19.3464
  0
LINE
  8
0
 10
62.792
 20
19.3464
 11
62.8536
 21
19.408
  0
LINE
  8
0
 10
62.8536
 20
19.408
 11
62.925
 21
19.458
  0
LINE
  8
0
 10
62.925
 20
19.458
 11
63.004
 21
19.4948
  0
LINE
  8
0
 10
63.004
 20
19.4948
 11
63.0882
 21
19.5174
  0
LINE
  8
0
 10
63.0882
 20
19.5174
 11
63.175
 21
19.525
  0
LINE
  8
0
 10
63.175
 20
19.525
 11
76.175
 21
19.525
  0
LINE
  8
0
 10
76.175
 20
19.525
 11
76.2618
 21
19.5174
  0
LINE
  8
0
 10
76.2618
 20
19.5174
 11
76.346
 21
19.4948
  0
LINE
  8
0
 10
76.346
 20
19.4948
 11
76.425
 21
19.458
  0
LINE
  8
0
 10
76.425
 20
19.458
 11
76.4964
 21
19.408
  0
LINE
  8
0
 10
76.4964
 20
19.408
 11
76.558
 21
19.3464
  0
LINE
  8
0
 10
76.558
 20
19.3464
 11
76.608
 21
19.275
  0
LINE
  8
0
 10
76.608
 20
19.275
 11
76.6448
 21
19.196
  0
LINE
  8
0
 10
76.6448
 20
19.196
 11
76.6674
 21
19.1118
  0
LINE
  8
0
 10
76.6674
 20
19.1118
 11
76.675
 21
19.025
  0
LINE
  8
0
 10
76.675
 20
19.025
 11
76.675
 21
6.02499
  0
LINE
  8
0
 10
76.675
 20
6.02499
 11
76.6674
 21
5.93817
  0
LINE
  8
0
 10
76.6674
 20
5.93817
 11
76.6448
 21
5.85399
  0
LINE
  8
0
 10
76.6448
 20
5.85399
 11
76.608
 21
5.77499
  0
LINE
  8
0
 10
76.608
 20
5.77499
 11
76.558
 21
5.7036
  0
LINE
  8
0
 10
76.558
 20
5.7036
 11
76.4964
 21
5.64197
  0
LINE
  8
0
 10
76.4964
 20
5.64197
 11
76.425
 21
5.59198
  0
LINE
  8
0
 10
76.425
 20
5.59198
 11
76.346
 21
5.55515
  0
LINE
  8
0
 10
76.346
 20
5.55515
 11
76.2618
 21
5.53259
  0
LINE
  8
0
 10
76.2618
 20
5.53259
 11
76.175
 21
5.52499
  0
LINE
  8
0
 10
76.175
 20
5.52499
 11
63.175
 21
5.52499
  0
LINE
  8
0
 10
44.125
 20
5.52499
 11
44.0382
 21
5.53259
  0
LINE
  8
0
 10
44.0382
 20
5.53259
 11
43.954
 21
5.55515
  0
LINE
  8
0
 10
43.954
 20
5.55515
 11
43.875
 21
5.59198
  0
LINE
  8
0
 10
43.875
 20
5.59198
 11
43.8036
 21
5.64197
  0
LINE
  8
0
 10
43.8036
 20
5.64197
 11
43.742
 21
5.7036
  0
LINE
  8
0
 10
43.742
 20
5.7036
 11
43.692
 21
5.77499
  0
LINE
  8
0
 10
43.692
 20
5.77499
 11
43.6552
 21
5.85399
  0
LINE
  8
0
 10
43.6552
 20
5.85399
 11
43.6326
 21
5.93817
  0
LINE
  8
0
 10
43.6326
 20
5.93817
 11
43.625
 21
6.02499
  0
LINE
  8
0
 10
43.625
 20
6.02499
 11
43.625
 21
19.025
  0
LINE
  8
0
 10
43.625
 20
19.025
 11
43.6326
 21
19.1118
  0
LINE
  8
0
 10
43.6326
 20
19.1118
 11
43.6552
 21
19.196
  0
LINE
  8
0
 10
43.6552
 20
19.196
 11
43.692
 21
19.275
  0
LINE
  8
0
 10
43.692
 20
19.275
 11
43.742
 21
19.3464
  0
LINE
  8
0
 10
43.742
 20
19.3464
 11
43.8036
 21
19.408
  0
LINE
  8
0
 10
43.8036
 20
19.408
 11
43.875
 21
19.458
  0
LINE
  8
0
 10
43.875
 20
19.458
 11
43.954
 21
19.4948
  0
LINE
  8
0
 10
43.954
 20
19.4948
 11
44.0382
 21
19.5174
  0
LINE
  8
0
 10
44.0382
 20
19.5174
 11
44.125
 21
19.525
  0
LINE
  8
0
 10
44.125
 20
19.525
 11
57.125
 21
19.525
  0
LINE
  8
0
 10
57.125
 20
19.525
 11
57.2118
 21
19.5174
  0
LINE
  8
0
 10
57.2118
 20
19.5174
 11
57.296
 21
19.4948
  0
LINE
  8
0
 10
57.296
 20
19.4948
 11
57.375
 21
19.458
  0
LINE
  8
0
 10
57.375
 20
19.458
 11
57.4464
 21
19.408
  0
LINE
  8
0
 10
57.4464
 20
19.408
 11
57.508
 21
19.3464
  0
LINE
  8
0
 10
57.508
 20
19.3464
 11
57.558
 21
19.275
  0
LINE
  8
0
 10
57.558
 20
19.275
 11
57.5948
 21
19.196
  0
LINE
  8
0
 10
57.5948
 20
19.196
 11
57.6174
 21
19.1118
  0
LINE
  8
0
 10
57.6174
 20
19.1118
 11
57.625
 21
19.025
  0
LINE
  8
0
 10
57.625
 20
19.025
 11
57.625
 21
6.02499
  0
LINE
  8
0
 10
57.625
 20
6.02499
 11
57.6174
 21
5.93817
  0
LINE
  8
0
 10
57.6174
 20
5.93817
 11
57.5948
 21
5.85399
  0
LINE
  8
0
 10
57.5948
 20
5.85399
 11
57.558
 21
5.77499
  0
LINE
  8
0
 10
57.558
 20
5.77499
 11
57.508
 21
5.7036
  0
LINE
  8
0
 10
57.508
 20
5.7036
 11
57.4464
 21
5.64197
  0
LINE
  8
0
 10
57.4464
 20
5.64197
 11
57.375
 21
5.59198
  0
LINE
  8
0
 10
57.375
 20
5.59198
 11
57.296
 21
5.55515
  0
LINE
  8
0
 10
57.296
 20
5.55515
 11
57.2118
 21
5.53259
  0
LINE
  8
0
 10
57.2118
 20
5.53259
 11
57.125
 21
5.52499
  0
LINE
  8
0
 10
57.125
 20
5.52499
 11
44.125
 21
5.52499
  0
LINE
  8
0
 10
25.075
 20
5.52499
 11
24.9882
 21
5.53259
  0
LINE
  8
0
 10
24.9882
 20
5.53259
 11
24.904
 21
5.55515
  0
LINE
  8
0
 10
24.904
 20
5.55515
 11
24.825
 21
5.59198
  0
LINE
  8
0
 10
24.825
 20
5.59198
 11
24.7536
 21
5.64197
  0
LINE
  8
0
 10
24.7536
 20
5.64197
 11
24.692
 21
5.7036
  0
LINE
  8
0
 10
24.692
 20
5.7036
 11
24.642
 21
5.77499
  0
LINE
  8
0
 10
24.642
 20
5.77499
 11
24.6051
 21
5.85399
  0
LINE
  8
0
 10
24.6051
 20
5.85399
 11
24.5826
 21
5.93817
  0
LINE
  8
0
 10
24.5826
 20
5.93817
 11
24.575
 21
6.02499
  0
LINE
  8
0
 10
24.575
 20
6.02499
 11
24.575
 21
19.025
  0
LINE
  8
0
 10
24.575
 20
19.025
 11
24.5826
 21
19.1118
  0
LINE
  8
0
 10
24.5826
 20
19.1118
 11
24.6051
 21
19.196
  0
LINE
  8
0
 10
24.6051
 20
19.196
 11
24.642
 21
19.275
  0
LINE
  8
0
 10
24.642
 20
19.275
 11
24.692
 21
19.3464
  0
LINE
  8
0
 10
24.692
 20
19.3464
 11
24.7536
 21
19.408
  0
LINE
  8
0
 10
24.7536
 20
19.408
 11
24.825
 21
19.458
  0
LINE
  8
0
 10
24.825
 20
19.458
 11
24.904
 21
19.4948
  0
LINE
  8
0
 10
24.904
 20
19.4948
 11
24.9882
 21
19.5174
  0
LINE
  8
0
 10
24.9882
 20
19.5174
 11
25.075
 21
19.525
  0
LINE
  8
0
 10
25.075
 20
19.525
 11
38.075
 21
19.525
  0
LINE
  8
0
 10
38.075
 20
19.525
 11
38.1618
 21
19.5174
  0
LINE
  8
0
 10
38.1618
 20
19.5174
 11
38.246
 21
19.4948
  0
LINE
  8
0
 10
38.246
 20
19.4948
 11
38.325
 21
19.458
  0
LINE
  8
0
 10
38.325
 20
19.458
 11
38.3964
 21
19.408
  0
LINE
  8
0
 10
38.3964
 20
19.408
 11
38.458
 21
19.3464
  0
LINE
  8
0
 10
38.458
 20
19.3464
 11
38.508
 21
19.275
  0
LINE
  8
0
 10
38.508
 20
19.275
 11
38.5448
 21
19.196
  0
LINE
  8
0
 10
38.5448
 20
19.196
 11
38.5674
 21
19.1118
  0
LINE
  8
0
 10
38.5674
 20
19.1118
 11
38.575
 21
19.025
  0
LINE
  8
0
 10
38.575
 20
19.025
 11
38.575
 21
6.02499
  0
LINE
  8
0
 10
38.575
 20
6.02499
 11
38.5674
 21
5.93817
  0
LINE
  8
0
 10
38.5674
 20
5.93817
 11
38.5448
 21
5.85399
  0
LINE
  8
0
 10
38.5448
 20
5.85399
 11
38.508
 21
5.77499
  0
LINE
  8
0
 10
38.508
 20
5.77499
 11
38.458
 21
5.7036
  0
LINE
  8
0
 10
38.458
 20
5.7036
 11
38.3964
 21
5.64197
  0
LINE
  8
0
 10
38.3964
 20
5.64197
 11
38.325
 21
5.59198
  0
LINE
  8
0
 10
38.325
 20
5.59198
 11
38.246
 21
5.55515
  0
LINE
  8
0
 10
38.246
 20
5.55515
 11
38.1618
 21
5.53259
  0
LINE
  8
0
 10
38.1618
 20
5.53259
 11
38.075
 21
5.52499
  0
LINE
  8
0
 10
38.075
 20
5.52499
 11
25.075
 21
5.52499
  0
LINE
  8
0
 10
6.02499
 20
5.52499
 11
5.93817
 21
5.53259
  0
LINE
  8
0
 10
5.93817
 20
5.53259
 11
5.85399
 21
5.55515
  0
LINE
  8
0
 10
5.85399
 20
5.55515
 11
5.77499
 21
5.59198
  0
LINE
  8
0
 10
5.77499
 20
5.59198
 11
5.7036
 21
5.64197
  0
LINE
  8
0
 10
5.7036
 20
5.64197
 11
5.64197
 21
5.7036
  0
LINE
  8
0
 10
5.64197
 20
5.7036
 11
5.59198
 21
5.77499
  0
LINE
  8
0
 10
5.59198
 20
5.77499
 11
5.55515
 21
5.85399
  0
LINE
  8
0
 10
5.55515
 20
5.85399
 11
5.53259
 21
5.93817
  0
LINE
  8
0
 10
5.53259
 20
5.93817
 11
5.52499
 21
6.02499
  0
LINE
  8
0
 10
5.52499
 20
6.02499
 11
5.52499
 21
19.025
  0
LINE
  8
0
 10
5.52499
 20
19.025
 11
5.53259
 21
19.1118
  0
LINE
  8
0
 10
5.53259
 20
19.1118
 11
5.55515
 21
19.196
  0
LINE
  8
0
 10
5.55515
 20
19.196
 11
5.59198
 21
19.275
  0
LINE
  8
0
 10
5.59198
 20
19.275
 11
5.64197
 21
19.3464
  0
LINE
  8
0
 10
5.64197
 20
19.3464
 11
5.7036
 21
19.408
  0
LINE
  8
0
 10
5.7036
 20
19.408
 11
5.77499
 21
19.458
  0
LINE
  8
0
 10
5.77499
 20
19.458
 11
5.85399
 21
19.4948
  0
LINE
  8
0
 10
5.85399
 20
19.4948
 11
5.93817
 21
19.5174
  0
LINE
  8
0
 10
5.93817
 20
19.5174
 11
6.02499
 21
19.525
  0
LINE
  8
0
 10
6.02499
 20
19.525
 11
19.025
 21
19.525
  0
LINE
  8
0
 10
19.025
 20
19.525
 11
19.1118
 21
19.5174
  0
LINE
  8
0
 10
19.1118
 20
19.5174
 11
19.196
 21
19.4948
  0
LINE
  8
0
 10
19.196
 20
19.4948
 11
19.275
 21
19.458
  0
LINE
  8
0
 10
19.275
 20
19.458
 11
19.3464
 21
19.408
  0
LINE
  8
0
 10
19.3464
 20
19.408
 11
19.408
 21
19.3464
  0
LINE
  8
0
 10
19.408
 20
19.3464
 11
19.458
 21
19.275
  0
LINE
  8
0
 10
19.458
 20
19.275
 11
19.4948
 21
19.196
  0
LINE
  8
0
 10
19.4948
 20
19.196
 11
19.5174
 21
19.1118
  0
LINE
  8
0
 10
19.5174
 20
19.1118
 11
19.525
 21
19.025
  0
LINE
  8
0
 10
19.525
 20
19.025
 11
19.525
 21
6.02499
  0
LINE
  8
0
 10
19.525
 20
6.02499
 11
19.5174
 21
5.93817
  0
LINE
  8
0
 10
19.5174
 20
5.93817
 11
19.4948
 21
5.85399
  0
LINE
  8
0
 10
19.4948
 20
5.85399
 11
19.458
 21
5.77499
  0
LINE
  8
0
 10
19.458
 20
5.77499
 11
19.408
 21
5.7036
  0
LINE
  8
0
 10
19.408
 20
5.7036
 11
19.3464
 21
5.64197
  0
LINE
  8
0
 10
19.3464
 20
5.64197
 11
19.275
 21
5.59198
  0
LINE
  8
0
 10
19.275
 20
5.59198
 11
19.196
 21
5.55515
  0
LINE
  8
0
 10
19.196
 20
5.55515
 11
19.1118
 21
5.53259
  0
LINE
  8
0
 10
19.1118
 20
5.53259
 11
19.025
 21
5.52499
  0
LINE
  8
0
 10
19.025
 20
5.52499
 11
6.02499
 21
5.52499
  0
ENDSEC
  0
SECTION
  2
OBJECTS
  0
DICTIONARY
  0
ENDSEC
  0
EOF
