<?xml version="1.0" standalone="no"?>
<!DOCTYPE svg PUBLIC "-//W3C//DTD SVG 20010904//EN"
 "http://www.w3.org/TR/2001/REC-SVG-20010904/DTD/svg10.dtd">
<svg version="1.0" xmlns="http://www.w3.org/2000/svg"
 width="4000.000000pt" height="4000.000000pt" viewBox="0 0 4000.000000 4000.000000"
 preserveAspectRatio="xMidYMid meet">

<g transform="translate(0.000000,4000.000000) scale(0.100000,-0.100000)"
fill="#000000" stroke="none">
<path d="M13142 30294 c-44 -30 -115 -224 -211 -574 -55 -200 -252 -1177 -295
-1465 -14 -93 -59 -343 -101 -554 -41 -211 -78 -412 -81 -447 -4 -35 -2 -128
5 -207 6 -78 16 -196 21 -263 5 -66 16 -153 25 -193 8 -39 20 -147 25 -239 8
-121 19 -201 40 -292 36 -153 50 -262 50 -398 0 -195 30 -382 100 -632 59
-207 87 -338 136 -634 51 -310 70 -396 153 -736 34 -135 64 -266 67 -292 l7
-48 -81 -85 c-192 -202 -386 -447 -592 -745 -51 -74 -153 -220 -226 -325 -159
-229 -204 -302 -260 -420 -58 -123 -84 -225 -95 -385 -20 -294 29 -962 102
-1370 17 -96 32 -211 33 -255 1 -44 8 -169 16 -277 15 -213 12 -310 -30 -853
-48 -619 -38 -854 61 -1370 98 -514 225 -852 514 -1360 162 -286 470 -728 688
-988 351 -419 805 -817 1097 -962 41 -20 127 -66 190 -101 111 -61 231 -114
560 -249 85 -35 209 -86 275 -115 425 -183 847 -357 945 -391 167 -56 404
-114 650 -158 243 -45 338 -56 595 -71 99 -6 245 -20 325 -31 80 -11 242 -24
360 -29 145 -6 249 -15 320 -29 58 -12 191 -33 295 -46 233 -31 314 -46 525
-95 91 -21 228 -50 305 -65 77 -14 277 -53 445 -85 356 -69 457 -84 680 -105
91 -8 181 -17 200 -20 235 -35 1165 -63 1455 -45 77 5 286 29 465 54 455 64
515 74 632 105 160 43 642 195 774 245 66 24 151 53 189 65 143 44 295 105
464 188 96 47 209 95 250 108 42 12 105 34 141 49 36 14 117 39 180 56 145 39
202 60 319 118 108 54 203 141 353 322 81 98 268 352 324 442 74 118 162 331
198 479 24 103 34 179 61 462 13 147 32 297 40 333 31 135 14 501 -35 729 -10
49 -21 217 -39 585 -6 125 -13 197 -23 221 -15 34 -14 42 52 265 94 322 136
481 164 614 13 64 40 169 59 235 20 66 45 172 57 235 11 63 27 153 35 200 9
47 29 139 44 205 57 237 60 283 48 665 -11 333 -23 465 -57 595 -37 141 -202
631 -270 800 -87 218 -107 252 -328 559 -90 125 -169 278 -178 347 -6 43 -3
49 90 189 101 150 112 173 103 216 -3 18 10 50 45 111 27 48 63 114 80 147 17
33 50 90 74 127 24 36 44 76 44 88 0 12 36 91 81 176 127 244 147 305 198 605
16 96 39 227 50 290 11 63 25 183 31 265 11 156 14 181 31 305 13 88 63 315
84 380 8 25 17 81 19 125 3 58 30 184 100 458 119 469 163 707 221 1202 14
114 33 430 39 640 15 513 17 680 7 980 -17 527 -42 791 -105 1096 -20 98 -30
168 -25 173 24 26 -5 86 -42 86 -27 0 -580 -134 -669 -162 -192 -61 -409 -169
-750 -374 -480 -287 -722 -468 -1224 -918 -99 -89 -252 -224 -340 -300 -201
-174 -310 -281 -355 -350 -20 -30 -82 -110 -138 -178 -55 -69 -136 -174 -178
-234 -139 -195 -210 -265 -410 -397 -104 -69 -354 -192 -433 -212 -29 -8 -66
-21 -82 -29 -27 -13 -37 -11 -154 30 -683 238 -1752 277 -2681 98 -265 -51
-415 -92 -510 -140 -100 -50 -208 -72 -268 -56 -18 5 -63 30 -100 55 -96 66
-204 115 -283 127 -37 6 -70 13 -73 15 -32 19 -540 103 -911 150 -113 14 -320
41 -460 60 -140 19 -295 37 -345 40 -115 8 -135 12 -135 30 0 31 -96 197 -185
320 -52 72 -145 204 -206 295 -62 91 -155 221 -207 290 -51 68 -112 156 -134
195 -22 38 -82 135 -132 215 -51 80 -103 163 -116 185 -60 103 -323 493 -410
610 -54 72 -167 211 -251 311 -85 99 -183 215 -219 258 -70 83 -173 175 -370
331 -69 55 -175 142 -236 195 -205 179 -281 224 -679 405 -154 70 -291 133
-305 141 -14 8 -74 27 -135 44 -124 34 -218 39 -253 14z m234 -94 c70 -18 339
-137 679 -301 139 -67 258 -148 405 -274 69 -60 190 -160 270 -223 163 -129
280 -239 378 -357 37 -44 117 -138 178 -210 61 -71 147 -176 191 -232 85 -107
362 -515 453 -668 29 -49 75 -121 100 -160 26 -38 81 -127 123 -197 42 -70
116 -180 165 -245 48 -65 113 -154 142 -198 30 -44 93 -129 140 -190 119 -151
203 -269 288 -405 44 -71 83 -122 102 -133 18 -11 76 -23 152 -32 68 -8 216
-28 329 -44 113 -17 297 -42 410 -56 397 -50 840 -122 871 -141 5 -3 51 -16
102 -29 106 -26 163 -53 289 -136 86 -56 93 -59 153 -59 60 0 205 42 238 69
16 13 193 64 353 101 953 220 2106 198 2830 -54 105 -37 159 -43 238 -27 22 5
36 9 30 10 -5 1 24 13 65 27 41 14 80 29 85 34 6 5 69 38 140 74 136 67 221
121 351 221 136 104 180 152 280 303 205 310 339 462 627 709 92 80 216 188
275 240 622 555 904 759 1526 1100 319 174 444 219 886 319 228 51 220 52 236
-16 48 -202 87 -567 105 -960 13 -288 6 -1102 -10 -1325 -6 -77 -15 -221 -20
-320 -18 -349 -96 -813 -216 -1290 -140 -556 -230 -977 -240 -1120 -20 -318
-19 -304 -74 -640 -49 -303 -74 -414 -111 -499 -90 -207 -351 -709 -484 -930
l-155 -258 4 -81 c3 -62 9 -87 25 -107 11 -14 36 -55 55 -92 63 -121 126 -221
205 -328 43 -58 101 -145 129 -195 60 -104 177 -395 221 -550 18 -59 53 -167
80 -241 57 -154 94 -289 109 -389 6 -38 15 -228 22 -422 13 -393 11 -419 -46
-658 -19 -77 -48 -219 -64 -315 -17 -96 -51 -247 -76 -334 -25 -88 -54 -207
-65 -265 -25 -131 -64 -279 -140 -526 -32 -104 -68 -228 -80 -275 -12 -47 -44
-155 -72 -240 -27 -85 -71 -238 -98 -340 -26 -102 -53 -198 -59 -213 -6 -16
-25 -83 -42 -150 -48 -195 -111 -352 -259 -647 -98 -196 -153 -293 -233 -415
-81 -122 -118 -165 -287 -340 -80 -83 -223 -243 -317 -356 -236 -284 -308
-355 -437 -428 -76 -44 -143 -66 -356 -116 -102 -24 -283 -75 -402 -115 -275
-90 -346 -106 -839 -185 -222 -36 -528 -90 -679 -120 -434 -85 -566 -99 -1090
-115 -179 -5 -444 -15 -590 -21 -146 -6 -377 -9 -515 -6 -515 12 -814 55
-1955 277 -532 103 -692 128 -842 132 -92 3 -110 0 -125 -15 -32 -31 -6 -51
78 -60 312 -32 341 -36 1004 -166 696 -136 992 -185 1335 -223 239 -26 789
-35 1131 -19 134 6 386 16 559 21 469 14 591 27 1020 111 140 28 392 72 560
100 529 86 552 90 675 119 66 16 190 52 275 80 226 74 300 96 453 130 243 55
342 98 480 210 75 60 152 145 376 414 69 82 197 224 285 315 207 215 315 367
453 636 31 61 69 129 85 153 70 103 207 449 234 596 9 44 27 114 40 156 14 41
39 129 55 195 41 158 108 383 123 414 11 21 14 2 20 -135 14 -336 24 -463 47
-584 21 -108 24 -156 24 -350 0 -191 -4 -254 -27 -420 -15 -107 -32 -253 -38
-325 -13 -164 -32 -268 -75 -409 -68 -224 -157 -390 -287 -533 -21 -24 -38
-51 -38 -61 0 -36 -215 -265 -371 -394 -166 -139 -216 -165 -394 -213 -152
-40 -237 -71 -395 -145 -240 -113 -510 -215 -1000 -380 -197 -66 -582 -183
-675 -205 -55 -13 -170 -34 -255 -45 -85 -12 -265 -38 -400 -58 l-245 -37
-575 1 c-606 1 -568 -1 -1145 59 -293 30 -365 41 -665 100 -124 24 -301 58
-395 75 -93 17 -267 53 -385 80 -241 55 -325 70 -555 100 -88 11 -221 32 -295
45 -96 18 -199 28 -360 35 -124 5 -268 16 -320 24 -52 9 -207 23 -345 31 -394
25 -845 109 -1190 222 -69 22 -715 290 -890 368 -33 15 -148 63 -255 107 -107
44 -202 86 -211 94 -8 8 -120 61 -247 118 -330 148 -534 263 -716 405 -183
142 -399 342 -503 464 -43 51 -119 137 -169 192 -224 247 -558 722 -751 1070
-312 560 -436 933 -532 1600 -50 346 -50 440 -6 1055 14 195 29 450 33 565 7
195 8 207 21 170 35 -104 195 -533 208 -558 11 -22 20 -28 41 -25 21 2 28 9
30 30 2 15 -30 117 -73 235 -149 406 -204 583 -254 827 -83 401 -137 980 -128
1381 5 252 17 314 91 470 53 112 87 165 354 550 391 565 687 935 747 935 19 0
56 54 65 97 11 48 -16 219 -40 252 -33 46 -129 486 -194 882 -43 266 -74 407
-131 614 -70 253 -85 339 -95 555 -12 247 -25 351 -56 470 -16 61 -28 148 -35
245 -6 83 -21 220 -34 305 -14 85 -27 209 -30 275 -3 66 -11 159 -16 207 -13
106 -10 123 86 618 41 206 81 427 90 490 38 273 226 1218 286 1440 71 265 144
489 174 533 24 34 29 37 74 37 26 0 83 -9 127 -20z"/>
<path d="M13997 28436 c-163 -61 -248 -240 -321 -676 -74 -443 -116 -1195 -87
-1577 12 -168 19 -195 55 -218 46 -31 87 15 50 56 -26 29 -37 215 -30 544 15
808 111 1479 240 1683 53 84 139 131 215 117 144 -27 369 -224 707 -619 98
-115 190 -218 204 -228 29 -22 56 -16 63 13 6 23 -11 45 -231 303 -273 318
-472 504 -619 576 -79 39 -182 50 -246 26z"/>
<path d="M26172 27440 c-284 -75 -563 -269 -885 -618 -198 -213 -419 -499
-474 -609 -24 -50 -24 -54 -9 -78 28 -42 76 -27 76 23 0 62 286 419 548 686
272 276 479 422 702 495 110 35 170 44 196 26 54 -35 73 -212 74 -680 0 -523
-36 -928 -111 -1253 -10 -45 -19 -96 -19 -111 0 -37 22 -56 48 -42 15 8 27 41
51 138 82 346 112 680 112 1268 -1 542 -15 662 -91 737 -34 35 -42 38 -91 37
-30 0 -87 -9 -127 -19z"/>
<path d="M15563 23706 c-76 -13 -233 -59 -313 -93 -185 -78 -439 -288 -590
-488 -139 -183 -216 -360 -240 -547 -7 -59 -6 -77 6 -95 8 -13 18 -23 22 -23
14 0 62 112 82 192 51 205 170 400 360 588 128 128 348 280 403 280 7 0 49 15
93 34 127 55 220 69 408 63 171 -5 278 -26 436 -83 244 -87 517 -274 662 -451
91 -111 122 -170 156 -300 77 -296 72 -427 -42 -1087 -19 -109 -32 -205 -29
-213 7 -19 50 -28 68 -13 20 17 32 61 50 180 8 58 26 161 40 230 36 180 56
374 56 540 1 159 -8 230 -46 365 -14 50 -25 101 -25 114 0 61 -123 225 -279
374 -214 203 -546 371 -836 423 -123 22 -340 27 -442 10z"/>
<path d="M22955 23335 c-5 -2 -91 -13 -190 -25 -108 -12 -224 -32 -290 -50
-60 -16 -118 -30 -127 -30 -35 0 -129 -42 -205 -92 -138 -89 -403 -384 -403
-449 0 -14 -18 -63 -41 -110 -112 -231 -171 -468 -199 -814 -7 -77 -12 -157
-12 -177 -1 -42 16 -68 42 -68 37 0 48 31 60 165 37 445 113 729 258 963 195
315 287 391 592 496 151 51 232 62 525 73 287 9 476 -29 650 -132 50 -29 115
-65 144 -80 117 -58 240 -213 360 -452 71 -143 92 -206 126 -373 14 -69 34
-154 44 -190 26 -87 54 -387 43 -462 -10 -68 -32 -98 -204 -274 -91 -93 -118
-127 -118 -147 0 -34 36 -45 78 -23 70 36 315 308 333 369 23 82 0 465 -36
572 -13 39 -32 122 -44 185 -27 152 -64 258 -147 415 -107 205 -209 347 -292
408 -77 57 -243 143 -302 157 -30 7 -105 34 -166 60 -123 53 -151 59 -309 70
-60 5 -121 11 -135 14 -14 3 -29 3 -35 1z"/>
<path d="M15736 23317 c-214 -16 -447 -118 -608 -266 -112 -102 -206 -257
-245 -401 -24 -89 -24 -272 0 -360 41 -152 144 -305 275 -409 80 -64 243 -145
347 -172 114 -30 357 -37 478 -15 240 46 468 177 604 350 248 316 228 731 -47
1006 -133 133 -312 222 -508 254 -123 21 -172 23 -296 13z"/>
<path d="M22720 22824 c-52 -7 -131 -25 -175 -38 -120 -38 -168 -72 -340 -241
-220 -217 -285 -539 -169 -839 48 -124 125 -236 237 -342 208 -198 470 -299
772 -299 296 1 522 89 711 279 104 105 159 194 202 326 24 77 27 98 26 230 0
131 -3 153 -28 230 -157 481 -680 774 -1236 694z"/>
<path d="M17357 20063 c-16 -15 -5 -51 26 -80 76 -73 141 -100 166 -70 7 10
48 16 123 20 62 4 178 18 257 32 80 14 148 22 152 18 8 -9 31 -135 25 -140 -2
-2 -26 17 -54 42 -52 47 -70 53 -90 33 -22 -22 -13 -48 33 -93 60 -60 103 -85
147 -85 50 0 62 24 53 99 -12 100 -35 195 -52 213 -21 24 -75 23 -200 -1 -126
-25 -243 -39 -366 -45 l-98 -4 -40 34 c-39 32 -68 42 -82 27z"/>
<path d="M20522 19984 c-19 -8 -99 -56 -180 -106 -141 -88 -235 -138 -258
-138 -26 0 -275 114 -360 166 -158 95 -232 83 -268 -44 -23 -84 -21 -198 4
-240 44 -72 125 -78 315 -22 119 34 157 58 139 88 -17 27 -46 26 -172 -9 -137
-39 -188 -42 -208 -14 -18 25 -18 99 1 163 14 45 19 52 41 52 14 0 62 -23 107
-50 109 -67 350 -170 397 -170 47 0 147 49 300 147 69 44 149 92 178 107 47
24 53 30 50 54 -4 33 -36 39 -86 16z"/>
<path d="M18639 18964 c-10 -12 -14 -113 -18 -444 -3 -236 -8 -430 -11 -433
-43 -39 -270 -104 -495 -141 l-211 -34 -164 14 c-243 21 -383 41 -490 69 -52
14 -201 52 -330 86 -287 73 -324 85 -520 164 -375 152 -793 250 -1155 271
-133 7 -202 -4 -308 -50 -112 -48 -142 -83 -102 -116 13 -11 25 -8 68 13 29
14 99 38 157 52 92 23 117 26 200 20 52 -3 120 -10 150 -15 30 -5 87 -14 125
-20 247 -39 610 -140 810 -225 158 -67 263 -102 489 -160 116 -29 261 -67 321
-83 184 -50 250 -61 495 -82 393 -34 496 -24 810 79 220 73 299 61 640 -99
203 -95 251 -113 399 -145 68 -15 178 -46 245 -70 145 -51 217 -63 446 -75
168 -8 335 -3 585 20 61 5 198 14 305 20 294 15 508 39 685 75 88 19 225 47
305 64 251 52 297 58 405 49 55 -5 128 -13 163 -19 72 -13 95 -3 90 39 -3 22
-13 29 -78 49 -124 38 -188 47 -214 30 -12 -8 -58 -18 -102 -22 -136 -11 -224
-25 -396 -66 -299 -69 -514 -99 -833 -114 -71 -3 -247 -15 -390 -26 -200 -16
-307 -20 -465 -16 -255 7 -321 17 -475 72 -67 24 -178 55 -246 70 -68 15 -137
34 -152 42 -15 8 -74 30 -130 49 -206 71 -411 186 -496 278 -34 36 -39 88 -47
486 -4 194 -11 340 -17 348 -13 16 -32 15 -48 -4z"/>
<path d="M22993 18444 c-7 -20 6 -44 33 -58 66 -37 167 -105 213 -144 210
-180 312 -498 221 -687 -29 -60 -93 -130 -156 -170 -60 -39 -70 -68 -30 -86
20 -9 33 -7 70 12 54 26 141 114 179 179 139 239 15 623 -276 847 -133 103
-238 147 -254 107z"/>
<path d="M13572 16108 c-7 -7 -12 -28 -12 -48 0 -42 16 -59 185 -197 331 -270
529 -404 864 -583 168 -90 206 -98 206 -47 0 27 -14 36 -215 149 -323 180
-484 290 -817 555 -108 86 -143 120 -143 137 0 26 -17 46 -40 46 -9 0 -21 -5
-28 -12z"/>
<path d="M25089 15713 c-84 -184 -103 -222 -142 -273 -106 -143 -305 -318
-525 -464 -190 -126 -316 -192 -672 -351 -174 -78 -197 -94 -184 -130 13 -33
46 -24 241 62 503 222 798 408 1054 663 128 128 200 228 248 346 18 43 42 98
53 121 26 56 21 87 -15 91 -25 3 -30 -2 -58 -65z"/>
<path d="M16136 15634 c-9 -8 -16 -21 -16 -27 0 -16 146 -155 245 -232 208
-163 404 -257 845 -407 388 -131 710 -214 1365 -352 454 -96 655 -128 985
-158 190 -17 1238 -17 1505 0 647 42 1007 104 1603 277 300 86 411 129 510
197 35 24 43 35 40 56 -5 41 -34 38 -129 -12 -101 -53 -202 -90 -450 -161
-784 -227 -1279 -287 -2374 -289 -748 -1 -976 23 -1730 185 -612 132 -837 188
-1150 290 -599 193 -837 312 -1103 548 -62 56 -117 101 -122 101 -5 0 -16 -7
-24 -16z"/>
</g>
</svg>
