<?xml version="1.0" standalone="no"?>
<!DOCTYPE svg PUBLIC "-//W3C//DTD SVG 20010904//EN"
 "http://www.w3.org/TR/2001/REC-SVG-20010904/DTD/svg10.dtd">
<svg version="1.0" xmlns="http://www.w3.org/2000/svg"
 width="4000.000000pt" height="4000.000000pt" viewBox="0 0 4000.000000 4000.000000"
 preserveAspectRatio="xMidYMid meet">

<g transform="translate(0.000000,4000.000000) scale(0.100000,-0.100000)"
fill="#000000" stroke="none">
<path d="M16219 34926 c-3 -3 -45 -10 -94 -16 -50 -5 -137 -19 -195 -30 -58
-10 -153 -26 -212 -34 -159 -23 -236 -67 -301 -172 -18 -28 -47 -73 -65 -100
-96 -144 -171 -600 -227 -1374 -42 -594 -45 -1298 -6 -1585 33 -246 80 -450
108 -470 17 -13 8 -85 -42 -330 -55 -272 -78 -335 -213 -586 -90 -168 -128
-294 -162 -544 -6 -44 -27 -177 -46 -295 -30 -181 -40 -222 -63 -260 -16 -25
-47 -81 -71 -125 -57 -106 -109 -181 -159 -230 -23 -21 -41 -46 -41 -55 0 -31
-483 -506 -805 -790 -385 -341 -486 -451 -681 -742 -138 -206 -230 -363 -357
-613 -78 -153 -112 -231 -112 -255 -1 -19 -19 -82 -42 -140 -75 -191 -233
-669 -233 -705 0 -13 68 -37 74 -27 2 4 27 84 56 177 105 346 157 484 335 880
127 284 175 374 303 570 124 190 242 345 340 448 48 49 211 200 362 335 330
294 570 533 703 700 54 67 114 133 132 145 47 32 105 106 156 197 32 58 48 78
60 75 23 -7 45 22 63 85 19 65 65 323 101 575 45 310 73 402 182 598 74 132
121 248 157 389 14 51 25 85 25 76 1 -22 56 -25 64 -5 14 38 29 221 25 316 -4
95 -8 116 -35 172 -52 107 -102 368 -123 643 -26 334 -4 1059 51 1661 58 651
126 1011 200 1063 12 8 32 38 44 67 55 124 133 152 545 195 242 25 286 25 446
0 305 -46 603 -169 861 -352 65 -46 156 -111 203 -143 548 -380 884 -683 1306
-1180 235 -276 542 -678 749 -980 107 -155 156 -211 198 -224 157 -49 743 -35
1056 25 118 23 728 14 1016 -15 454 -46 731 -71 925 -86 460 -34 679 -60 1080
-126 531 -87 879 -177 1437 -373 148 -51 392 -134 543 -184 303 -99 492 -176
705 -286 77 -40 216 -113 309 -161 93 -48 185 -91 205 -96 20 -5 214 -11 431
-14 434 -6 604 -16 845 -46 169 -21 325 -46 332 -53 8 -8 172 33 212 53 22 12
53 21 70 21 25 0 44 17 124 108 126 142 285 296 377 365 99 73 287 193 432
275 118 66 132 79 122 107 -10 25 -54 17 -133 -25 l-76 -41 50 46 c60 56 441
363 616 497 386 296 1027 727 1194 803 80 37 635 341 650 357 6 5 -54 -22
-132 -61 -79 -39 -143 -69 -143 -67 0 7 361 203 660 359 201 104 307 148 700
289 336 120 397 138 484 138 79 0 131 -31 189 -113 124 -174 220 -458 272
-804 36 -243 47 -462 52 -1083 8 -951 -14 -1359 -103 -1895 -28 -166 -105
-539 -129 -625 -9 -30 -22 -86 -29 -125 -20 -99 -112 -441 -147 -544 -65 -189
-145 -553 -173 -786 -36 -300 -87 -794 -87 -845 0 -30 -9 -152 -20 -270 -61
-670 -136 -1055 -305 -1570 -89 -272 -172 -484 -221 -565 -70 -116 -277 -418
-391 -573 -385 -523 -512 -706 -541 -780 -11 -27 -36 -145 -56 -263 -122 -722
-292 -1498 -419 -1914 -56 -183 -169 -512 -314 -910 -127 -352 -286 -843 -348
-1075 -31 -118 -79 -298 -106 -400 -49 -183 -50 -186 -50 -342 -1 -115 3 -162
12 -173 17 -20 18 -547 1 -820 -18 -312 -25 -942 -12 -1087 8 -88 9 -134 2
-147 -8 -14 -7 -29 5 -56 8 -21 33 -115 55 -209 79 -345 171 -652 307 -1031
98 -272 137 -364 266 -630 181 -373 283 -555 671 -1205 683 -1142 785 -1334
1228 -2295 96 -209 212 -456 256 -549 45 -92 81 -177 81 -188 0 -26 15 -54
138 -258 382 -633 667 -1460 902 -2615 111 -547 201 -910 250 -1004 25 -50 54
-74 79 -66 27 8 27 37 1 90 -52 107 -132 423 -235 925 -143 700 -251 1117
-410 1580 -119 348 -303 761 -450 1015 -79 135 -384 758 -485 990 -10 22 -84
184 -165 360 -305 664 -499 1021 -1100 2025 -305 511 -404 682 -544 946 -220
415 -336 690 -489 1154 -157 476 -235 763 -252 930 -5 47 -15 117 -22 155 -18
104 -14 722 8 1239 15 376 16 473 6 681 -11 223 -10 255 8 416 11 96 32 224
46 284 70 290 262 884 513 1583 204 570 280 819 386 1272 72 309 200 955 245
1237 46 290 54 325 76 344 8 7 22 28 29 47 15 35 200 297 400 567 61 83 140
190 175 238 35 49 74 93 86 98 60 22 184 234 288 491 268 657 412 1266 466
1963 6 77 16 183 22 235 6 52 12 129 13 170 5 184 95 937 136 1145 27 131 103
388 185 625 14 41 30 95 34 120 5 25 13 57 19 72 5 15 17 64 25 110 8 46 35
175 60 288 118 530 173 936 197 1441 17 362 7 1577 -15 1809 -52 555 -190 987
-372 1166 -78 77 -108 88 -233 82 -113 -6 -253 -49 -399 -122 -49 -25 -126
-54 -170 -65 -178 -46 -370 -125 -687 -284 -1005 -502 -1997 -1169 -2905
-1953 -91 -78 -212 -186 -270 -239 -75 -70 -175 -143 -352 -261 -251 -167
-274 -188 -231 -212 24 -14 63 0 135 49 l63 43 -26 -35 c-43 -56 -159 -103
-291 -118 -66 -7 -110 -6 -218 10 -333 47 -413 52 -909 56 l-483 5 -232 121
c-475 250 -646 324 -1026 447 -124 40 -346 115 -493 166 -566 199 -941 297
-1462 383 -360 60 -570 84 -1205 136 -107 9 -350 32 -540 50 -497 50 -590 55
-935 55 -296 0 -314 -2 -405 -25 -52 -13 -166 -34 -252 -46 -149 -21 -167 -22
-360 -10 -112 7 -243 17 -293 22 -109 11 -99 2 -270 249 -368 534 -776 1032
-1144 1401 -229 228 -355 338 -591 516 -179 134 -629 445 -729 503 -106 61
-272 137 -371 170 -140 47 -551 115 -571 96z"/>
<path d="M15963 33130 c-13 -5 -32 -24 -43 -42 -17 -28 -20 -51 -20 -158 0
-414 57 -921 120 -1068 27 -63 70 -105 101 -100 32 4 39 52 11 67 -75 40 -129
405 -148 1001 -6 186 -5 206 10 219 25 21 87 4 311 -85 290 -115 396 -177 532
-307 56 -55 76 -67 92 -62 41 13 26 52 -51 131 -115 119 -264 205 -542 315
-230 91 -316 112 -373 89z"/>
<path d="M32475 30764 c-703 -26 -1124 -84 -1329 -183 -111 -53 -156 -103
-156 -169 0 -79 56 -142 117 -130 30 6 28 43 -5 67 -125 89 73 203 453 260
364 56 1128 92 1237 59 97 -29 136 -152 107 -341 -50 -331 -259 -860 -416
-1051 -30 -36 -28 -80 3 -84 27 -4 86 62 151 165 103 165 235 500 305 773 86
336 57 527 -92 603 -49 24 -68 28 -170 31 -63 2 -155 2 -205 0z"/>
<path d="M17620 30119 c-52 -11 -162 -43 -245 -70 -98 -33 -179 -53 -235 -59
-107 -12 -224 -67 -367 -174 -174 -130 -220 -197 -249 -369 -15 -87 -15 -99
-1 -120 34 -52 188 -71 527 -64 192 4 270 9 315 22 100 27 323 143 428 223 31
23 59 42 63 42 3 0 80 30 171 66 91 36 244 90 341 119 143 43 180 59 205 84
l31 30 -17 54 c-23 72 -44 97 -114 135 -130 69 -319 102 -578 101 -139 0 -202
-5 -275 -20z"/>
<path d="M18600 29009 c-30 -5 -95 -22 -145 -39 -49 -16 -109 -34 -131 -40
-47 -11 -62 -40 -37 -66 21 -20 72 -13 188 26 134 45 210 53 397 40 90 -6 170
-14 178 -17 13 -6 660 -22 860 -22 152 0 603 -75 761 -127 79 -25 169 -76 169
-94 0 -13 -482 -13 -765 0 -115 5 -304 14 -418 19 -149 7 -267 7 -415 -2 -357
-21 -526 -16 -757 22 -248 40 -330 58 -377 82 -57 29 -47 74 22 109 48 25 65
52 50 80 -15 28 -32 25 -95 -17 -54 -37 -95 -96 -95 -137 0 -33 31 -75 73
-100 51 -30 108 -44 382 -92 192 -34 227 -37 410 -38 110 -1 288 5 395 12 174
11 236 11 584 -8 227 -12 521 -20 705 -20 295 0 318 1 348 20 67 40 67 88 1
142 -92 73 -161 102 -349 142 -61 14 -118 31 -127 39 -11 9 -71 20 -167 31
-82 9 -208 23 -280 32 -128 15 -191 15 -618 -3 -62 -2 -177 3 -267 11 -209 21
-412 27 -480 15z"/>
<path d="M24160 28974 c-84 -13 -148 -32 -259 -81 -69 -30 -130 -58 -135 -63
-5 -5 -11 -40 -13 -79 l-5 -71 56 -55 c31 -31 72 -63 92 -71 19 -8 102 -52
182 -98 81 -46 224 -123 317 -171 94 -49 305 -159 471 -246 362 -190 428 -220
564 -253 371 -90 354 -88 704 -100 l129 -5 64 62 c64 61 65 62 59 105 -3 24
-34 101 -68 170 -62 126 -64 129 -218 286 -166 169 -277 260 -403 328 -43 24
-101 58 -129 76 -27 17 -54 32 -59 32 -5 0 -40 15 -77 34 -263 132 -649 207
-1048 205 -109 -1 -210 -3 -224 -5z"/>
<path d="M18700 28233 c-293 -3 -732 -22 -1013 -43 -273 -21 -290 -23 -350
-46 -20 -8 -135 -39 -255 -69 -233 -60 -665 -201 -821 -269 -127 -55 -280
-144 -475 -275 -87 -58 -186 -124 -221 -146 -88 -56 -188 -140 -275 -232 -162
-170 -363 -374 -478 -485 -338 -326 -575 -732 -785 -1343 -129 -377 -218 -754
-317 -1345 -45 -268 -47 -313 -14 -318 11 -2 26 3 32 10 6 7 29 117 52 243
106 587 140 754 210 1008 190 691 437 1198 769 1577 257 293 685 709 819 796
48 31 98 69 112 84 33 36 480 302 591 351 48 22 98 39 112 39 14 0 58 12 99
26 265 94 418 142 684 213 165 45 320 81 345 81 25 0 49 4 54 9 30 29 627 54
1295 55 759 1 1112 -22 1683 -109 113 -18 157 -15 157 10 0 36 -91 57 -450
104 -368 49 -1025 80 -1560 74z"/>
<path d="M20830 28031 c0 -10 8 -22 18 -26 9 -3 105 -40 214 -80 108 -41 222
-87 255 -103 32 -16 121 -52 198 -80 216 -77 438 -165 565 -221 336 -151 799
-423 972 -572 162 -139 403 -310 621 -441 319 -191 503 -338 850 -678 256
-250 450 -535 686 -1008 336 -673 497 -1131 581 -1652 32 -205 42 -338 49
-680 6 -323 6 -325 28 -328 13 -2 27 5 37 20 14 19 16 63 16 313 0 370 -17
574 -70 845 -93 474 -248 896 -552 1505 -162 323 -281 523 -452 758 -140 194
-353 417 -535 560 -58 45 -130 105 -160 132 -90 81 -213 165 -411 280 -264
154 -375 231 -565 389 -167 140 -530 362 -855 525 -283 141 -478 219 -929 372
-112 38 -220 78 -240 89 -49 27 -265 100 -296 100 -18 0 -25 -5 -25 -19z"/>
<path d="M12207 25096 c-8 -9 -23 -48 -33 -88 -23 -96 -30 -484 -15 -797 6
-124 18 -482 26 -796 16 -636 22 -764 39 -784 7 -9 13 -136 18 -385 4 -257 11
-388 20 -426 13 -51 15 -55 43 -55 l30 0 -1 60 c-1 33 -7 251 -13 485 -7 234
-13 485 -15 558 -2 101 -6 136 -16 142 -12 7 -16 75 -22 352 -6 316 -16 592
-38 1098 -10 237 -5 406 17 523 12 62 14 93 7 105 -15 23 -29 25 -47 8z"/>
<path d="M29345 24172 c-3 -11 7 -64 23 -119 96 -321 135 -687 136 -1263 1
-690 -76 -1201 -238 -1576 -31 -70 -56 -134 -56 -141 0 -7 9 -17 21 -23 28
-16 43 -1 86 84 141 281 229 707 264 1281 13 211 7 729 -11 940 -23 275 -77
560 -142 760 -20 61 -26 70 -50 73 -19 2 -28 -2 -33 -16z"/>
<path d="M15399 24154 c-148 -26 -299 -93 -424 -186 -39 -29 -83 -60 -99 -68
-41 -21 -132 -124 -176 -200 -100 -172 -132 -245 -137 -313 -6 -73 6 -102 52
-133 23 -15 27 -15 58 5 55 34 153 54 228 47 215 -20 385 -162 464 -391 26
-76 24 -242 -4 -320 -32 -88 -82 -158 -156 -216 -36 -28 -65 -57 -65 -65 0 -8
18 -34 40 -58 34 -36 52 -47 127 -69 213 -64 416 -63 618 4 655 218 895 1003
478 1564 -231 310 -627 468 -1004 399z"/>
<path d="M14698 23142 c-64 -33 -76 -44 -102 -91 -19 -35 -29 -70 -30 -99 l-1
-44 -110 -56 c-208 -104 -738 -350 -850 -394 -141 -56 -419 -210 -442 -245 -8
-13 -21 -23 -28 -23 -18 0 -36 -32 -77 -135 -53 -132 -136 -320 -218 -490 -40
-82 -94 -204 -120 -270 -27 -66 -69 -167 -95 -225 -111 -248 -312 -764 -325
-835 -5 -22 -39 -114 -78 -205 -38 -91 -111 -271 -162 -400 -105 -265 -220
-532 -340 -790 -145 -309 -241 -540 -305 -735 -57 -174 -178 -458 -375 -885
-93 -201 -141 -327 -144 -373 -2 -25 -21 -77 -46 -127 -40 -80 -110 -236 -110
-246 0 -3 5 -2 10 1 6 3 10 4 10 1 0 -6 -373 -864 -452 -1041 -22 -49 -84
-191 -138 -315 -54 -124 -145 -333 -203 -465 -219 -500 -393 -899 -507 -1160
-162 -370 -391 -894 -431 -985 -18 -41 -54 -104 -79 -140 -59 -82 -66 -96 -73
-145 -6 -39 -6 -39 8 -15 20 35 18 19 -4 -38 -11 -27 -27 -102 -36 -168 -8
-65 -34 -218 -55 -339 -46 -256 -77 -487 -119 -890 -84 -813 -112 -1221 -132
-1920 -8 -290 -15 -414 -23 -425 -23 -28 -94 -194 -141 -330 -45 -128 -151
-350 -167 -350 -4 0 -17 -22 -29 -50 l-21 -49 -57 5 c-85 7 -959 62 -1276 79
-594 32 -789 37 -1695 42 -1026 5 -1800 -6 -1837 -26 -30 -15 -30 -56 -2 -71
11 -7 45 -14 75 -17 42 -5 58 -2 72 10 16 15 109 18 883 26 475 6 972 8 1104
5 628 -12 1195 -36 1870 -79 636 -40 712 -44 1130 -50 543 -7 825 -16 831 -26
7 -12 58 -11 70 1 18 18 1027 -19 1379 -50 63 -6 624 -10 1325 -10 1143 0
1486 4 3040 30 344 6 1431 15 2415 20 2036 11 2245 17 2544 80 52 11 105 20
119 20 14 0 152 -36 306 -79 400 -113 688 -174 1298 -276 459 -77 1597 -236
2143 -299 121 -14 470 -55 775 -91 305 -36 749 -88 985 -116 1121 -130 1348
-159 2210 -280 685 -96 1607 -248 2505 -415 283 -52 781 -144 1105 -204 325
-60 761 -141 970 -180 209 -38 648 -119 975 -180 1630 -299 2862 -558 3464
-727 154 -43 169 -49 178 -73 6 -18 34 -42 91 -75 296 -175 552 -483 633 -761
37 -129 -5 -380 -96 -569 -70 -147 -222 -283 -381 -345 -157 -60 -266 -81
-469 -87 -172 -5 -194 -4 -310 20 -69 14 -233 40 -365 57 -235 31 -242 33
-330 75 -186 91 -614 172 -1755 335 -1170 167 -2273 300 -3855 465 -502 52
-968 107 -1635 190 -673 85 -674 85 -1500 201 -333 46 -720 100 -860 120 -534
74 -1787 258 -2310 339 -1015 157 -1977 297 -2445 355 -151 19 -317 46 -420
70 -266 61 -386 80 -582 92 -172 10 -184 10 -203 -7 -20 -18 -23 -17 -123 14
-56 17 -108 31 -114 31 -7 0 -19 13 -28 30 -19 36 -58 41 -75 10 -6 -11 -14
-19 -18 -16 -4 2 -86 11 -182 20 -187 16 -410 27 -1040 51 -437 16 -669 28
-990 50 -467 32 -683 35 -1666 24 -972 -12 -989 -12 -1619 21 -99 6 -443 15
-765 20 -322 6 -675 15 -785 21 -273 14 -1879 22 -2365 11 l-395 -8 -22 23
c-18 19 -30 23 -55 18 -103 -17 -341 -38 -528 -46 -360 -17 -1846 -23 -1991
-9 -68 7 -302 14 -519 16 -217 1 -424 7 -460 13 -90 15 -131 14 -144 -4 -12
-16 -27 -17 -741 -46 -356 -14 -865 -6 -1233 21 -382 28 -583 26 -815 -8 -71
-11 -94 -30 -77 -62 11 -21 17 -22 69 -16 31 3 79 10 106 15 88 17 415 12 698
-11 340 -27 1104 -31 1567 -9 360 17 527 18 1835 3 740 -8 1120 -9 1350 -1
897 30 2813 47 3310 30 378 -13 916 -27 1510 -41 237 -5 565 -17 730 -26 265
-15 414 -16 1275 -8 1050 10 1298 7 1770 -25 343 -23 619 -36 1080 -51 567
-19 1075 -50 1091 -68 3 -4 11 -137 18 -297 6 -159 18 -452 26 -650 8 -198 19
-562 25 -810 12 -553 27 -694 73 -703 33 -7 50 18 42 63 -20 129 -26 234 -35
655 -11 527 -25 905 -45 1290 -8 146 -15 293 -15 327 0 57 1 61 21 56 15 -4
27 1 38 16 l17 22 87 -27 c84 -26 87 -27 107 -9 18 16 34 17 167 12 184 -7
299 -27 706 -121 513 -119 670 -144 722 -116 22 12 91 4 533 -59 279 -40 782
-115 1117 -167 666 -103 1834 -277 2340 -348 1698 -239 1698 -239 2250 -311
842 -109 1426 -179 1870 -225 961 -99 2545 -280 3115 -356 1327 -176 2153
-305 2494 -390 54 -13 101 -24 102 -24 2 0 4 -8 4 -18 0 -44 31 -54 277 -88
131 -19 279 -38 328 -44 50 -6 146 -22 215 -37 118 -24 136 -25 330 -20 213 6
266 14 420 62 170 54 312 148 422 281 75 92 131 222 179 419 24 102 26 268 3
346 -25 83 -98 233 -159 324 -102 154 -324 367 -472 453 -53 31 -63 41 -63 64
0 16 -7 31 -18 37 -37 19 -380 122 -570 170 -184 46 -651 149 -1252 276 -331
69 -1208 240 -1565 305 -154 28 -532 98 -840 155 -742 138 -1530 284 -1900
351 -165 30 -392 72 -505 94 -417 80 -1450 259 -1925 334 -594 94 -1746 250
-2330 316 -148 17 -571 67 -940 111 -368 44 -870 102 -1115 130 -858 97 -1986
254 -2620 365 -527 92 -802 151 -1090 234 -303 87 -403 107 -435 86 -37 -24
-222 -50 -465 -66 -293 -19 -1047 -30 -2095 -30 -1050 0 -2194 -11 -3125 -30
-787 -17 -2990 -23 -3885 -12 l-820 10 -95 35 c-86 31 -102 34 -172 29 l-77
-5 -11 44 c-28 108 -70 236 -176 537 l-114 323 15 182 c26 324 35 533 35 834
0 268 4 333 40 707 44 463 64 704 85 1046 l14 235 66 160 c37 88 120 291 184
450 65 160 183 448 261 640 79 193 187 458 240 590 54 132 152 373 218 535 66
162 179 439 250 615 72 176 187 457 255 625 68 168 192 472 275 675 83 204
203 498 267 655 64 157 150 371 192 475 42 105 82 197 89 205 7 9 29 58 48
110 44 122 150 388 263 660 142 340 186 458 268 720 42 135 105 333 139 440
81 249 298 793 451 1130 32 69 77 178 101 242 24 64 54 139 67 165 13 26 43
98 66 158 52 134 74 184 239 542 148 321 217 453 237 453 8 0 44 21 80 46 64
45 457 238 760 374 77 34 242 109 367 165 l227 103 78 -19 c43 -10 91 -18 107
-19 89 -1 183 67 212 152 23 69 15 230 -14 308 -41 106 -135 186 -271 230 -40
12 -74 27 -77 31 -13 22 -94 8 -166 -29z m185 -67 c184 -48 263 -137 274 -313
7 -105 -11 -171 -53 -199 -33 -21 -52 -4 -24 22 20 18 27 55 13 69 -4 4 -6 38
-4 76 5 113 -36 178 -146 235 -39 20 -72 28 -130 32 -72 4 -80 3 -112 -21 -60
-45 -78 -30 -41 32 13 21 31 35 50 39 17 3 35 14 41 24 12 23 53 25 132 4z"/>
<path d="M14013 22684 c-18 -8 -33 -18 -33 -24 0 -12 56 8 71 26 14 17 4 17
-38 -2z"/>
<path d="M14083 22105 c-8 -23 4 -87 42 -216 19 -64 35 -125 35 -135 0 -44
216 -575 410 -1009 126 -281 196 -414 315 -595 222 -335 454 -558 904 -870
322 -222 615 -372 1056 -538 202 -76 610 -209 798 -261 257 -70 731 -169 760
-158 10 4 17 17 17 31 0 23 -8 28 -67 46 -38 11 -174 42 -303 70 -279 59 -464
109 -735 197 -837 273 -1248 484 -1815 928 -296 232 -532 528 -731 917 -68
135 -273 600 -377 858 -80 199 -206 563 -228 660 -9 36 -20 70 -26 77 -14 18
-47 16 -55 -2z"/>
<path d="M25887 22050 c-14 -11 -31 -20 -39 -20 -7 0 -20 -5 -28 -10 -12 -7
-11 -13 10 -35 22 -23 25 -37 29 -116 4 -111 -13 -295 -36 -374 -9 -33 -17
-76 -17 -95 -1 -31 2 -35 23 -35 19 0 30 10 48 47 31 62 41 119 54 311 10 153
5 240 -16 289 -5 14 0 20 21 28 23 9 25 13 14 20 -22 14 -35 12 -63 -10z"/>
<path d="M25664 21308 c-76 -152 -130 -243 -263 -446 -336 -515 -504 -733
-830 -1080 -195 -209 -328 -324 -848 -735 -118 -93 -138 -121 -107 -144 10 -7
21 -13 25 -13 10 0 380 285 544 419 159 129 523 490 671 665 209 246 425 541
544 741 30 50 64 104 76 120 48 66 160 257 221 378 68 138 77 179 36 185 -19
3 -29 -10 -69 -90z"/>
<path d="M30127 20107 c-31 -43 -69 -124 -122 -258 -135 -341 -214 -491 -344
-651 -39 -48 -71 -94 -71 -102 0 -9 10 -20 21 -27 19 -10 29 -3 93 63 141 144
253 356 400 757 27 72 59 139 81 168 42 55 46 106 9 111 -16 2 -32 -12 -67
-61z"/>
<path d="M12776 19984 c-23 -22 -23 -336 0 -455 44 -236 188 -755 304 -1094
105 -305 162 -436 301 -685 151 -273 365 -837 443 -1168 21 -93 24 -116 13
-132 -10 -17 -5 -41 35 -158 166 -482 212 -962 212 -2207 0 -703 -7 -895 -45
-1260 -26 -253 -56 -414 -180 -955 -159 -694 -216 -1000 -259 -1385 -67 -612
-79 -1328 -27 -1590 11 -57 13 -60 42 -60 29 0 30 1 29 50 0 28 -6 116 -12
197 -27 339 -1 1000 59 1478 45 365 109 693 280 1435 116 503 167 802 183
1090 3 50 8 133 11 185 3 52 11 112 17 132 8 29 8 41 -2 53 -10 12 -13 158
-15 698 -4 854 -23 1256 -76 1586 -18 117 -20 162 -4 109 4 -13 21 -54 38 -91
27 -61 33 -68 56 -65 18 2 27 10 29 24 2 12 -26 100 -61 195 -92 247 -255 751
-363 1119 -15 52 -40 120 -55 150 -15 30 -48 109 -74 175 -61 155 -135 311
-234 494 -109 200 -180 366 -267 626 -103 309 -166 521 -240 815 -73 285 -89
405 -79 571 6 91 5 108 -10 122 -20 21 -29 21 -49 1z"/>
<path d="M22040 18565 c-494 -169 -1095 -286 -1725 -336 -291 -23 -939 -13
-1280 20 -45 5 -88 4 -97 -1 -21 -10 -24 -41 -5 -56 14 -12 290 -37 597 -53
363 -20 819 0 1210 51 397 53 854 145 1007 204 48 19 156 55 239 80 260 80
306 103 275 140 -8 9 -19 16 -25 15 -6 -1 -94 -29 -196 -64z"/>
<path d="M25273 17713 c-60 -82 -182 -245 -270 -363 -310 -416 -512 -620 -802
-812 -216 -143 -530 -265 -1023 -398 -590 -159 -998 -237 -1588 -305 -124 -14
-301 -35 -395 -46 -93 -12 -235 -23 -315 -26 -80 -3 -151 -10 -157 -15 -18
-14 -16 -33 4 -54 15 -15 33 -16 148 -11 147 7 707 65 985 103 486 65 922 157
1470 311 281 78 577 186 747 272 232 116 517 350 738 606 133 155 621 813 625
845 5 32 -1 40 -28 40 -25 0 -42 -18 -139 -147z"/>
<path d="M13970 17775 c-41 -49 61 -316 188 -494 197 -275 640 -688 984 -918
202 -134 455 -244 691 -299 73 -17 78 -17 95 -1 13 13 14 21 6 35 -12 19 -22
23 -198 77 -401 124 -725 340 -1185 790 -313 306 -453 508 -508 734 -19 82
-46 109 -73 76z"/>
<path d="M15188 15943 c6 -2 18 -2 25 0 6 3 1 5 -13 5 -14 0 -19 -2 -12 -5z"/>
<path d="M16440 15530 c20 -13 33 -13 25 0 -3 6 -14 10 -23 10 -15 0 -15 -2
-2 -10z"/>
<path d="M21915 14728 c-456 -159 -879 -261 -1270 -305 -206 -23 -752 -23
-985 1 -294 29 -533 71 -808 142 -234 59 -523 158 -586 199 -51 34 -92 -18
-48 -59 23 -20 149 -71 323 -131 353 -121 699 -193 1119 -231 256 -24 774 -24
993 -1 389 42 799 138 1234 288 216 75 272 102 273 131 0 9 -30 38 -38 37 -4
0 -97 -32 -207 -71z"/>
<path d="M3325 7568 c-90 -50 -144 -151 -233 -438 -144 -466 -198 -761 -172
-926 28 -177 192 -474 354 -641 54 -56 90 -68 101 -33 5 15 -17 48 -85 136
-133 170 -231 345 -276 493 -49 162 18 532 192 1061 57 175 97 248 153 279 48
26 59 44 41 66 -15 18 -47 19 -75 3z"/>
<path d="M20107 7293 c-20 -19 5 -63 118 -213 187 -246 250 -386 275 -608 14
-125 4 -192 -55 -369 -58 -176 -72 -246 -90 -452 -17 -195 -20 -210 -46 -263
-32 -63 -22 -96 25 -84 52 13 88 126 101 316 11 169 33 282 84 442 63 198 75
279 61 414 -22 219 -89 381 -236 575 -47 63 -109 144 -137 182 -49 63 -79 82
-100 60z"/>
<path d="M4038 5250 c-10 -6 -20 -29 -23 -54 -10 -64 13 -1610 26 -1771 13
-157 20 -185 48 -185 39 0 42 19 32 191 -6 90 -15 512 -22 936 -10 620 -9 775
1 788 17 20 4 82 -20 95 -22 12 -21 12 -42 0z"/>
<path d="M36734 2608 c-12 -19 -23 -230 -23 -458 -1 -156 -5 -230 -16 -270
-19 -72 -19 -77 6 -91 18 -9 25 -8 40 7 39 40 47 115 50 466 1 184 -1 340 -5
346 -9 15 -43 15 -52 0z"/>
</g>
</svg>
