<?xml version="1.0" standalone="no"?>
<!DOCTYPE svg PUBLIC "-//W3C//DTD SVG 20010904//EN"
 "http://www.w3.org/TR/2001/REC-SVG-20010904/DTD/svg10.dtd">
<svg version="1.0" xmlns="http://www.w3.org/2000/svg"
 width="4000.000000pt" height="4000.000000pt" viewBox="0 0 4000.000000 4000.000000"
 preserveAspectRatio="xMidYMid meet">

<g transform="translate(0.000000,4000.000000) scale(0.100000,-0.100000)"
fill="#000000" stroke="none">
<path d="M18650 29469 c-127 -22 -255 -119 -309 -234 -92 -195 -156 -507 -182
-880 -12 -180 -7 -346 16 -580 8 -77 21 -216 30 -310 9 -93 25 -224 35 -290
11 -66 27 -181 36 -255 8 -74 26 -184 39 -245 13 -60 28 -144 35 -185 6 -41
29 -156 50 -255 22 -99 58 -277 81 -395 22 -118 55 -262 71 -320 16 -58 43
-166 59 -240 17 -74 41 -178 54 -230 13 -52 40 -174 60 -270 55 -266 102 -473
136 -595 38 -139 43 -165 33 -165 -5 0 -81 -11 -169 -24 -362 -55 -735 -147
-960 -237 -66 -26 -123 -45 -126 -41 -4 4 -25 72 -48 152 -287 991 -1027 2431
-1773 3447 -335 456 -558 702 -848 934 -193 155 -265 184 -438 177 -135 -6
-194 -28 -289 -107 -80 -68 -197 -217 -242 -308 -51 -102 -67 -194 -101 -558
-38 -412 -69 -920 -102 -1660 -15 -349 -15 -1639 0 -1920 12 -234 48 -663 58
-705 4 -14 8 -68 9 -121 l3 -96 -77 -37 c-631 -309 -1197 -849 -1571 -1499
-109 -190 -187 -365 -270 -608 -81 -237 -159 -518 -165 -593 -27 -350 -28
-392 -16 -564 23 -357 89 -638 228 -982 363 -893 1143 -1709 2138 -2235 61
-32 112 -60 114 -62 3 -2 -7 -16 -21 -31 -39 -41 -71 -111 -188 -416 -114
-298 -222 -619 -315 -931 -31 -104 -87 -281 -125 -393 -80 -232 -95 -290 -155
-572 -24 -113 -57 -257 -74 -320 -17 -63 -42 -200 -56 -305 -14 -104 -32 -239
-40 -300 -8 -60 -20 -229 -25 -375 -14 -381 -36 -520 -84 -541 -23 -10 -1202
-364 -1365 -409 -57 -17 -110 -35 -117 -41 -17 -14 -18 -51 -2 -67 18 -18 44
-15 143 17 97 32 218 68 695 211 168 50 364 108 435 130 72 22 153 44 180 50
28 7 64 16 80 22 98 35 177 59 615 190 74 22 200 60 280 84 80 24 597 179
1150 344 1001 300 1206 361 1415 425 61 18 579 174 1153 346 l1044 312 76 -74
c42 -41 118 -111 167 -155 838 -743 1642 -1213 2330 -1363 342 -74 669 -67
925 19 101 34 259 112 344 169 213 144 444 425 505 613 103 324 42 745 -177
1208 -269 570 -824 1194 -1426 1602 -55 38 -106 68 -113 68 -23 0 -52 -37 -46
-60 3 -12 39 -43 82 -72 394 -264 813 -663 1075 -1022 366 -503 556 -978 556
-1391 0 -186 -45 -360 -122 -474 -46 -68 -120 -161 -127 -161 -4 0 -12 27 -19
59 -44 210 -177 515 -265 606 -56 58 -75 65 -101 39 -25 -24 -20 -40 34 -99
79 -87 165 -280 220 -494 43 -167 40 -202 -25 -262 -26 -24 -66 -57 -89 -72
-60 -41 -240 -131 -321 -160 -172 -61 -406 -88 -602 -68 -147 15 -147 15 -137
60 28 119 -11 422 -83 640 -43 128 -62 151 -94 112 -25 -31 -24 -46 11 -149
37 -104 81 -347 83 -452 1 -76 -7 -157 -17 -168 -19 -18 -337 76 -555 165
-649 264 -1416 803 -2026 1424 -666 678 -646 659 -720 696 -90 46 -174 75
-196 68 -21 -7 -32 -35 -24 -57 4 -9 27 -24 53 -33 115 -43 156 -72 246 -172
49 -54 180 -193 292 -309 154 -161 200 -213 186 -217 -20 -5 -1027 -307 -1242
-372 -80 -24 -212 -64 -295 -89 -288 -86 -931 -279 -1040 -311 -186 -55 -651
-194 -835 -250 -96 -29 -260 -79 -365 -110 -104 -31 -257 -77 -340 -101 -82
-25 -217 -66 -300 -91 -82 -24 -215 -64 -295 -88 -580 -175 -753 -226 -755
-223 -1 2 3 36 10 77 7 41 18 194 25 340 6 146 22 354 35 461 13 107 29 240
35 295 6 55 26 163 45 240 51 208 72 302 112 490 24 117 63 253 124 435 49
146 112 342 139 435 51 178 211 658 275 830 21 55 57 152 80 216 54 145 86
208 125 248 l32 31 111 -49 c315 -139 471 -193 932 -325 176 -51 501 -106 805
-137 144 -14 879 -23 1073 -12 123 7 161 13 173 25 23 22 11 64 -18 70 -13 2
-104 0 -203 -5 -209 -10 -795 6 -1035 28 -702 66 -1334 252 -1967 580 -990
511 -1782 1333 -2131 2211 -100 250 -185 581 -211 816 -14 120 -14 463 -1 578
15 134 88 463 132 595 122 364 326 746 570 1066 350 462 821 853 1293 1075 51
24 97 50 104 58 21 25 24 89 8 162 -96 423 -124 1728 -67 3089 12 292 47 912
55 970 3 22 16 163 30 313 43 467 52 502 181 678 67 91 131 146 213 187 61 29
74 32 166 32 91 0 106 -3 165 -31 36 -17 86 -48 111 -70 26 -21 77 -61 115
-89 163 -117 457 -436 715 -775 257 -339 583 -841 852 -1315 266 -469 581
-1113 737 -1505 122 -307 195 -518 251 -725 57 -213 57 -214 83 -221 15 -3 62
11 132 39 383 156 804 241 1704 343 80 9 152 20 161 25 45 24 27 79 -26 79
-56 0 -374 -30 -463 -44 -64 -10 -85 -10 -92 -1 -21 26 -99 339 -164 662 -30
148 -70 337 -90 419 -19 82 -45 192 -56 244 -12 52 -32 133 -45 180 -21 73
-71 307 -179 850 -89 444 -139 797 -186 1295 -6 61 -15 160 -22 221 -14 138
-5 517 16 664 33 233 90 464 145 593 27 62 114 150 177 179 42 20 65 23 169
23 137 -1 206 -19 372 -101 371 -183 886 -669 1354 -1279 683 -889 1303 -1961
1824 -3150 50 -115 97 -224 104 -241 7 -17 40 -54 75 -82 123 -98 167 -109
436 -111 812 -5 1604 -139 2243 -380 711 -269 1293 -700 1669 -1237 232 -333
402 -725 483 -1121 117 -567 76 -1186 -118 -1758 -65 -190 -118 -318 -206
-494 -237 -478 -566 -913 -986 -1304 -1066 -993 -2617 -1651 -4726 -2006 -162
-27 -364 -59 -449 -70 -284 -38 -454 -59 -570 -71 -63 -6 -158 -15 -210 -20
-510 -51 -1218 -72 -1680 -49 -236 11 -255 9 -266 -36 -8 -32 8 -51 47 -59 17
-3 189 -9 382 -12 1203 -22 2692 157 3957 476 732 185 1396 418 1960 689 102
49 105 50 125 32 11 -10 40 -29 65 -43 25 -15 72 -51 105 -80 33 -30 112 -97
175 -148 283 -231 627 -562 751 -723 117 -151 286 -465 375 -696 69 -178 100
-423 98 -786 l0 -200 -46 -183 c-38 -147 -55 -198 -89 -257 -43 -77 -95 -145
-108 -145 -4 0 -15 28 -25 63 -25 90 -116 283 -175 371 -53 79 -213 257 -240
267 -25 10 -51 -9 -51 -36 0 -17 23 -50 71 -101 100 -109 163 -202 226 -334
56 -117 103 -260 103 -310 0 -29 -27 -56 -200 -201 -253 -213 -549 -342 -820
-356 l-85 -5 -1 124 c-1 157 -30 303 -91 458 -52 132 -95 201 -175 283 -50 51
-61 58 -90 55 -58 -5 -50 -37 33 -126 77 -82 112 -145 167 -302 35 -101 62
-274 62 -399 l0 -91 -50 0 c-70 0 -179 24 -350 76 -299 92 -478 207 -704 452
-78 84 -150 155 -160 158 -13 5 -26 -1 -38 -16 -23 -29 -17 -41 86 -154 168
-187 212 -228 330 -312 148 -106 257 -159 446 -217 195 -61 270 -75 435 -82
218 -10 416 21 603 95 345 135 808 540 923 806 27 64 95 349 109 455 14 114
13 223 -5 429 -21 246 -32 334 -55 423 -29 117 -145 383 -236 542 -43 77 -80
143 -82 147 -4 8 -38 -2 1033 319 462 138 861 258 888 265 47 15 47 15 47 59
0 25 -3 45 -7 45 -7 0 -647 -191 -1198 -357 -137 -41 -293 -88 -345 -103 -52
-16 -178 -53 -280 -84 -102 -31 -190 -56 -196 -56 -6 0 -33 33 -61 73 -28 39
-89 115 -136 168 -82 91 -368 357 -541 502 -44 38 -136 116 -204 173 -68 58
-141 116 -163 131 -21 14 -39 28 -39 32 0 3 51 33 113 65 366 193 803 490
1112 756 831 716 1356 1570 1529 2490 108 575 76 1132 -96 1669 -117 367 -320
735 -571 1036 -86 103 -347 358 -454 442 -363 289 -776 508 -1258 668 -613
205 -1253 304 -2070 321 -238 5 -306 10 -330 22 -37 19 -135 94 -135 104 0 11
-120 288 -213 493 -856 1879 -2008 3508 -2912 4116 -122 82 -332 184 -430 209
-95 24 -229 33 -305 19z"/>
<path d="M19732 25888 c-16 -16 -15 -39 3 -101 48 -169 48 -817 0 -1134 -16
-111 -10 -133 35 -133 33 0 45 16 54 75 67 413 55 1203 -20 1286 -19 22 -54
25 -72 7z"/>
<path d="M20425 25310 c-3 -5 -7 -159 -7 -342 l-2 -333 29 0 c56 0 60 24 60
350 0 312 -3 335 -50 335 -13 0 -27 -4 -30 -10z"/>
<path d="M16170 25100 c-10 -19 -2 -43 58 -168 131 -275 188 -457 277 -877 19
-93 42 -189 51 -212 16 -45 45 -63 69 -43 21 18 19 56 -14 220 -87 431 -181
721 -324 995 -44 85 -56 100 -79 103 -19 2 -30 -3 -38 -18z"/>
<path d="M21061 25031 c-7 -5 -17 -32 -22 -60 -4 -29 -31 -100 -59 -159 -29
-59 -52 -117 -52 -130 -1 -32 16 -46 46 -38 20 5 36 26 70 95 80 158 103 253
70 285 -17 18 -32 20 -53 7z"/>
<path d="M15770 24231 c-33 -22 -14 -78 81 -244 107 -188 152 -253 180 -262
24 -8 49 11 49 37 0 10 -48 98 -106 195 -59 97 -116 197 -127 222 -26 60 -44
72 -77 52z"/>
<path d="M15232 23888 c-22 -22 -13 -55 35 -124 122 -181 168 -221 203 -179
18 21 6 44 -92 178 -103 141 -117 154 -146 125z"/>
<path d="M23160 23304 c-14 -2 -65 -9 -115 -15 -117 -14 -366 -78 -483 -123
-687 -265 -1200 -844 -1372 -1549 -51 -207 -63 -312 -63 -542 0 -147 5 -242
17 -316 80 -510 305 -963 655 -1317 197 -198 386 -335 641 -461 419 -207 843
-282 1315 -230 128 14 127 13 123 62 -3 41 -4 42 -38 41 -19 0 -86 -7 -149
-14 -294 -33 -649 11 -961 121 -638 225 -1152 735 -1379 1369 -85 237 -121
431 -128 692 -6 204 7 334 53 541 121 546 482 1044 972 1341 237 143 260 143
122 -1 -130 -135 -205 -235 -297 -396 -120 -210 -215 -506 -244 -756 -15 -132
-7 -456 15 -568 134 -714 593 -1254 1226 -1441 131 -39 204 -52 350 -62 480
-33 944 141 1303 489 116 113 182 191 272 326 233 347 357 821 325 1240 -10
133 -55 381 -85 465 -8 24 -13 45 -11 48 8 7 96 -135 157 -253 104 -200 183
-429 226 -659 26 -136 25 -592 0 -730 -90 -479 -326 -909 -667 -1214 -212
-190 -399 -305 -688 -422 -18 -8 -21 -15 -16 -37 15 -64 17 -65 91 -37 172 65
403 199 570 331 94 74 271 251 348 348 225 281 392 648 450 989 52 306 42 668
-26 941 -111 441 -315 802 -634 1120 -367 366 -848 602 -1368 670 -106 13
-433 19 -507 9z"/>
<path d="M17490 21964 c-111 -13 -260 -40 -385 -69 -168 -39 -483 -183 -665
-303 -280 -187 -505 -421 -671 -701 -187 -313 -280 -631 -295 -1006 -40 -965
563 -1872 1506 -2266 293 -122 566 -182 892 -195 133 -5 352 5 362 17 1 2 1
22 -1 44 l-5 40 -207 -3 c-114 -3 -254 1 -310 7 -442 48 -869 217 -1219 481
-432 326 -728 763 -858 1265 -49 189 -64 311 -64 525 0 349 66 624 224 938
145 287 404 576 691 769 74 50 265 156 271 151 2 -3 -27 -38 -64 -79 -168
-185 -275 -345 -370 -554 -112 -248 -168 -486 -179 -755 -19 -483 159 -958
482 -1284 312 -315 714 -480 1170 -478 771 2 1490 518 1790 1285 57 147 110
361 126 513 14 143 7 380 -16 512 -9 52 -14 96 -11 99 10 11 168 -244 230
-372 112 -229 177 -449 211 -710 56 -438 -52 -925 -293 -1312 -195 -315 -487
-581 -824 -754 -111 -56 -309 -138 -371 -153 -26 -6 -28 -10 -25 -49 3 -41 4
-42 38 -41 43 2 200 59 338 125 593 280 1032 808 1181 1422 41 168 49 220 61
385 26 363 -47 742 -207 1087 -123 263 -270 473 -483 686 -142 143 -223 209
-399 327 -472 315 -1105 471 -1651 406z"/>
</g>
</svg>
